/* XPM */
static char * greg_skin_xpm[] = {
"24 24 5 1",
" 	c None",
".	c #000000",
"+	c #FFF3E2",
"@	c #FFE3BC",
"#	c #A39178",
"                        ",
"       .........        ",
"     ..+++++++++..      ",
"    .++++@@@@@@@@@.     ",
"   .++@@@@@@@@@@@@@..   ",
"  .++@@@@@@@@@@@@@@@#.  ",
"  .+@@@@@@@@@@@@@@@@@#. ",
" .++@@@@@@@@@@@@@@@@@#. ",
" .+@@@@@@@@@@@@@@@@@@#. ",
" .+@@@@@@@@@@@@@@@@@@#. ",
" .+@@@@@@@@@@@@@@@@@@#. ",
" .+###@@@@@@@@@#@@@@@#. ",
" .#####@@@@@@@#@#@@@@#. ",
"  .###@@@@@@@@@#@#@@@#. ",
"  .#@@@@@@@@@@@#@#@@@#. ",
" .++@@@@@@@@@@#@#@@@#.  ",
".++@@@@@@@@@@@@#@@@@#.  ",
".+@@@#@@@@@@@@#@@@@@#.  ",
".####@@@@@@@@@@@@@@#.   ",
"....+@@@@@@@@@@@@@@#.   ",
"    .+@@@@@@@@@@@@@#.   ",
"    .+@@@@@@@@@@@@@#.   ",
"                        ",
"                        "};
