/* XPM */
static char * greg_redmask_xpm[] = {
"24 24 8 1",
" 	c None",
".	c #000000",
"+	c #424242",
"@	c #939393",
"#	c #E0E0E0",
"$	c #FF0000",
"%	c #934A48",
"&	c #E0716D",
"                        ",
" ...................... ",
" .+++++++++++@@@@@@###. ",
" .++++++++++@@@@@@@###. ",
" .++++++@$$$$$$@@@@###. ",
" .+++@@$$$%%%%$$$@@###. ",
" .+++@$$%%%%%%%%$$####. ",
" .++@$$%%%%%%%%%%$$###. ",
" .++@$%%%%%%%%%%&&$###. ",
" .++$$%%%%&&&&&&&&$$##. ",
" .++$%%%%&&&&&&&&&&$##. ",
" .+@$%%%&&&&&&&&&&&$##. ",
" .+@$%%%&&&&&&&&&&&$##. ",
" .+@$%%%&&&&&&&&&&&$##. ",
" .+@$$%%&&&&&&&&&&$$##. ",
" .@@@$%%&&&&&&&&&&$###. ",
" .@@@$$%&&&&&&&&&$$###. ",
" .@@@@$$&&&&&&&&$$####. ",
" .@@@@@$$$&&&&$$$#####. ",
" .##@@###$$$$$$#######. ",
" .####################. ",
" .####################. ",
" ...................... ",
"                        "};
