/* XPM */
static char * greg_brain_xpm[] = {
"24 24 5 1",
" 	c None",
".	c #000000",
"+	c #FFF3C3",
"@	c #B3A364",
"#	c #E6D181",
"                        ",
"                        ",
"                        ",
"                        ",
"                        ",
"                        ",
"         .......        ",
"       ..+++++++..      ",
"      .++++++++++@.     ",
"     .++++++++++++@.    ",
"    .++++++++++++++@.   ",
"    .+++++++#++++++@.   ",
"    .#+++++#@#+++++@.   ",
"     .@@@@@@.@+++++@.   ",
"      ......@#++++#@.   ",
"         .@@#++++#@.    ",
"         .##++##@@.     ",
"          ...@@@..      ",
"            .....       ",
"                        ",
"                        ",
"                        ",
"                        ",
"                        "};
