/* XPM */
static char * greg_gray_xpm[] = {
"24 24 5 1",
" 	c None",
".	c #000000",
"+	c #424242",
"@	c #939393",
"#	c #E0E0E0",
"                        ",
" ...................... ",
" .+++++++++++@@@@@@###. ",
" .++++++++++@@@@@@@###. ",
" .++++++@@@@@@@@@@@###. ",
" .+++@@@@@@@@@@@@@@###. ",
" .+++@@@@@@@@@@@@@####. ",
" .++@@@@@@@@@@@@@#####. ",
" .++@@@@@@@@@@@@######. ",
" .++@@@@@@############. ",
" .++@@@@@#############. ",
" .+@@@@@##############. ",
" .+@@@@@##############. ",
" .+@@@@@##############. ",
" .+@@@@@##############. ",
" .@@@@@@##############. ",
" .@@@@@@##############. ",
" .@@@@@@##############. ",
" .@@@@@###############. ",
" .##@@################. ",
" .####################. ",
" .####################. ",
" ...................... ",
"                        "};
