/* XPM */
static char * greg_checkers_xpm[] = {
"24 24 8 1",
" 	c None",
".	c #000000",
"+	c #424242",
"@	c #BDBDBD",
"#	c #6C6C6C",
"$	c #1F1F1F",
"%	c #939393",
"&	c #E0E0E0",
"                        ",
" ...................... ",
" .++++++++++@######$$$. ",
" .++++++++++#######$$$. ",
" .++++++%%%%#######$$$. ",
" .+++%%%%%%%#######$$$. ",
" .+++%%%%%%%######$$$$. ",
" .++%%%%%%%%#####$$$$$. ",
" .++%%%%%%%%####$$$$$$. ",
" .++%%%%%%&&$$$$$$$$$$. ",
" .++%%%%%&&&$$$$$$$$$$. ",
" .+%%%%%&&&&$$$$$$$$$$. ",
" .@#####$$$$&&&&&&&&&&. ",
" .@#####$$$$&&&&&&&&&&. ",
" .@#####$$$$&&&&&&&&&&. ",
" .######$$$$&&&&&&&&&&. ",
" .######$$$$&&&&&&&&&&. ",
" .######$$$$&&&&&&&&&&. ",
" .#####$$$$$&&&&&&&&&&. ",
" .$$##$$$$$$&&&&&&&&&&. ",
" .$$$$$$$$$$&&&&&&&&&&. ",
" .$$$$$$$$$$&&&&&&&&&&. ",
" ...................... ",
"                        "};
