/* XPM */
static char * greg_hnorm_xpm[] = {
"24 24 8 1",
" 	c None",
".	c #000000",
"+	c #FFFFFF",
"@	c #FF0000",
"#	c #FFD6D6",
"$	c #B30000",
"%	c #800000",
"&	c #071786",
"                        ",
" ...................... ",
" .+++@############@+++. ",
" .+++@############@+++. ",
" .+++@############@+++. ",
" .+++@############@+++. ",
" .+++@############@+++. ",
" .+++@############@+++. ",
" .+++@############@+++. ",
" .+++@############@+++. ",
" .+++@#$$$########@+++. ",
" .+++@$$$$$#######@+++. ",
" .+++@$$$$$#######@+++. ",
" .+++@$$$$$$$$$###@+++. ",
" .+++@$$$$$$$$$$$$@+++. ",
" .+++%$$$$$$$$$$$$%&++. ",
" .+++%$$$$$$$$$$$$%&++. ",
" .++&%$$$$$$$$$$$$%&++. ",
" .+&&%$$$$$$$$$$$$%&&+. ",
" .&&&%$$$$$$$$$$$$%&&&. ",
" .&&&%$$$$$$$$$$$$%&&&. ",
" .&&&%$$$$$$$$$$$$%&&&. ",
" ...................... ",
"                        "};
