/* XPM */
static char * greg_3d_xpm[] = {
"24 24 15 1",
" 	c None",
".	c #000000",
"+	c #FFF3E2",
"@	c #FFE3BC",
"#	c #998870",
"$	c #FFE9BE",
"%	c #A39178",
"&	c #E0C998",
"*	c #F5DBA4",
"=	c #615748",
"-	c #C7B896",
";	c #9B8972",
">	c #BDAA7B",
",	c #A99870",
"'	c #9E8C74",
"                        ",
"                        ",
"       .........        ",
"     ..+++++++++..      ",
"    .++++@@@@@@@@@.     ",
"   .++@@@#######@@@..   ",
"  .++@@##$$$$$$$##@@%.  ",
"  .+@@#$$$$$$$$$$&#@@%. ",
" .++@#$$$$$$$$$$$$&#@%. ",
" .+@#$$$$$$$$$$$$$$&#%. ",
" .+@#$$$$$$$*$$$$$$&#%. ",
" .+@#*$$$$$*&*$$$$$&#%. ",
" .+%%=&&&&&&#&$-$$$&#%. ",
" .%%%%=#####&*-$-$*&;%. ",
"  .%%%@@@#&&*$$-$>&#@%. ",
"  .%@@@@@#**$$*>&,#@@%. ",
" .++@@@@@@###&,&=#@@%.  ",
".++@@@@@@@@@##'=#@@@%.  ",
".+@@@%@@@@@@@@%@@@@@%.  ",
".%%%%@@@@@@@@@@@@@@%.   ",
" ...+@@@@@@@@@@@@@@%.   ",
"    .+@@@@@@@@@@@@@%.   ",
"    .+@@@@@@@@@@@@@%.   ",
"                        "};
