/* XPM */
static char * greg_yp_xpm[] = {
"24 24 112 2",
"  	c None",
". 	c #000000",
"+ 	c #5B0C5F",
"@ 	c #9F4FA3",
"# 	c #EDEBD5",
"$ 	c #A761A5",
"% 	c #E0D5CA",
"& 	c #EBE7D1",
"* 	c #AD7D9A",
"= 	c #CBBE9B",
"- 	c #E7E4CB",
"; 	c #A16799",
"> 	c #B09E86",
", 	c #BEB783",
"' 	c #C0AF8C",
") 	c #CBC299",
"! 	c #E2DEC1",
"~ 	c #AE9889",
"{ 	c #C8C287",
"] 	c #C9C387",
"^ 	c #C7C086",
"/ 	c #CDC793",
"( 	c #E0DDBC",
"_ 	c #A056A0",
": 	c #A26B97",
"< 	c #A7848E",
"[ 	c #BCB484",
"} 	c #CAC58D",
"| 	c #D4CFA0",
"1 	c #9F56A0",
"2 	c #A98A8C",
"3 	c #B8AE84",
"4 	c #C9C389",
"5 	c #D0CB98",
"6 	c #A9898D",
"7 	c #C4BF85",
"8 	c #C9C48D",
"9 	c #D3CEA0",
"0 	c #AD9789",
"a 	c #C9C38B",
"b 	c #CEC996",
"c 	c #DEDBB8",
"d 	c #A37195",
"e 	c #C9C38D",
"f 	c #CCC792",
"g 	c #CFCA95",
"h 	c #CAC58B",
"i 	c #CFCA98",
"j 	c #D6D1A6",
"k 	c #E4E1C4",
"l 	c #AF9C87",
"m 	c #C9C388",
"n 	c #CCC690",
"o 	c #D1CC9E",
"p 	c #D7D3AC",
"q 	c #DDDAB7",
"r 	c #E5E1C4",
"s 	c #DFDBB9",
"t 	c #DDD9B6",
"u 	c #E2DFC1",
"v 	c #EAE8D0",
"w 	c #B3A585",
"x 	c #CEC992",
"y 	c #DBD7B1",
"z 	c #DCD9B8",
"A 	c #E0DDC1",
"B 	c #E5E3CB",
"C 	c #E8E6D0",
"D 	c #E7E4CE",
"E 	c #E8E6CF",
"F 	c #EAE7D0",
"G 	c #B1A185",
"H 	c #CBC58C",
"I 	c #E2E0C1",
"J 	c #E4E1C3",
"K 	c #E5E3CA",
"L 	c #E7E5CD",
"M 	c #EAE8D2",
"N 	c #EBE9D3",
"O 	c #AE9988",
"P 	c #C9C38A",
"Q 	c #CEC997",
"R 	c #DCD9B5",
"S 	c #E2E0C3",
"T 	c #E8E6CE",
"U 	c #EBE9D2",
"V 	c #ECEAD4",
"W 	c #AA8C8B",
"X 	c #CCC68E",
"Y 	c #DAD6AE",
"Z 	c #E5E3CD",
"` 	c #E9E7D0",
" .	c #A05D9D",
"..	c #C5C085",
"+.	c #CDC892",
"@.	c #DCD9B3",
"#.	c #E4E2CA",
"$.	c #AC878F",
"%.	c #C5BB89",
"&.	c #CAC58E",
"*.	c #D1CC9B",
"=.	c #E0DDBE",
"-.	c #E9E7CF",
";.	c #AD6FA5",
">.	c #C9C092",
",.	c #D3CFA0",
"'.	c #E1DEBE",
").	c #E6E3C8",
"!.	c #EBE8D2",
"~.	c #E5DDCD",
"{.	c #E6E0CC",
"].	c #E8E5CB",
"                                                ",
"  . . . . . . . . . . . . . . . . . . . . . .   ",
"  . + + + + + + + + + + + @ @ @ @ @ @ # # # .   ",
"  . + + + + + + + + + + @ @ @ @ @ @ $ % & # .   ",
"  . + + + + + + @ @ @ @ @ @ @ @ @ @ * = - # .   ",
"  . + + + @ @ @ @ @ @ @ @ @ @ ; > , ' ) ! # .   ",
"  . + + + @ @ @ @ @ @ @ @ @ ~ { ] ] ^ / ( # .   ",
"  . + + @ @ @ @ @ @ _ : < [ ] ] ] ] ] } | # .   ",
"  . + + @ @ @ 1 2 3 { ] ] ] ] ] ] ] ] 4 5 # .   ",
"  . + + @ @ 6 7 ] ] ] ] ] ] ] ] ] ] ] 8 9 # .   ",
"  . + + @ 0 ] ] ] ] ] ] ] ] ] ] ] ] a b c # .   ",
"  . + @ d ] ] ] ] ] ] ] ] e f g ] h i j k # .   ",
"  . + @ l ] ] ] ] ] ] m n o p q r s t u v # .   ",
"  . + @ w ] ] ] ] ] ] x y z A B C D E F # # .   ",
"  . + @ G ] ] ] ] ] H I J K L M M M M N # # .   ",
"  . @ @ O ] ] ] P Q R S L T U # V V V # # # .   ",
"  . @ @ W ] ] ] X Y I Z ` M V # # # # # # # .   ",
"  . @ @  ...] ] +.@.#.T N N V # # # # # # # .   ",
"  . @ @ @ $.%.&.*.=.-.M # # # # # # # # # # .   ",
"  . # # @ ;.>.,.'.).!.V # # # # # # # # # # .   ",
"  . # # # ~.{.k ].F V # # # # # # # # # # # .   ",
"  . # # # # # # # # # # # # # # # # # # # # .   ",
"  . . . . . . . . . . . . . . . . . . . . . .   ",
"                                                "};
