/* XPM */
static char * greg_hmatch_xpm[] = {
"24 24 35 1",
" 	c None",
".	c #000000",
"+	c #FFFFFF",
"@	c #F9F9FD",
"#	c #A4ABDE",
"$	c #22319C",
"%	c #98A0D9",
"&	c #CBCFED",
"*	c #0D1C8C",
"=	c #071786",
"-	c #858ED1",
";	c #DEE1F4",
">	c #B1B7E3",
",	c #A2A9DD",
"'	c #A7ADDF",
")	c #D9DCF2",
"!	c #4F5CB7",
"~	c #122190",
"{	c #E1E4F5",
"]	c #F3F4FB",
"^	c #A9B0E0",
"/	c #2D3BA3",
"(	c #3341A6",
"_	c #E4E6F6",
":	c #E7E9F7",
"<	c #0E1E8D",
"[	c #616CC0",
"}	c #5B66BD",
"|	c #1E2D99",
"1	c #AEB4E2",
"2	c #838CD0",
"3	c #4451B1",
"4	c #C0C5E8",
"5	c #414EAF",
"6	c #9A9A9A",
"                        ",
" ...................... ",
" .++++++++++++++++++++. ",
" .++++++++++++++++++++. ",
" .@@@@#$%@@@@@@@@@@@@@. ",
" .@@@&*==-@@@@;>,')@@@. ",
" .@@@!===~{]{^/===(_@@. ",
" .@@:<====[}<======|1@. ",
" .@@2================3. ",
" .45==================. ",
" .====================. ",
" .66666666666666666666. ",
" .++++++++++++++++++++. ",
" .++++++++++++++++++++. ",
" .++++++++++++++++++++. ",
" .@@@@#$%@@@@@@@@@@@@@. ",
" .@@@&*==-@@@@;>,')@@@. ",
" .@@@!===~{]{^/===(_@@. ",
" .@@:<====[}<======|1@. ",
" .@@2================3. ",
" .45==================. ",
" .====================. ",
" ...................... ",
"                        "};
