/* XPM */
static char * greg_rg_xpm[] = {
"24 24 31 1",
" 	c None",
".	c #000000",
"+	c #004221",
"@	c #009349",
"#	c #E00070",
"$	c #039049",
"%	c #2A6951",
"&	c #098A4B",
"*	c #425152",
"=	c #80134D",
"-	c #930049",
";	c #11824D",
">	c #534052",
",	c #8E054A",
"'	c #227150",
")	c #5C3752",
"!	c #8E054B",
"~	c #02914A",
"{	c #722150",
"]	c #0E854C",
"^	c #6D2651",
"/	c #840F4C",
"(	c #5C3751",
"_	c #90034A",
":	c #167D4E",
"<	c #2B6850",
"[	c #3A5952",
"}	c #4D4653",
"|	c #3D5652",
"1	c #12814D",
"2	c #4F4453",
"                        ",
" ...................... ",
" .+++++++++++@@@@@@###. ",
" .++++++++++@@@@@$%###. ",
" .++++++@@@@@@@&*=-###. ",
" .+++@@@@@@@@;>,---###. ",
" .+++@@@@@@')!----####. ",
" .++@@@@~%{------#####. ",
" .++@@@]^-------######. ",
" .++@@]/--############. ",
" .++@@(--#############. ",
" .+@@$_-##############. ",
" .+@@:--##############. ",
" .+@@<--##############. ",
" .+@@[--##############. ",
" .@@@}--##############. ",
" .@@@|--##############. ",
" .@@@1_-##############. ",
" .@@@@2###############. ",
" .##@@################. ",
" .####################. ",
" .####################. ",
" ...................... ",
"                        "};
