/* XPM */
static char * greg_reg_msgd_xpm[] = {
"24 24 8 1",
" 	c None",
".	c #000000",
"+	c #FFF3C3",
"@	c #B3A364",
"#	c #E6D181",
"$	c #FFC3C6",
"%	c #E68287",
"&	c #B36568",
"                        ",
"                        ",
"           .......      ",
"         ..+++++++..    ",
"        .++++++++++@.   ",
"       .++++++++++++@.  ",
"      .++++++++++++++@. ",
"      .+++++++#++++++@. ",
"      .#+++++#@#+++++@. ",
"    ..$.@@@@@@.@+++++@. ",
"   .$$$$......@#++++#@. ",
"  .$$$$$$$$.@@#++++#@.  ",
" .$$$$$$$$$.##++##@@.   ",
" .$$$$$$$%$$...@@@..    ",
" .%$$$$$%&%$$$.....     ",
"  .&&&&&&.&$$$$$&.      ",
"   ......&%$$$$%&.      ",
"      .&&%$$$$%&.       ",
"      .%%$$%%&&.        ",
"       ...&&&..         ",
"         .....          ",
"                        ",
"                        ",
"                        "};
