/* XPM */
static char * greg_mask_xpm[] = {
"24 24 4 1",
" 	c None",
".	c #009449",
"+	c #FF0000",
"@	c #FF6B6B",
"             .          ",
"             .          ",
"           ++++         ",
"         +++@.@+        ",
"     ++++@@@@.@@+       ",
"   +++@@@@@@@.@@+       ",
"   +@@@@@@@@@.@@++      ",
"  ++@@@@@@@@@.@@@@++    ",
"  +@@@@@@@@@@.@@@@@++   ",
"  +@@@@@@@@@@.@@@@@@++  ",
"...+.........+.......+..",
"    ++@@@@@@@.@@@@@@@+  ",
"      ++@@@@@.@@@@@@@+  ",
"        +@@@@.@@@@@++   ",
"        +@@@@.@@@@+     ",
"       ++@@@@.@@@++     ",
"       +@@@@@.@@@+      ",
"       +@@@@@.@@@++     ",
"       ++@@@@.@@@++     ",
"        ++@@@.@@@+      ",
"         +++@.@@@+      ",
"            +++++       ",
"             .          ",
"             .          "};
