/* XPM */
static char * greg_mask3d_xpm[] = {
"24 24 8 1",
" 	c None",
".	c #000000",
"+	c #FFF3C3",
"@	c #B3A364",
"#	c #E6D181",
"$	c #DA3E45",
"%	c #FFC3C6",
"&	c #FF6970",
"                        ",
"                        ",
"                        ",
"                        ",
"                        ",
"                        ",
"         .......        ",
"       ..+++++++..      ",
"      .++++++++++@.     ",
"     .++++++++++++@.    ",
"    .++++++++++++++@.   ",
"    .+++++++#++++++@.   ",
"    .#+++++#@..++++@.   ",
"     .@@@@@@.$%.+++@.   ",
"      ......$&%%...@.   ",
"         .$$&%%%%&$.    ",
"         .&&%%&&$$.     ",
"          ...$$$..      ",
"            .....       ",
"                        ",
"                        ",
"                        ",
"                        ",
"                        "};
