/* XPM */
static char * greg_maskonly_xpm[] = {
"24 24 4 1",
" 	c None",
".	c #000000",
"+	c #939393",
"@	c #E0E0E0",
"                        ",
" ...................... ",
" ...................... ",
" ...................... ",
" ...................... ",
" .........++++......... ",
" .......++++++++....... ",
" ......++++++++++...... ",
" .....++++++++++@@..... ",
" .....++++@@@@@@@@..... ",
" ....++++@@@@@@@@@@.... ",
" ....+++@@@@@@@@@@@.... ",
" ....+++@@@@@@@@@@@.... ",
" ....+++@@@@@@@@@@@.... ",
" .....++@@@@@@@@@@..... ",
" .....++@@@@@@@@@@..... ",
" ......+@@@@@@@@@...... ",
" .......@@@@@@@@....... ",
" .........@@@@......... ",
" ...................... ",
" ...................... ",
" ...................... ",
" ...................... ",
"                        "};
