/* XPM */
static char * auto0_xpm[] = {
"32 32 3 1",
" 	c None",
".	c #000000",
"+	c #C0C0C0",
"................................",
".++++++++++++++++++++++++++++++.",
".++++++++++++++++++++++++++++++.",
".++++++++++++++++++++++++..++++.",
".++++++++++++++++++++++++++..++.",
".++++++++++++++++++++++++++++.+.",
".+++++++++++++++++++++++..+++++.",
".+++++++++++.........+++++..+++.",
".++++++++....+++++++....++++.++.",
".++++++...+++++++++++++...+++++.",
".+++++..+++++++++++++++++..++++.",
".++++..+++++++++++++++++++..+++.",
".+++..+++++++++++++++++++++..++.",
".+++.++++++++++++++..+++++++.++.",
".++..+++++++++++++....++++++..+.",
".++.++++++++++++++....+++++++.+.",
".++.+++++++++++++++..++++++++.+.",
".++.+++++++++++++++++++++++++.+.",
".++..+++++++++++++++++++++++..+.",
".+++.+++++++++++++++++++++++.++.",
".+++..+++++++++++++++++++++..++.",
".++++..+++++++++++++++++++..+++.",
".+++++..+++++++++++++++++..++++.",
".++++++...+++++++++++++...+++++.",
".++++++++....+++++++....+++++++.",
".+++++++++++.........++++++++++.",
".++++++++++++++++++++++++++++++.",
".++++++++++++++++++++++++++++++.",
".++++++++++++++++++++++++++++++.",
".++++++++++++++++++++++++++++++.",
".++++++++++++++++++++++++++++++.",
"................................"};
