/* XPM */
static char * manual1_xpm[] = {
"32 32 5 1",
" 	c #000000",
".	c #DDF289",
"+	c #FEFEFD",
"@	c #B0D617",
"#	c #F7FCE3",
"                                ",
" .............................. ",
" .............................. ",
" .............................. ",
" .............................. ",
" ....       ................... ",
" .... +++++ ................... ",
" .... @...+ ................... ",
" .... @...+ ................... ",
" .... @...+ ................... ",
" .... @...+ ......... ......... ",
" .... @...+ ......... ......... ",
" .... @...+ ......... ......... ",
" .... @...+ ......       ...... ",
" .... @...+ ......... ......... ",
" .... @...+ ......... ......... ",
" .... @...+ ......... ......... ",
" .... @...+ ................... ",
" .... @@@@+ ................... ",
" ....       ................... ",
" .... ##### ......       ...... ",
" ..... ### .................... ",
" ..... ### .................... ",
" ......   ..................... ",
" ......   ..................... ",
" ....... ...................... ",
" .............................. ",
" .............................. ",
" .............................. ",
" .............................. ",
" .............................. ",
"                                "};
