/* XPM */
static char * pan1_xpm[] = {
"32 32 3 1",
" 	c #000000",
".	c #E1F39A",
"+	c #C3E831",
"                                ",
" .............................. ",
" .............................. ",
" .............................. ",
" ..............++.............. ",
" .............+  +............. ",
" ............+    +............ ",
" ...........+      +........... ",
" ..............  .............. ",
" ..............  .............. ",
" ..............  .............. ",
" ......+.......  .......+...... ",
" .....+ .......  ....... +..... ",
" ....+  .......  .......  +.... ",
" ...+                      +... ",
" ...+                      +... ",
" ....+  .......  .......  +.... ",
" .....+ .......  ....... +..... ",
" ......+.......  .......+...... ",
" ..............  .............. ",
" ..............  .............. ",
" ..............  .............. ",
" ..............  .............. ",
" ...........+      +........... ",
" ............+    +............ ",
" .............+  +............. ",
" ..............++.............. ",
" .............................. ",
" .............................. ",
" .............................. ",
" .............................. ",
"                                "};
