/* XPM */
static char * zoom1_xpm[] = {
"32 32 7 1",
" 	c #000000",
".	c #E1F39A",
"+	c #BBE419",
"@	c #E6F5A8",
"#	c #FEFEFD",
"$	c #F7FCE5",
"%	c #C9EA47",
"                                ",
" .............................. ",
" .............................. ",
" .............................. ",
" ..........      .............. ",
" ........   ....   ............ ",
" .......  ........  ........... ",
" ......  ..........  .......... ",
" .....  +......@#$@.  ......... ",
" ..... +.......$##$.. ......... ",
" ....  +.......$##$..  ........ ",
" .... ++.......@#$@... ........ ",
" .... ++.............. ........ ",
" .... +++............. ........ ",
" ....  ++............  ........ ",
" ..... +++........... ......... ",
" .....  ++.........+  ......... ",
" ......  +++....+++  .......... ",
" .......  ++++++++  % ......... ",
" ........   ++++   %%% ........ ",
" ..........      .. %%% ....... ",
" ................... %%% ...... ",
" .................... %%% ..... ",
" ..................... %%% .... ",
" ...................... %%% ... ",
" ....................... % .... ",
" ........................ ..... ",
" .............................. ",
" .............................. ",
" .............................. ",
" .............................. ",
"                                "};
