/* XPM */
static char * normal0_xpm[] = {
"32 32 3 1",
" 	c None",
".	c #000000",
"+	c #C9C9C9",
"................................",
".++++++++++++++++++++++++++++++.",
".+++++++++++++++++.++++++++++++.",
".++++++++++++++++...+++++++++++.",
".+++++++++++++++.....++++++++++.",
".++++++++++++++++...+++++++++++.",
".++++++++++++++++..++++++++++++.",
".+++++++++++++++.++++++++++++++.",
".+++++++++++.++.+++++++++++++++.",
".++++++++++....++++++++++++++++.",
".+++++++++.....++++++++++++++++.",
".++++++++++....++++++++++++++++.",
".+++++++++++.++.+++++++++++++++.",
".+++++++++++++++.++++++++++++++.",
".++++++++++++++++.+++++++++++++.",
".+++++++++++++++++.++++++++++++.",
".++++++++++++++++++.+++.+++++++.",
".+++++++++++++++++++.+...++++++.",
".++++++++++++++++++++.....+++++.",
".+++++++++++++++++++++...++++++.",
".++++++++++++++++++++.+.+++++++.",
".+++++++++++++++++++.++++++++++.",
".++++++++++++++++++.+++++++++++.",
".+++++++++++++++++.++++++++++++.",
".++++++++++++++++.+++++++++++++.",
".++++++++++++.++.++++++++++++++.",
".+++++++++++....+++++++++++++++.",
".++++++++++.....+++++++++++++++.",
".+++++++++++...++++++++++++++++.",
".++++++++++++.+++++++++++++++++.",
".++++++++++++++++++++++++++++++.",
"................................"};
