/* XPM */
static char * dev_net_64_xpm[] = {
"48 48 606 2",
"  	c None",
". 	c #81818A",
"+ 	c #656573",
"@ 	c #656572",
"# 	c #646471",
"$ 	c #666672",
"% 	c #666673",
"& 	c #636371",
"* 	c #72727C",
"= 	c #A3A3A6",
"- 	c #73737E",
"; 	c #7A7A8E",
"> 	c #9595AB",
", 	c #9494AB",
"' 	c #9C9CB1",
") 	c #AAAABC",
"! 	c #ABABBD",
"~ 	c #ACACBD",
"{ 	c #ADADBE",
"] 	c #AEAEBF",
"^ 	c #AFAFC0",
"/ 	c #B0B0C0",
"( 	c #B1B1C2",
"_ 	c #B3B3C3",
": 	c #B4B4C3",
"< 	c #B6B6C5",
"[ 	c #B7B7C6",
"} 	c #B8B8C6",
"| 	c #B9B9C7",
"1 	c #BBBBC9",
"2 	c #BDBDCA",
"3 	c #BEBECB",
"4 	c #BFBFCC",
"5 	c #C1C1CE",
"6 	c #C3C3CF",
"7 	c #C5C5D0",
"8 	c #C7C7D1",
"9 	c #CCCCD6",
"0 	c #9292A9",
"a 	c #9696AC",
"b 	c #838397",
"c 	c #60606E",
"d 	c #969697",
"e 	c #B1B1B5",
"f 	c #6B6B7C",
"g 	c #A2A2B8",
"h 	c #A3A3BA",
"i 	c #A1A1B8",
"j 	c #AEAEC3",
"k 	c #B9B9CC",
"l 	c #B9B9CB",
"m 	c #BABACD",
"n 	c #BBBBCD",
"o 	c #BCBCCE",
"p 	c #BDBDCE",
"q 	c #BEBED0",
"r 	c #BFBFD1",
"s 	c #C1C1D1",
"t 	c #C2C2D2",
"u 	c #C3C3D3",
"v 	c #C5C5D5",
"w 	c #C7C7D5",
"x 	c #C8C8D7",
"y 	c #CACAD8",
"z 	c #CCCCDA",
"A 	c #CECEDB",
"B 	c #CFCFDC",
"C 	c #D1D1DD",
"D 	c #D3D3DF",
"E 	c #D4D4E1",
"F 	c #D7D7E2",
"G 	c #D9D9E3",
"H 	c #DEDEE8",
"I 	c #A2A2B9",
"J 	c #A6A6BD",
"K 	c #757587",
"L 	c #626269",
"M 	c #A4A4A4",
"N 	c #96969D",
"O 	c #78788C",
"P 	c #A6A6BC",
"Q 	c #A3A3B8",
"R 	c #B1B1C5",
"S 	c #B5B5C8",
"T 	c #B5B5C9",
"U 	c #B7B7C9",
"V 	c #B8B8CA",
"W 	c #B8B8CB",
"X 	c #BABACC",
"Y 	c #BEBECF",
"Z 	c #BFBFCF",
"` 	c #C4C4D2",
" .	c #C5C5D4",
"..	c #C6C6D5",
"+.	c #C8C8D6",
"@.	c #CCCCD9",
"#.	c #CECEDA",
"$.	c #D2D2DD",
"%.	c #D4D4DE",
"&.	c #D6D6E0",
"*.	c #ABABBF",
"=.	c #A0A0B7",
"-.	c #A7A7BD",
";.	c #828296",
">.	c #53535D",
",.	c #898989",
"'.	c #80808A",
").	c #A8A8BE",
"!.	c #A8A8BD",
"~.	c #B4B4C7",
"{.	c #B9B9CA",
"].	c #BABACB",
"^.	c #BBBBCC",
"/.	c #BEBECE",
"(.	c #BFBFD0",
"_.	c #C9C9D6",
":.	c #CDCDDA",
"<.	c #D0D0DC",
"[.	c #D9D9E2",
"}.	c #8E8EA2",
"|.	c #555561",
"1.	c #787878",
"2.	c #B5B5B5",
"3.	c #747481",
"4.	c #8F8FA4",
"5.	c #A8A8BF",
"6.	c #A4A4BA",
"7.	c #ADADC2",
"8.	c #B3B3C7",
"9.	c #B6B6C9",
"0.	c #C4C4D3",
"a.	c #C6C6D4",
"b.	c #CBCBD7",
"c.	c #A6A6BB",
"d.	c #9A9AAF",
"e.	c #5C5C6B",
"f.	c #6C6C6C",
"g.	c #AEAEAE",
"h.	c #6A6A7A",
"i.	c #9B9BB0",
"j.	c #A9A9BE",
"k.	c #B0B0C5",
"l.	c #B3B3C6",
"m.	c #C9C9D8",
"n.	c #D3D3DE",
"o.	c #AFAFC3",
"p.	c #A4A4B9",
"q.	c #666679",
"r.	c #606063",
"s.	c #B4B4B8",
"t.	c #6A6A7D",
"u.	c #A5A5BA",
"v.	c #ABABC0",
"w.	c #B2B2C6",
"x.	c #C1C1D0",
"y.	c #CBCBD9",
"z.	c #D4D4DF",
"A.	c #AAAABF",
"B.	c #79798C",
"C.	c #58585F",
"D.	c #979797",
"E.	c #9A9AA2",
"F.	c #ACACC1",
"G.	c #AEAEC2",
"H.	c #B2B2C5",
"I.	c #B5B5C7",
"J.	c #C9C9D7",
"K.	c #88889C",
"L.	c #565661",
"M.	c #888888",
"N.	c #858590",
"O.	c #89899E",
"P.	c #ACACC0",
"Q.	c #B0B0C4",
"R.	c #C3C3D2",
"S.	c #B1B1C4",
"T.	c #9494A9",
"U.	c #595967",
"V.	c #797979",
"W.	c #B6B6B6",
"X.	c #7A7A87",
"Y.	c #9696AA",
"Z.	c #B1B1C6",
"`.	c #B4B4C8",
" +	c #B6B6C8",
".+	c #BDBDCD",
"++	c #CFCFDB",
"@+	c #ADADC3",
"#+	c #A0A0B5",
"$+	c #606071",
"%+	c #6D6D6E",
"&+	c #B0B0B0",
"*+	c #6F6F81",
"=+	c #A2A2B6",
"-+	c #6B6B7E",
";+	c #626265",
">+	c #A7A7A7",
",+	c #6F6F83",
"'+	c #C2C2D1",
")+	c #7E7E92",
"!+	c #5A5A61",
"~+	c #9C9C9C",
"{+	c #AAAAB0",
"]+	c #7F7F93",
"^+	c #B7B7CA",
"/+	c #BDBDCF",
"(+	c #C0C0D1",
"_+	c #C6C6D6",
":+	c #B6B6CB",
"<+	c #575760",
"[+	c #909090",
"}+	c #9A9AA3",
"|+	c #8D8DA1",
"1+	c #B1B1C3",
"2+	c #B0B0C3",
"3+	c #AFAFC2",
"4+	c #B0B0C1",
"5+	c #B0B0C2",
"6+	c #B2B2C2",
"7+	c #B2B2C3",
"8+	c #B5B5C4",
"9+	c #B7B7C5",
"0+	c #BBBBC7",
"a+	c #B5B5C2",
"b+	c #ABABBC",
"c+	c #5B5B68",
"d+	c #848484",
"e+	c #888896",
"f+	c #C2C2CB",
"g+	c #FEFEFE",
"h+	c #F6F6F7",
"i+	c #F4F4F5",
"j+	c #F3F3F4",
"k+	c #F2F2F3",
"l+	c #F1F1F2",
"m+	c #EFEFF0",
"n+	c #EDEDEF",
"o+	c #ECECEE",
"p+	c #EBEBED",
"q+	c #EAEAEB",
"r+	c #E9E9EA",
"s+	c #E7E7E9",
"t+	c #E6E6E7",
"u+	c #E5E5E6",
"v+	c #E3E3E5",
"w+	c #E2E2E4",
"x+	c #E1E1E2",
"y+	c #E0E0E1",
"z+	c #DFDFE0",
"A+	c #DEDEDF",
"B+	c #DCDCDD",
"C+	c #DBDBDC",
"D+	c #DADADB",
"E+	c #D8D8D9",
"F+	c #D7D7D8",
"G+	c #D6D6D7",
"H+	c #D5D5D6",
"I+	c #D3D3D4",
"J+	c #D2D2D3",
"K+	c #D1D1D2",
"L+	c #D0D0D1",
"M+	c #CECECF",
"N+	c #CDCDCE",
"O+	c #CCCCCD",
"P+	c #CECECE",
"Q+	c #B2B2B8",
"R+	c #636374",
"S+	c #767677",
"T+	c #B4B4B4",
"U+	c #7A7A8C",
"V+	c #E2E2E6",
"W+	c #FFFFFF",
"X+	c #FCFCFC",
"Y+	c #FAFAFA",
"Z+	c #F9F9F9",
"`+	c #F8F8F8",
" @	c #F7F7F7",
".@	c #F5F5F5",
"+@	c #F4F4F4",
"@@	c #F3F3F3",
"#@	c #F2F2F2",
"$@	c #F0F0F0",
"%@	c #EFEFEF",
"&@	c #EEEEEE",
"*@	c #ECECEC",
"=@	c #EBEBEB",
"-@	c #EAEAEA",
";@	c #E9E9E9",
">@	c #E7E7E7",
",@	c #E6E6E6",
"'@	c #E5E5E5",
")@	c #E4E4E4",
"!@	c #E2E2E2",
"~@	c #E1E1E1",
"{@	c #E0E0E0",
"]@	c #DEDEDE",
"^@	c #DDDDDD",
"/@	c #DCDCDC",
"(@	c #DBDBDB",
"_@	c #D9D9D9",
":@	c #D8D8D8",
"<@	c #D7D7D7",
"[@	c #D6D6D6",
"}@	c #D4D4D4",
"|@	c #D3D3D3",
"1@	c #D2D2D2",
"2@	c #C9C9CA",
"3@	c #717183",
"4@	c #676769",
"5@	c #AAAAAA",
"6@	c #79798E",
"7@	c #F3F3F5",
"8@	c #FFFFFE",
"9@	c #FBFBFB",
"0@	c #F6F6F6",
"a@	c #F1F1F1",
"b@	c #EDEDED",
"c@	c #E8E8E8",
"d@	c #E3E3E3",
"e@	c #DFDFDF",
"f@	c #DADADA",
"g@	c #D5D5D5",
"h@	c #D1D1D1",
"i@	c #D1D1D0",
"j@	c #818193",
"k@	c #5E5E64",
"l@	c #9D9D9D",
"m@	c #AEAEB5",
"n@	c #8C8C9E",
"o@	c #FEFEFD",
"p@	c #D0D0D0",
"q@	c #CFCFCF",
"r@	c #90909E",
"s@	c #5A5A64",
"t@	c #919191",
"u@	c #9B9BA6",
"v@	c #A1A1B1",
"w@	c #FDFDFD",
"x@	c #D3D3D2",
"y@	c #9E9EA9",
"z@	c #5B5B69",
"A@	c #868686",
"B@	c #8B8B99",
"C@	c #B8B8C3",
"D@	c #F3F3F2",
"E@	c #BBBBC2",
"F@	c #626273",
"G@	c #7B7B7B",
"H@	c #B7B7B7",
"I@	c #7E7E91",
"J@	c #D3D3DA",
"K@	c #F8F8F6",
"L@	c #F4F4F3",
"M@	c #E9E9EB",
"N@	c #707070",
"O@	c #B1B1B1",
"P@	c #7C7C92",
"Q@	c #E4E4E7",
"R@	c #E6E6E5",
"S@	c #848496",
"T@	c #666666",
"U@	c #ACACAC",
"V@	c #EBEBEC",
"W@	c #848497",
"X@	c #606060",
"Y@	c #A9A9A9",
"Z@	c #7C7C93",
"`@	c #DDDDE0",
" #	c #848498",
".#	c #5E5E5E",
"+#	c #A8A8A8",
"@#	c #7D7D94",
"##	c #D8D8DB",
"$#	c #EBEBEA",
"%#	c #BBBBBB",
"&#	c #B8B8B8",
"*#	c #C4C4C4",
"=#	c #C7C7C7",
"-#	c #C8C8C8",
";#	c #B3B3B3",
">#	c #ECEBEC",
",#	c #ECEBEB",
"'#	c #EAEAE9",
")#	c #E2E2E3",
"!#	c #7F7F95",
"~#	c #D5D5D8",
"{#	c #CBCBCB",
"]#	c #C5C5C5",
"^#	c #C1C1C1",
"/#	c #BCBCBC",
"(#	c #C0C0C0",
"_#	c #BEBEBE",
":#	c #C3C3C3",
"<#	c #969696",
"[#	c #9A9A9A",
"}#	c #ECEAEC",
"|#	c #DDDDE3",
"1#	c #E0DFE4",
"2#	c #EEEDEE",
"3#	c #EDEEED",
"4#	c #858598",
"5#	c #7F7F97",
"6#	c #D0D0D3",
"7#	c #EEEEED",
"8#	c #C6C6C6",
"9#	c #A2A2A2",
"0#	c #A6A6A6",
"a#	c #F7F3F7",
"b#	c #ADCAAE",
"c#	c #8CC878",
"d#	c #86C279",
"e#	c #C3D3C5",
"f#	c #F5F3F5",
"g#	c #858599",
"h#	c #808098",
"i#	c #CACACD",
"j#	c #EFEFEE",
"k#	c #CDCDCD",
"l#	c #FFFBFF",
"m#	c #C9E4C8",
"n#	c #84D972",
"o#	c #8BD87F",
"p#	c #DDEADE",
"q#	c #F7F4F6",
"r#	c #D7D7D6",
"s#	c #828297",
"t#	c #88889B",
"u#	c #A7A7B5",
"v#	c #DEDEDD",
"w#	c #E8E8E6",
"x#	c #E6E6E4",
"y#	c #E5E5E4",
"z#	c #E5E5E3",
"A#	c #E4E4E3",
"B#	c #E2E2E1",
"C#	c #E3E3E1",
"D#	c #ECE9EB",
"E#	c #EBE7E9",
"F#	c #EDE7EB",
"G#	c #ECEAEB",
"H#	c #E2E2DF",
"I#	c #B7B7C0",
"J#	c #6C6C81",
"K#	c #616161",
"L#	c #A9A9AE",
"M#	c #7C7C94",
"N#	c #A4A4B1",
"O#	c #B2B2BB",
"P#	c #B1B1BA",
"Q#	c #B3B3BB",
"R#	c #B3B3BC",
"S#	c #B2B2BC",
"T#	c #ADADB7",
"U#	c #ABABB5",
"V#	c #AEAEB7",
"W#	c #B0B0BA",
"X#	c #B4B4BE",
"Y#	c #B2B2BA",
"Z#	c #A9A9B5",
"`#	c #808099",
" $	c #52525B",
".$	c #97979A",
"+$	c #71717F",
"@$	c #69697A",
"#$	c #666677",
"$$	c #656576",
"%$	c #646476",
"&$	c #6A6A7C",
"*$	c #9B9BAE",
"=$	c #A6A6BA",
"-$	c #9595AE",
";$	c #666678",
">$	c #5F5F6E",
",$	c #515156",
"'$	c #939393",
")$	c #A1A1A1",
"!$	c #777777",
"~$	c #69696B",
"{$	c #D1D1D4",
"]$	c #EDEDF3",
"^$	c #C1C1D2",
"/$	c #93939A",
"($	c #343434",
"_$	c #565656",
":$	c #838383",
"<$	c #9B9B9B",
"[$	c #B9B9B9",
"}$	c #87898A",
"|$	c #CFD1D7",
"1$	c #E9EBF4",
"2$	c #BEC0D3",
"3$	c #93959E",
"4$	c #393939",
"5$	c #767676",
"6$	c #BABABA",
"7$	c #9D9590",
"8$	c #CFC6CA",
"9$	c #EADFE4",
"0$	c #C1B6C5",
"a$	c #988D94",
"b$	c #3D3938",
"c$	c #828282",
"d$	c #A5A5A5",
"e$	c #A2A4A5",
"f$	c #B2A095",
"g$	c #E57E29",
"h$	c #F69721",
"i$	c #FB9A23",
"j$	c #F5941F",
"k$	c #EF8F18",
"l$	c #C66312",
"m$	c #7E6E64",
"n$	c #959898",
"o$	c #A4A4A3",
"p$	c #79797A",
"q$	c #A4A4A7",
"r$	c #A3A3A7",
"s$	c #9EA7B0",
"t$	c #C57D5B",
"u$	c #FFA219",
"v$	c #FFF395",
"w$	c #FFEC9A",
"x$	c #FFEC9B",
"y$	c #FFF498",
"z$	c #FFA61D",
"A$	c #C77B58",
"B$	c #9EA7B1",
"C$	c #A5A5A8",
"D$	c #747475",
"E$	c #878786",
"F$	c #909091",
"G$	c #F6F6FD",
"H$	c #F5F5FC",
"I$	c #F4F4FB",
"J$	c #F4FEFF",
"K$	c #F1A48A",
"L$	c #F8991C",
"M$	c #FFF3C2",
"N$	c #FFECCB",
"O$	c #FFECCA",
"P$	c #FFF2C4",
"Q$	c #F9A022",
"R$	c #F2A081",
"S$	c #F8F8FF",
"T$	c #8A8A8C",
"U$	c #5B5B5B",
"V$	c #B9B9B8",
"W$	c #838387",
"X$	c #CACAD9",
"Y$	c #C6D0E4",
"Z$	c #D48478",
"`$	c #F78E12",
" %	c #FFDC79",
".%	c #FFD47D",
"+%	c #FFDB7A",
"@%	c #F99415",
"#%	c #D68170",
"$%	c #C6D1E5",
"%%	c #CBCBDA",
"&%	c #7C7C81",
"*%	c #494949",
"=%	c #79797D",
"-%	c #A2A2AD",
";%	c #A1A1AD",
">%	c #A1A1AC",
",%	c #9DA8B6",
"'%	c #BA6660",
")%	c #F6870E",
"!%	c #FFD458",
"~%	c #FFCB5B",
"{%	c #FFD359",
"]%	c #F98F10",
"^%	c #BF655A",
"/%	c #9DA8B7",
"(%	c #A3A3AE",
"_%	c #747477",
":%	c #636363",
"<%	c #4C4C4C",
"[%	c #444444",
"}%	c #3D4546",
"|%	c #752C2A",
"1%	c #F76E0A",
"2%	c #FFCB2F",
"3%	c #FFC230",
"4%	c #FFCB30",
"5%	c #FB710B",
"6%	c #762A28",
"7%	c #3B4444",
"8%	c #424242",
"9%	c #414141",
"0%	c #535353",
"a%	c #858585",
"b%	c #6C6262",
"c%	c #9B2B21",
"d%	c #9E2B0E",
"e%	c #99280C",
"f%	c #9F290C",
"g%	c #761C13",
"h%	c #413D3D",
"i%	c #5D5D5D",
"j%	c #6D6D6D",
"k%	c #7E7E7E",
"l%	c #696969",
"m%	c #6B6B6B",
"n%	c #7C7C7C",
"o%	c #AFAFAF",
"                                                                                                ",
"                                                                                                ",
"                                                                                                ",
"                . + @ # @ @ @ @ @ @ @ @ @ @ @ @ @ @ @ $ $ $ % % % % % % # & & * =               ",
"              - ; > , ' ) ! ~ { { ] ^ / ( _ : < [ } | 1 2 3 4 5 6 7 8 9 / 0 a b c d             ",
"            e f g h i j k l m n o p q r s t u v w x y z A B C D E F G H A I I J K L M           ",
"            N O P g Q R S T U V W l X n p Y Z s t `  ...+.y @.#.B $.%.&.&.*.=.-.;.>.,.          ",
"            '.b ).g !.~.~.S T U V {.].^.n p /.(.s t u  .w _.y @.:.<.$.%.[./.=.P }.|.1.2.        ",
"            3.4.5.6.7.~.8.~.S T 9.V l ].^.n p Y (.s t 0.a.w +.y @.:.<.C &.b.c.-.d.e.f.g.        ",
"            h.i.j.-.k.l.8.8.~.S T 9.V W l X n p Y Z s t `  ...+.m.@.#.<.$.n.o.P p.q.r.M         ",
"          s.t.u.j.v.w.w.l.8.8.~.S S U V {.].^.n p /.(.x.t u  .w _.y y.#.<.z.Z P A.B.C.D.        ",
"          E.; F.A.G.H.w.w.l.8.8.~.I.T 9.V l ].^.n p /.Z s t u  .w _.y @.:.C J.A.j K.L.M.        ",
"          N.O.R P.Q.R R w.w.l.8.8.~.I.T 9.V l l X n o /.(.s t R. ...+.y @.#.A S.o.T.U.V.W.      ",
"          X.Y.Z.j R R R R w.w.l.8.8.~.`. +U V {.].X n .+Y (.s t `  ..._.y @.++^.@+#+$+%+&+      ",
"          *+=+R Q.R R R R R w.w.l.8.8.~.I.T 9.V l ].^.n .+Y (.x.t u  .w _.y :.a.Q.*.-+;+>+      ",
"          ,+P.H.R R R R R R R w.w.l.8.8.~.I.T 9.V W l X n o /.(.s '+R. ...+.y y.9.R )+!+~+      ",
"        {+]+w.R Q.Q.k.k.k.k.k.R H.w.w.8.8.~.`. +^+^+W X ^.o /+(.(+t R. ._+x y :.q :+4.<+[+      ",
"        }+|+l ~.l.H.H.S.1+2+2+3+3+3+3+3+3+3+3+4+4+5+( ( 6+7+7+_ : 8+8+< 9+} } 0+a+b+}.c+d+      ",
"        e+f+g+h+i+j+k+l+m+n+o+p+q+r+s+t+u+v+w+x+y+z+A+B+C+D+E+F+G+H+I+J+K+L+M+N+O+P+Q+R+S+T+    ",
"        U+V+W+X+Y+Z+`+ @.@+@@@#@$@%@&@*@=@-@;@>@,@'@)@!@~@{@]@^@/@(@_@:@<@[@}@|@1@1@2@3@4@5@    ",
"        6@7@8@9@Z+`+ @0@+@@@#@a@%@&@b@=@-@;@c@,@'@)@d@~@{@e@^@/@(@f@:@<@[@g@|@1@h@i@N+j@k@l@    ",
"      m@n@9@o@9@Z+`+ @0@+@@@#@a@%@&@b@=@-@;@c@,@'@)@d@~@{@e@^@/@(@f@:@<@[@}@1@h@p@q@i@r@s@t@    ",
"      u@v@W+w@9@Y+Z+ @0@.@+@@@#@$@%@&@*@=@-@;@>@,@'@)@!@~@{@]@^@/@(@_@:@<@[@}@|@1@h@x@y@z@A@    ",
"      B@C@W+g+w@w@w@w@w@X+X+X+X+X+9@9@Y+Y+Y+Y+Y+Z+Z+Z+`+`+`+`+ @ @ @ @0@0@0@.@.@.@.@D@E@F@G@H@  ",
"      I@J@K@'@'@'@'@'@'@'@'@'@'@'@'@'@'@'@'@'@'@'@'@'@'@,@,@,@,@,@,@,@,@,@,@,@,@,@'@L@M@,+N@O@  ",
"      P@Q@R@:@_@_@_@_@_@_@_@_@_@_@_@_@_@_@_@_@_@_@_@_@_@_@_@_@_@_@_@_@_@_@_@_@_@_@:@{@l+S@T@U@  ",
"      P@w+>@e@{@{@{@{@{@{@{@{@{@{@{@{@{@{@{@{@{@{@{@{@{@{@{@{@{@{@{@{@{@{@{@{@{@{@{@)@V@W@X@Y@  ",
"      Z@`@;@'@,@=@=@=@>@;@>@;@c@c@;@c@=@=@'@'@'@'@'@'@'@'@'@'@'@'@'@'@'@'@'@'@'@'@'@>@>@ #.#+#  ",
"      @###$#-@d@%#&#&#:@*#:@=#1@q@-#1@;#%#,@-@;@;@;@;@;@;@;@;@;@;@;@;@;@;@;@-@>#,#-@'#)#W@.#+#  ",
"      !#~#*@$@;@{#]#^#(@%#(@/#p@(#_#:#<#[#>@$@&@&@&@&@&@&@&@&@&@&@&@&@&@&@%@}#|#1#2#3#A+4#.#+#  ",
"      5#6#7#+@$@e@_@}@{@]#{@8#<@8#=#-#9#0#*@@@#@#@#@#@#@#@#@#@#@#@#@#@#@#@a#b#c#d#e#f#f@g#.#+#  ",
"      h#i#j#X+ @!@/@:@)@{#)@{#(@{#k#k#5@;#.@9@Y+Y+Y+Y+Y+Y+Y+Y+Y+Y+Y+Y+Y+Y+l#m#n#o#p#q#r#s#.#+#  ",
"      t#u#v#w#w#x#y#y#R@z#R@z#x#z#A#z#B#C#w#w#w#w#w#w#w#w#w#w#w#w#w#w#w#w#w#D#E#F#G#H#I#J#K#Y@  ",
"      L#M#N#O#P#O#O#O#O#O#O#O#O#Q#Q#O#R#R#S#T#U#V#W#X#O#P#P#P#P#P#P#P#P#P#P#Y#S#S#O#Z#`# $N@O@  ",
"        .$+$@$#$$$$$$$$$$$$$$$$$$$$$$$$$%$&$*$=$-$;.$+F@$$$$$$$$$$$$$$$$$$$$$$$$$$;$>$,$X@'$    ",
"          )$A@V.!$!$!$!$!$!$!$!$!$!$!$!$!$~${$]$^$/$($_$N@!$!$!$!$!$!$!$!$!$!$!$!$!$1.:$<$[$    ",
"              2.T+T+T+T+T+T+T+T+T+T+T+T+2.}$|$1$2$3$4$5$0#2.T+T+T+T+T+T+T+T+T+T+T+T+2.6$        ",
"                                          7$8$9$0$a$b$c$6$                                      ",
"                        U@d$M M M M M e$f$g$h$i$j$k$l$m$n$M M M M M o$0#                        ",
"                      %#p$q$r$= = = = s$t$u$v$w$x$y$z$A$B$= = = = r$C$D$E$[$                    ",
"                      [$F$G$H$I$I$I$I$J$K$L$M$N$O$P$Q$R$J$I$I$I$I$H$S$T$U$M                     ",
"                      V$W$X$m.x x x x Y$Z$`$ %.%.%+%@%#%$%x x x x m.%%&%*%<$                    ",
"                      &#=%-%;%>%>%>%>%,%'%)%!%~%~%{%]%^%/%>%>%>%>%;%(%_%*%<$                    ",
"                        :%<%[%[%[%[%[%}%|%1%2%3%3%4%5%6%7%8%[%[%[%[%[%9%0%l@                    ",
"                        &+a%N@N@N@N@N@N@b%c%d%e%e%f%g%h%i%j%N@N@N@N@N@N@d+g.                    ",
"                          &#&+&+&+&+&+&+g.~+k%f.l%l%m%n%<$g.&+&+&+&+&+&+H@                      ",
"                                            &#o%g.g.o%W.                                        ",
"                                                                                                "};
