/* XPM */
static char * dev_pendrive_64_xpm[] = {
"48 48 495 2",
"  	c None",
". 	c #B9B9BF",
"+ 	c #9999A8",
"@ 	c #808099",
"# 	c #5D5D86",
"$ 	c #555585",
"% 	c #565689",
"& 	c #555587",
"* 	c #515180",
"= 	c #616182",
"- 	c #9595A1",
"; 	c #B4B4BC",
"> 	c #8E8EA3",
", 	c #666691",
"' 	c #57579B",
") 	c #6C6CB7",
"! 	c #8888D7",
"~ 	c #A0A0F0",
"{ 	c #AAAAF9",
"] 	c #B0B0FB",
"^ 	c #B3B3FB",
"/ 	c #B9B9F8",
"( 	c #A4A4DA",
"_ 	c #545488",
": 	c #787888",
"< 	c #B8B8B8",
"[ 	c #8C8CA2",
"} 	c #656592",
"| 	c #5E5EAB",
"1 	c #7878D1",
"2 	c #9C9CEF",
"3 	c #B7B7FD",
"4 	c #C0C0FF",
"5 	c #BABAFF",
"6 	c #B6B6FF",
"7 	c #B9B9FF",
"8 	c #BEBEFF",
"9 	c #C5C5FF",
"0 	c #CCCCFF",
"a 	c #D9D9FF",
"b 	c #C7C7F3",
"c 	c #47476E",
"d 	c #949494",
"e 	c #B9B9C0",
"f 	c #7D7D9B",
"g 	c #5C5C9C",
"h 	c #6969C0",
"i 	c #8E8EE3",
"j 	c #BBBBFB",
"k 	c #C6C6FF",
"l 	c #B0B0FF",
"m 	c #B4B4FF",
"n 	c #BCBCFF",
"o 	c #C3C3FF",
"p 	c #C9C9FF",
"q 	c #CFCFFF",
"r 	c #D5D5FF",
"s 	c #DEDEFF",
"t 	c #DADAFC",
"u 	c #44447A",
"v 	c #727272",
"w 	c #B2B2B2",
"x 	c #A8A8B5",
"y 	c #78789C",
"z 	c #5D5DA5",
"A 	c #7D7DCC",
"B 	c #AEAEEE",
"C 	c #CFCFFC",
"D 	c #D6D6FF",
"E 	c #B3B3FF",
"F 	c #ADADFF",
"G 	c #CACAFF",
"H 	c #D4D4FF",
"I 	c #DADAFF",
"J 	c #DFDFFF",
"K 	c #EEEEFF",
"L 	c #A1A1D3",
"M 	c #313169",
"N 	c #646464",
"O 	c #ACACAC",
"P 	c #AEAEB9",
"Q 	c #72729B",
"R 	c #5D5DAA",
"S 	c #8A8AD8",
"T 	c #C0C0F3",
"U 	c #E8E8FF",
"V 	c #C2C2FF",
"W 	c #ABABFF",
"X 	c #E4E4FF",
"Y 	c #E0E0F5",
"Z 	c #504FA0",
"` 	c #323257",
" .	c #686868",
"..	c #ADADAD",
"+.	c #ABABB7",
"@.	c #6C6C97",
"#.	c #5F5FAD",
"$.	c #9999DC",
"%.	c #D6D6F8",
"&.	c #EFEFFF",
"*.	c #A9A9FF",
"=.	c #AAAAFF",
"-.	c #B8B8FC",
";.	c #C1C1FD",
">.	c #CDCDFF",
",.	c #CECEFF",
"'.	c #DBDBFF",
").	c #E3E3FF",
"!.	c #F1F1FF",
"~.	c #F0F0F9",
"{.	c #7575B7",
"].	c #303078",
"^.	c #3F3F4A",
"/.	c #787878",
"(.	c #B5B5B5",
"_.	c #BBBBC2",
":.	c #7A7A9C",
"<.	c #5C5CA6",
"[.	c #8F8FD8",
"}.	c #D5D5F9",
"|.	c #F4F4FF",
"1.	c #ECECFF",
"2.	c #CBCBFF",
"3.	c #ACACFF",
"4.	c #A8A8F1",
"5.	c #6F6FD2",
"6.	c #7676D4",
"7.	c #B9B9F2",
"8.	c #DDDDFF",
"9.	c #EBEBFF",
"0.	c #F5F5FF",
"a.	c #F5F5FA",
"b.	c #8686C0",
"c.	c #373690",
"d.	c #353650",
"e.	c #585858",
"f.	c #959595",
"g.	c #8A8AA4",
"h.	c #5F5FA1",
"i.	c #8484CD",
"j.	c #C8C8F3",
"k.	c #ECECFA",
"l.	c #E5E5F7",
"m.	c #E0E0FE",
"n.	c #C7C7FF",
"o.	c #B1B1FF",
"p.	c #BBBBFF",
"q.	c #A3A3EA",
"r.	c #8686DC",
"s.	c #8C8CDF",
"t.	c #9595DD",
"u.	c #F8F8FF",
"v.	c #F2F2F5",
"w.	c #8B8BC3",
"x.	c #3D3C96",
"y.	c #35355C",
"z.	c #4A4A4C",
"A.	c #7E7E7E",
"B.	c #B4B4B4",
"C.	c #9E9EB0",
"D.	c #636399",
"E.	c #6C6CC1",
"F.	c #B2B2EE",
"G.	c #EFEFFE",
"H.	c #E4E4F4",
"I.	c #CFCFF0",
"J.	c #CACAF5",
"K.	c #B7B7FF",
"L.	c #C1C1FF",
"M.	c #D6D6FD",
"N.	c #CACAF9",
"O.	c #CBCBF7",
"P.	c #DDDDFA",
"Q.	c #E9E9FE",
"R.	c #E7E7FC",
"S.	c #FEFEFF",
"T.	c #EFEFF3",
"U.	c #7F7EBD",
"V.	c #413F9B",
"W.	c #36365C",
"X.	c #464649",
"Y.	c #737373",
"Z.	c #A9A9A9",
"`.	c #B5B5BE",
" +	c #7B7B9E",
".+	c #5F5FAC",
"++	c #8A8ADE",
"@+	c #D7D7FB",
"#+	c #ECECF9",
"$+	c #D3D3EE",
"%+	c #CACAF2",
"&+	c #CECEFD",
"*+	c #BFBFFF",
"=+	c #D7D7FF",
"-+	c #DBDBFE",
";+	c #D5D5FA",
">+	c #C1C1F0",
",+	c #C3C3F1",
"'+	c #C8C8F1",
")+	c #DBDBF7",
"!+	c #FAFAFF",
"~+	c #DDDDE7",
"{+	c #7A78BD",
"]+	c #46449F",
"^+	c #38385C",
"/+	c #464648",
"(+	c #707070",
"_+	c #A4A4A4",
":+	c #8A8AA5",
"<+	c #63639D",
"[+	c #7070CF",
"}+	c #AEAEF4",
"|+	c #E6E6FD",
"1+	c #D9D9F0",
"2+	c #C9C9EF",
"3+	c #CDCDFA",
"4+	c #C8C8FF",
"5+	c #D2D2FF",
"6+	c #D1D1FC",
"7+	c #BFBFF4",
"8+	c #A4A4E8",
"9+	c #9A9AE4",
"0+	c #A9A9E9",
"a+	c #C3C3F0",
"b+	c #DADAF7",
"c+	c #EAEAFB",
"d+	c #FFFFFD",
"e+	c #B9B9D5",
"f+	c #6563BB",
"g+	c #464594",
"h+	c #393954",
"i+	c #747474",
"j+	c #A7A7B6",
"k+	c #71719B",
"l+	c #6D6DBB",
"m+	c #8484E9",
"n+	c #BCBCFC",
"o+	c #E1E1FE",
"p+	c #CBCBF8",
"q+	c #C8C8FE",
"r+	c #D0D0FF",
"s+	c #C8C8FB",
"t+	c #B4B4F2",
"u+	c #A8A8EC",
"v+	c #A8A8EA",
"w+	c #AFAFEC",
"x+	c #C5C5F2",
"y+	c #E1E1FA",
"z+	c #FCFCFF",
"A+	c #FFFFFF",
"B+	c #E8E9EC",
"C+	c #9C9ACF",
"D+	c #5D5BB3",
"E+	c #434280",
"F+	c #3A3A4D",
"G+	c #515151",
"H+	c #7C7C7C",
"I+	c #B0B0BC",
"J+	c #68689F",
"K+	c #7E7EDA",
"L+	c #9595FC",
"M+	c #E7E7FF",
"N+	c #CACAFE",
"O+	c #BDBDF7",
"P+	c #B0B0F1",
"Q+	c #A4A4EB",
"R+	c #B6B6F0",
"S+	c #D7D7F9",
"T+	c #E8E8FE",
"U+	c #F7F7FF",
"V+	c #F9F9FF",
"W+	c #FDFDFB",
"X+	c #C7C6DB",
"Y+	c #7C7AC5",
"Z+	c #5856AE",
"`+	c #3E3D67",
" @	c #404049",
".@	c #5E5E5E",
"+@	c #888888",
"@@	c #B0B0B0",
"#@	c #9898C8",
"$@	c #ACACFB",
"%@	c #CECEFE",
"&@	c #C4C4FD",
"*@	c #BDBDF8",
"=@	c #B3B3F3",
"-@	c #B8B8F3",
";@	c #D4D4FB",
">@	c #E5E5FF",
",@	c #F0F0FF",
"'@	c #F2F2FF",
")@	c #FDFDFF",
"!@	c #E8E8EC",
"~@	c #A2A1CF",
"{@	c #6D6AC5",
"]@	c #55539D",
"^@	c #3B3B56",
"/@	c #49494A",
"(@	c #6D6D6D",
"_@	c #989898",
":@	c #9898AB",
"<@	c #8886C1",
"[@	c #AEABF1",
"}@	c #A1A1F1",
"|@	c #A0A0F4",
"1@	c #B2B2FA",
"2@	c #C2C2FD",
"3@	c #BBBBFA",
"4@	c #C4C4FA",
"5@	c #DFDFFE",
"6@	c #EAEAFF",
"7@	c #FBFBFF",
"8@	c #F7F7F6",
"9@	c #B6B6D2",
"0@	c #8683D4",
"a@	c #6562B4",
"b@	c #42426D",
"c@	c #3F3F49",
"d@	c #575757",
"e@	c #7D7D7D",
"f@	c #A6A6A6",
"g@	c #8F8FAA",
"h@	c #7777A0",
"i@	c #B7B7CE",
"j@	c #CBCAE6",
"k@	c #B0AFEB",
"l@	c #B9B9FC",
"m@	c #C9C9FD",
"n@	c #D8D8FE",
"o@	c #FFFFFC",
"p@	c #CCCCDB",
"q@	c #8D8ACB",
"r@	c #726EC9",
"s@	c #555394",
"t@	c #3C3C53",
"u@	c #4C4C4D",
"v@	c #6C6C6C",
"w@	c #939393",
"x@	c #B3B3B3",
"y@	c #9393AC",
"z@	c #8383A6",
"A@	c #B3B3C9",
"B@	c #CFCFD3",
"C@	c #EFEFEF",
"D@	c #F3F4F4",
"E@	c #B3B2DC",
"F@	c #B7B7E9",
"G@	c #E6E6FF",
"H@	c #C6C6FA",
"I@	c #E0E0FF",
"J@	c #E9E9FF",
"K@	c #EDEDFF",
"L@	c #FFFFFE",
"M@	c #D6D5E0",
"N@	c #9C9BD0",
"O@	c #6F6CC0",
"P@	c #5E5CA8",
"Q@	c #424266",
"R@	c #42424A",
"S@	c #5B5B5B",
"T@	c #818181",
"U@	c #A7A7A7",
"V@	c #75759D",
"W@	c #A7A7BE",
"X@	c #F6F6F7",
"Y@	c #C6C6C6",
"Z@	c #C1C1C2",
"`@	c #F8F8FB",
" #	c #E3E3EB",
".#	c #9593CF",
"+#	c #DBDAF1",
"@#	c #D3D3FD",
"##	c #DDDDFE",
"$#	c #DCDCE5",
"%#	c #9A9AC7",
"&#	c #6B68BE",
"*#	c #6260B5",
"=#	c #484874",
"-#	c #3F3F4C",
";#	c #535353",
">#	c #B6B6B6",
",#	c #707095",
"'#	c #9A9A9F",
")#	c #FCFCFD",
"!#	c #F8F8FA",
"~#	c #EFEFF2",
"{#	c #E9E9ED",
"]#	c #F0F0F2",
"^#	c #CDCDE1",
"/#	c #9695CD",
"(#	c #C8C8FA",
"_#	c #D9D9E2",
":#	c #8F8EC1",
"<#	c #6F6DC5",
"[#	c #5D5DB0",
"}#	c #4E4E82",
"|#	c #404051",
"1#	c #4D4D4F",
"2#	c #6B6B6B",
"3#	c #8F8F8F",
"4#	c #AEAEAE",
"5#	c #8F8FA7",
"6#	c #5F5F7F",
"7#	c #D1D1D2",
"8#	c #A7A7A8",
"9#	c #D5D5DB",
"0#	c #F3F3F6",
"a#	c #ACABD0",
"b#	c #B2B2E1",
"c#	c #FEFEFB",
"d#	c #D2D2DD",
"e#	c #8C8BBD",
"f#	c #6968BF",
"g#	c #5E5DB7",
"h#	c #53538E",
"i#	c #414158",
"j#	c #49494D",
"k#	c #656565",
"l#	c #BABABC",
"m#	c #6C6C8F",
"n#	c #7A7A8D",
"o#	c #EAEAEB",
"p#	c #E2E2E5",
"q#	c #DCDCE3",
"r#	c #BFBFC0",
"s#	c #767685",
"t#	c #7776B7",
"u#	c #F8F8FE",
"v#	c #F2F2F2",
"w#	c #BFBFD3",
"x#	c #8989C2",
"y#	c #6362B9",
"z#	c #5B5AB4",
"A#	c #565594",
"B#	c #44445E",
"C#	c #48484F",
"D#	c #5F5F5F",
"E#	c #808080",
"F#	c #A2A2A2",
"G#	c #BBBBBB",
"H#	c #A1A1A8",
"I#	c #5C5C87",
"J#	c #A5A5B1",
"K#	c #F9F9FC",
"L#	c #E3E3E6",
"M#	c #AFAFB1",
"N#	c #6C6C7B",
"O#	c #565680",
"P#	c #5B5AA6",
"Q#	c #8F8FC1",
"R#	c #7171B4",
"S#	c #5C5CBD",
"T#	c #5D5DB9",
"U#	c #555492",
"V#	c #464661",
"W#	c #48484D",
"X#	c #9D9D9D",
"Y#	c #B7B7B7",
"Z#	c #7F7F98",
"`#	c #D2D2D8",
" $	c #E6E6E7",
".$	c #AEAEB5",
"+$	c #707090",
"@$	c #4D4D6E",
"#$	c #484856",
"$$	c #575789",
"%$	c #5757B4",
"&$	c #6060BC",
"*$	c #595898",
"=$	c #494967",
"-$	c #47474E",
";$	c #5C5C5C",
">$	c #9C9C9C",
",$	c #67678C",
"'$	c #A1A1B6",
")$	c #A5A5BE",
"!$	c #555579",
"~$	c #464652",
"{$	c #565656",
"]$	c #6A6A81",
"^$	c #59598B",
"/$	c #4B4B64",
"($	c #797979",
"_$	c #9A9A9A",
":$	c #9A9AA5",
"<$	c #67678D",
"[$	c #515166",
"}$	c #4F4F50",
"|$	c #6F6F6F",
"1$	c #ABABAE",
"2$	c #85858A",
"3$	c #7F7F7F",
"4$	c #9E9E9E",
"5$	c #8A8A8A",
"6$	c #AAAAAA",
"                                                                                                ",
"                                                                                                ",
"                                                                                                ",
"                                                                                                ",
"                                                                                                ",
"                                                                                                ",
"                                                                                                ",
"                                                                                                ",
"                                                                                                ",
"                                                                                                ",
"                                                                                                ",
"                                                                  . + @ # $ % & * = -           ",
"                                                            ; > , ' ) ! ~ { ] ^ / ( _ : <       ",
"                                                        [ } | 1 2 3 4 5 6 7 8 9 0 a b c d       ",
"                                                  e f g h i j 0 k 7 l m n o p q r s t u v w     ",
"                                              x y z A B C D k E F E n o G q H I J K L M N O     ",
"                                          P Q R S T U J V W W m n V p q r I J X K Y Z `  ...    ",
"                                      +.@.#.$.%.&.X n *.=.6 -.;.>.,.r '.J ).U !.~.{.].^./.(.    ",
"                                  _.:.<.[.}.|.1.2.3.*.E 4 4.5.6.7.8.s ).U 9.0.a.b.c.d.e.f.      ",
"                                g.h.i.j.k.l.m.n.W o.p.V ,.q.r.s.t.1.U 9.&.u.v.w.x.y.z.A.B.      ",
"                            C.D.E.F.G.H.I.J.G K.7 L.n.,.r M.N.O.P.Q.R.!.S.T.U.V.W.X.Y.Z.        ",
"                        `. +.+++@+#+$+%+&+n.p.*+n.,.=+s -+;+J.>+,+'+)+!+~+{+]+^+/+(+_+          ",
"                      :+<+[+}+|+1+2+3+p *+*+4+5+D 6+7+8+9+0+a+b+c+!+d+e+f+g+h+z.i+_+            ",
"                  j+k+l+m+n+9.o+p+q+V L.p r+s+t+u+v+w+x+y+|.!+z+A+B+C+D+E+F+G+H+Z.              ",
"                I+J+K+L+p M+H n.4 4 4+N+O+P+Q+R+S+T+|.U+u.V+A+W+X+Y+Z+`+ @.@+@@@                ",
"                C.#@*.$@%@o 7 *+9 &@*@=@-@;@>@&.,@'@|.U+)@A+!@~@{@]@^@/@(@_@<                   ",
"                :@<@[@}@|@1@k 2@3@4@6+5@6@1.&.!.|.U+7@A+8@9@0@a@b@c@d@e@f@                      ",
"              g@h@i@j@k@2./ l@m@n@).M+6@K !.0.U+7@A+o@p@q@r@s@t@u@v@w@x@                        ",
"          y@z@A@B@C@D@E@F@G@H@I@G@J@K@!.0.U+!+A+L@M@N@O@P@Q@R@S@T@U@                            ",
"        V@W@X@A+Y@Z@`@ #.#+#@###&.!.|.U+!+A+d+$#%#&#*#=#-#;#i+_@>#                              ",
"        ,#'#A+)#!#~#{#]#^#/#(#J@0.U+7@A+L@_#:#<#[#}#|#1#2#3#4#                                  ",
"        5#6#7#A+!#v.8#9#0#a#b#S.)@A+c#d#e#f#g#h#i#j#k#+@Z.                                      ",
"        l#m#n#o#`@v.p#q#r#s#t#u#v#w#x#y#z#A#B#C#D#E#F#G#                                        ",
"          H#I#J#K#T.L#M#N#O#P#Q#R#S#T#U#V#W#.@e@X#Y#                                            ",
"            Z#m#`# $.$+$@$#$$$%$&$*$=$-$;$H+>$(.                                                ",
"            Y#,$'$)$!$~${$i+]$^$/$C#;$($_$B.                                                    ",
"              :$<$[$}$|$w@@@1$2$(+3$>$x@                                                        ",
"                4$E#5$6$      Y#O Y#                                                            ",
"                  <                                                                             ",
"                                                                                                ",
"                                                                                                ",
"                                                                                                ",
"                                                                                                ",
"                                                                                                ",
"                                                                                                ",
"                                                                                                ",
"                                                                                                ",
"                                                                                                "};
