/* XPM */
static char * dev_zip_64_xpm[] = {
"48 48 474 2",
"  	c None",
". 	c #B8B8B8",
"+ 	c #7E7E7E",
"@ 	c #727272",
"# 	c #AAAAAA",
"$ 	c #B6B6B6",
"% 	c #6E6E6E",
"& 	c #737373",
"* 	c #A0A0A0",
"= 	c #A3A3A3",
"- 	c #898989",
"; 	c #838383",
"> 	c #818181",
", 	c #808080",
"' 	c #7F7F7F",
") 	c #646464",
"! 	c #8B8B8B",
"~ 	c #5C5C5C",
"{ 	c #676767",
"] 	c #696969",
"^ 	c #686868",
"/ 	c #5F5F5F",
"( 	c #6A6A6A",
"_ 	c #787878",
": 	c #7B7B7B",
"< 	c #797979",
"[ 	c #8E8E8E",
"} 	c #707070",
"| 	c #747474",
"1 	c #717171",
"2 	c #949494",
"3 	c #B9B9B9",
"4 	c #A5A5A5",
"5 	c #979797",
"6 	c #969696",
"7 	c #939393",
"8 	c #929292",
"9 	c #919191",
"0 	c #909090",
"a 	c #8F8F8F",
"b 	c #8C8C8C",
"c 	c #8A8A8A",
"d 	c #888888",
"e 	c #878787",
"f 	c #868686",
"g 	c #858585",
"h 	c #848484",
"i 	c #757575",
"j 	c #767676",
"k 	c #5E5E5E",
"l 	c #5B5B5B",
"m 	c #ACACAC",
"n 	c #7F7E7E",
"o 	c #7C7C7C",
"p 	c #7A7A79",
"q 	c #9E9E9E",
"r 	c #7D7D7D",
"s 	c #585858",
"t 	c #AEAEAE",
"u 	c #575757",
"v 	c #5E5F5F",
"w 	c #5E5E5F",
"x 	c #5D5E5E",
"y 	c #5A5B5B",
"z 	c #6F6F6F",
"A 	c #555555",
"B 	c #616161",
"C 	c #A9A9A9",
"D 	c #EBEBEB",
"E 	c #E8E9E9",
"F 	c #E5E6E6",
"G 	c #E3E4E5",
"H 	c #E0E3E4",
"I 	c #DEE1E1",
"J 	c #DCDFE0",
"K 	c #DADDDF",
"L 	c #D7DBDD",
"M 	c #D5D8DB",
"N 	c #D4D6D8",
"O 	c #D1D5D7",
"P 	c #CFD4D6",
"Q 	c #CCD2D4",
"R 	c #CACFD2",
"S 	c #C8CDD1",
"T 	c #C6CBCF",
"U 	c #C4C9CE",
"V 	c #C2C8CC",
"W 	c #C3CACE",
"X 	c #7B7E80",
"Y 	c #535353",
"Z 	c #545454",
"` 	c #7A7A7A",
" .	c #A7A7A7",
"..	c #FFFFFF",
"+.	c #FDFEFF",
"@.	c #FAFCFD",
"#.	c #F7FAFB",
"$.	c #F5F8F8",
"%.	c #F3F6F7",
"&.	c #F1F4F6",
"*.	c #EDF2F4",
"=.	c #EBEFF2",
"-.	c #E9ECEF",
";.	c #E6EBED",
">.	c #E4E9EB",
",.	c #E1E7EA",
"'.	c #DFE4E7",
").	c #DDE2E6",
"!.	c #DAE0E4",
"~.	c #D8DEE3",
"{.	c #D6DDE1",
"].	c #D8DFE4",
"^.	c #85888A",
"/.	c #939292",
"(.	c #8D8D8D",
"_.	c #525252",
":.	c #FCFDFD",
"<.	c #F9FAFA",
"[.	c #F6F8F9",
"}.	c #F1F4F4",
"|.	c #EFF2F3",
"1.	c #EDF0F2",
"2.	c #EAEEF0",
"3.	c #E8EBEE",
"4.	c #E6E9EB",
"5.	c #E3E8EA",
"6.	c #E1E6E8",
"7.	c #DEE4E7",
"8.	c #DCE1E4",
"9.	c #DADFE3",
"0.	c #D7DDE1",
"a.	c #D5DBE0",
"b.	c #D3DADE",
"c.	c #D5DCE1",
"d.	c #848689",
"e.	c #929291",
"f.	c #777777",
"g.	c #505050",
"h.	c #515151",
"i.	c #929191",
"j.	c #4E4E4E",
"k.	c #4F4F4F",
"l.	c #828282",
"m.	c #A1A1A1",
"n.	c #919190",
"o.	c #4D4D4D",
"p.	c #9F9F9F",
"q.	c #6D6D6D",
"r.	c #777676",
"s.	c #919090",
"t.	c #4B4B4B",
"u.	c #4A4A4A",
"v.	c #9D9D9D",
"w.	c #90908F",
"x.	c #484848",
"y.	c #9B9B9B",
"z.	c #6C6C6C",
"A.	c #474747",
"B.	c #999999",
"C.	c #6B6B6B",
"D.	c #454545",
"E.	c #494949",
"F.	c #434343",
"G.	c #959595",
"H.	c #F9FBFC",
"I.	c #F6F9FA",
"J.	c #F4F7F7",
"K.	c #F2F5F6",
"L.	c #F0F3F5",
"M.	c #EDF1F3",
"N.	c #EBEEF1",
"O.	c #E9ECEE",
"P.	c #DCE2E6",
"Q.	c #D9E0E4",
"R.	c #D7DEE3",
"S.	c #D5DDE1",
"T.	c #D7DFE4",
"U.	c #85878A",
"V.	c #404040",
"W.	c #666666",
"X.	c #747271",
"Y.	c #F6F3EF",
"Z.	c #F3F1ED",
"`.	c #EFEEEA",
" +	c #EEECE8",
".+	c #ECE9E7",
"++	c #E9E8E6",
"@+	c #E7E7E4",
"#+	c #E6E5E3",
"$+	c #E3E3E0",
"%+	c #E1E0DF",
"&+	c #DFDFDD",
"*+	c #DDDEDC",
"=+	c #DBDBDA",
"-+	c #D4DCDD",
";+	c #CCDEE1",
">+	c #CADBDF",
",+	c #C9D9DD",
"'+	c #C7D7DC",
")+	c #C6D6DA",
"!+	c #C8D8DD",
"~+	c #7E8587",
"{+	c #3F3F3F",
"]+	c #656565",
"^+	c #3C444D",
"/+	c #546B85",
"(+	c #556D86",
"_+	c #526A84",
":+	c #516883",
"<+	c #4F6782",
"[+	c #4C6680",
"}+	c #4B647F",
"|+	c #49627F",
"1+	c #46617C",
"2+	c #45607B",
"3+	c #435E7A",
"4+	c #405C79",
"5+	c #395D7C",
"6+	c #62495B",
"7+	c #9D2D2C",
"8+	c #942E2F",
"9+	c #8F2E2F",
"0+	c #8B2D2F",
"a+	c #862D2E",
"b+	c #812929",
"c+	c #603B3C",
"d+	c #979C9C",
"e+	c #3E3E3E",
"f+	c #74716E",
"g+	c #384B61",
"h+	c #467CBB",
"i+	c #457BB8",
"j+	c #4178B6",
"k+	c #3E76B4",
"l+	c #3B73B2",
"m+	c #3770B0",
"n+	c #336FAE",
"o+	c #306BAC",
"p+	c #2C68AA",
"q+	c #2866A8",
"r+	c #2463A6",
"s+	c #2161A4",
"t+	c #1363AA",
"u+	c #633861",
"v+	c #D50000",
"w+	c #C50000",
"x+	c #BD0000",
"y+	c #B40000",
"z+	c #AC0000",
"A+	c #A60000",
"B+	c #702828",
"C+	c #959F9F",
"D+	c #3C3C3C",
"E+	c #424242",
"F+	c #767472",
"G+	c #384655",
"H+	c #457AB5",
"I+	c #4D83C2",
"J+	c #477FBD",
"K+	c #447CBA",
"L+	c #4179B9",
"M+	c #3D76B7",
"N+	c #3974B5",
"O+	c #3572B3",
"P+	c #326FB1",
"Q+	c #2E6CAE",
"R+	c #2969AC",
"S+	c #2666AA",
"T+	c #1869B1",
"U+	c #663B65",
"V+	c #D80000",
"W+	c #C80000",
"X+	c #C00000",
"Y+	c #B80000",
"Z+	c #B20000",
"`+	c #9A0000",
" @	c #603333",
".@	c #9CA3A3",
"+@	c #3B3B3B",
"@@	c #606060",
"#@	c #797878",
"$@	c #3A4F65",
"%@	c #385678",
"&@	c #365475",
"*@	c #345274",
"=@	c #335173",
"-@	c #315072",
";@	c #2F4E71",
">@	c #2D4D6F",
",@	c #2A4B6E",
"'@	c #294A6E",
")@	c #2A4D70",
"!@	c #224E74",
"~@	c #4D344B",
"{@	c #8A1110",
"]@	c #811313",
"^@	c #771313",
"/@	c #721313",
"(@	c #6F1111",
"_@	c #591B1B",
":@	c #777878",
"<@	c #A6A7A7",
"[@	c #393939",
"}@	c #3D3D3D",
"|@	c #7E7E7D",
"1@	c #888583",
"2@	c #807D7B",
"3@	c #817E7C",
"4@	c #817F7C",
"5@	c #827F7C",
"6@	c #83807D",
"7@	c #84817E",
"8@	c #85817E",
"9@	c #808381",
"0@	c #7C8585",
"a@	c #7A8585",
"b@	c #7B8585",
"c@	c #808888",
"d@	c #9A9A9A",
"e@	c #A2A2A2",
"f@	c #373737",
"g@	c #8A8989",
"h@	c #898888",
"i@	c #888787",
"j@	c #858584",
"k@	c #838382",
"l@	c #7E7D7D",
"m@	c #7A7B7B",
"n@	c #797A7A",
"o@	c #767777",
"p@	c #727373",
"q@	c #626262",
"r@	c #3A3A3A",
"s@	c #353535",
"t@	c #A8A8A8",
"u@	c #383838",
"v@	c #595959",
"w@	c #333333",
"x@	c #363636",
"y@	c #303030",
"z@	c #565656",
"A@	c #2F2F2F",
"B@	c #2D2D2D",
"C@	c #313131",
"D@	c #636363",
"E@	c #2B2B2B",
"F@	c #292929",
"G@	c #2E2E2E",
"H@	c #272727",
"I@	c #767675",
"J@	c #737372",
"K@	c #727271",
"L@	c #717170",
"M@	c #70706F",
"N@	c #6D6D6C",
"O@	c #6C6C6B",
"P@	c #686867",
"Q@	c #676766",
"R@	c #656564",
"S@	c #646463",
"T@	c #242424",
"U@	c #6A6A6B",
"V@	c #757574",
"W@	c #4C4C4F",
"X@	c #4C4C50",
"Y@	c #4F4F54",
"Z@	c #4F4F53",
"`@	c #4E4E52",
" #	c #4D4D52",
".#	c #4B4B50",
"+#	c #48484D",
"@#	c #47474C",
"##	c #48484C",
"$#	c #444448",
"%#	c #252527",
"&#	c #252524",
"*#	c #232323",
"=#	c #727279",
"-#	c #BEBEC7",
";#	c #E0E0E6",
">#	c #E1E1E7",
",#	c #E1E1E6",
"'#	c #E2E2E8",
")#	c #E3E3E9",
"!#	c #E4E4E9",
"~#	c #B6B6C0",
"{#	c #35353B",
"]#	c #0D0D0C",
"^#	c #202020",
"/#	c #666665",
"(#	c #67676E",
"_#	c #C2C2D1",
":#	c #F1F1F6",
"<#	c #F2F2F6",
"[#	c #F3F3F7",
"}#	c #F3F3F6",
"|#	c #EFEFF7",
"1#	c #B3B3C3",
"2#	c #2E2E32",
"3#	c #272726",
"4#	c #1C1C1C",
"5#	c #A4A4A4",
"6#	c #1A1A1A",
"7#	c #60605F",
"8#	c #787884",
"9#	c #CDCDDD",
"0#	c #C9C9D8",
"a#	c #CCCCDA",
"b#	c #D1D1DD",
"c#	c #D2D2DE",
"d#	c #D4D4DE",
"e#	c #D3D3DE",
"f#	c #D0D0DD",
"g#	c #CACAD9",
"h#	c #C4C4D6",
"i#	c #595963",
"j#	c #2A2A29",
"k#	c #1D1D1D",
"l#	c #161616",
"m#	c #B3B3B3",
"n#	c #222222",
"o#	c #141414",
"p#	c #7A7A87",
"q#	c #C2C2D5",
"r#	c #C1C1D2",
"s#	c #C0C0D1",
"t#	c #BFBFD0",
"u#	c #BFBFD1",
"v#	c #C1C1D3",
"w#	c #BABACE",
"x#	c #61616C",
"y#	c #3C3C3A",
"z#	c #252525",
"A#	c #121212",
"B#	c #171717",
"C#	c #212121",
"D#	c #494948",
"E#	c #7D7D8B",
"F#	c #AEAEC4",
"G#	c #ACACC1",
"H#	c #ACACC0",
"I#	c #ABABC1",
"J#	c #ABABC0",
"K#	c #A7A7BF",
"L#	c #666670",
"M#	c #515150",
"N#	c #4C4C4C",
"O#	c #191919",
"P#	c #2C2C2C",
"Q#	c #464646",
"R#	c #B2B2B2",
"S#	c #10100F",
"T#	c #4C4C5A",
"U#	c #9090AB",
"V#	c #8989A2",
"W#	c #8888A1",
"X#	c #8787A0",
"Y#	c #8989A3",
"Z#	c #3C3C46",
"`#	c #11110F",
" $	c #131313",
".$	c #111111",
"+$	c #B0B0B0",
"@$	c #AFAFAF",
"#$	c #1B1B1C",
"$$	c #1E1E24",
"%$	c #1D1D22",
"&$	c #1C1C1F",
"*$	c #1B1B1E",
"=$	c #1A1A1D",
"-$	c #1A1A1E",
";$	c #131315",
">$	c #BBBBBB",
",$	c #ABABAB",
"                                                                                                ",
"                                                                                                ",
"                                                                                                ",
"                                                                                                ",
"                      . + @ #                                     $ % & *                       ",
"        = - ; > , > ' ) ! ; ~ { ] ] ] ] ] ^ ^ ^ ^ ^ ^ ] { ) ) ) ) / ( % ~ % _ : : : < [         ",
"        / } | | | | 1 2 3 4 5 5 6 2 7 8 9 0 a [ b b c - d e f f f g h + i i j j j j i k 6       ",
"        l , b 9 0 0 0 m e _ , ' ' ' ' ' n + + + + o o o o o o o o p ! q r 0 9 9 9 a ; s % t     ",
"        s + b 7 8 8 8 # : u / / / / / / / v v w k w w k k k k x x y z = o 9 8 8 7 a > A B C     ",
"        A o - 0 a a 0 C 1 z D E F G H I J K L M N O P Q R S T U V W X 2 : [ a a 0 b ' Y B C     ",
"        Z ` d a [ [ [  .} j ....+.@.#.$.%.&.*.=.-.;.>.,.'.).!.~.{.].^./.< (.[ [ a ! r _.B C     ",
"        _.< f (.b b b 4 z j ..:.<.[.%.}.|.1.2.3.4.5.6.7.8.9.0.a.b.c.d.e.f.! b b (.- o g.B C     ",
"        h.j h ! c c c = % j ..:.<.[.%.}.|.1.2.3.4.5.6.7.8.9.0.a.b.c.d.i.j - c c ! e < j.B C     ",
"        k.i l.- d d d m.% j ..:.<.[.%.}.|.1.2.3.4.5.6.7.8.9.0.a.b.c.d.n.& e d d - f _ o.B C     ",
"        o.| > e f f f p.q.r...:.<.[.%.}.|.1.2.3.4.5.6.7.8.9.0.a.b.c.d.s.} h f f e h f.t.B C     ",
"        u.1 + g h h h v.q.f...:.<.[.%.}.|.1.2.3.4.5.6.7.8.9.0.a.b.c.d.w.% l.h h g > | x.B C     ",
"        x.} o l.> > > y.z.f...:.<.[.%.}.|.1.2.3.4.5.6.7.8.9.0.a.b.c.d.w.z.' > > > ' & A.B C     ",
"        A.z : > , , , B.C.f...:.<.[.%.}.|.1.2.3.4.5.6.7.8.9.0.a.b.c.d.i.C.+ , , , + @ D.B C     ",
"        E.C.` ' + + + 5 C.f...:.<.[.%.}.|.1.2.3.4.5.6.7.8.9.0.a.b.c.d.i.] o + + + o } F.B C     ",
"        x.^ _ r o o o G.( f.....:.H.I.J.K.L.M.N.O.;.>.,.7.P.Q.R.S.T.U.i.] ` o o o ` % V.B C     ",
"        A.W.j : ` ` ` 7 ( X.Y.Z.`. +.+++@+#+$+%+&+*+=+-+;+>+,+'+)+!+~+/.] _ ` ` ` < z.{+B C     ",
"        D.]+i ` < < < 8 X.^+/+(+_+:+<+[+}+|+1+2+3+4+5+6+7+8+9+0+a+b+c+d+] f.< < < _ C.e+B C     ",
"        F.) & _ f.f.f.0 f+g+h+i+j+k+l+m+n+o+p+q+r+s+t+u+v+w+x+y+z+A+B+C+^ i f.f.f.j ( D+B C     ",
"        E+B 1 j i i i [ F+G+H+I+J+K+L+M+N+O+P+Q+R+S+T+U+V+W+X+Y+Z+`+ @.@^ & i i i | { +@B C     ",
"        V.@@z | & & & c #@v $@%@&@*@=@-@;@>@,@'@)@)@!@~@{@]@^@/@(@_@:@<@W.1 & & & @ W.[@B C     ",
"        }@k q.@ 1 1 1 e & |@1@2@3@4@4@4@5@5@5@5@6@7@8@9@0@0@a@b@a@c@d@e@W.} 1 1 1 } ) f@@@C     ",
"        +@~ C.} z z z g & ` b g@h@i@f j@h k@l.> ' n l@o m@n@< _ o@p@l.m.]+% z z z % q@f@@@C     ",
"        r@l ] % q.q.q.h @ < - f g ; l., ' + r : ` < f.f.i | @ 1 } C.+ m.]+z.q.q.q.z.B s@/ t@    ",
"        u@v@{ C.( ( ( > 1 _ d g h l.> ' + r o ` < _ f.j | & @ } z C.+ m.]+] ( ( ( ] @@w@k t@    ",
"        x@s W.( ] ] ] , } _ f ; l.> ' + r o ` < _ f.j | & @ } z % ( r e@]+^ ] ] ] ^ k y@k t@    ",
"        s@z@) ^ { { { + } f.g l.> ' + r : ` < _ f.i | & 1 } z q.z.^ : m.) W.{ { { W.~ A@k t@    ",
"        w@A q@W.]+]+]+o z j h > ' + r : ` < _ f.i | & @ } z q.z.C.{ : e@) ) ]+]+]+) l B@k t@    ",
"        C@_./ ) D@D@D@` z j l.' + r : ` < _ f.i | & @ } z q.z.C.( W.` e@) q@D@D@D@q@s E@k t@    ",
"        A@h.k D@q@q@q@_ % | > + r o ` < _ f.i | & @ } z q.z.C.( ] ]+< e@D@B q@q@q@B u F@k t@    ",
"        G@k.B ] ^ ^ ^ _ q.| ' r o : < _ f.j i | @ 1 } % q.z.( ] { D@_ m.]+{ ^ ^ ] W.z@H@k t@    ",
"        E@t.) | @ @ @ ` z.& ' + I@J@K@L@M@% N@O@] P@Q@R@S@Q@z.C.W.q@f.m.W.1 @ @ & % Z T@k t@    ",
"        F@E.] ' o o o o U@V@J@W@X@Y@Z@`@`@ # #.#+#@#@###$#%#&#Z ^ B j m.^ ` o o r j Y *#k t@    ",
"        G@D.z (.e g g + C.P@=#-#;#>#;#,#,#,#>#>#>#>#'#)#!#~#{#]#j.D@i m.^ ; f e c r Y ^#k t@    ",
"        u.B@s j e 8 7 , /#(#_#:#<#[#[#}#}#}#}#}#}#}#[#[#<#|#1#2#3#v@i * ( 0 7 d _ / u@4#q@#     ",
"        5#G@6#w@t.C.h ' 7#8#9#0#a#b#c#d#d#d#d#d#d#e#e#f#g#g#h#i#j#k.` e@C.; z o.x@k#l#r@i m#    ",
"          5#u n#o#*#f@@@O@p#q#r#s#t#u#s#s#s#s#s#s#s#t#t#u#v#w#x#y#1  .0 v@+@z#A#B#G@j.} v.      ",
"            t 0 z.E+C#l#D#E#F#G#G#H#H#G#G#I#J#J#J#J#J#J#J#G#K#L#M#B ] N#O#l#P#Q#~ 1 b #         ",
"                R#m.b s S#T#U#V#V#V#V#W#X#X#X#X#X#X#X#X#X#W#Y#Z#`#l# $.$E@g.% c * +$            ",
"                      @$z #$$$%$%$%$%$&$*$=$=$=$=$=$=$=$=$=$-$;$C@D.t.u C.b m                   ",
"                        >$5 } B @@B B B q@) ) ) ) ) ) ) ) ) ) ) @ b y.* m                       ",
"                            +$C C C C C # ,$,$,$,$,$,$,$,$,$,$m R#                              ",
"                                                                                                ",
"                                                                                                "};
