/* XPM */
static char * dev_cd_64_xpm[] = {
"48 48 808 2",
"  	c None",
". 	c #AEAEC3",
"+ 	c #8F8FB9",
"@ 	c #7373B1",
"# 	c #5A5AAB",
"$ 	c #4848A6",
"% 	c #403FA5",
"& 	c #3E3EA4",
"* 	c #4343A5",
"= 	c #5252A7",
"- 	c #6767AB",
"; 	c #8181B0",
"> 	c #9D9DB7",
", 	c #B8B8C6",
"' 	c #8A8AB9",
") 	c #5353AA",
"! 	c #3636A5",
"~ 	c #3C3CAB",
"{ 	c #4A4CB2",
"] 	c #5C60BD",
"^ 	c #6A6EC4",
"/ 	c #6F74C7",
"( 	c #6C70C5",
"_ 	c #5D60BE",
": 	c #4B4CB5",
"< 	c #3C3DAC",
"[ 	c #3434A6",
"} 	c #4141A1",
"| 	c #7070A8",
"1 	c #A1A1B5",
"2 	c #B7B7C6",
"3 	c #7070B2",
"4 	c #3C3BA6",
"5 	c #3A3AAA",
"6 	c #6669C1",
"7 	c #A2A7DE",
"8 	c #C9CFF0",
"9 	c #E0E6FB",
"0 	c #E8EEFE",
"a 	c #EEF3FF",
"b 	c #F0F5FF",
"c 	c #F0F6FF",
"d 	c #EDF4FF",
"e 	c #E4E9FF",
"f 	c #D9DDFC",
"g 	c #C6CAF3",
"h 	c #A2A6E2",
"i 	c #7274C7",
"j 	c #4243AD",
"k 	c #3434A3",
"l 	c #5555A3",
"m 	c #9C9CAF",
"n 	c #9090BC",
"o 	c #3E3EA7",
"p 	c #3838A9",
"q 	c #7D7FCB",
"r 	c #CACFED",
"s 	c #FCFFFF",
"t 	c #F9FCFF",
"u 	c #F5F9FF",
"v 	c #F4F8FF",
"w 	c #F3F7FF",
"x 	c #F2F6FF",
"y 	c #F1F6FF",
"z 	c #EFF3FF",
"A 	c #EEF1FF",
"B 	c #F1F3FF",
"C 	c #F3F6FF",
"D 	c #F8FAFF",
"E 	c #DEE0F2",
"F 	c #9696D3",
"G 	c #4242AD",
"H 	c #3434A1",
"I 	c #6868A0",
"J 	c #B3B3B6",
"K 	c #6C6CB2",
"L 	c #3333A6",
"M 	c #7274C4",
"N 	c #C7CBEB",
"O 	c #F8FDFF",
"P 	c #F5F8FF",
"Q 	c #F1F5FF",
"R 	c #F0F4FF",
"S 	c #EFF4FF",
"T 	c #ECEFFF",
"U 	c #EAEDFF",
"V 	c #FAFBFF",
"W 	c #FEFFFF",
"X 	c #FFFFFF",
"Y 	c #DDDDF2",
"Z 	c #8182C9",
"` 	c #3838A8",
" .	c #49499B",
"..	c #9797A9",
"+.	c #B5B5C6",
"@.	c #5252AB",
"#.	c #3D3DAB",
"$.	c #9B9ED8",
"%.	c #F7FBFF",
"&.	c #F4F7FF",
"*.	c #F2F5FF",
"=.	c #EAEEFF",
"-.	c #E9ECFF",
";.	c #EFF1FF",
">.	c #F9FAFF",
",.	c #F7F9FF",
"'.	c #F8F9FF",
").	c #BABBE3",
"!.	c #4A4AB1",
"~.	c #37379E",
"{.	c #82829E",
"].	c #4747A9",
"^.	c #4344AF",
"/.	c #BCC1E9",
"(.	c #F0F3FF",
"_.	c #EFF2FF",
":.	c #EEF2FF",
"<.	c #EDF2FF",
"[.	c #EDF1FF",
"}.	c #ECF1FF",
"|.	c #ECF0FF",
"1.	c #E8EBFF",
"2.	c #E7EAFF",
"3.	c #F2F3FF",
"4.	c #F6F7FF",
"5.	c #F5F6FF",
"6.	c #DADBF2",
"7.	c #5A5BB9",
"8.	c #3333A0",
"9.	c #7B7B97",
"0.	c #B9B9B9",
"a.	c #5151AB",
"b.	c #4444AF",
"c.	c #BDC4EC",
"d.	c #F8FCFF",
"e.	c #EBEFFF",
"f.	c #EAEFFF",
"g.	c #E9EDFF",
"h.	c #E5E8FF",
"i.	c #E4E7FF",
"j.	c #F3F4FF",
"k.	c #F2F4FF",
"l.	c #FCFDFF",
"m.	c #DDDFF5",
"n.	c #34349E",
"o.	c #828295",
"p.	c #BBBBBB",
"q.	c #6D6DB2",
"r.	c #3E3EAB",
"s.	c #B5BCE9",
"t.	c #F2F8FF",
"u.	c #EDF0FF",
"v.	c #EBEEFF",
"w.	c #E8ECFF",
"x.	c #E7ECFF",
"y.	c #E6EAFF",
"z.	c #E2E5FF",
"A.	c #E1E4FF",
"B.	c #F1F2FF",
"C.	c #F0F1FF",
"D.	c #D4D7F3",
"E.	c #4C4DB2",
"F.	c #3D3D95",
"G.	c #939399",
"H.	c #9393BC",
"I.	c #989CD9",
"J.	c #EBF4FF",
"K.	c #E7EBFF",
"L.	c #E5EAFF",
"M.	c #E5E9FF",
"N.	c #E3E6FF",
"O.	c #DFE2FF",
"P.	c #EBECFF",
"Q.	c #EEEFFF",
"R.	c #EEEEFF",
"S.	c #EDEEFF",
"T.	c #EDEDFF",
"U.	c #F6F8FF",
"V.	c #BABDE7",
"W.	c #3D3DAA",
"X.	c #4E4E8E",
"Y.	c #A5A5A5",
"Z.	c #BABAC7",
"`.	c #7374C4",
" +	c #E8F1FF",
".+	c #E3EBFF",
"++	c #E6E9FF",
"@+	c #E4E8FF",
"#+	c #E3E7FF",
"$+	c #E2E7FF",
"%+	c #E2E6FF",
"&+	c #DFE3FF",
"*+	c #DCDEFF",
"=+	c #E0E3FF",
"-+	c #EAECFF",
";+	c #EAEBFF",
">+	c #E9EBFF",
",+	c #D4DEFF",
"'+	c #747AD2",
")+	c #3231A2",
"!+	c #696988",
"~+	c #B2B2B2",
"{+	c #3A3AA9",
"]+	c #C1C7ED",
"^+	c #E9F2FF",
"/+	c #E0E8FF",
"(+	c #E1E5FF",
"_+	c #E0E5FF",
":+	c #E0E4FF",
"<+	c #DCE0FF",
"[+	c #D9DCFF",
"}+	c #E3E4FF",
"|+	c #EAEAFF",
"1+	c #E9E9FF",
"2+	c #E8E9FF",
"3+	c #E7E9FF",
"4+	c #E9EAFF",
"5+	c #E8E8FF",
"6+	c #D0D5FF",
"7+	c #B0BEFF",
"8+	c #A5B0F8",
"9+	c #4748B2",
"0+	c #3D3D94",
"a+	c #909091",
"b+	c #3A39A5",
"c+	c #8183CB",
"d+	c #EBF3FF",
"e+	c #E1EAFF",
"f+	c #DEE2FF",
"g+	c #DFE4FF",
"h+	c #DBDDFF",
"i+	c #E4E5FF",
"j+	c #E6E7FF",
"k+	c #E6E6FF",
"l+	c #E5E6FF",
"m+	c #E5E7FF",
"n+	c #DEE0FF",
"o+	c #D8DAFF",
"p+	c #BFC7FF",
"q+	c #ADBBFF",
"r+	c #B6C4FF",
"s+	c #7F87DC",
"t+	c #3534A4",
"u+	c #61617A",
"v+	c #ACACAC",
"w+	c #C9CEEF",
"x+	c #E9F1FF",
"y+	c #E0E9FF",
"z+	c #DFE6FF",
"A+	c #DEE1FF",
"B+	c #DDE1FF",
"C+	c #D4D7FF",
"D+	c #CCCDFF",
"E+	c #CBCCFF",
"F+	c #CDCEFF",
"G+	c #E8EAFF",
"H+	c #E3E5FF",
"I+	c #E1E2FF",
"J+	c #D7DBFF",
"K+	c #CCD1FF",
"L+	c #B2BEFF",
"M+	c #AFBCFF",
"N+	c #B1BEFF",
"O+	c #A8B6FA",
"P+	c #484AB3",
"Q+	c #424187",
"R+	c #949494",
"S+	c #4F50A9",
"T+	c #6F70C1",
"U+	c #EAF0FF",
"V+	c #E3ECFF",
"W+	c #DEE8FF",
"X+	c #B1ADFF",
"Y+	c #9E98FF",
"Z+	c #9B95FF",
"`+	c #9C96FF",
" @	c #ACA8FF",
".@	c #CBC9FF",
"+@	c #D5D8FF",
"@@	c #D3D7FF",
"#@	c #D2D6FF",
"$@	c #B9C2FF",
"%@	c #B1C1FF",
"&@	c #B4C6FF",
"*@	c #BDD4FF",
"=@	c #7681D3",
"-@	c #34339E",
";@	c #70707B",
">@	c #B3B3B3",
",@	c #3535A6",
"'@	c #ACAEDE",
")@	c #EFF6FF",
"!@	c #E2EAFF",
"~@	c #DDE7FF",
"{@	c #DEE4FF",
"]@	c #B6B4FF",
"^@	c #9A93FF",
"/@	c #968FFF",
"(@	c #9892FF",
"_@	c #9993FF",
":@	c #9690FF",
"<@	c #958FFF",
"[@	c #9891FF",
"}@	c #B0ACFF",
"|@	c #E0E0FF",
"1@	c #E7E8FF",
"2@	c #E2E4FF",
"3@	c #D9DBFF",
"4@	c #D3D6FF",
"5@	c #D4D8FF",
"6@	c #D1D5FF",
"7@	c #BCC7FF",
"8@	c #B4C5FF",
"9@	c #B8CBFF",
"0@	c #B9CEFF",
"a@	c #B7CEFF",
"b@	c #BBD3FF",
"c@	c #9AABEC",
"d@	c #515177",
"e@	c #A0A0A0",
"f@	c #8E8EB9",
"g@	c #4040AB",
"h@	c #CFD3F1",
"i@	c #E8F0FF",
"j@	c #E2EBFF",
"k@	c #DCE6FF",
"l@	c #DDE4FF",
"m@	c #B7B5FF",
"n@	c #9791FF",
"o@	c #9790FF",
"p@	c #A29DFC",
"q@	c #BEBBF3",
"r@	c #CDCAEF",
"s@	c #CDCCEE",
"t@	c #C3C0F2",
"u@	c #A8A3FA",
"v@	c #AEAAFF",
"w@	c #DDDFFF",
"x@	c #CCD5FF",
"y@	c #BFCEFF",
"z@	c #BACEFF",
"A@	c #BCD0FF",
"B@	c #BAD0FF",
"C@	c #B7CDFF",
"D@	c #B8CFFF",
"E@	c #AEC3FB",
"F@	c #4749B2",
"G@	c #42427D",
"H@	c #8E8E8E",
"I@	c #7070B0",
"J@	c #5050B3",
"K@	c #E4E9FC",
"L@	c #E5EDFF",
"M@	c #DAE5FF",
"N@	c #DAE4FF",
"O@	c #DBE3FF",
"P@	c #AAA5FA",
"Q@	c #DEDDE9",
"R@	c #F1F1E6",
"S@	c #F5F5E8",
"T@	c #F4F5E8",
"U@	c #F2F3E7",
"V@	c #E4E4E7",
"W@	c #B5B2F6",
"X@	c #BDBCFF",
"Y@	c #D7DCFF",
"Z@	c #D0D7FF",
"`@	c #C6D5FF",
" #	c #BED2FF",
".#	c #BDD1FF",
"+#	c #BBCFFF",
"@#	c #BACFFF",
"##	c #B5CBFF",
"$#	c #5A60C0",
"%#	c #3A3A86",
"&#	c #7E7E7E",
"*#	c #B8B8B8",
"=#	c #5757AB",
"-#	c #6767BD",
";#	c #E8EDFF",
">#	c #D9E4FF",
",#	c #D8E4FF",
"'#	c #ADABFF",
")#	c #A39DFC",
"!#	c #DDDDE8",
"~#	c #EFEFE7",
"{#	c #CACADC",
"]#	c #8F8FC7",
"^#	c #8989C5",
"/#	c #BDBDD7",
"(#	c #ECEDE7",
"_#	c #E6E6E6",
":#	c #ACA7F9",
"<#	c #A29EFF",
"[#	c #C4D2FF",
"}#	c #C2D6FF",
"|#	c #BFD3FF",
"1#	c #BFD2FF",
"2#	c #B6CDFF",
"3#	c #B9D0FF",
"4#	c #6971CA",
"5#	c #35348E",
"6#	c #737373",
"7#	c #4646A7",
"8#	c #7778C4",
"9#	c #EBF1FF",
"0#	c #E5ECFF",
"a#	c #D9E5FF",
"b#	c #CDD7FF",
"c#	c #9C97FF",
"d#	c #BFBBF3",
"e#	c #4848AE",
"f#	c #2D2D9A",
"g#	c #2D2D97",
"h#	c #3939A9",
"i#	c #B5B5D5",
"j#	c #F3F3E7",
"k#	c #CBC8EF",
"l#	c #B7C1FF",
"m#	c #C3D7FF",
"n#	c #C0D3FF",
"o#	c #B6CCFF",
"p#	c #BCD4FF",
"q#	c #737ED2",
"r#	c #333195",
"s#	c #6A6A6A",
"t#	c #AEAEAE",
"u#	c #3E3EA5",
"v#	c #7E7FC7",
"w#	c #EDF3FF",
"x#	c #E4ECFF",
"y#	c #DAE7FF",
"z#	c #C7CEFF",
"A#	c #9A94FF",
"B#	c #CCCBEE",
"C#	c #2D2D9B",
"D#	c #3D3D4E",
"E#	c #515158",
"F#	c #383892",
"G#	c #6969BA",
"H#	c #EAEAE6",
"I#	c #D9D8EB",
"J#	c #9D97FE",
"K#	c #B2BAFF",
"L#	c #C4D8FF",
"M#	c #BDD5FF",
"N#	c #7782D4",
"O#	c #313098",
"P#	c #646464",
"Q#	c #3D3DA4",
"R#	c #7F80C7",
"S#	c #EEF4FF",
"T#	c #C6CDFF",
"U#	c #F4F5E9",
"V#	c #525257",
"W#	c #868686",
"X#	c #4E4E9E",
"Y#	c #6060B7",
"Z#	c #E8E8E6",
"`#	c #DADAEB",
" $	c #616161",
".$	c #A9A9A9",
"+$	c #4242A5",
"@$	c #7A7BC5",
"#$	c #C2C0F2",
"$$	c #F2F2E7",
"%$	c #2F2FA5",
"&$	c #A2A2CE",
"*$	c #F3F3E8",
"=$	c #CFCDEE",
"-$	c #B5BFFF",
";$	c #BCD5FF",
">$	c #7580D3",
",$	c #323196",
"'$	c #5151A7",
")$	c #6B6BBE",
"!$	c #D5E0FF",
"~$	c #A6A3FF",
"{$	c #A8A4FA",
"]$	c #E5E4E7",
"^$	c #EDEDE7",
"/$	c #B4B4D4",
"($	c #6868B9",
"_$	c #E9E9E6",
":$	c #EAEAE5",
"<$	c #B3AFF7",
"[$	c #9D97FF",
"}$	c #BECDFF",
"|$	c #C3D6FF",
"1$	c #BAD1FF",
"2$	c #6B74CC",
"3$	c #34328F",
"4$	c #636363",
"5$	c #ABABAB",
"6$	c #5756B4",
"7$	c #EAEEFD",
"8$	c #DBE6FF",
"9$	c #D7E1FF",
"0$	c #CED6FF",
"a$	c #C9D1FF",
"b$	c #B2B5FF",
"c$	c #B6B2F6",
"d$	c #E7E6E6",
"e$	c #E8E8E5",
"f$	c #C3BFF2",
"g$	c #9890FF",
"h$	c #ACB0FF",
"i$	c #C5D8FF",
"j$	c #C2D4FF",
"k$	c #5E65C2",
"l$	c #353586",
"m$	c #686868",
"n$	c #ADADAD",
"o$	c #8282B0",
"p$	c #4342AC",
"q$	c #DCDEF3",
"r$	c #E1E9FF",
"s$	c #D5DEFF",
"t$	c #CED5FF",
"u$	c #C3C9FF",
"v$	c #C3CAFF",
"w$	c #D2D7FF",
"x$	c #CAC8EF",
"y$	c #D9D8EC",
"z$	c #DAD9EB",
"A$	c #CECCEE",
"B$	c #B3AEF7",
"C$	c #A09CFF",
"D$	c #C0D0FF",
"E$	c #C4D7FF",
"F$	c #B8CEFF",
"G$	c #B1C6FC",
"H$	c #4B4EB5",
"I$	c #39397A",
"J$	c #707070",
"K$	c #B1B1B1",
"L$	c #9E9EB8",
"M$	c #3536A7",
"N$	c #BDBDE2",
"O$	c #F2F9FF",
"P$	c #DDE5FF",
"Q$	c #D5DDFF",
"R$	c #CCD2FF",
"S$	c #C8CDFF",
"T$	c #C6CCFF",
"U$	c #C4CAFF",
"V$	c #C9CFFF",
"W$	c #A09DFF",
"X$	c #BCC9FF",
"Y$	c #C7D9FF",
"Z$	c #C3D5FF",
"`$	c #A0B2F0",
" %	c #3C3DAB",
".%	c #3F3F6A",
"+%	c #7B7B7B",
"@%	c #B7B7B7",
"#%	c #4040A1",
"$%	c #8281C7",
"%%	c #F6FAFF",
"&%	c #DAE2FF",
"*%	c #CCD0FF",
"=%	c #C9CEFF",
"-%	c #C7CDFF",
";%	c #D5D9FF",
">%	c #EDEFFF",
",%	c #F0F2FF",
"'%	c #C5C4FF",
")%	c #A29DFF",
"!%	c #9D98FF",
"~%	c #AEB1FF",
"{%	c #C3D1FF",
"]%	c #C8D9FF",
"^%	c #C4D6FF",
"/%	c #BED5FF",
"(%	c #7F8CD9",
"_%	c #3433A2",
":%	c #49495A",
"<%	c #8A8A8A",
"[%	c #4343AD",
"}%	c #CDCCF4",
"|%	c #CBCFFF",
"1%	c #CBD0FF",
"2%	c #CACFFF",
"3%	c #EFF0FF",
"4%	c #B3B8FF",
"5%	c #B8BEFF",
"6%	c #B7BDFF",
"7%	c #BAC3FF",
"8%	c #C4D1FF",
"9%	c #CADCFF",
"0%	c #C8DAFF",
"a%	c #C6D6FF",
"b%	c #B9CFFF",
"c%	c #B4CAFC",
"d%	c #5155B9",
"e%	c #353485",
"f%	c #59595A",
"g%	c #9C9C9C",
"h%	c #A4A4B6",
"i%	c #8D8CD4",
"j%	c #DEDFFF",
"k%	c #EEF0FF",
"l%	c #C4CFFF",
"m%	c #D1E0FF",
"n%	c #CFDFFF",
"o%	c #CDDFFF",
"p%	c #CBDCFF",
"q%	c #C7D8FF",
"r%	c #BFD6FF",
"s%	c #8F9EE4",
"t%	c #3635A6",
"u%	c #3E3D60",
"v%	c #B0B0B0",
"w%	c #4343AE",
"x%	c #C6C5F3",
"y%	c #D2D5FF",
"z%	c #CDD2FF",
"A%	c #BEC5FF",
"B%	c #C6D1FF",
"C%	c #CEDDFF",
"D%	c #CCDBFF",
"E%	c #CBDBFF",
"F%	c #CADAFF",
"G%	c #BBD1FF",
"H%	c #B4C9FB",
"I%	c #5357BA",
"J%	c #353494",
"K%	c #4F4F51",
"L%	c #8D8D8D",
"M%	c #7A79CA",
"N%	c #D0D6FF",
"O%	c #BDC5FF",
"P%	c #C8D5FF",
"Q%	c #C1D8FF",
"R%	c #7F8AD8",
"S%	c #3331A4",
"T%	c #3C3C60",
"U%	c #A8A8A8",
"V%	c #66669F",
"W%	c #BBBAE4",
"X%	c #C3CBFF",
"Y%	c #CAD7FF",
"Z%	c #C0D6FF",
"`%	c #A6B9F2",
" &	c #4345AF",
".&	c #373682",
"+&	c #505050",
"@&	c #8C8C8C",
"#&	c #B1B1B5",
"$&	c #47479C",
"%&	c #4B4BB1",
"&&	c #DCDBF2",
"*&	c #EFEFFF",
"=&	c #DBDFFF",
"-&	c #C0C8FF",
";&	c #CCD9FF",
">&	c #BFD4FF",
",&	c #B9CCFA",
"'&	c #575ABB",
")&	c #333394",
"!&	c #43434F",
"~&	c #747474",
"{&	c #9696A7",
"]&	c #37379F",
"^&	c #5D5CB9",
"/&	c #E3E3F5",
"(&	c #FAFAFF",
"_&	c #CFD4FF",
":&	c #BEC7FF",
"<&	c #C1C9FF",
"[&	c #CEDBFF",
"}&	c #C0D5FF",
"|&	c #C0D3FD",
"1&	c #6C71C5",
"2&	c #3332A1",
"3&	c #3D3D5B",
"4&	c #9E9E9E",
"5&	c #82829D",
"6&	c #3232A0",
"7&	c #5D5DB9",
"8&	c #DEDDF3",
"9&	c #C4CBFF",
"0&	c #C2CBFF",
"a&	c #CEDCFF",
"b&	c #BFD1FA",
"c&	c #6F73C6",
"d&	c #3332A4",
"e&	c #3A3A65",
"f&	c #585858",
"g&	c #909090",
"h&	c #34349D",
"i&	c #4E4EB2",
"j&	c #C3C2E7",
"k&	c #F3F5FF",
"l&	c #D8DCFF",
"m&	c #C4CEFF",
"n&	c #CFDDFF",
"o&	c #C1D4FF",
"p&	c #C1D5FF",
"q&	c #CADEFF",
"r&	c #B9C6F1",
"s&	c #5E60BB",
"t&	c #3130A2",
"u&	c #393965",
"v&	c #545454",
"w&	c #888888",
"x&	c #B6B6B6",
"y&	c #808095",
"z&	c #3E3E95",
"A&	c #3D3CAA",
"B&	c #9594D2",
"C&	c #E5E5F6",
"D&	c #FBFCFF",
"E&	c #ECEEFF",
"F&	c #CAD0FF",
"G&	c #C0C7FF",
"H&	c #C6D0FF",
"I&	c #CFDEFF",
"J&	c #CDDCFF",
"K&	c #CBDEFF",
"L&	c #C9D7FB",
"M&	c #9298D8",
"N&	c #4B4BB0",
"O&	c #333294",
"P&	c #3C3C5C",
"Q&	c #878787",
"R&	c #B4B4B4",
"S&	c #949499",
"T&	c #4E4E8F",
"U&	c #2F2FA3",
"V&	c #4F4FB2",
"W&	c #ABAADC",
"X&	c #EBEBF9",
"Y&	c #CED3FF",
"Z&	c #BFC8FF",
"`&	c #C6D2FF",
" *	c #CBDAFF",
".*	c #C9DAFF",
"+*	c #C9DBFF",
"@*	c #D3E4FF",
"#*	c #D0DDFD",
"$*	c #ACB2E3",
"%*	c #6261BA",
"&*	c #3230A4",
"**	c #353581",
"=*	c #434351",
"-*	c #8F8F8F",
";*	c #B5B5B5",
">*	c #3C3C91",
",*	c #3232A5",
"'*	c #5252B3",
")*	c #9392D4",
"!*	c #BBBAEC",
"~*	c #CED0FA",
"{*	c #CED2FF",
"]*	c #DCE4FF",
"^*	c #E4F0FF",
"/*	c #DFEDFF",
"(*	c #DDEBFF",
"_*	c #DCEBFF",
":*	c #D9E6FF",
"<*	c #D6E3FF",
"[*	c #D4DFFC",
"}*	c #C3CAEF",
"|*	c #A2A4D8",
"1*	c #6060B9",
"2*	c #3736A6",
"3*	c #333391",
"4*	c #3C3C62",
"5*	c #515151",
"6*	c #9D9D9D",
"7*	c #919191",
"8*	c #61617C",
"9*	c #414186",
"0*	c #31319D",
"a*	c #3B3BAA",
"b*	c #4E4DB2",
"c*	c #6867BF",
"d*	c #8383CA",
"e*	c #9596D1",
"f*	c #9C9CD5",
"g*	c #9C9DD5",
"h*	c #9697D3",
"i*	c #8787CC",
"j*	c #7273C2",
"k*	c #5756B5",
"l*	c #4140AB",
"m*	c #3131A0",
"n*	c #343481",
"o*	c #3D3D60",
"p*	c #4F4F53",
"q*	c #696969",
"r*	c #70707C",
"s*	c #41417D",
"t*	c #383887",
"u*	c #33338F",
"v*	c #2F2F96",
"w*	c #2E2E98",
"x*	c #2E2D98",
"y*	c #2E2E95",
"z*	c #31318F",
"A*	c #343485",
"B*	c #3A3A7A",
"C*	c #40406A",
"D*	c #494959",
"E*	c #5B5B5B",
"F*	c #727272",
"G*	c #7C7C7C",
"                                                                                                ",
"                                                                                                ",
"                                                                                                ",
"                                    . + @ # $ % & * = - ; >                                     ",
"                              , ' ) ! ~ { ] ^ / / ( _ : < [ } | 1                               ",
"                          2 3 4 5 6 7 8 9 0 a b c d e f g h i j k l m                           ",
"                        n o p q r b s t u v w x x y z A B C D E F G H I J                       ",
"                      K L M N O s P x x Q Q Q R R S T U U T V W X Y Z `  ...                    ",
"                  +.@.#.$.%.s &.x *.Q Q Q R R S z z =.-.-.;.>.,.'.W X ).!.~.{.                  ",
"                2 ].^./.s &.(.(.z z _.:.:.<.[.[.}.|.1.2.2.3.4.5.5.5.4.X 6.7.8.9.0.              ",
"                a.b.c.d.(.A A A [.[.|.|.|.e.e.e.f.g.h.i.2.j.j.j.j.j.k.k.l.m.7.n.o.p.            ",
"              q.r.s.t.u.T T e.v.v.=.=.g.g.g.w.w.x.y.z.A.1.B.C.C.C.C.C.C.;.'.D.E.F.G.            ",
"            H.[ I.J.g.-.-.-.w.1.1.1.K.K.y.y.L.M.M.N.O.O.P.Q.R.S.S.S.S.S.S.T.U.V.W.X.Y.          ",
"          Z.4 `. +.+2.2.++++M.h.h.h.@+@+#+#+$+%+%+&+*+=+P.-+P.-+;+;+;+;+;+P.>+,+'+)+!+~+        ",
"          3 {+]+^+/+i.h.i.N.#+N.N.%+%+z.(+(+_+:+&+<+[+}+|+1+1+2+2+2+3+2+4+5+6+7+8+9+0+a+        ",
"        Z.b+c+d+e+/+(+z.(+A.A.:+:+&+&+O.f+f+g+:+g+h+[+i+j+k+k+l+l+l+j+m+n+o+p+q+r+s+t+u+v+      ",
"        ' W.w+x+e+y+z+=+&+O.O.f+f+A+B+B+&+f+C+D+E+F+*+G+l+i+i+H+}+i+I+J+C+K+L+M+N+O+P+Q+R+      ",
"        S+T+U+V+e+y+W+g+&+O.O.f+f+A+f+f+D+X+Y+Z+Z+`+ @.@i+j+i+H+}+n++@@@#@$@M+%@&@*@=@-@;@>@    ",
"      . ,@'@)@!@e+/+W+~@{@O.O.f+f+O.f+]@^@/@/@(@_@:@<@[@}@|@1@2@3@4@5@6@7@8@9@0@a@b@c@{+d@e@    ",
"      f@g@h@i@j@e+/+W+~@k@l@f+f+O.&+m@n@o@p@q@r@s@t@u@[@:@v@w@J+C+C+x@y@z@A@B@0@C@D@E@F@G@H@    ",
"      I@J@K@L@j@e+/+W+~@k@M@N@O@(+F+_@o@P@Q@R@S@T@U@V@W@(@n@X@Y@Z@`@ # #.#+#@#0@C@C@##$#%#&#*#  ",
"      =#-#;#L@j@e+/+W+~@k@M@>#,#,#'#o@)#!#~#{#]#^#/#(#_#:#:@<#[#}#|#1# #.#+#@#0@C@2#3#4#5#6#>@  ",
"      7#8#9#0#j@e+/+W+~@k@M@>#a#b#c#/@d#R@{#e#f#g#h#i#j#k#(@^@l#m#n#1# #.#+#@#0@C@o#p#q#r#s#t#  ",
"      u#v#w#x#j@e+/+W+~@k@M@>#y#z#A#(@B#S@]#C#D#E#F#G#H#I#J#[@K#L#n#1# #.#+#@#0@C@o#M#N#O#P#v+  ",
"      Q#R#S#x#j@e+/+W+~@k@M@>#y#T#A#_@s@U#^#g#V#W#X#Y#Z#`#J#[@K#L#n#1# #.#+#@#0@C@o#M#N#O# $.$  ",
"      +$@$a x#j@e+/+W+~@k@M@>#M@x@`+:@#$$$/#h#F#X#%$&$*$=$_@_@-$L#n#1# #.#+#@#0@C@o#;$>$,$ $.$  ",
"      '$)$}.x#j@e+/+W+~@k@M@a#a#!$~$:@{$]$^$/$($Y#&$_$:$<$o@[$}$|$n#1# #.#+#@#0@C@o#1$2$3$4$5$  ",
"      - 6$7$L@j@e+/+W+~@~@8$9$0$a$b$n@[@c$d$j#H#e$*$H#f$^@g$h$i$j$n#1# #.#+#@#0@C@C@o#k$l$m$n$  ",
"      o$p$q$i@!@e+r$y+k@s$t$z#u$v$w$v@/@(@:#x$y$z$A$B$^@[@C$D$E$j$n#1# #.#+#@#0@C@F$G$H$I$J$K$  ",
"      L$M$N$O$j@e+P$Q$R$S$T$U$V$f+B j+ @<@:@(@[$J#_@:@n@W$X$Y$Z$j$n#1# #.#+#@#0@C@1$`$ %.%+%@%  ",
"        #%$%%%&%w$*%=%S$-%T$;%-+;.>%,%-.'%)%_@[@[@_@!%~%{%]%^%Z$j$n#1# #.#+#@#0@C@/%(%_%:%<%    ",
"        | [%}%#@|%1%2%-%1%:+;.3%>%>%>%;.C #@4%5%6%7%8%9%0%a%^%Z$j$n#1# #.#+#@#0@b%c%d%e%f%g%    ",
"        h%k i%j%|%2%=%;%1.,%k%Q.>%>%>%u.U z#l%m%n%o%p%]%q%a%^%Z$j$n#1# #.#+#@#0@r%s%t%u%J$v%    ",
"          l w%x%y%z%=+C.,%k%k%Q.>%>%>%;.g+A%B%C%D%E%F%]%q%a%^%Z$j$n#1# #.#+#@#G%H%I%J%K%L%      ",
"          m H M%|+v.B 3%k%k%k%Q.>%>%>%k%N%O%P%C%D%E%F%]%q%a%^%Z$j$n#1# #.#+#@#Q%R%S%T%m$U%      ",
"            V%p W%W ;.3%k%k%k%Q.>%>%3%2.X%p+Y%C%D%E%F%]%q%a%^%Z$j$n#1# #.#+#Z%`% &.&+&@&        ",
"            #&$&%&&&V *&k%k%k%Q.>%>%C.=&p+-&;&C%D%E%F%]%q%a%^%Z$j$n#1# #.#>&,&'&)&!&~&t#        ",
"              {&]&^&/&(&u.k%k%Q.>%>%3%_&:&<&[&C%D%E%F%]%q%a%^%Z$j$n#1# #}&|&1&2&3&P#4&          ",
"                5&6&7&8&l.k%k%Q.>%k%G+9&-&0&a&a&D%E%F%]%q%a%^%Z$j$n#1#m#b&c&d&e&f&g&            ",
"                  9.h&i&j&X k&>%>%;.l&p+-&m&n&a&D%E%F%]%q%a%^%Z$o&p&q&r&s&t&u&v&w&x&            ",
"                  0.y&z&A&B&C&D&3.E&F&G&-&H&I&J&D%E%F%]%q%a%Z$|$K&L&M&N&O&P&f&Q&R&              ",
"                    p.S&T&U&V&W&X&5.Y&v$Z&`&C%D% *F%.*]%Y$+*@*#*$*%*&***=*P#-*;*                ",
"                        Y.!+>*,*'*)*!*~*{*]*^*/*(*_*:*<*[*}*|*1*2*3*4*5*~&6*                    ",
"                          ~+7*8*9*0*a*b*c*d*e*f*g*h*i*j*k*l*m*n*o*p*q*@&t#                      ",
"                              v+R+r*d@s*t*u*v*w*x*y*z*A*B*C*D*E*F*H@U%                          ",
"                                  >@e@L%&#F*s#P# $ $P#m$J$G*<%6*v%                              ",
"                                        *#>@t#v+.$.$5$t#K$@%                                    ",
"                                                                                                "};
