/* XPM */
static char * dev_hd_64_xpm[] = {
"48 48 508 2",
"  	c None",
". 	c #B8B8B8",
"+ 	c #6D6D6B",
"@ 	c #525254",
"# 	c #525255",
"$ 	c #525355",
"% 	c #535355",
"& 	c #535455",
"* 	c #515154",
"= 	c #5D5D5A",
"- 	c #999998",
"; 	c #676768",
"> 	c #706E9B",
", 	c #9592EA",
"' 	c #9591EB",
") 	c #9B9DEA",
"! 	c #A7B6EA",
"~ 	c #A7B7EA",
"{ 	c #A7B8EA",
"] 	c #A7BAEA",
"^ 	c #A7BBEA",
"/ 	c #A8BCEA",
"( 	c #A9BCEA",
"_ 	c #A9BDEA",
": 	c #AABEEA",
"< 	c #ACBEEA",
"[ 	c #ACBFEA",
"} 	c #ADC0EA",
"| 	c #B0C1EA",
"1 	c #B2C2EA",
"2 	c #B4C4EA",
"3 	c #B5C5EA",
"4 	c #B7C7EA",
"5 	c #BCCCEA",
"6 	c #A8AEEA",
"7 	c #938FEB",
"8 	c #9693ED",
"9 	c #7B78B1",
"0 	c #505054",
"a 	c #919191",
"b 	c #ADADAC",
"c 	c #5F5F77",
"d 	c #A29FFD",
"e 	c #A4A1FF",
"f 	c #A29DFF",
"g 	c #ADB5FF",
"h 	c #B7C7FF",
"i 	c #B6C6FF",
"j 	c #B6C7FF",
"k 	c #B6C8FF",
"l 	c #B6C9FF",
"m 	c #B6CAFF",
"n 	c #B6CBFF",
"o 	c #B6CCFF",
"p 	c #B6CDFF",
"q 	c #B7CEFF",
"r 	c #B9CFFF",
"s 	c #BBD0FF",
"t 	c #BCD2FF",
"u 	c #BDD3FF",
"v 	c #C0D4FF",
"w 	c #C1D6FF",
"x 	c #C4D7FF",
"y 	c #C6D8FF",
"z 	c #CBDDFF",
"A 	c #C1CDFF",
"B 	c #A39FFF",
"C 	c #A7A4FF",
"D 	c #6B6A8F",
"E 	c #595957",
"F 	c #A4A4A4",
"G 	c #8C8C8B",
"H 	c #6E6D94",
"I 	c #A6A4FF",
"J 	c #A2A0FF",
"K 	c #A3A0FF",
"L 	c #B0BBFF",
"M 	c #B4C2FF",
"N 	c #B3C2FF",
"O 	c #B3C3FF",
"P 	c #B3C4FF",
"Q 	c #B3C5FF",
"R 	c #B3C7FF",
"S 	c #B3C8FF",
"T 	c #B3C9FF",
"U 	c #B3CAFF",
"V 	c #B4CBFF",
"W 	c #B5CBFF",
"X 	c #B7CCFF",
"Y 	c #B8CDFF",
"Z 	c #BDD1FF",
"` 	c #BFD2FF",
" .	c #C1D4FF",
"..	c #C4D6FF",
"+.	c #C5D5FF",
"@.	c #A9A9FF",
"#.	c #A19EFF",
"$.	c #A8A6FF",
"%.	c #7B7AAE",
"&.	c #484846",
"*.	c #898989",
"=.	c #757574",
"-.	c #A9A8FF",
";.	c #A2A1FF",
">.	c #A7AAFF",
",.	c #B3C0FF",
"'.	c #B3C1FF",
").	c #B5CCFF",
"!.	c #B9CEFF",
"~.	c #BED2FF",
"{.	c #C5D9FF",
"].	c #B4BDFF",
"^.	c #A19FFF",
"/.	c #A7A6FF",
"(.	c #8887C8",
"_.	c #474748",
":.	c #787878",
"<.	c #B5B5B5",
"[.	c #666667",
"}.	c #8887C7",
"|.	c #A4A3FF",
"1.	c #ADB3FF",
"2.	c #B4C0FF",
"3.	c #B8CEFF",
"4.	c #BAD0FF",
"5.	c #C2D6FF",
"6.	c #BBC9FF",
"7.	c #A5A4FF",
"8.	c #9695E1",
"9.	c #4A4A4F",
"0.	c #6C6C6C",
"a.	c #AFAFAF",
"b.	c #59595E",
"c.	c #9797E1",
"d.	c #A7A7FF",
"e.	c #B1B9FF",
"f.	c #B3BEFF",
"g.	c #B3BFFF",
"h.	c #B3C6FF",
"i.	c #B4CAFF",
"j.	c #BFD3FF",
"k.	c #C0D3FF",
"l.	c #ABAEFF",
"m.	c #A6A6FF",
"n.	c #A2A2F6",
"o.	c #555561",
"p.	c #5C5C5D",
"q.	c #A5A5A5",
"r.	c #B2B2B2",
"s.	c #585866",
"t.	c #A3A3F6",
"u.	c #ABADFF",
"v.	c #B3BCFF",
"w.	c #B3BDFF",
"x.	c #C0D5FF",
"y.	c #B4BEFF",
"z.	c #AAAAFF",
"A.	c #6A6A89",
"B.	c #4F4F4F",
"C.	c #989898",
"D.	c #939393",
"E.	c #6A6A88",
"F.	c #ABACFF",
"G.	c #A9AAFF",
"H.	c #AFB4FF",
"I.	c #B4BCFF",
"J.	c #BED3FF",
"K.	c #BAC9FF",
"L.	c #AFB0FF",
"M.	c #7D7EAC",
"N.	c #484847",
"O.	c #888888",
"P.	c #797979",
"Q.	c #7C7DAA",
"R.	c #B0B2FF",
"S.	c #AAACFF",
"T.	c #B2B7FF",
"U.	c #B3BAFF",
"V.	c #B3BBFF",
"W.	c #BCCFFF",
"X.	c #ACB0FF",
"Y.	c #AEB0FF",
"Z.	c #8A8CC4",
"`.	c #48484A",
" +	c #7A7A7A",
".+	c #B6B6B6",
"++	c #6A6A6D",
"@+	c #8C8DC4",
"#+	c #B1B3FF",
"$+	c #ADAFFF",
"%+	c #B3B8FF",
"&+	c #B3B9FF",
"*+	c #BBD1FF",
"=+	c #B2BBFF",
"-+	c #AEAFFF",
";+	c #9A9BDE",
">+	c #4D4D51",
",+	c #6E6E6E",
"'+	c #B0B0B0",
")+	c #5D5D63",
"!+	c #9A9DDE",
"~+	c #B0B3FF",
"{+	c #B0B4FF",
"]+	c #B7C6FF",
"^+	c #AFB1FF",
"/+	c #A7AAF4",
"(+	c #565662",
"_+	c #606060",
":+	c #A8A8A8",
"<+	c #BABABB",
"[+	c #5A5A65",
"}+	c #A8ACF4",
"|+	c #B9CDFF",
"1+	c #B0B7FF",
"2+	c #AFB3FF",
"3+	c #6A6C86",
"4+	c #545455",
"5+	c #9D9D9D",
"6+	c #A7A7A8",
"7+	c #696A84",
"8+	c #B1B5FF",
"9+	c #B3CBFF",
"0+	c #B4CCFF",
"a+	c #B7CDFF",
"b+	c #B4BFFF",
"c+	c #B5B9FF",
"d+	c #7E80A8",
"e+	c #4D4D4E",
"f+	c #919192",
"g+	c #7C7EA4",
"h+	c #B4B9FF",
"i+	c #B0B4FA",
"j+	c #B1B5FA",
"k+	c #B0B5FA",
"l+	c #B0B6F9",
"m+	c #B0B7F9",
"n+	c #B0B8F9",
"o+	c #B0B9F9",
"p+	c #AFB9F9",
"q+	c #AFBAF9",
"r+	c #AFBBF9",
"s+	c #AFBCF9",
"t+	c #AFBDF9",
"u+	c #AFBEF9",
"v+	c #AFBFF8",
"w+	c #AFC0F8",
"x+	c #AFC1F8",
"y+	c #AFC2F8",
"z+	c #AFC3F8",
"A+	c #AEC4F8",
"B+	c #AFC4F8",
"C+	c #AFC5F8",
"D+	c #B0C5F8",
"E+	c #B0C6F8",
"F+	c #B2C8F7",
"G+	c #B1BFF7",
"H+	c #B2B5FF",
"I+	c #898CBD",
"J+	c #4C4C4E",
"K+	c #868686",
"L+	c #7C7C81",
"M+	c #ABABB7",
"N+	c #E9E9F6",
"O+	c #E1E1EC",
"P+	c #DEDFEA",
"Q+	c #DDDEE9",
"R+	c #DCDDE8",
"S+	c #DBDBE7",
"T+	c #D9D9E5",
"U+	c #D7D8E4",
"V+	c #D6D7E3",
"W+	c #D6D6E2",
"X+	c #D4D5E0",
"Y+	c #D3D4DF",
"Z+	c #D2D3DE",
"`+	c #D0D1DC",
" @	c #CFD0DB",
".@	c #CED0DA",
"+@	c #CECFD9",
"@@	c #CCCDD8",
"#@	c #CBCCD6",
"$@	c #CACBD5",
"%@	c #C9CAD4",
"&@	c #C7C9D3",
"*@	c #C6C8D2",
"=@	c #C5C7D1",
"-@	c #C4C6CF",
";@	c #C3C5CE",
">@	c #C2C4CD",
",@	c #C1C3CC",
"'@	c #BFC1CA",
")@	c #BEC0C9",
"!@	c #BEC0C8",
"~@	c #BCBEC7",
"{@	c #BBBDC5",
"]@	c #BABCC4",
"^@	c #B9BBC3",
"/@	c #BBBBC5",
"(@	c #9E9FA9",
"_@	c #4E4E53",
":@	c #67676E",
"<@	c #D7D7D9",
"[@	c #FFFFFF",
"}@	c #FFFFFD",
"|@	c #FDFDFB",
"1@	c #FCFCFA",
"2@	c #FBFBF9",
"3@	c #FAFAF8",
"4@	c #F8F8F6",
"5@	c #F7F7F5",
"6@	c #F6F6F4",
"7@	c #F5F5F3",
"8@	c #F3F3F1",
"9@	c #F2F2F0",
"0@	c #F1F1EF",
"a@	c #EFEFED",
"b@	c #EEEEEC",
"c@	c #EDECEB",
"d@	c #ECEBE9",
"e@	c #EAE9E8",
"f@	c #E9E8E6",
"g@	c #E8E7E5",
"h@	c #E7E6E4",
"i@	c #E5E4E2",
"j@	c #E4E3E1",
"k@	c #E3E2E0",
"l@	c #E1E0DE",
"m@	c #DFDFDD",
"n@	c #DEDEDC",
"o@	c #DDDDDB",
"p@	c #DBDBD9",
"q@	c #DADAD8",
"r@	c #D9D9D7",
"s@	c #D8D8D6",
"t@	c #D6D6D4",
"u@	c #D5D5D3",
"v@	c #D4D4D2",
"w@	c #C6C6C5",
"x@	c #57575E",
"y@	c #666666",
"z@	c #ACACAC",
"A@	c #5F5F66",
"B@	c #EDEDEE",
"C@	c #FBFBFB",
"D@	c #F9F9F9",
"E@	c #F8F8F8",
"F@	c #F7F7F7",
"G@	c #F6F6F6",
"H@	c #F4F4F4",
"I@	c #F3F3F3",
"J@	c #F2F2F2",
"K@	c #F1F1F1",
"L@	c #EFEFEF",
"M@	c #EEEEEE",
"N@	c #EDEDED",
"O@	c #EBEBEB",
"P@	c #EAEAEA",
"Q@	c #E9E9E9",
"R@	c #E8E8E8",
"S@	c #E6E6E6",
"T@	c #E5E5E5",
"U@	c #E4E4E4",
"V@	c #E3E3E3",
"W@	c #E1E1E1",
"X@	c #E0E0E0",
"Y@	c #DFDFDF",
"Z@	c #DDDDDD",
"`@	c #DCDCDC",
" #	c #DBDBDB",
".#	c #DADADA",
"+#	c #D8D8D8",
"@#	c #D7D7D7",
"##	c #D6D6D6",
"$#	c #D5D5D5",
"%#	c #D3D3D3",
"&#	c #D2D2D2",
"*#	c #D1D1D1",
"=#	c #CCCCCC",
"-#	c #57575A",
";#	c #A0A0A0",
">#	c #AAAAAD",
",#	c #717178",
"'#	c #FEFEFE",
")#	c #D0D0D0",
"!#	c #7A7A80",
"~#	c #4F4F52",
"{#	c #949494",
"]#	c #959599",
"^#	c #88888F",
"/#	c #FDFDFD",
"(#	c #F0F0F0",
"_#	c #ECECEC",
":#	c #E7E7E7",
"<#	c #E2E2E2",
"[#	c #D9D9D9",
"}#	c #D4D4D4",
"|#	c #CFCFCF",
"1#	c #CECECE",
"2#	c #D3D3D2",
"3#	c #8B8B90",
"4#	c #4A4A50",
"5#	c #7F7F84",
"6#	c #A2A2A7",
"7#	c #FCFCFC",
"8#	c #FAFAFA",
"9#	c #F5F5F5",
"0#	c #EBEBEA",
"a#	c #A6A6AA",
"b#	c #4B4B53",
"c#	c #7E7E7E",
"d#	c #696972",
"e#	c #C0C0C4",
"f#	c #DADADB",
"g#	c #53535B",
"h#	c #737373",
"i#	c #B3B3B3",
"j#	c #60606B",
"k#	c #DEDEE0",
"l#	c #E9E9E8",
"m#	c #F1F1F2",
"n#	c #686872",
"o#	c #686868",
"p#	c #ADADAD",
"q#	c #5F5F6B",
"r#	c #DFDFE0",
"s#	c #DEDEDE",
"t#	c #6C6C76",
"u#	c #616161",
"v#	c #A9A9A9",
"w#	c #60606A",
"x#	c #DBDBDC",
"y#	c #6B6B75",
"z#	c #5E5E5E",
"A#	c #D6D6D8",
"B#	c #6A6A75",
"C#	c #60606C",
"D#	c #D1D1D3",
"E#	c #C3C3C3",
"F#	c #BEBEBE",
"G#	c #BBBBBB",
"H#	c #BABABA",
"I#	c #BDBDBD",
"J#	c #C2C2C2",
"K#	c #C5C5C5",
"L#	c #9A9A9A",
"M#	c #9F9F9F",
"N#	c #F0EEF0",
"O#	c #ECEAEE",
"P#	c #EEEBEF",
"Q#	c #DEDEDF",
"R#	c #CDCDCF",
"S#	c #EEEEED",
"T#	c #C6C6C6",
"U#	c #C7C7C7",
"V#	c #C8C8C8",
"W#	c #A3A3A3",
"X#	c #F4F2F4",
"Y#	c #C9D7CA",
"Z#	c #C0D2B2",
"`#	c #B9CEAF",
" $	c #D4DDD6",
".$	c #F2F1F2",
"+$	c #696975",
"@$	c #61616D",
"#$	c #CACACC",
"$$	c #C4C4C4",
"%$	c #FDF6FD",
"&$	c #A4D0A3",
"*$	c #67D040",
"=$	c #64CA49",
"-$	c #BED8C1",
";$	c #FAF6FA",
">$	c #636370",
",$	c #B1B1B5",
"'$	c #F7F7F6",
")$	c #ECECEB",
"!$	c #E7E7E8",
"~$	c #E2E2E1",
"{$	c #F1F3F0",
"]$	c #D5E7D5",
"^$	c #DBE9DB",
"/$	c #F6F6F5",
"($	c #C9C9CA",
"_$	c #5B5B66",
":$	c #5F5F5F",
"<$	c #898990",
"[$	c #6C6C79",
"}$	c #BDBDC0",
"|$	c #CFCFD0",
"1$	c #D0D0D1",
"2$	c #D2D2D3",
"3$	c #D3CFD3",
"4$	c #D2CFD3",
"5$	c #C6C6C7",
"6$	c #7B7B85",
"7$	c #484850",
"8$	c #727279",
"9$	c #5C5C69",
"0$	c #686875",
"a$	c #676774",
"b$	c #5E5E6A",
"c$	c #484852",
"d$	c #505051",
"e$	c #838383",
"f$	c #B1B1B1",
"g$	c #6A6A6A",
"h$	c #5D5D5D",
"i$	c #AEAEAE",
"                                                                                                ",
"                                                                                                ",
"                                                                                                ",
"                                                                                                ",
"                                                                                                ",
"                                                                                                ",
"                                                                                                ",
"                                                                                                ",
"              . + @ # # # $ $ $ $ $ $ $ $ $ $ $ $ $ $ $ $ $ $ $ $ % % & # # * = -               ",
"              ; > , ' ) ! ! ~ ~ { { ] ] ^ ^ ^ / ( _ : < [ } | 1 2 3 4 5 6 7 8 9 0 a             ",
"            b c d e f g h i j k l m n n o p p p q q r r s t u v w x y z A B B C D E F           ",
"            G H I J K L M N O P Q Q R S S T U U U V V W X Y r s Z `  ...+.@.#.$.%.&.*.          ",
"            =.%.-.;.>.,.,.'.N O P Q Q R S S T U U U V W ).p Y !.s Z ~. .{.].^./.(._.:.<.        ",
"            [.}.-.|.1.2.,.'.'.N O P Q Q R S T T U U V V W n p 3.!.4.Z ` 5.6.7.$.8.9.0.a.        ",
"            b.c.-.d.e.f.g.,.,.'.N O P P h.R S S T U U i.V V n p 3.!.4.Z j.k.l.m.n.o.p.q.        ",
"          r.s.t.-.u.v.w.f.g.,.,.'.N O P Q Q R S S T U U U V V W X Y r s Z x.y./.z.A.B.C.        ",
"          D.E.F.G.H.I.v.w.w.g.,.,.'.N O P Q Q R S S T U U U V W ).p Y !.s J.K.G.L.M.N.O.        ",
"          P.Q.R.S.T.U.V.v.w.w.g.,.,.'.N O P Q Q R S T T U U V V W n p 3.!.s W.X.Y.Z.`. +.+      ",
"          ++@+#+$+%+&+U.V.v.v.f.g.g.,.'.N O P P h.R S S T U U i.V V n p 3.r *+=+-+;+>+,+'+      ",
"          )+!+~+{+%+%+&+U.V.v.v.f.g.,.,.'.N O P Q Q R S S T U U U V V W X Y 4.]+^+/+(+_+:+      ",
"        <+[+}+~+T.%+%+%+&+U.V.v.w.w.g.,.,.'.N O P Q Q R S S T U U U V W ).p Y |+1+2+3+4+5+      ",
"        6+7+{+8+%+%+%+%+%+%+&+V.v.w.w.g.,.,.'.N O P Q Q R S T U 9+9+9+0+).o a+r b+c+d+e+a       ",
"        f+g+h+i+j+j+k+k+k+k+k+l+m+n+o+p+q+r+s+s+t+u+v+w+w+x+y+z+z+A+A+B+C+D+E+F+G+H+I+J+K+      ",
"        L+M+N+O+P+Q+R+S+T+U+V+W+X+Y+Z+`+ @.@+@@@#@$@%@&@*@=@-@;@>@,@'@)@!@~@{@]@^@/@(@_@:.<.    ",
"        :@<@[@}@|@1@2@3@4@5@6@7@8@9@0@a@b@c@d@e@f@g@h@i@j@k@l@m@n@o@p@q@r@s@t@u@v@u@w@x@y@z@    ",
"        A@B@[@C@D@E@F@G@H@I@J@K@L@M@N@O@P@Q@R@S@T@U@V@W@X@Y@Z@`@ #.#+#@###$#%#&#*#*#=#:@-#;#    ",
"      >#,#D@'#C@D@E@F@G@H@I@J@K@L@M@N@O@P@Q@R@S@T@U@V@W@X@Y@Z@`@ #.#+#@###$#%#&#*#)#*#!#~#{#    ",
"      ]#^#[@/#C@D@E@F@G@H@I@J@(#M@N@_#P@Q@R@:#T@U@V@<#X@Y@Z@ #.#[#+###$#}#%#*#)#|#1#2#3#4#O.    ",
"      5#6#[@'#'#'#/#7#C@C@C@8#8#D@E@E@F@F@G@G@9#H@H@H@I@J@J@K@(#(#L@L@M@N@_#_#_#O@O@0#a#b#c#.   ",
"      d#e#[@M@M@M@M@M@M@M@L@L@L@L@L@L@L@L@L@L@L@L@(#(#(#(#(#(#(#(#(#(#(#(#K@K@K@K@K@7#f#g#h#i#  ",
"      j#k#l#+#[#[#[#[#[#[#[#[#[#[#[#[#[#[#[#[#[#[#[#[#[#[#[#[#[#[#[#[#[#[#[#[#[#[#+#<#m#n#o#p#  ",
"      q#r#:#Z@s#s#s#s#s#s#s#s#s#s#s#s#s#s#s#s#s#s#s#s#s#s#s#s#s#s#s#s#s#s#s#s#s#s#Z@V@_#t#u#v#  ",
"      w#x#Q@V@V@T@T@T@U@T@U@U@U@U@U@U@S@S@V@V@V@V@V@V@V@V@V@V@V@V@V@V@V@V@V@V@V@V@V@S@R@y#z#:+  ",
"      q#A#0#:#T@+#@#@#<#`@<#Z@X@X@Z@W@+#.#S@:#:#:#:#:#:#:#:#:#:#:#:#:#:#:#:#:#R@R@:#Q@V@B#z#:+  ",
"      C#D#_#M@:#E#F#G#[#H#[#I#|#J#F#K#L#M#S@M@_#_#_#_#_#_#_#_#_#_#_#_#_#_#_#N#O#P#N#_#Q#B#z#:+  ",
"      C#R#S#J@L@X@ ###X@T#W@T#@#T#U#V#W#q.O@I@K@K@K@K@K@K@K@K@K@K@K@K@K@K@X#Y#Z#`# $.$.#+$z#:+  ",
"      @$#$(#E@I@s#@#%#X@$$X@K#@#K#T#U#;#:+K@F@G@G@G@G@G@G@G@G@G@G@G@G@G@G@%$&$*$=$-$;$+#+$z#:+  ",
"      >$,$O@'$9#)$Q@!$_#<#_#~$l#<#<#V@}#+#H@F@G@G@G@G@G@G@G@G@G@G@G@G@G@G@F@{$]$^$/$S#($_$:$v#  ",
"      <$[$}$)#1#|$|$)#|#*#|#)#)#*#1$1$2$2$1#1#1#1#1#1#1#1#1#1#1#1#1#1#1#1#1#|$3$4$)#5$6$7$o#p#  ",
"      <+8$9$0$a$a$a$a$a$a$a$a$a$a$a$a$a$a$a$a$a$a$a$a$a$a$a$a$a$a$a$a$a$a$a$a$a$a$+$b$c$d$e$.   ",
"        f$*.g$:$h$z#z#z#z#z#z#z#z#z#z#z#z#z#z#z#z#z#z#z#z#z#z#z#z#z#z#z#z#z#z#z#z#h$z#y@e$z@    ",
"          G#i$:+:+:+:+:+:+:+:+:+:+:+:+:+:+:+:+:+:+:+:+:+:+:+:+:+:+:+:+:+:+:+:+:+:+:+:+z@.       ",
"                                                                                                ",
"                                                                                                ",
"                                                                                                ",
"                                                                                                ",
"                                                                                                ",
"                                                                                                "};
