/* XPM */
static char * icon48_xpm[] = {
"48 48 815 2",
"  	c None",
". 	c #020057",
"+ 	c #342FFF",
"@ 	c #FFFFFF",
"# 	c #FDFBF9",
"$ 	c #E9E1CB",
"% 	c #DDCDA5",
"& 	c #D8C498",
"* 	c #DED0AE",
"= 	c #D8C39A",
"- 	c #CFB684",
"; 	c #C0AB7B",
"> 	c #D2C3A2",
", 	c #DED4BD",
"' 	c #F9F6F1",
") 	c #FEFDFB",
"! 	c #E9DCC3",
"~ 	c #D5BE8C",
"{ 	c #D3B57C",
"] 	c #C6A35F",
"^ 	c #CDA662",
"/ 	c #D8B884",
"( 	c #D7B67D",
"_ 	c #D3B580",
": 	c #DEC7A2",
"< 	c #DABE91",
"[ 	c #D2B17F",
"} 	c #C9A869",
"| 	c #B6964A",
"1 	c #B8A16A",
"2 	c #DECDAB",
"3 	c #EFE9DC",
"4 	c #FCF9F4",
"5 	c #DAC192",
"6 	c #D1AF70",
"7 	c #D1AA6A",
"8 	c #E0C292",
"9 	c #E8CDA5",
"0 	c #D4AB6B",
"a 	c #D9BC90",
"b 	c #E6D3B5",
"c 	c #D7C39A",
"d 	c #EDDFCA",
"e 	c #EDDBC3",
"f 	c #E7D0B0",
"g 	c #DDBB8A",
"h 	c #D1AC72",
"i 	c #DBBD8D",
"j 	c #D2B786",
"k 	c #BDA15C",
"l 	c #B6A26A",
"m 	c #F3EDE1",
"n 	c #D7B886",
"o 	c #E1C8A2",
"p 	c #E6CCA5",
"q 	c #D7B177",
"r 	c #D9BD8E",
"s 	c #DEC19A",
"t 	c #D4B57F",
"u 	c #EFE2CD",
"v 	c #EEE2CF",
"w 	c #DAC29D",
"x 	c #DFC195",
"y 	c #E4C6A3",
"z 	c #D9B98C",
"A 	c #DAC19A",
"B 	c #DEC7A3",
"C 	c #D8BB8D",
"D 	c #D1B585",
"E 	c #DBBD8C",
"F 	c #CDAC6A",
"G 	c #CDB06A",
"H 	c #DFD0A7",
"I 	c #F3EEE3",
"J 	c #CFB47C",
"K 	c #D8B887",
"L 	c #E1C599",
"M 	c #DCBF99",
"N 	c #E7CFAC",
"O 	c #EAD0B2",
"P 	c #E5C69D",
"Q 	c #E2C79F",
"R 	c #E6D3B9",
"S 	c #ECDAC5",
"T 	c #E6CBA5",
"U 	c #E1C394",
"V 	c #E4D0B2",
"W 	c #DDC6A4",
"X 	c #DFC5A0",
"Y 	c #E1C59C",
"Z 	c #E8D6B9",
"` 	c #E8D5B5",
" .	c #D9B681",
"..	c #C9AD72",
"+.	c #D3C08B",
"@.	c #D8CD9A",
"#.	c #CBB677",
"$.	c #D6C498",
"%.	c #E5DCC8",
"&.	c #F2EDE1",
"*.	c #DBC290",
"=.	c #DFC8A2",
"-.	c #DFC092",
";.	c #DCBE93",
">.	c #E6CEA9",
",.	c #EAD5B5",
"'.	c #F3E8D7",
").	c #E5CBA9",
"!.	c #E6D4B8",
"~.	c #D7BF9B",
"{.	c #D5B380",
"].	c #D3B07A",
"^.	c #C4A36E",
"/.	c #DFCAA9",
"(.	c #E9D1B0",
"_.	c #E5C79F",
":.	c #E2CCAD",
"<.	c #DFC298",
"[.	c #D6B782",
"}.	c #D3B684",
"|.	c #E9D5B1",
"1.	c #DFC595",
"2.	c #D6BC7D",
"3.	c #CDBA78",
"4.	c #CCB468",
"5.	c #C1A551",
"6.	c #CAB988",
"7.	c #FDFDFB",
"8.	c #FCFBF8",
"9.	c #C7AE74",
"0.	c #D1B076",
"a.	c #DABA88",
"b.	c #E4C59B",
"c.	c #E0C8A2",
"d.	c #E9D0AF",
"e.	c #D6C09E",
"f.	c #ECD6B9",
"g.	c #E5C6A0",
"h.	c #F0DECB",
"i.	c #EDD9C5",
"j.	c #DFBB89",
"k.	c #D4B587",
"l.	c #E9CCA9",
"m.	c #EBD3B5",
"n.	c #E7D3B6",
"o.	c #E5C8A5",
"p.	c #D8B585",
"q.	c #D7BA8F",
"r.	c #E5D5BB",
"s.	c #ECDBC0",
"t.	c #E7CEAA",
"u.	c #D8B479",
"v.	c #CEAE63",
"w.	c #D5CB91",
"x.	c #DACE9D",
"y.	c #D9D099",
"z.	c #BBA654",
"A.	c #D1C59A",
"B.	c #FDFCF9",
"C.	c #E4D6B7",
"D.	c #DDBC86",
"E.	c #E1C192",
"F.	c #EBD5B8",
"G.	c #E6D6BD",
"H.	c #EFDEC6",
"I.	c #EAD5BD",
"J.	c #EFDFCC",
"K.	c #E2C7A0",
"L.	c #D7B98F",
"M.	c #E6C9A9",
"N.	c #ECD8C3",
"O.	c #E5C59B",
"P.	c #DAB687",
"Q.	c #E9CAA4",
"R.	c #E8CBA8",
"S.	c #DDB686",
"T.	c #DAB888",
"U.	c #DDC9AB",
"V.	c #EFE0CD",
"W.	c #E0C6A5",
"X.	c #D8B680",
"Y.	c #D2AA6A",
"Z.	c #DDC18E",
"`.	c #DCCB9C",
" +	c #CFC493",
".+	c #DAC99D",
"++	c #C9AE62",
"@+	c #CABB75",
"#+	c #C8B880",
"$+	c #CCB683",
"%+	c #F5F3EB",
"&+	c #F8F4ED",
"*+	c #D6BB85",
"=+	c #DDC398",
"-+	c #E3CAA4",
";+	c #DBCFB4",
">+	c #F1E6D2",
",+	c #EAD7B8",
"'+	c #DECAAA",
")+	c #E9D9C3",
"!+	c #ECD6BD",
"~+	c #DCBF96",
"{+	c #EACEAF",
"]+	c #E1C29A",
"^+	c #E5C59D",
"/+	c #D8B784",
"(+	c #F2DFCC",
"_+	c #EAD2B8",
":+	c #DEB57F",
"<+	c #D0AC76",
"[+	c #ECD8C2",
"}+	c #F0DDC6",
"|+	c #D8B073",
"1+	c #D8B780",
"2+	c #E4D1B7",
"3+	c #E6CDAD",
"4+	c #E0C9A2",
"5+	c #E9DAB6",
"6+	c #DBCF9B",
"7+	c #D9CB94",
"8+	c #C5AC5F",
"9+	c #BBA554",
"0+	c #C7B46F",
"a+	c #C7AF6D",
"b+	c #F9F7F3",
"c+	c #DECAA1",
"d+	c #E2C08A",
"e+	c #EAD3B2",
"f+	c #E6CBA6",
"g+	c #F2E8D4",
"h+	c #EDD7BB",
"i+	c #E0BB89",
"j+	c #E7CCA6",
"k+	c #EBD1B0",
"l+	c #E3C192",
"m+	c #D2A860",
"n+	c #D7B98B",
"o+	c #D8B88A",
"p+	c #D0B07E",
"q+	c #D4BE9B",
"r+	c #EFDAC8",
"s+	c #DCB47C",
"t+	c #D8B580",
"u+	c #E3CEB1",
"v+	c #EDD2B6",
"w+	c #E9C9A7",
"x+	c #CFA559",
"y+	c #D3B382",
"z+	c #E0C59F",
"A+	c #DEB884",
"B+	c #DCBD90",
"C+	c #E2C99B",
"D+	c #D2B97C",
"E+	c #CFB979",
"F+	c #C7AF6A",
"G+	c #BCA14C",
"H+	c #C4AF60",
"I+	c #C3AC65",
"J+	c #CDBE8E",
"K+	c #FFFEFD",
"L+	c #FDFCFA",
"M+	c #D0B17B",
"N+	c #E1CAA9",
"O+	c #EFDDC3",
"P+	c #E8D4BD",
"Q+	c #F3E3D0",
"R+	c #E6C9A6",
"S+	c #DDC294",
"T+	c #F1E4D7",
"U+	c #E1C49B",
"V+	c #CEA968",
"W+	c #C7A668",
"X+	c #EFE0D0",
"Y+	c #E8CBA4",
"Z+	c #E2BF94",
"`+	c #E1D1B6",
" @	c #F6E8D9",
".@	c #DAB27C",
"+@	c #BC995B",
"@@	c #F4E5D5",
"#@	c #EBD0B2",
"$@	c #E0BB8B",
"%@	c #CBA358",
"&@	c #E9D4B9",
"*@	c #D5AD6E",
"=@	c #D8B480",
"-@	c #DCBB8B",
";@	c #DBB983",
">@	c #D2AD67",
",@	c #D3AE69",
"'@	c #BD9D46",
")@	c #B8A049",
"!@	c #C8B369",
"~@	c #D2C687",
"{@	c #BEA75C",
"]@	c #E2D8BA",
"^@	c #EFE6D6",
"/@	c #DDBC8E",
"(@	c #D8B686",
"_@	c #DDC093",
":@	c #E3D2B9",
"<@	c #EDD8BE",
"[@	c #E4C090",
"}@	c #E7D9C4",
"|@	c #EAD4BB",
"1@	c #E4C298",
"2@	c #DAB476",
"3@	c #E5D5BD",
"4@	c #F1DABF",
"5@	c #D7B27A",
"6@	c #E2BE8E",
"7@	c #E1C7A0",
"8@	c #F3E2CE",
"9@	c #E1BE8E",
"0@	c #CEAB73",
"a@	c #F3E2CF",
"b@	c #E7C6A1",
"c@	c #D2A661",
"d@	c #D0AF72",
"e@	c #DDBA85",
"f@	c #CDA357",
"g@	c #DCC5A4",
"h@	c #DAB98C",
"i@	c #C39D53",
"j@	c #C0994C",
"k@	c #CDA55E",
"l@	c #BD993F",
"m@	c #BBA54F",
"n@	c #C1AB61",
"o@	c #CCB569",
"p@	c #C9BB7D",
"q@	c #C8AF6A",
"r@	c #F6F3EB",
"s@	c #EBE1D0",
"t@	c #F0DFC5",
"u@	c #D2B88C",
"v@	c #E5C69E",
"w@	c #E0C7A5",
"x@	c #E5CDAD",
"y@	c #E1C293",
"z@	c #EDDEC9",
"A@	c #D8B381",
"B@	c #EEDDC6",
"C@	c #E2BC8A",
"D@	c #EAD9C1",
"E@	c #E7CCAA",
"F@	c #DBBF94",
"G@	c #DFB883",
"H@	c #E4C9A4",
"I@	c #E7C7A1",
"J@	c #E8C9A0",
"K@	c #D0A86B",
"L@	c #EDD4B9",
"M@	c #E8C9A5",
"N@	c #D4A762",
"O@	c #CEAA73",
"P@	c #CFA55E",
"Q@	c #D2AF75",
"R@	c #E0BD93",
"S@	c #CAA15A",
"T@	c #C79C4F",
"U@	c #C39A4C",
"V@	c #C89F4B",
"W@	c #BF9B4C",
"X@	c #CCA75A",
"Y@	c #AE943A",
"Z@	c #BCA353",
"`@	c #D0C285",
" #	c #CFBD7C",
".#	c #E4D6BA",
"+#	c #E4D3B1",
"@#	c #E0C49F",
"##	c #EEDDC8",
"$#	c #F1E2CE",
"%#	c #E4CCAC",
"&#	c #EFE1D0",
"*#	c #E3C494",
"=#	c #E2C7A3",
"-#	c #E4CBA7",
";#	c #EEDBC5",
">#	c #DFC6A5",
",#	c #E1CFB4",
"'#	c #DDB57E",
")#	c #D7B98A",
"!#	c #DEB47E",
"~#	c #E4C8A2",
"{#	c #D8B281",
"]#	c #E7C99D",
"^#	c #CEA76B",
"/#	c #E3C195",
"(#	c #E0BD92",
"_#	c #CFA562",
":#	c #CA9F5C",
"<#	c #CEA258",
"[#	c #E1BD8E",
"}#	c #CDA355",
"|#	c #CAA56D",
"1#	c #C99F54",
"2#	c #B7944B",
"3#	c #C8A15E",
"4#	c #C19C49",
"5#	c #B69339",
"6#	c #B99945",
"7#	c #B19A41",
"8#	c #C8AC5A",
"9#	c #CFBE84",
"0#	c #C9B26F",
"a#	c #E3D3B4",
"b#	c #D9BE93",
"c#	c #E0C9AC",
"d#	c #E5D2B8",
"e#	c #F6EDE0",
"f#	c #E4CAA6",
"g#	c #DFBF96",
"h#	c #D4AB71",
"i#	c #E9CFAB",
"j#	c #EED7C0",
"k#	c #F1DCC3",
"l#	c #E5CEB2",
"m#	c #E3C298",
"n#	c #C4A25E",
"o#	c #DCB37D",
"p#	c #D8B27B",
"q#	c #D3AA6D",
"r#	c #DDB780",
"s#	c #D4A967",
"t#	c #C59B46",
"u#	c #CEA867",
"v#	c #BD9641",
"w#	c #C0994D",
"x#	c #AC8B3A",
"y#	c #BB9950",
"z#	c #B89756",
"A#	c #E1C195",
"B#	c #C59F59",
"C#	c #D0A86E",
"D#	c #C79E4E",
"E#	c #B4923A",
"F#	c #AE8E34",
"G#	c #B99943",
"H#	c #A89438",
"I#	c #CCB269",
"J#	c #CEB870",
"K#	c #E5DABD",
"L#	c #DCCDAB",
"M#	c #E2C397",
"N#	c #E1CDAD",
"O#	c #E3CFB1",
"P#	c #DDC6A1",
"Q#	c #EEDDC7",
"R#	c #E1C7A5",
"S#	c #D0AB6F",
"T#	c #DBB787",
"U#	c #E9CCAB",
"V#	c #DFC39E",
"W#	c #D9B582",
"X#	c #D0A863",
"Y#	c #B69136",
"Z#	c #C39951",
"`#	c #C79E47",
" $	c #BC9649",
".$	c #BA9541",
"+$	c #B19548",
"@$	c #C2AC72",
"#$	c #C3A972",
"$$	c #B89E63",
"%$	c #E6D9C3",
"&$	c #EEDAC2",
"*$	c #E4C49D",
"=$	c #DEBE93",
"-$	c #E0C39D",
";$	c #DBB883",
">$	c #C7A051",
",$	c #B79242",
"'$	c #B89544",
")$	c #B6933D",
"!$	c #BC9D44",
"~$	c #948233",
"{$	c #C2A857",
"]$	c #C3A556",
"^$	c #C3B46F",
"/$	c #DFD1AA",
"($	c #FFFFFE",
"_$	c #F3EEE6",
":$	c #D1B380",
"<$	c #E4D4BB",
"[$	c #E2D5C2",
"}$	c #EAE1CF",
"|$	c #DECBAC",
"1$	c #E9D1B2",
"2$	c #E0BB84",
"3$	c #D4B78C",
"4$	c #DEBF96",
"5$	c #DEC29A",
"6$	c #DFC099",
"7$	c #C7A05D",
"8$	c #987B2C",
"9$	c #9C8C55",
"0$	c #CAB993",
"a$	c #D1BC9A",
"b$	c #CDB284",
"c$	c #F1E1D3",
"d$	c #E9D1B5",
"e$	c #DCB581",
"f$	c #D3B586",
"g$	c #E9CFAF",
"h$	c #E1C098",
"i$	c #D4AA6C",
"j$	c #D6B07A",
"k$	c #E2BE91",
"l$	c #CCA45B",
"m$	c #BF9A4F",
"n$	c #BE9A55",
"o$	c #B29339",
"p$	c #B99442",
"q$	c #B59338",
"r$	c #B5983E",
"s$	c #937F2A",
"t$	c #B59A3F",
"u$	c #C7B467",
"v$	c #CEBE85",
"w$	c #FCFCF9",
"x$	c #BDAF84",
"y$	c #BFA15D",
"z$	c #DABA85",
"A$	c #E0C7A2",
"B$	c #DFC19C",
"C$	c #DBB581",
"D$	c #C29D4E",
"E$	c #A88B37",
"F$	c #8F7930",
"G$	c #D3BF9F",
"H$	c #F3EBE5",
"I$	c #F5F3ED",
"J$	c #E9D7C2",
"K$	c #DBB587",
"L$	c #DDBF97",
"M$	c #DAB37D",
"N$	c #CCA467",
"O$	c #CDAE7A",
"P$	c #E0BB8A",
"Q$	c #D0A762",
"R$	c #C79F4B",
"S$	c #C9A060",
"T$	c #C79F51",
"U$	c #C19A4A",
"V$	c #D0A768",
"W$	c #C59C4F",
"X$	c #A7862E",
"Y$	c #C09B4A",
"Z$	c #AF8C2F",
"`$	c #BA9A46",
" %	c #978226",
".%	c #A99238",
"+%	c #B39944",
"@%	c #CEBC79",
"#%	c #F9F8F3",
"$%	c #B29B61",
"%%	c #CEAF78",
"&%	c #D3B67F",
"*%	c #CBAD70",
"=%	c #C3A362",
"-%	c #B8964C",
";%	c #B89449",
">%	c #A38537",
",%	c #947C2B",
"'%	c #A78B49",
")%	c #D7BD94",
"!%	c #F0E4D7",
"~%	c #E2CFB6",
"{%	c #E9D5BA",
"]%	c #E2C59E",
"^%	c #D6AE78",
"/%	c #CFA566",
"(%	c #D4AD75",
"_%	c #D3B384",
":%	c #D6AE76",
"<%	c #CEA560",
"[%	c #C49D56",
"}%	c #CDA874",
"|%	c #CAA261",
"1%	c #C29951",
"2%	c #D3AF77",
"3%	c #CDA35B",
"4%	c #B89339",
"5%	c #A08226",
"6%	c #B18D45",
"7%	c #B08D32",
"8%	c #AF9137",
"9%	c #9D8728",
"0%	c #B09B40",
"a%	c #BFA34D",
"b%	c #D3C690",
"c%	c #FEFEFD",
"d%	c #FBFAF8",
"e%	c #CBC4A9",
"f%	c #AAA27E",
"g%	c #BDB694",
"h%	c #CAC2A4",
"i%	c #CBC5AC",
"j%	c #AEA786",
"k%	c #8F8455",
"l%	c #AD8E47",
"m%	c #E7CDAE",
"n%	c #ECD9C2",
"o%	c #E6CDAF",
"p%	c #D8B98F",
"q%	c #DDC09A",
"r%	c #CEA870",
"s%	c #CCA66C",
"t%	c #D9B98D",
"u%	c #D2BB96",
"v%	c #DCC3A4",
"w%	c #CDB082",
"x%	c #CAAE80",
"y%	c #D7B88F",
"z%	c #E7CBAB",
"A%	c #DDBB90",
"B%	c #C9A059",
"C%	c #C09844",
"D%	c #BD9645",
"E%	c #AF8E3B",
"F%	c #987B2B",
"G%	c #B89740",
"H%	c #A88D2F",
"I%	c #A98F32",
"J%	c #A68F3A",
"K%	c #C1A656",
"L%	c #D2C496",
"M%	c #D0C39B",
"N%	c #D4AE74",
"O%	c #E4CFB7",
"P%	c #D8BE98",
"Q%	c #D5BD96",
"R%	c #DFCCB4",
"S%	c #ECDDD0",
"T%	c #F0E1D1",
"U%	c #E9D8C4",
"V%	c #E9D6C0",
"W%	c #E6CCAE",
"X%	c #DBBA90",
"Y%	c #D9B587",
"Z%	c #D7B382",
"`%	c #CCA76C",
" &	c #D8B178",
".&	c #CDA25B",
"+&	c #C09746",
"@&	c #B8943B",
"#&	c #AA8938",
"$&	c #B89049",
"%&	c #BA943F",
"&&	c #9D8123",
"*&	c #9F832D",
"=&	c #A3882C",
"-&	c #AB8C33",
";&	c #A68B2F",
">&	c #BBA353",
",&	c #CEBC82",
"'&	c #C7AF77",
")&	c #DBB885",
"!&	c #DEBD8E",
"~&	c #D6B17B",
"{&	c #E0CCB2",
"]&	c #E0C3A2",
"^&	c #DEBC91",
"/&	c #DAB485",
"(&	c #D9B47F",
"_&	c #C79F56",
":&	c #C59B4F",
"<&	c #C79E4F",
"[&	c #C59E4E",
"}&	c #C49C4C",
"|&	c #C19A4B",
"1&	c #C29950",
"2&	c #C09951",
"3&	c #C6A260",
"4&	c #C8A260",
"5&	c #C09A46",
"6&	c #A8892D",
"7&	c #B29038",
"8&	c #9F812A",
"9&	c #A6872D",
"0&	c #AA8E33",
"a&	c #B4A24F",
"b&	c #BEAE6D",
"c&	c #BEA566",
"d&	c #D3AD71",
"e&	c #D3AC6F",
"f&	c #D0AB72",
"g&	c #DFBF97",
"h&	c #D1AC79",
"i&	c #D6B385",
"j&	c #D4B287",
"k&	c #C19E68",
"l&	c #C59E5F",
"m&	c #C59D5E",
"n&	c #C19C60",
"o&	c #C09A61",
"p&	c #BF9D67",
"q&	c #C8A168",
"r&	c #C79F5B",
"s&	c #BF9750",
"t&	c #C19B4C",
"u&	c #B9943F",
"v&	c #A8872D",
"w&	c #A88A2D",
"x&	c #B59346",
"y&	c #B89440",
"z&	c #A98B33",
"A&	c #9F8228",
"B&	c #A48830",
"C&	c #AE9439",
"D&	c #BBAC5F",
"E&	c #C6B87F",
"F&	c #D2C49E",
"G&	c #B8944D",
"H&	c #D1AA6E",
"I&	c #CBA66C",
"J&	c #C39F5D",
"K&	c #CEA664",
"L&	c #C5A472",
"M&	c #CFA569",
"N&	c #CCA15C",
"O&	c #C89F59",
"P&	c #C59C50",
"Q&	c #C39D4E",
"R&	c #C39B50",
"S&	c #C1994C",
"T&	c #BD9547",
"U&	c #BC9646",
"V&	c #B89241",
"W&	c #A58730",
"X&	c #A48530",
"Y&	c #AA8A38",
"Z&	c #A48536",
"`&	c #B2913D",
" *	c #A4862E",
".*	c #917822",
"+*	c #947B23",
"@*	c #AE9440",
"#*	c #BAA75B",
"$*	c #C9C891",
"%*	c #D6C9A0",
"&*	c #FDFCFB",
"**	c #E1D2B8",
"=*	c #CBAF7D",
"-*	c #C2A162",
";*	c #C6A262",
">*	c #C39F64",
",*	c #D5B183",
"'*	c #C59F68",
")*	c #BD9853",
"!*	c #AB8B38",
"~*	c #A0812A",
"{*	c #AC8A37",
"]*	c #AF8C42",
"^*	c #AD8C38",
"/*	c #A28328",
"(*	c #997E24",
"_*	c #9B7E2A",
":*	c #A18333",
"<*	c #947B28",
"[*	c #9E832E",
"}*	c #9E812B",
"|*	c #947A27",
"1*	c #89721E",
"2*	c #846D18",
"3*	c #A08528",
"4*	c #B59B44",
"5*	c #BEAA5C",
"6*	c #C9C38C",
"7*	c #DAD1B7",
"8*	c #E5D9C3",
"9*	c #B7985C",
"0*	c #AE904F",
"a*	c #CCA96F",
"b*	c #B79443",
"c*	c #AD8D37",
"d*	c #BD964B",
"e*	c #B99546",
"f*	c #9F822F",
"g*	c #9E8334",
"h*	c #977B27",
"i*	c #917F34",
"j*	c #B1A168",
"k*	c #C7B78D",
"l*	c #CEB785",
"m*	c #BBA365",
"n*	c #A18A3F",
"o*	c #9E8846",
"p*	c #867432",
"q*	c #6B5C1B",
"r*	c #6A5913",
"s*	c #89731F",
"t*	c #927820",
"u*	c #AE933F",
"v*	c #B29851",
"w*	c #C0B183",
"x*	c #F8F8F5",
"y*	c #E5E3D8",
"z*	c #D8D1B6",
"A*	c #D3CCAF",
"B*	c #E3DCCA",
"C*	c #E2D8C2",
"D*	c #E0D5C0",
"E*	c #F2ECE2",
"F*	c #FCF9F5",
"G*	c #FBF9F7",
"H*	c #FFFEFE",
"I*	c #FBFAF7",
"J*	c #D3CFBC",
"K*	c #B4AF90",
"L*	c #A49D70",
"M*	c #A49D73",
"N*	c #D6CEB8",
". . . . . . . . . . . . . . . . . . . . . . . . . . . . . . . . . . . . . . . . . . . . . . . . ",
". + + + + + + + + + + + + + + + + + + + + + + + + + + + + + + + + + + + + + + + + + + + + + + . ",
". + + + + + + + + + + + + + + + + + + + + + + + + + + + + + + + + + + + + + + + + + + + + + + . ",
". + + + + + + + + + + + + + + + + + + + + + + + + + + + + + + + + + + + + + + + + + + + + + + . ",
". + + + + + + + + + + + + + + + + + + + + + + + + + + + + + + + + + + + + + + + + + + + + + + . ",
". + + + + + + + + + + + + + + + + + + + + + + + + + + + + + + + + + + + + + + + + + + + + + + . ",
". + + + + + + + + + + + + + + + + + + + + + + + + + + + + + + + + + + + + + + + + + + + + + + . ",
". + . . . . . . . . . . . . . . . . . . . . . . . . . . . . . . . . . . . . . . . . . . . . + . ",
". + . @ @ @ @ @ @ @ @ @ @ @ @ @ @ @ @ @ @ @ @ @ @ @ @ @ @ @ @ @ @ @ @ @ @ @ @ @ @ @ @ @ @ . + . ",
". + . @ @ @ @ @ @ @ @ @ @ @ @ @ @ @ @ @ @ @ @ @ @ @ @ @ @ @ @ @ @ @ @ @ @ @ @ @ @ @ @ @ @ . + . ",
". + . @ @ @ @ @ @ @ @ @ @ @ @ @ @ @ @ @ @ @ @ @ @ @ @ @ @ @ @ @ @ @ @ @ @ @ @ @ @ @ @ @ @ . + . ",
". + . @ @ @ @ @ @ @ @ @ @ @ # $ % & * = - ; > , ' @ @ @ @ @ @ @ @ @ @ @ @ @ @ @ @ @ @ @ @ . + . ",
". + . @ @ @ @ @ @ @ @ ) ! ~ { ] ^ / ( _ : < [ } | 1 2 3 @ @ @ @ @ @ @ @ @ @ @ @ @ @ @ @ @ . + . ",
". + . @ @ @ @ @ @ @ 4 5 6 7 8 9 0 a b c d e f g h i j k l 3 @ @ @ @ @ @ @ @ @ @ @ @ @ @ @ . + . ",
". + . @ @ @ @ @ @ m n o p q r s t u v w x y z A B C D E F G H I @ @ @ @ @ @ @ @ @ @ @ @ @ . + . ",
". + . @ @ @ @ @ ) J K L M N O P Q R S T U V W X Y Z `  ...+.@.#.$.%.@ @ @ @ @ @ @ @ @ @ @ . + . ",
". + . @ @ @ @ &.*.=.-.;.>.,.'.).!.~.{.].^./.(._.:.<.[.}.|.1.2.3.4.5.6.7.@ @ @ @ @ @ @ @ @ . + . ",
". + . @ @ @ 8.9.0.a.b.c.d.e.f.g.h.i.j.k.l.m.n.o.p.q.r.s.t.u.v.w.x.y.z.A.B.@ @ @ @ @ @ @ @ . + . ",
". + . @ @ @ C.D.E.F.G.H.I.J.K.L.M.N.O.P.Q.R.S.T.U.V.W.X.Y.Z.`. +.+++@+#+$+%+@ @ @ @ @ @ @ . + . ",
". + . @ @ &+*+=+-+;+>+,+'+)+!+~+{+]+^+/+(+_+:+<+[+}+|+1+2+3+4+5+6+7+8+9+0+a+b+@ @ @ @ @ @ . + . ",
". + . @ @ c+d+e+f+g+h+i+j+k+l+m+n+o+p+q+r+s+t+u+v+w+x+y+z+A+B+C+D+E+F+G+H+I+J+K+@ @ @ @ @ . + . ",
". + . @ L+M+N+O+P+Q+R+S+T+U+V+W+X+Y+Z+`+ @.@+@@@#@$@%@&@*@=@-@;@>@,@'@)@!@~@{@]@@ @ @ @ @ . + . ",
". + . @ ^@/@(@_@:@<@[@}@|@1@2@3@4@5@6@7@8@9@0@a@b@c@d@e@f@g@h@i@j@k@l@m@n@o@p@q@r@@ @ @ @ . + . ",
". + . @ s@t@u@v@w@x@y@z@A@B@C@D@E@F@G@H@I@J@K@L@M@N@O@P@Q@R@S@T@U@V@W@X@Y@Z@`@ #.#@ @ @ @ . + . ",
". + . @ +#@###$#%#&#*#=#-#;#>#,#'#)#!#~#{#]#^#/#(#_#:#<#[#}#|#1#2#3#4#5#6#7#8#9#0#8.@ @ @ . + . ",
". + . @ a#b#c#d#e#f#g#h#i#j#k#l#m#n#o#p#q#r#s#t#u#v#w#x#y#z#A#B#C#D#E#F#G#H#G+I#J#K#@ @ @ . + . ",
". + . @ L#M#N#O#P#Q#R#S#T#U#V#W#X#Y#Z#`# $.$+$@$#$$$%$&$*$=$-$;$>$,$'$)$!$~${$]$^$/$($@ @ . + . ",
". + . @ _$:$<$[$}$|$1$2$3$4$5$6$7$8$9$0$a$b$c$d$e$f$g$h$i$j$k$l$m$n$o$p$q$r$s$t$u$v$w$@ @ . + . ",
". + . @ @ x$y$z$u+u+A$B$C$^ D$E$F$G$H$I$J$K$L$M$N$O$P$Q$R$S$T$U$V$W$X$Y$Z$`$ %.%+%@%#%@ @ . + . ",
". + . @ @ I$$%%%&%*%=%-%;%>%,%'%)%!%~%{%]%^%/%(%_%:%<%[%}%|%1%2%3%4%5%6%7%8%9%0%a%b%c%@ @ . + . ",
". + . @ @ @ d%e%f%g%h%i%j%k%l%m%n%o%p%q%r%s%t%u%v%w%x%y%z%A%q B%C%D%E%F%G%H%I%J%K%L%@ @ @ . + . ",
". + . @ @ @ @ @ @ @ @ @ @ M%N%O%P%Q%R%S%T%U%V%W%X%Y%Z%`% &.&+&@&#&$&%&&&*&=&-&;&>&,&@ @ @ . + . ",
". + . @ @ @ @ @ @ @ @ @ @ '&)&!&~&{&]&^&/&(&K@_&:&<&[&}&|&1&2&3&4&5&6&7&8&7&9&0&a&b&@ @ @ . + . ",
". + . @ @ @ @ @ @ @ @ @ @ c&d&e&f&g&h&i&j&k&l&m&n&o&p&q&r&s&t&u&v&w&x&y&z&A&B&C&D&E&@ @ @ . + . ",
". + . @ @ @ @ @ @ @ @ @ @ F&G&H&I&J&K&L&M&N&O&P&Q&R&S&T&U&V&W&X&Y&Z&`& *.*+*@*#*$*%*@ @ @ . + . ",
". + . @ @ @ @ @ @ @ @ @ @ &***=*-*;*>*,*'*)*!*~*{*]*^*/*(*_*:*<*[*}*|*1*2*3*4*5*6*7*@ @ @ . + . ",
". + . @ @ @ @ @ @ @ @ @ @ @ @ 8*9*0*a*b*c*d*e*f*g*h*i*j*k*l*m*n*o*p*q*r*s*t*u*v*w*L+@ @ @ . + . ",
". + . @ @ @ @ @ @ @ @ @ @ @ @ @ x*y*z*A*B*C*D*E*F*G*@ @ @ @ @ @ H*# I*J*K*L*M*N*H*@ @ @ @ . + . ",
". + . @ @ @ @ @ @ @ @ @ @ @ @ @ @ @ @ @ @ @ @ @ @ @ @ @ @ @ @ @ @ @ @ @ @ @ @ @ @ @ @ @ @ . + . ",
". + . @ @ @ @ @ @ @ @ @ @ @ @ @ @ @ @ @ @ @ @ @ @ @ @ @ @ @ @ @ @ @ @ @ @ @ @ @ @ @ @ @ @ . + . ",
". + . @ @ @ @ @ @ @ @ @ @ @ @ @ @ @ @ @ @ @ @ @ @ @ @ @ @ @ @ @ @ @ @ @ @ @ @ @ @ @ @ @ @ . + . ",
". + . @ @ @ @ @ @ @ @ @ @ @ @ @ @ @ @ @ @ @ @ @ @ @ @ @ @ @ @ @ @ @ @ @ @ @ @ @ @ @ @ @ @ . + . ",
". + . @ @ @ @ @ @ @ @ @ @ @ @ @ @ @ @ @ @ @ @ @ @ @ @ @ @ @ @ @ @ @ @ @ @ @ @ @ @ @ @ @ @ . + . ",
". + . @ @ @ @ @ @ @ @ @ @ @ @ @ @ @ @ @ @ @ @ @ @ @ @ @ @ @ @ @ @ @ @ @ @ @ @ @ @ @ @ @ @ . + . ",
". + . @ @ @ @ @ @ @ @ @ @ @ @ @ @ @ @ @ @ @ @ @ @ @ @ @ @ @ @ @ @ @ @ @ @ @ @ @ @ @ @ @ @ . + . ",
". + . . . . . . . . . . . . . . . . . . . . . . . . . . . . . . . . . . . . . . . . . . . . + . ",
". + + + + + + + + + + + + + + + + + + + + + + + + + + + + + + + + + + + + + + + + + + + + + + . ",
". . . . . . . . . . . . . . . . . . . . . . . . . . . . . . . . . . . . . . . . . . . . . . . . "};
