/* XPM */
static char * mouse_xpm[] = {
"64 32 8 1",
" 	c None",
".	c #000000",
"+	c #A3A3A3",
"@	c #FFFFFF",
"#	c #000080",
"$	c #0000FF",
"%	c #B5B5FF",
"&	c #D6D6D6",
"                             .+@.                               ",
"                             .+@.                               ",
"                             .+@.                               ",
"                             .+@.                               ",
"                             .+@.                               ",
"                    .....................                       ",
"                   .+@@@@@.+@@@@@@.+@@@@@.                      ",
"   #####    ##    .+@@@@@@.+@@@@@@.+@@@@@@.    #####   ###      ",
"   ##  ## ####    .+@@@@@@.+@@$$$$$$$$$$$$$$$$ ##  ## ## ##     ",
"   ##  ##   ##    .+@@@@@@.+@@$@@@.+@@@@@@.    ##  ##    ##     ",
"   #####    ##    .+@%$%@@.+@%$%@@.+@%$%@@.    #####     ##     ",
"   ##  ##   ## $$$$$$$$$@@.+@$$$@@.+@$$$@@.    ##  ##   ##      ",
"   ##  ##   ##    .+@%$%@@.+@%$%@@.+@%$%@@.    ##  ##  ##       ",
"   ##  ##   ##    .+@@@@@@.+@@@@@@.+@@$@@@.    ##  ## ##        ",
"   #####    ##    .+@@@@@@.+@@@@@@.+@@$@@@.    #####  #####     ",
"                  .+@@@@@@.+@@@@@@.+@@$@@@.                     ",
"                  ....................$....                     ",
"                  .+@@@@@@@@@@@@@@@@@@$@@@.                     ",
"                  .+@@@@@@@@@@@@@@@@@@$@@@.                     ",
"                  .+@@@@@@@@@@@@@@@@@@$@@@.                     ",
"                  .+&@@@@@@@@@@@@@@@@@$@@@.                     ",
"                  .+&@@@@@@@@@@@@@@@@@$@@@.    #####   ###      ",
"                  .+&@@@@@@@@@@@@@@@@@$@@@.    ##  ## ## ##     ",
"                  .+&@@@@@@@@@@@@@@@@@$@@@.    ##  ##    ##     ",
"                  .+&@@@@@@@@@@@@@@@@@$@@@.    #####    ##      ",
"                  .+&@@@@@@@@@@@@@@@@@$$$$$$$$ ##  ##    ##     ",
"                  .+&@@@@@@@@@@@@@@@@@@@@@.    ##  ##    ##     ",
"                  .+&@@@@@@@@@@@@@@@@@@@@@.    ##  ## ## ##     ",
"                  .+&&@@@@@@@@@@@@@@@@@@@@.    #####   ###      ",
"                  .++&&&&&&&&&&&&&&&&&&&&&.                     ",
"                   .+++++++++++++++++++++.                      ",
"                    .....................                       "};
