/* Created with The GIMP */
#define pencur_mask_width 16
#define pencur_mask_height 16
static unsigned char pencur_mask_bits[] = {
   0x00, 0x00, 0xf0, 0x00, 0xf0, 0x01, 0xf8, 0x01, 0xf8, 0x00, 0xfc, 0x00,
   0x7c, 0x00, 0x7e, 0x00, 0x3e, 0x00, 0x3f, 0x00, 0x1f, 0x00, 0x1f, 0x00,
   0x0f, 0x00, 0x07, 0x00, 0x03, 0x00, 0x01, 0x00 };
