/* XPM */
static char * pencur_xpm[] = {
"16 16 3 1",
" 	g None",
".	g #000000",
"+	g #FFFFFF",
"                ",
"    ....        ",
"    .+++.       ",
"   .++++.       ",
"   ..++.        ",
"  .++...        ",
"  .+++.         ",
" .++++.         ",
" .+++.          ",
".++++.          ",
".+++.           ",
"..++.           ",
"....            ",
"...             ",
"..              ",
".               "};
