/* Created with The GIMP */
#define pencur_width 16
#define pencur_height 16
static unsigned char pencur_bits[] = {
   0x00, 0x00, 0xf0, 0x00, 0x10, 0x01, 0x08, 0x01, 0x98, 0x00, 0xe4, 0x00,
   0x44, 0x00, 0x42, 0x00, 0x22, 0x00, 0x21, 0x00, 0x11, 0x00, 0x13, 0x00,
   0x0f, 0x00, 0x07, 0x00, 0x03, 0x00, 0x01, 0x00 };
