/* Created with The GIMP */
#define zoomcur_mask_width 16
#define zoomcur_mask_height 16
static unsigned char zoomcur_mask_bits[] = {
   0x00, 0x00, 0xf0, 0x00, 0xfc, 0x03, 0xfc, 0x03, 0xfe, 0x07, 0xfe, 0x07,
   0xfe, 0x07, 0xfe, 0x07, 0xfc, 0x03, 0xfc, 0x07, 0xf0, 0x0e, 0x00, 0x1c,
   0x00, 0x38, 0x00, 0x30, 0x00, 0x00, 0x00, 0x00 };
