/* Created with The GIMP */
#define zoomcur_width 16
#define zoomcur_height 16
static unsigned char zoomcur_bits[] = {
   0x00, 0x00, 0xf0, 0x00, 0x0c, 0x03, 0x04, 0x02, 0x02, 0x04, 0x02, 0x05,
   0x02, 0x05, 0x82, 0x04, 0x64, 0x02, 0x0c, 0x07, 0xf0, 0x0e, 0x00, 0x1c,
   0x00, 0x38, 0x00, 0x30, 0x00, 0x00, 0x00, 0x00 };
