/* XPM */
static const char * greg_xpm[] = {
"48 48 894 2",
"  	c None",
". 	c #C1C1C1",
"+ 	c #AFAFAF",
"@ 	c #9E9E9E",
"# 	c #C3C3C3",
"$ 	c #747474",
"% 	c #727975",
"& 	c #151C18",
"* 	c #171717",
"= 	c #7C7C7C",
"- 	c #183B26",
"; 	c #0F1D14",
"> 	c #050705",
", 	c #C7C7C7",
"' 	c #727674",
") 	c #234731",
"! 	c #264F36",
"~ 	c #162E20",
"{ 	c #060C08",
"] 	c #141916",
"^ 	c #B1B1B1",
"/ 	c #12321F",
"( 	c #94C1A6",
"_ 	c #94C5A8",
": 	c #14231A",
"< 	c #020E07",
"[ 	c #626864",
"} 	c #B5B5B5",
"| 	c #B7B8B7",
"1 	c #727774",
"2 	c #21412D",
"3 	c #224630",
"4 	c #244933",
"5 	c #264D35",
"6 	c #244A33",
"7 	c #112218",
"8 	c #12251A",
"9 	c #707070",
"0 	c #A5A5A5",
"a 	c #12331F",
"b 	c #8BB69C",
"c 	c #84AD94",
"d 	c #8BB89D",
"e 	c #8DBB9F",
"f 	c #61836E",
"g 	c #344E3E",
"h 	c #3B5143",
"i 	c #5A5A5A",
"j 	c #234832",
"k 	c #234831",
"l 	c #20422E",
"m 	c #1C2E23",
"n 	c #181918",
"o 	c #343535",
"p 	c #85AF95",
"q 	c #85B096",
"r 	c #83AD93",
"s 	c #77A288",
"t 	c #1E221F",
"u 	c #0E1511",
"v 	c #7A7D7C",
"w 	c #264E36",
"x 	c #1F412D",
"y 	c #050A07",
"z 	c #02230F",
"A 	c #749E85",
"B 	c #769F86",
"C 	c #84AE94",
"D 	c #486252",
"E 	c #010F07",
"F 	c #334339",
"G 	c #022610",
"H 	c #0B4221",
"I 	c #215033",
"J 	c #386249",
"K 	c #568066",
"L 	c #88B499",
"M 	c #91BCA2",
"N 	c #397851",
"O 	c #36503F",
"P 	c #585D5A",
"Q 	c #5A5E5B",
"R 	c #032711",
"S 	c #165830",
"T 	c #14532D",
"U 	c #104524",
"V 	c #0A351B",
"W 	c #426D53",
"X 	c #7BA58B",
"Y 	c #7EA88E",
"Z 	c #85AF96",
"` 	c #87B198",
" .	c #749D84",
"..	c #649176",
"+.	c #002A10",
"@.	c #08140C",
"#.	c #8E8F8E",
"$.	c #15562F",
"%.	c #14542D",
"&.	c #185B33",
"*.	c #0D4523",
"=.	c #053418",
"-.	c #275439",
";.	c #5D866D",
">.	c #7AA48B",
",.	c #8CB79D",
"'.	c #93C1A5",
").	c #013315",
"!.	c #001408",
"~.	c #737975",
"{.	c #A2A3A2",
"].	c #165730",
"^.	c #15542D",
"/.	c #15542E",
"(.	c #165931",
"_.	c #12502B",
":.	c #0D4423",
"<.	c #275438",
"[.	c #315B41",
"}.	c #6E987E",
"|.	c #83AD94",
"1.	c #8DB79E",
"2.	c #92C0A4",
"3.	c #426B52",
"4.	c #355541",
"5.	c #3C4D42",
"6.	c #474F4A",
"7.	c #244832",
"8.	c #15552E",
"9.	c #165630",
"0.	c #0F4023",
"a.	c #164228",
"b.	c #729D83",
"c.	c #79A58A",
"d.	c #041A0D",
"e.	c #535754",
"f.	c #224730",
"g.	c #22452F",
"h.	c #173120",
"i.	c #1D3B29",
"j.	c #12542C",
"k.	c #105129",
"l.	c #084820",
"m.	c #14522C",
"n.	c #16542F",
"o.	c #709C81",
"p.	c #86AF96",
"q.	c #85AE95",
"r.	c #81B294",
"s.	c #61846F",
"t.	c #234732",
"u.	c #20402C",
"v.	c #132A19",
"w.	c #131D20",
"x.	c #080711",
"y.	c #1D312B",
"z.	c #01240E",
"A.	c #0E4724",
"B.	c #0E4825",
"C.	c #114D28",
"D.	c #13512B",
"E.	c #14552D",
"F.	c #0A5624",
"G.	c #002D0B",
"H.	c #001A28",
"I.	c #040F32",
"J.	c #014A12",
"K.	c #003F0F",
"L.	c #1A552A",
"M.	c #437555",
"N.	c #447F5C",
"O.	c #75A388",
"P.	c #8DB59C",
"Q.	c #72A184",
"R.	c #3F6A50",
"S.	c #172E1F",
"T.	c #040608",
"U.	c #0F0F1E",
"V.	c #38466F",
"W.	c #49598B",
"X.	c #4F7267",
"Y.	c #052A12",
"Z.	c #1E6433",
"`.	c #175428",
" +	c #104922",
".+	c #0C431F",
"++	c #104423",
"@+	c #144E2B",
"#+	c #013412",
"$+	c #000617",
"%+	c #00002E",
"&+	c #0033C3",
"*+	c #1B52C1",
"=+	c #1D994E",
"-+	c #079E1D",
";+	c #057C14",
">+	c #0B6109",
",+	c #024509",
"'+	c #0B4518",
")+	c #174422",
"!+	c #74A387",
"~+	c #8DB59D",
"{+	c #73A285",
"]+	c #416C52",
"^+	c #234631",
"/+	c #224731",
"(+	c #13281A",
"_+	c #07070E",
":+	c #2B3458",
"<+	c #4A5F94",
"[+	c #416581",
"}+	c #446E81",
"|+	c #4A6A7E",
"1+	c #052A14",
"2+	c #296F44",
"3+	c #377847",
"4+	c #417E48",
"5+	c #31703C",
"6+	c #3A5C31",
"7+	c #01270A",
"8+	c #000025",
"9+	c #0027AE",
"0+	c #003FCF",
"a+	c #027CBE",
"b+	c #027BC5",
"c+	c #2D859D",
"d+	c #189544",
"e+	c #149A42",
"f+	c #51B835",
"g+	c #5AB929",
"h+	c #439B14",
"i+	c #A44707",
"j+	c #2A2911",
"k+	c #154D23",
"l+	c #6A9A7C",
"m+	c #86B096",
"n+	c #254C34",
"o+	c #102217",
"p+	c #0E0E1A",
"q+	c #363D64",
"r+	c #45688B",
"s+	c #3D677C",
"t+	c #68889C",
"u+	c #8BA5B6",
"v+	c #6D8798",
"w+	c #286E43",
"x+	c #39774A",
"y+	c #5E8C56",
"z+	c #4D814B",
"A+	c #00230D",
"B+	c #00003F",
"C+	c #082DA8",
"D+	c #0174C7",
"E+	c #0078BC",
"F+	c #459CD5",
"G+	c #5DA8DE",
"H+	c #378BB3",
"I+	c #139643",
"J+	c #0E9441",
"K+	c #6BB74B",
"L+	c #BED640",
"M+	c #AAD525",
"N+	c #FFE304",
"O+	c #D7600B",
"P+	c #A82B0F",
"Q+	c #2D2E13",
"R+	c #4F8765",
"S+	c #8DB49C",
"T+	c #090F0B",
"U+	c #353B66",
"V+	c #45627F",
"W+	c #40677F",
"X+	c #3F667E",
"Y+	c #98B0BF",
"Z+	c #C1D3DD",
"`+	c #B1C6D4",
" @	c #062A16",
".@	c #276E42",
"+@	c #3E7A4C",
"@@	c #63935D",
"#@	c #145A27",
"$@	c #000529",
"%@	c #0A30B2",
"&@	c #096EB7",
"*@	c #0074BD",
"=@	c #0676BF",
"-@	c #8BC9EF",
";@	c #ABDEFC",
">@	c #74BAEF",
",@	c #10837A",
"'@	c #0F963C",
")@	c #7CC048",
"!@	c #B6D84B",
"~@	c #C0D024",
"{@	c #F7EB01",
"]@	c #F1AF0B",
"^@	c #EC7417",
"/@	c #C33910",
"(@	c #342410",
"_@	c #4B8A63",
":@	c #0F1F12",
"<@	c #17162E",
"[@	c #3F537A",
"}@	c #406780",
"|@	c #3F6780",
"1@	c #3C637C",
"2@	c #618297",
"3@	c #849FB0",
"4@	c #809DB2",
"5@	c #2C7146",
"6@	c #3F7949",
"7@	c #588D57",
"8@	c #00200D",
"9@	c #030668",
"0@	c #055CBC",
"a@	c #0177BE",
"b@	c #0174BE",
"c@	c #006FBB",
"d@	c #3B96D2",
"e@	c #5EADDF",
"f@	c #409CDF",
"g@	c #258C6C",
"h@	c #149740",
"i@	c #8CC13B",
"j@	c #ADD64E",
"k@	c #C3BF27",
"l@	c #F4CD05",
"m@	c #EDA80C",
"n@	c #E57716",
"o@	c #F17815",
"p@	c #B3401F",
"q@	c #4C6A53",
"r@	c #1C3927",
"s@	c #080D0B",
"t@	c #383C6D",
"u@	c #476383",
"v@	c #416780",
"w@	c #3F667F",
"x@	c #3C627C",
"y@	c #39607A",
"z@	c #466884",
"A@	c #092C16",
"B@	c #44814F",
"C@	c #307446",
"D@	c #03411A",
"E@	c #00061F",
"F@	c #0825B5",
"G@	c #086DB6",
"H@	c #0174BF",
"I@	c #0273BD",
"J@	c #0274BE",
"K@	c #006DBA",
"L@	c #1A71C4",
"M@	c #5CAB44",
"N@	c #47A83B",
"O@	c #239B41",
"P@	c #5DB23F",
"Q@	c #C4BE16",
"R@	c #F6D305",
"S@	c #EDA50C",
"T@	c #E67516",
"U@	c #E67D13",
"V@	c #DD6A1C",
"W@	c #5B452E",
"X@	c #7DA88E",
"Y@	c #193622",
"Z@	c #1F203D",
"`@	c #495A82",
" #	c #41657B",
".#	c #406781",
"+#	c #416774",
"@#	c #092C14",
"##	c #48824D",
"$#	c #3B7A4A",
"%#	c #033C14",
"&#	c #010379",
"*#	c #1058B5",
"=#	c #0274BC",
"-#	c #0074BE",
";#	c #0070C6",
">#	c #178785",
",#	c #70B72C",
"'#	c #6EB633",
")#	c #269D45",
"!#	c #16983F",
"~#	c #D8DC0C",
"{#	c #F9EE01",
"]#	c #F3C806",
"^#	c #E88313",
"/#	c #E67916",
"(#	c #E67715",
"_#	c #7C3613",
":#	c #789C84",
"<#	c #18311F",
"[#	c #1B1B37",
"}#	c #475E87",
"|#	c #40687E",
"1#	c #426881",
"2#	c #456880",
"3#	c #476981",
"4#	c #3F657E",
"5#	c #3F657F",
"6#	c #4A6F74",
"7#	c #49824C",
"8#	c #3B7A49",
"9#	c #033612",
"0#	c #000470",
"a#	c #0761C3",
"b#	c #0275BD",
"c#	c #0672BD",
"d#	c #1173B9",
"e#	c #0472BC",
"f#	c #0171BC",
"g#	c #006DC9",
"h#	c #299466",
"i#	c #73B92A",
"j#	c #6FB630",
"k#	c #34A240",
"l#	c #19983F",
"m#	c #E4E907",
"n#	c #FBF600",
"o#	c #FAF600",
"p#	c #EEAF0B",
"q#	c #E77816",
"r#	c #E97D14",
"s#	c #C14813",
"t#	c #778F78",
"u#	c #73A386",
"v#	c #21432E",
"w#	c #1A3424",
"x#	c #070C09",
"y#	c #262A4E",
"z#	c #436489",
"A#	c #396179",
"B#	c #829DAF",
"C#	c #A3B7C5",
"D#	c #859DAD",
"E#	c #6E8DA0",
"F#	c #68879C",
"G#	c #4A6C7F",
"H#	c #072B15",
"I#	c #3C794E",
"J#	c #0C4119",
"K#	c #000910",
"L#	c #001994",
"M#	c #006EC8",
"N#	c #006AB7",
"O#	c #6BB5E4",
"P#	c #84BBE3",
"Q#	c #429AD3",
"R#	c #3D98D1",
"S#	c #2586CC",
"T#	c #1B7FA6",
"U#	c #449B64",
"V#	c #61AD43",
"W#	c #56AE38",
"X#	c #2B9F41",
"Y#	c #E2E709",
"Z#	c #F9F100",
"`#	c #F0B809",
" $	c #E77915",
".$	c #E77D15",
"+$	c #E15312",
"@$	c #2F5D33",
"#$	c #79A68A",
"$$	c #0E1B15",
"%$	c #292A4A",
"&$	c #526A8C",
"*$	c #3E667D",
"=$	c #41667F",
"-$	c #9BB3C2",
";$	c #BCCDD9",
">$	c #B9C8D3",
",$	c #B5C7D2",
"'$	c #B1C5D2",
")$	c #7F98AA",
"!$	c #052917",
"~$	c #266857",
"{$	c #00151B",
"]$	c #111D92",
"^$	c #156CC8",
"/$	c #0075BC",
"($	c #0A78BF",
"_$	c #8DCBF2",
":$	c #A4D1EF",
"<$	c #99CEF0",
"[$	c #96CDF0",
"}$	c #8FCDF3",
"|$	c #3185C3",
"1$	c #0073BC",
"2$	c #208499",
"3$	c #6AB530",
"4$	c #69B536",
"5$	c #CFE20F",
"6$	c #FBF200",
"7$	c #EEAE0C",
"8$	c #E98B11",
"9$	c #E77B15",
"0$	c #E87C15",
"a$	c #D84514",
"b$	c #81937C",
"c$	c #224530",
"d$	c #12201C",
"e$	c #44497A",
"f$	c #597587",
"g$	c #3E667F",
"h$	c #436A82",
"i$	c #7591A2",
"j$	c #A2B8C6",
"k$	c #A9BECB",
"l$	c #B6C8D3",
"m$	c #B5C8D4",
"n$	c #A7B8C4",
"o$	c #062A18",
"p$	c #246658",
"q$	c #00143D",
"r$	c #1D3BCF",
"s$	c #2386B0",
"t$	c #0071BF",
"u$	c #0C79C1",
"v$	c #5AA5D7",
"w$	c #7BC2ED",
"x$	c #8FC8ED",
"y$	c #97CEF1",
"z$	c #A0D3F5",
"A$	c #6DA8D4",
"B$	c #006FBC",
"C$	c #0475BB",
"D$	c #67B03A",
"E$	c #70B62F",
"F$	c #CEE410",
"G$	c #F9E900",
"H$	c #E87D14",
"I$	c #E87B15",
"J$	c #E55E17",
"K$	c #732812",
"L$	c #789E85",
"M$	c #12201B",
"N$	c #373E6F",
"O$	c #3F6680",
"P$	c #3E657F",
"Q$	c #4E6C83",
"R$	c #4D6E86",
"S$	c #5F8095",
"T$	c #90A8B7",
"U$	c #B5C7D4",
"V$	c #9CB2C0",
"W$	c #052A18",
"X$	c #246758",
"Y$	c #001634",
"Z$	c #0332CB",
"`$	c #0580B9",
" %	c #0173BE",
".%	c #0071BD",
"+%	c #1C76B7",
"@%	c #1078C0",
"#%	c #3C98D2",
"$%	c #76B8E3",
"%%	c #99D0F3",
"&%	c #5AACDE",
"*%	c #0979B3",
"=%	c #67B237",
"-%	c #70B630",
";%	c #CBE110",
">%	c #FAEB02",
",%	c #E8671B",
"'%	c #E05312",
")%	c #DF4719",
"!%	c #782011",
"~%	c #234F2F",
"{%	c #7DAA8E",
"]%	c #12201A",
"^%	c #343B69",
"/%	c #406681",
"(%	c #406680",
"_%	c #516E86",
":%	c #6D8C9F",
"<%	c #52768D",
"[%	c #266958",
"}%	c #001630",
"|%	c #002DC5",
"1%	c #017BBB",
"2%	c #0174BD",
"3%	c #0072BD",
"4%	c #277EBD",
"5%	c #3594D0",
"6%	c #0F7BC2",
"7%	c #0073BF",
"8%	c #1F8497",
"9%	c #6CB531",
"0%	c #6DB534",
"a%	c #D9ED09",
"b%	c #FDB60B",
"c%	c #841F14",
"d%	c #492811",
"e%	c #3D2C14",
"f%	c #0A4F23",
"g%	c #85AD95",
"h%	c #21452F",
"i%	c #112319",
"j%	c #121224",
"k%	c #425685",
"l%	c #3F677E",
"m%	c #40667E",
"n%	c #3C647D",
"o%	c #276A5A",
"p%	c #001E0E",
"q%	c #000757",
"r%	c #014ED5",
"s%	c #0278BC",
"t%	c #0273BE",
"u%	c #0172BD",
"v%	c #0071BC",
"w%	c #0073BE",
"x%	c #1F8495",
"y%	c #6FB62E",
"z%	c #72B633",
"A%	c #F1CB0D",
"B%	c #AF3D10",
"C%	c #13321C",
"D%	c #82AE93",
"E%	c #8CB39B",
"F%	c #8BB39B",
"G%	c #1F402C",
"H%	c #0F1418",
"I%	c #414F82",
"J%	c #3F687C",
"K%	c #3E687D",
"L%	c #486E81",
"M%	c #4B6C83",
"N%	c #40667F",
"O%	c #40657E",
"P%	c #072A18",
"Q%	c #2D6D65",
"R%	c #1C5529",
"S%	c #000134",
"T%	c #0140D8",
"U%	c #027FB9",
"V%	c #007DBB",
"W%	c #137EB8",
"X%	c #0C74BB",
"Y%	c #0272BC",
"Z%	c #0372BD",
"`%	c #1E79C1",
" &	c #0F79B1",
".&	c #53A84E",
"+&	c #69954B",
"@&	c #B34020",
"#&	c #27200F",
"$&	c #4F8C66",
"%&	c #8AB29A",
"&&	c #20412D",
"*&	c #0A140F",
"=&	c #222546",
"-&	c #4F669D",
";&	c #496594",
">&	c #576699",
",&	c #4F6F84",
"'&	c #3C5C73",
")&	c #062816",
"!&	c #245F52",
"~&	c #125233",
"{&	c #000B11",
"]&	c #00148D",
"^&	c #0150E7",
"/&	c #004CE0",
"(&	c #1B49D3",
"_&	c #0F77BA",
":&	c #0173BD",
"<&	c #0275BF",
"[&	c #0A569A",
"}&	c #1B40A2",
"|&	c #085B9D",
"1&	c #166297",
"2&	c #2B5476",
"3&	c #23271D",
"4&	c #668F74",
"5&	c #1A3624",
"6&	c #0C0F16",
"7&	c #222445",
"8&	c #181A30",
"9&	c #111023",
"0&	c #3D4F7D",
"a&	c #436B82",
"b&	c #406880",
"c&	c #415C75",
"d&	c #062817",
"e&	c #316859",
"f&	c #275851",
"g&	c #033E16",
"h&	c #00012D",
"i&	c #00065E",
"j&	c #00063F",
"k&	c #000148",
"l&	c #0053C2",
"m&	c #0376C1",
"n&	c #0176BE",
"o&	c #0574BB",
"p&	c #1052A2",
"q&	c #2347A8",
"r&	c #1F548F",
"s&	c #184E8C",
"t&	c #182B37",
"u&	c #4F805F",
"v&	c #86B097",
"w&	c #21442F",
"x&	c #193423",
"y&	c #1F412A",
"z&	c #061006",
"A&	c #232547",
"B&	c #455977",
"C&	c #46638A",
"D&	c #425277",
"E&	c #3A3F70",
"F&	c #042713",
"G&	c #366C59",
"H&	c #2A6246",
"I&	c #06471F",
"J&	c #0A3D1F",
"K&	c #0A4A20",
"L&	c #0A5821",
"M&	c #000E0A",
"N&	c #021887",
"O&	c #1C5DA2",
"P&	c #0153CE",
"Q&	c #0D38A1",
"R&	c #0209AF",
"S&	c #27734F",
"T&	c #3B6E89",
"U&	c #1D694C",
"V&	c #12361B",
"W&	c #92BAA1",
"X&	c #244932",
"Y&	c #101E17",
"Z&	c #0E1417",
"`&	c #181A33",
" *	c #172030",
".*	c #101F22",
"+*	c #02240F",
"@*	c #498455",
"#*	c #326B3F",
"$*	c #104925",
"%*	c #16562E",
"&*	c #16552F",
"**	c #064720",
"=*	c #002D1C",
"-*	c #03061D",
";*	c #000856",
">*	c #002543",
",*	c #002728",
"'*	c #1A5620",
")*	c #69B852",
"!*	c #1D6D17",
"~*	c #095528",
"{*	c #1E3E2A",
"]*	c #1C3A25",
"^*	c #20422B",
"/*	c #21422D",
"(*	c #337540",
"_*	c #164F26",
":*	c #124D2A",
"<*	c #17542F",
"[*	c #04501F",
"}*	c #04561B",
"|*	c #18532B",
"1*	c #10542A",
"2*	c #084B06",
"3*	c #2C9A1D",
"4*	c #053D0B",
"5*	c #93B6A2",
"6*	c #224631",
"7*	c #01230E",
"8*	c #0F4824",
"9*	c #0F4825",
"0*	c #13532D",
"a*	c #16562F",
"b*	c #14552E",
"c*	c #17522D",
"d*	c #00330D",
"e*	c #1A5629",
"f*	c #3F7453",
"g*	c #88B198",
"h*	c #5A7F68",
"i*	c #175931",
"j*	c #1A5E35",
"k*	c #053518",
"l*	c #6E9A80",
"m*	c #88B399",
"n*	c #8CBA9E",
"o*	c #79A68B",
"p*	c #3C433F",
"q*	c #14522D",
"r*	c #13522D",
"s*	c #0E391F",
"t*	c #083519",
"u*	c #7EA88F",
"v*	c #81AB92",
"w*	c #75A086",
"x*	c #739E84",
"y*	c #405E4C",
"z*	c #0C1C11",
"A*	c #233229",
"B*	c #114D29",
"C*	c #0C4322",
"D*	c #194C2E",
"E*	c #345F45",
"F*	c #3C674D",
"G*	c #7CA68D",
"H*	c #92BEA3",
"I*	c #36674A",
"J*	c #365742",
"K*	c #3D4F45",
"L*	c #4E5551",
"M*	c #8F9290",
"N*	c #063619",
"O*	c #2D5A3F",
"P*	c #618B71",
"Q*	c #6E997F",
"R*	c #82AC93",
"S*	c #8BB59B",
"T*	c #8DBBA0",
"U*	c #49745A",
"V*	c #001709",
"W*	c #636D66",
"X*	c #9D9E9D",
"Y*	c #032611",
"Z*	c #15552F",
"`*	c #114A27",
" =	c #0F3B1F",
".=	c #184429",
"+=	c #739D83",
"@=	c #80AA91",
"#=	c #73A286",
"$=	c #79A188",
"%=	c #104323",
"&=	c #0D1711",
"*=	c #595F5B",
"==	c #C4C4C4",
"-=	c #254C35",
";=	c #254B34",
">=	c #173021",
",=	c #01240F",
"'=	c #4A745B",
")=	c #659879",
"!=	c #385744",
"~=	c #0D391F",
"{=	c #575958",
"]=	c #959595",
"^=	c #274F36",
"/=	c #234932",
"(=	c #09120D",
"_=	c #070F0B",
":=	c #828483",
"<=	c #0F301C",
"[=	c #92BFA4",
"}=	c #357F52",
"|=	c #010A04",
"1=	c #233129",
"2=	c #9D9F9E",
"3=	c #BCBCBC",
"4=	c #1A1A1A",
"5=	c #222424",
"6=	c #86B197",
"7=	c #7CA58C",
"8=	c #729982",
"9=	c #678874",
"0=	c #080909",
"a=	c #2F3330",
"b=	c #264E35",
"c=	c #274F37",
"d=	c #14281C",
"e=	c #14271C",
"f=	c #5C5C5C",
"g=	c #8DBA9F",
"h=	c #2F4537",
"i=	c #4E5B53",
"j=	c #5D5E5E",
"k=	c #6D6F6E",
"l=	c #727875",
"m=	c #285038",
"n=	c #020503",
"o=	c #070D09",
"p=	c #A9AAA9",
"q=	c #B6B6B6",
"r=	c #123620",
"s=	c #84AF95",
"t=	c #000502",
"u=	c #000C05",
"v=	c #C8C8C8",
"w=	c #C6C6C6",
"x=	c #7A7A7A",
"y=	c #0B0B0B",
"z=	c #303030",
"A=	c #2A2D2A",
"        .                         +                                                             ",
"        @ #                       $                                                             ",
"        % & * =                   - ; > ,                                                       ",
"        ' ) ! ~ { ] , ^           / ( _ : < [ } |                                               ",
"        1 2 3 4 5 6 7 8 9 0       a b c d e f g h i                                             ",
"        1 2 3 3 3 ) j k l m n o   a b c c c p q r s t u v                                       ",
"        1 2 3 ) ) ) ) ) 3 6 w x y z A B C C C C c c d e D E F ^                                 ",
"        1 2 3 ) ) ) ) ) ) 3 3 ) w G H I J K C C C C c c L M N O P Q ^                           ",
"        1 2 3 ) ) ) ) ) ) ) ) 3 3 R S T T U V W X Y C C c c Z `  ...+.@.#.                      ",
"        1 2 3 ) ) ) ) ) ) ) ) ) ) R $.T %.$.&.*.=.-.;.>.r C C c c Z ,.'.).!.~.{.                ",
"        1 2 3 ) ) ) ) ) ) ) ) 3 3 G ].^./.%.%.$.(._.:.<.[.}.Y |.C c c c 1.2.3.4.5.6.            ",
"        1 2 3 ) ) ) ) ) ) ) 3 7.7.R $.T %././.%.%./.8.T 9.0.a.B c C C C c c Z C b.c.d.e.        ",
"        1 2 3 ) ) ) 3 f.) 3 g.h.i.G $.^./././.^.^./.j.k.l.m.n.o.p.Z q.C c C C c c c r.s.        ",
"        1 2 3 ) ) 3 ) t.u.v.w.x.y.z.A.B.C.D.T 8.E.F.G.H.I.J.K.L.M.N.O.P.Z c c C C C Q.R.        ",
"        1 2 3 ) ) ) j S.T.U.V.W.X.Y.Z.`. +.+++@+#+$+%+&+*+=+-+;+>+,+'+)+!+~+q.c C C {+]+        ",
"        1 2 3 3 ^+/+(+_+:+<+[+}+|+1+2+3+4+5+6+7+8+9+0+a+b+c+d+e+f+g+h+i+j+k+l+m+c c {+]+        ",
"        1 2 3 3 n+o+p+q+r+s+t+u+v+1+w+x+y+z+A+B+C+D+E+F+G+H+I+J+K+L+M+N+O+P+Q+R+S+c {+]+        ",
"        1 2 3 ) x T+U+V+W+X+Y+Z+`+ @.@+@@@#@$@%@&@*@=@-@;@>@,@'@)@!@~@{@]@^@/@(@_@Z {+]+        ",
"        1 2 3 k :@<@[@}@|@1@2@3@4@ @5@6@7@8@9@0@a@b@c@d@e@f@g@h@i@j@k@l@m@n@o@p@q@p.{+]+        ",
"        1 2 ) r@s@t@u@v@w@}@x@y@z@A@B@C@D@E@F@G@H@I@J@K@K@L@M@N@O@P@Q@R@S@T@U@V@W@X@{+]+        ",
"        1 2 ) Y@Z@`@ #}@}@|@}@.#+#@###$#%#&#*#=#J@-#b@J@;#>#,#'#)#!#~#{#]#^#/#(#_#:#{+]+        ",
"        1 2 ) <#[#}#|#1#2#3#4#5#6#@#7#8#9#0#a#b#c#d#e#f#g#h#i#j#k#l#m#n#o#p#q#r#s#t#u#]+        ",
"        1 v#w#x#y#z#A#B#C#D#E#F#G#H#I#J#K#L#M#N#O#P#Q#R#S#T#U#V#W#X#Y#n#Z#`# $.$+$@$#$]+        ",
"        ' 3 $$%$&$*$=$-$;$>$,$'$)$!$~${$]$^$/$($_$:$<$[$}$|$1$2$3$4$5$6$7$8$9$0$a$b${+]+        ",
"        ' c$d$e$f$g$h$i$j$k$l$m$n$o$p$q$r$s$t$u$v$w$x$y$z$A$B$C$D$E$F$G$H$ $I$J$K$L${+]+        ",
"        ' c$M$N$h$O$P$Q$R$S$T$U$V$W$X$Y$Z$`$ %.%+%@%#%$%%%&%B$*%=%-%;%>%,%'%)%!%~%{%{+]+        ",
"        ' c$]%^%/%(%w@}@w@w@_%:%<%!$[%}%|%1%J@2% %3%-#4%5%6%7%8%9%0%a%b%c%d%e%f%g%q.{+]+        ",
"        ' h%i%j%k%l%(%w@w@}@m%n%g$!$o%p%q%r%s%t% % %b@u%v%w%7%x%y%z%A%B%C%D%E%F%C c {+]+        ",
"        1 2 G%H%I%J%K%L%M%w@O$N%O%P%Q%R%S%T%U%V%W%X% %b@Y%Z%`% &.&+&@&#&$&%&C c c C {+]+        ",
"        1 &&g.*&=&-&;&>&,&g$w@}@'&)&!&~&{&]&^&/&(&_&2%:&<&[&}&|&1&2&3&4&m+c c C C C {+]+        ",
"        1 2 3 5&6&7&8&9&0&a&b&}@c&d&e&f&g&h&i&j&k&l&m&n&o&p&q&r&s&t&u&v&c C C C C C {+]+        ",
"        1 2 ) w&~ x&y&z&A&B&C&D&E&F&G&H&I&J&K&L&M&N&O&P&Q&R&S&T&U&V&W&c C C C C C C {+]+        ",
"        1 2 3 ) ) ) X&r@Y&Z&`& *.*+*@*#*$*%*%.&***=*-*;*>*,*'*)*!*~*~+c C C C C C C {+]+        ",
"        1 2 3 3 3 3 3 7.^+{*]*^*/*z.(*_*:*8.T ^.8.<*[*}*|*1*2*3*4*5*C c C C C C C C {+]+        ",
"        1 2 3 ) ) ) ) 3 ) j 4 j 6*7*8*9*0*%././././.a*/.b*c*d*e*f*g*c C C C C C c c #$h*        ",
"        1 2 3 ) ) ) ) ) 3 3 3 ) ) G $.^./.%./././.T T ^.i*j*k*l*p.c c C C C c c m*n*o*p*        ",
"        1 2 3 ) ) ) ) ) ) ) ) ) 3 R $.T %.%.%./.8./.q*r*s*t*u*v*c C c c Z ` w*x*y*z*A*          ",
"        1 2 3 ) ) ) ) ) ) ) ) ) ) R ].T %./.(.B*C*D*E*F*r G*C C c c m*H*I*J*K*L*M*              ",
"        1 2 3 ) ) ) ) ) ) ) ) ) ) G $.8.i*].N*O*P*Q*R*R*C C c c S*T*U*V*W*X*                    ",
"        1 2 3 ) ) ) ) ) ) 3 3 ) k Y*Z*`* =.=+=@=C C c c q.` #=$=%=&=*===                        ",
"        1 2 3 ) ) ) ) ) 3 ) -=;=>=,=R.'=u*v*C C c c %&e )=!=~={=]=                              ",
"        1 2 3 ) ) 3 3 3 ^=/=(=_=:=<=b c C C c c Z [=}=|=1=2=3=                                  ",
"        1 2 3 3 k ) &&v#4=5=,     a b c c 6=7=8=9=0=a=                                          ",
"        1 &&b=c=d=e=9 f=          a 1.g=[=h=i=j=k=                                              ",
"        l=m=n=o=p=q=              r=s=t=u=v=w=                                                  ",
"        x=y=                      z=A=                                                          ",
"                                                                                                ",
"                                                                                                "};
