/* XPM */
static const char * icon_cinapce_xpm[] = {
"48 48 32 1",
" 	c None",
".	c #000000",
"+	c #000ECB",
"@	c #0D3F89",
"#	c #165BA1",
"$	c #0274BE",
"%	c #FF1717",
"&	c #009F07",
"*	c #1B8294",
"=	c #149742",
"-	c #427BB1",
";	c #6075A2",
">	c #E15015",
",	c #3E9477",
"'	c #E05836",
")	c #5F9E54",
"!	c #54AD4C",
"~	c #499FD5",
"{	c #E77917",
"]	c #6CB532",
"^	c #DE7856",
"/	c #EA8912",
"(	c #89A1C4",
"_	c #A1C720",
":	c #F2AB08",
"<	c #98CB76",
"[	c #F4C307",
"}	c #B4D951",
"|	c #92CEF3",
"1	c #B1C5DC",
"2	c #F8DD09",
"3	c #FBF600",
"                                                ",
"                                                ",
"                                                ",
"                                                ",
"                                                ",
"                                                ",
"             ..................                 ",
"           ...+&&&&&&&&&&&&&%%.......           ",
"          ..++-,=====]]]]]]_22%%%%%%...         ",
"        ...+$$$$,=====}}}]]3333:{{{{%%...       ",
"       ..++$$$$$,=====<2}}_3333:{{{{{>%%..      ",
"      ..+$$$$~~-*=====}}}]_3233/{/{{{{{'%..     ",
"     ..+$$$$||||~*===!}}}}}::23:{{{{{{{{^%..    ",
"    ..+#$$$~||||~*===]}}}}_[:23/{{{{{/{{{'%.    ",
"    .+#$$$$$||||~*===!2}}]_::23/{{/{{{{{{{%..   ",
"   ..+$$$$$$$$$$$)!!====]]2:[23:{{{{{/{{{{{%..  ",
"   .+#$$$$$$$$$$-!]]]====]32233[//{{{{{{/{/^%.  ",
"  ..+#$$$$$$$$$$,]]]]!===_3333333[/{{{{{{{{{%.. ",
"  .+#$$$$$$$$$$$=]]]]!===_33333333:{/{{{/{{{>%. ",
"  .+#$$$$$$$$$$$!]]]]]===_333333332{{{{/{{{/>%. ",
"  .+$$$$$-$$$$$$)]]]]]!==_33333333[/{{{{{{{{{%. ",
" ..+$$$|||~~~~$$$*,,]]]=!__3333323:{{{{{{{{{>%. ",
"..+$$$$||1|||||~$$$$,]]]]]33332:{/{{{{/{/{/{%%. ",
".+-$$$~||||1||||-$$$$]]]]]3333[{{{{/{{{{{{{'%.  ",
".+-$$$$~||||||1|~$$$$)]]]]3333:{{/{{{{{{{>%%..  ",
".+$$$$$-$$~|||||~$$$$!]]]]_333:/{{{{/{{>'%%..   ",
".+$$$$$$$$$~~|||~$$$$]]]]]33332'{{>{{''%%...    ",
".+$$$$$$$$$$-~~$$$$$*]]]]]3333/'%%%%%%%...      ",
"..+$$$$$$$$$$$$$$$$$,]]]]_333['%........        ",
" .+$$$$$$$$$$$$$$$$$*]]]!_332>%..               ",
" .+$$$$$$$$$$$$$$$$$*]]]]_3['%..                ",
" ..+$$$--$$$$$$$$$~$$!]]]'>'%..                 ",
"  .+++++$$$$$$$##;+#$$*,,@%%..                  ",
"  ......+$$$$$$$@+ #@###@;...                   ",
"       .+$$$$$$##+(#@@@@;..                     ",
"       ..+-#$##@+ 1@@@@;..                      ",
"        ...++++++ (@@;#&.                       ",
"          ........,),!&..                       ",
"                 .&]]<&.                        ",
"                 .&<]!&.                        ",
"                 .&&&&..                        ",
"                 ......                         ",
"                                                ",
"                                                ",
"                                                ",
"                                                ",
"                                                ",
"                                                "};
