/* XPM */
static char * ok_xpm[] = {
"24 24 7 1",
" 	c None",
".	c #000000",
"+	c #6E74FE",
"@	c #BCBFFE",
"#	c #000AD4",
"$	c #000794",
"%	c #010DFF",
"                        ",
"           ...          ",
"         ..+@@....      ",
"        .##+++@@@@.     ",
"       .$#%%%++++@@.    ",
"      .$#%%%%%%%++@.    ",
"     .$#%%%%%%%%%+@.    ",
"    .$#%%%%%%%%%%++@.   ",
"    .$$#%%%%%%%%%%++@.  ",
"     .$#%%%%%%%%%%%+@.  ",
"    .$$#%%%%%%%%%%%++.  ",
"    .$#%%%%%%%%%%%%+.   ",
"   .$$###%%%%%%%%%#.    ",
"   .$$$$###%%%####.     ",
"    ...$$$####$.$#.     ",
"       .$$$$$$. ..      ",
"        ......          ",
"                        ",
"         ..  .  .       ",
"        .  . . .        ",
"        .  . ..         ",
"        .  . . .        ",
"        .  . .  .       ",
"         ..  .  .       "};
