/* XPM */
static char * poly_xpm[] = {
"24 24 13 1",
" 	c None",
".	c #3D0607",
"+	c #A94E50",
"@	c #872F2B",
"#	c #E7585B",
"$	c #C0494C",
"%	c #FF9698",
"&	c #9D2713",
"*	c #FFB997",
"=	c #BCA96E",
"-	c #F6E3AA",
";	c #AD1E18",
">	c #B91F18",
"                ........",
"                .+@##$%.",
"                .+@##$%.",
"                .+@##$%.",
"                .+@##$%.",
"                .+@##$%.",
"                .+@##$%.",
"           &&   .+@##$%.",
"     &&&&&&**&  .+@##$%.",
"    &********&  .+@##$%.",
"   &**********& .+@##$%.",
"  &***********& .+@##$%.",
"  &************&........",
" &***************.=---. ",
" &****************.=-.  ",
" &****************.;>.  ",
" &****************.;;.  ",
" &*****************..   ",
"  &***************&     ",
"  &************&&&      ",
"   &&*********&         ",
"     &&*****&&          ",
"       &&&&&            ",
"                        "};
