/* XPM */
static char * void_xpm[] = {
"24 24 41 1",
" 	c None",
".	c #717171",
"+	c #D6D6D6",
"@	c #ECECEC",
"#	c #ACACAC",
"$	c #9A9A9A",
"%	c #7A7A7A",
"&	c #313131",
"*	c #3A3A3A",
"=	c #424242",
"-	c #2E2E2E",
";	c #767676",
">	c #D2D2D2",
",	c #6D6D6D",
"'	c #000000",
")	c #919191",
"!	c #B8B8B8",
"~	c #909090",
"{	c #5A5A5A",
"]	c #212121",
"^	c #161616",
"/	c #070707",
"(	c #6A6A6A",
"_	c #474747",
":	c #B0B0B0",
"<	c #080808",
"[	c #111111",
"}	c #404040",
"|	c #6C6C6C",
"1	c #1A1A1A",
"2	c #3E3E3E",
"3	c #8C8C8C",
"4	c #151515",
"5	c #020202",
"6	c #B2B2B2",
"7	c #A8A8A8",
"8	c #656565",
"9	c #676767",
"0	c #6B6B6B",
"a	c #060606",
"b	c #6E6E6E",
"                        ",
"           ...          ",
"         ..+@@....      ",
"        .##+++@@@@.     ",
"       .$#%&*=-;>@@.    ",
"      .$#,')!!~'{+@.    ",
"     .$#!]'!!!!^/+@.    ",
"    .$#!!(_!!!:<[++@.   ",
"    .$$#!!!!!:}'|!++@.  ",
"     .$#!!!!~123!!!+@.  ",
"    .$$#!!!!4%!!!!!++.  ",
"    .$#!!!!!56!!!!!+.   ",
"   .$$###!!!7!!!!!#.    ",
"   .$$$$###8'9####.     ",
"    ...$$$#0ab$.$#.     ",
"       .$$$$$$. ..      ",
"        ......          ",
"                        ",
"    '   '  ''  ' '''    ",
"    '   ' '  ' ' '  '   ",
"    '   ' '  ' ' '  '   ",
"     ' '  '  ' ' '  '   ",
"     ' '  '  ' ' '  '   ",
"      '    ''  ' '''    "};
