/* XPM */
static char * dialog_xpm[] = {
"48 48 752 2",
"  	c None",
". 	c #060606",
"+ 	c #000004",
"@ 	c #000003",
"# 	c #000000",
"$ 	c #000005",
"% 	c #010005",
"& 	c #556819",
"* 	c #5C711F",
"= 	c #8FA43E",
"- 	c #415210",
"; 	c #455311",
"> 	c #536419",
", 	c #2E3610",
"' 	c #000002",
") 	c #293611",
"! 	c #354712",
"~ 	c #4B6017",
"{ 	c #698027",
"] 	c #4E6217",
"^ 	c #52671C",
"/ 	c #6D832C",
"( 	c #566E20",
"_ 	c #5C7C2A",
": 	c #566A1E",
"< 	c #566C1D",
"[ 	c #677E26",
"} 	c #314018",
"| 	c #121408",
"1 	c #68862D",
"2 	c #4C5E17",
"3 	c #4A5C16",
"4 	c #53661A",
"5 	c #516518",
"6 	c #9CB148",
"7 	c #576B1C",
"8 	c #435010",
"9 	c #4E5E16",
"0 	c #55661A",
"a 	c #4C5D15",
"b 	c #5F7120",
"c 	c #4F5E17",
"d 	c #4D5E17",
"e 	c #5F7C2A",
"f 	c #7FA94F",
"g 	c #000001",
"h 	c #13170A",
"i 	c #55661B",
"j 	c #5E7020",
"k 	c #57681A",
"l 	c #627621",
"m 	c #596C1C",
"n 	c #6E8129",
"o 	c #495B15",
"p 	c #4A5B14",
"q 	c #697C25",
"r 	c #79902F",
"s 	c #7A8B31",
"t 	c #5B6E1E",
"u 	c #435110",
"v 	c #4C5B15",
"w 	c #627722",
"x 	c #58691C",
"y 	c #687F27",
"z 	c #2E3712",
"A 	c #13180A",
"B 	c #617D28",
"C 	c #485B14",
"D 	c #55641A",
"E 	c #55671A",
"F 	c #72842A",
"G 	c #58691B",
"H 	c #5E711F",
"I 	c #8FA13D",
"J 	c #A3B54F",
"K 	c #96AA43",
"L 	c #687B24",
"M 	c #7F9633",
"N 	c #74862C",
"O 	c #516018",
"P 	c #627521",
"Q 	c #667723",
"R 	c #4C5C16",
"S 	c #475716",
"T 	c #597124",
"U 	c #010004",
"V 	c #394F23",
"W 	c #465913",
"X 	c #435310",
"Y 	c #657523",
"Z 	c #526418",
"` 	c #607220",
" .	c #72842B",
"..	c #6E8328",
"+.	c #819533",
"@.	c #7A8E31",
"#.	c #6B7C26",
"$.	c #677B25",
"%.	c #879939",
"&.	c #647722",
"*.	c #6D7F28",
"=.	c #5E6D1F",
"-.	c #607221",
";.	c #465312",
">.	c #57691C",
",.	c #445619",
"'.	c #020105",
").	c #263210",
"!.	c #53671B",
"~.	c #5D6E1F",
"{.	c #5F6F20",
"].	c #617321",
"^.	c #677A25",
"/.	c #5E6F1F",
"(.	c #7A8A2F",
"_.	c #6E8028",
":.	c #6E8128",
"<.	c #71842A",
"[.	c #A4B44D",
"}.	c #819535",
"|.	c #839434",
"1.	c #71862B",
"2.	c #6E8228",
"3.	c #6F812A",
"4.	c #9AAE46",
"5.	c #5C6A1E",
"6.	c #5B6C1D",
"7.	c #506017",
"8.	c #8C9C3B",
"9.	c #697C28",
"0.	c #495C17",
"a.	c #4B5F17",
"b.	c #5A691D",
"c.	c #71822A",
"d.	c #72832A",
"e.	c #7B9031",
"f.	c #809132",
"g.	c #8FA140",
"h.	c #869836",
"i.	c #8B9B3A",
"j.	c #A0B34C",
"k.	c #A6B754",
"l.	c #97A745",
"m.	c #5D6F1E",
"n.	c #8B9B3C",
"o.	c #8FA243",
"p.	c #6A7E26",
"q.	c #74872C",
"r.	c #899E3A",
"s.	c #657724",
"t.	c #687C25",
"u.	c #536219",
"v.	c #5E7320",
"w.	c #6F842A",
"x.	c #4D611A",
"y.	c #4F6E2D",
"z.	c #5F8636",
"A.	c #4E5C16",
"B.	c #58661B",
"C.	c #647322",
"D.	c #71852A",
"E.	c #6C7E27",
"F.	c #7F8F33",
"G.	c #8EA03E",
"H.	c #B0C05B",
"I.	c #A9B853",
"J.	c #A6B552",
"K.	c #A5B550",
"L.	c #C4D173",
"M.	c #AABC5B",
"N.	c #8DA13C",
"O.	c #839435",
"P.	c #CAD97A",
"Q.	c #94A641",
"R.	c #6A7D26",
"S.	c #55621A",
"T.	c #677A24",
"U.	c #8F9F3D",
"V.	c #73842C",
"W.	c #56671B",
"X.	c #56691B",
"Y.	c #738B2E",
"Z.	c #3F4F12",
"`.	c #53641A",
" +	c #58681C",
".+	c #5B6A1D",
"++	c #74832B",
"@+	c #78892F",
"#+	c #829535",
"$+	c #98AA48",
"%+	c #8FA33E",
"&+	c #C5D177",
"*+	c #B2C060",
"=+	c #A1B24C",
"-+	c #C4D279",
";+	c #C9D87E",
">+	c #889A39",
",+	c #ABBC57",
"'+	c #93A642",
")+	c #A4B44F",
"!+	c #60721F",
"~+	c #5A6C1D",
"{+	c #6F822A",
"]+	c #75882D",
"^+	c #687A25",
"/+	c #516118",
"(+	c #70892D",
"_+	c #191F0F",
":+	c #3E562A",
"<+	c #4C5E18",
"[+	c #5E6F20",
"}+	c #59691C",
"|+	c #6C7D26",
"1+	c #76892D",
"2+	c #75882C",
"3+	c #839537",
"4+	c #5E7120",
"5+	c #A2B252",
"6+	c #A4B550",
"7+	c #A0B24D",
"8+	c #B3C15E",
"9+	c #B8C867",
"0+	c #71832A",
"a+	c #A9BA60",
"b+	c #9EB04B",
"c+	c #9EAE49",
"d+	c #5B6C1C",
"e+	c #7C9130",
"f+	c #98AC46",
"g+	c #7C8F32",
"h+	c #71852B",
"i+	c #5C6F1E",
"j+	c #415011",
"k+	c #2E3713",
"l+	c #4D6016",
"m+	c #56651B",
"n+	c #607120",
"o+	c #526218",
"p+	c #57661B",
"q+	c #6D8027",
"r+	c #7C9032",
"s+	c #8C9E3B",
"t+	c #B6C761",
"u+	c #677D25",
"v+	c #73872A",
"w+	c #A6B651",
"x+	c #BDCC6C",
"y+	c #BFCD6D",
"z+	c #A7B856",
"A+	c #6C8127",
"B+	c #70822C",
"C+	c #A0B44B",
"D+	c #9AAC45",
"E+	c #869A38",
"F+	c #8A9C3D",
"G+	c #9AAB45",
"H+	c #7F9233",
"I+	c #778B2F",
"J+	c #718329",
"K+	c #708329",
"L+	c #59681C",
"M+	c #516219",
"N+	c #313F0F",
"O+	c #536318",
"P+	c #526118",
"Q+	c #657522",
"R+	c #525F18",
"S+	c #8CA03D",
"T+	c #BBCA67",
"U+	c #95A742",
"V+	c #859736",
"W+	c #9BAF47",
"X+	c #9EB14B",
"Y+	c #D2E088",
"Z+	c #B7C663",
"`+	c #96A743",
" @	c #627622",
".@	c #70842A",
"+@	c #6A7C26",
"@@	c #859838",
"#@	c #788D2F",
"$@	c #7A8C31",
"%@	c #9FB04B",
"&@	c #637422",
"*@	c #6C8128",
"=@	c #697A25",
"-@	c #6C7F28",
";@	c #6E8329",
">@	c #526217",
",@	c #6D7E28",
"'@	c #728329",
")@	c #6D7D28",
"!@	c #5F6E20",
"~@	c #5C6C1D",
"{@	c #849736",
"]@	c #97A945",
"^@	c #6E8227",
"/@	c #A6B54F",
"(@	c #C5D472",
"_@	c #819435",
":@	c #B3C463",
"<@	c #99AB46",
"[@	c #A1B14F",
"}@	c #A0B051",
"|@	c #A9BB56",
"1@	c #7E9033",
"2@	c #889D39",
"3@	c #7A8F31",
"4@	c #627421",
"5@	c #57681B",
"6@	c #86983A",
"7@	c #A2B44F",
"8@	c #72852A",
"9@	c #7E9231",
"0@	c #76872D",
"a@	c #677724",
"b@	c #505375",
"c@	c #696E9A",
"d@	c #8086BB",
"e@	c #9299D6",
"f@	c #9FA7E9",
"g@	c #A8AFF5",
"h@	c #ACB4FB",
"i@	c #AEB6FE",
"j@	c #AFB7FF",
"k@	c #73852C",
"l@	c #5C6C1E",
"m@	c #657623",
"n@	c #697B26",
"o@	c #7E9132",
"p@	c #A2B34D",
"q@	c #B4C260",
"r@	c #6E7F29",
"s@	c #92A542",
"t@	c #93A840",
"u@	c #8DA23C",
"v@	c #7C9231",
"w@	c #869B37",
"x@	c #849637",
"y@	c #73832B",
"z@	c #879B38",
"A@	c #75862C",
"B@	c #697D25",
"C@	c #6B7E26",
"D@	c #506117",
"E@	c #444F11",
"F@	c #00064F",
"G@	c #000869",
"H@	c #000A81",
"I@	c #000B94",
"J@	c #000CA1",
"K@	c #000DAA",
"L@	c #000DAF",
"M@	c #000DB1",
"N@	c #000EB2",
"O@	c #000B56",
"P@	c #4D5D15",
"Q@	c #6F8029",
"R@	c #70822A",
"S@	c #899A3A",
"T@	c #6A7A26",
"U@	c #6C7C27",
"V@	c #5B6B1D",
"W@	c #9EB04C",
"X@	c #92A241",
"Y@	c #8FA040",
"Z@	c #90A23F",
"`@	c #ACBD5A",
" #	c #C7D67A",
".#	c #C7D477",
"+#	c #B9C766",
"@#	c #8A9E3B",
"##	c #72872B",
"$#	c #6D8228",
"%#	c #869737",
"&#	c #90A13F",
"*#	c #6D7D27",
"=#	c #7E9434",
"-#	c #8D9F3B",
";#	c #778D2D",
">#	c #73862C",
",#	c #6E7E29",
"'#	c #5A6B1D",
")#	c #36440B",
"!#	c #00064E",
"~#	c #000868",
"{#	c #000B93",
"]#	c #54651A",
"^#	c #53621A",
"/#	c #647523",
"(#	c #697C26",
"_#	c #617322",
":#	c #5F7121",
"<#	c #6D8229",
"[#	c #859637",
"}#	c #8A993A",
"|#	c #79892F",
"1#	c #7D8F32",
"2#	c #C1CF6E",
"3#	c #ACBC58",
"4#	c #B5C260",
"5#	c #A1B34D",
"6#	c #889A38",
"7#	c #92A440",
"8#	c #8B9D3D",
"9#	c #819134",
"0#	c #92A140",
"a#	c #5C6D1E",
"b#	c #7D9233",
"c#	c #58681B",
"d#	c #5F7020",
"e#	c #526219",
"f#	c #4F641C",
"g#	c #000650",
"h#	c #00086A",
"i#	c #4B5F15",
"j#	c #405010",
"k#	c #2F3D0D",
"l#	c #242A0C",
"m#	c #222E10",
"n#	c #10210E",
"o#	c #12220D",
"p#	c #17260E",
"q#	c #272E11",
"r#	c #859836",
"s#	c #97A944",
"t#	c #B5C461",
"u#	c #B8C561",
"v#	c #879839",
"w#	c #788C2E",
"x#	c #A6B650",
"y#	c #9FB24C",
"z#	c #869A39",
"A#	c #788C2F",
"B#	c #849538",
"C#	c #8B9D3A",
"D#	c #506018",
"E#	c #435511",
"F#	c #506A1F",
"G#	c #1D2515",
"H#	c #000653",
"I#	c #00086C",
"J#	c #000A83",
"K#	c #000B96",
"L#	c #000CA2",
"M#	c #000DAB",
"N#	c #648A37",
"O#	c #0F1E0B",
"P#	c #2B551D",
"Q#	c #3E692C",
"R#	c #325B23",
"S#	c #356026",
"T#	c #305921",
"U#	c #335B1F",
"V#	c #2D3812",
"W#	c #7D9435",
"X#	c #9CAD48",
"Y#	c #94A441",
"Z#	c #A4B450",
"`#	c #8C9B3B",
" $	c #768B2D",
".$	c #7C9132",
"+$	c #B0BE5B",
"@$	c #7D9232",
"#$	c #8B9F3B",
"$$	c #7C8F30",
"%$	c #6B7D28",
"&$	c #687A26",
"*$	c #627322",
"=$	c #5E6C20",
"-$	c #667C25",
";$	c #5D7821",
">$	c #020202",
",$	c #27521B",
"'$	c #2F5B22",
")$	c #345E26",
"!$	c #477737",
"~$	c #38652A",
"{$	c #366229",
"]$	c #427534",
"^$	c #386728",
"/$	c #244319",
"($	c #172810",
"_$	c #202C10",
":$	c #505F18",
"<$	c #5E701E",
"[$	c #8E9E3E",
"}$	c #8FA440",
"|$	c #7B8F30",
"1$	c #7D9132",
"2$	c #637222",
"3$	c #637522",
"4$	c #465412",
"5$	c #4B5C15",
"6$	c #566B1F",
"7$	c #293311",
"8$	c #2B3512",
"9$	c #34441A",
"0$	c #252525",
"a$	c #5B5B5B",
"b$	c #757575",
"c$	c #8F8F8F",
"d$	c #A6A6A6",
"e$	c #B8B8B8",
"f$	c #C4C4C4",
"g$	c #CCCCCC",
"h$	c #D0D0D0",
"i$	c #D2D2D2",
"j$	c #D3D3D3",
"k$	c #2A561F",
"l$	c #2D5620",
"m$	c #326026",
"n$	c #457836",
"o$	c #447635",
"p$	c #487836",
"q$	c #5C9349",
"r$	c #487D39",
"s$	c #38682B",
"t$	c #356226",
"u$	c #3A6526",
"v$	c #212A0B",
"w$	c #617623",
"x$	c #77892F",
"y$	c #768C2D",
"z$	c #6A7F26",
"A$	c #839635",
"B$	c #627121",
"C$	c #5F7623",
"D$	c #435A2D",
"E$	c #171717",
"F$	c #343434",
"G$	c #444444",
"H$	c #575757",
"I$	c #6D6D6D",
"J$	c #848484",
"K$	c #9A9A9A",
"L$	c #ADADAD",
"M$	c #BDBDBD",
"N$	c #C7C7C7",
"O$	c #CECECE",
"P$	c #D1D1D1",
"Q$	c #29561E",
"R$	c #2F5C23",
"S$	c #356328",
"T$	c #386529",
"U$	c #38672B",
"V$	c #3F7232",
"W$	c #518A41",
"X$	c #437934",
"Y$	c #356529",
"Z$	c #244C1A",
"`$	c #2D5621",
" %	c #2B561D",
".%	c #214118",
"+%	c #161B05",
"@%	c #445712",
"#%	c #5C6F1F",
"$%	c #687A24",
"%%	c #5F7320",
"&%	c #364318",
"*%	c #030305",
"=%	c #191919",
"-%	c #212121",
";%	c #4A4A4A",
">%	c #3C3C3C",
",%	c #474747",
"'%	c #525252",
")%	c #5C5C5C",
"!%	c #656565",
"~%	c #6B6B6B",
"{%	c #707070",
"]%	c #727272",
"^%	c #747474",
"/%	c #142810",
"(%	c #27521C",
"_%	c #325F26",
":%	c #36662A",
"<%	c #477B39",
"[%	c #589148",
"}%	c #487E37",
"|%	c #437632",
"1%	c #366528",
"2%	c #2A531F",
"3%	c #234A18",
"4%	c #26501C",
"5%	c #26521C",
"6%	c #467632",
"7%	c #262D0D",
"8%	c #4C5C17",
"9%	c #485814",
"0%	c #4B5B15",
"a%	c #4A5A15",
"b%	c #596C20",
"c%	c #749A3C",
"d%	c #3F3F3F",
"e%	c #515151",
"f%	c #646464",
"g%	c #636363",
"h%	c #737373",
"i%	c #494949",
"j%	c #B4B4B4",
"k%	c #D8D8D8",
"l%	c #E7E7E7",
"m%	c #F1F1F1",
"n%	c #F8F8F8",
"o%	c #FCFCFC",
"p%	c #FEFEFE",
"q%	c #FFFFFF",
"r%	c #0E180C",
"s%	c #376C2E",
"t%	c #27521D",
"u%	c #2A551F",
"v%	c #3E7030",
"w%	c #3F7432",
"x%	c #3D6E2F",
"y%	c #315D25",
"z%	c #2A521E",
"A%	c #2F5D23",
"B%	c #1B3314",
"C%	c #1E3818",
"D%	c #020003",
"E%	c #100F12",
"F%	c #3B4E16",
"G%	c #546D1D",
"H%	c #4A5F1F",
"I%	c #3B4F26",
"J%	c #0C0C0C",
"K%	c #272727",
"L%	c #5A5A5A",
"M%	c #6E6E6E",
"N%	c #838383",
"O%	c #7C7C7C",
"P%	c #8C8C8C",
"Q%	c #565656",
"R%	c #CBCBCB",
"S%	c #DADADA",
"T%	c #E6E6E6",
"U%	c #EFEFEF",
"V%	c #F6F6F6",
"W%	c #FBFBFB",
"X%	c #FDFDFD",
"Y%	c #233F1F",
"Z%	c #224B1A",
"`%	c #29531E",
" &	c #2C5620",
".&	c #29511E",
"+&	c #2C5821",
"@&	c #366429",
"#&	c #204517",
"$&	c #3A6F2D",
"%&	c #292929",
"&&	c #2F2F2F",
"*&	c #1C1C1C",
"=&	c #4C4C4C",
"-&	c #666666",
";&	c #787878",
">&	c #8D8D8D",
",&	c #A1A1A1",
"'&	c #949494",
")&	c #A3A3A3",
"!&	c #606060",
"~&	c #DFDFDF",
"{&	c #E8E8E8",
"]&	c #F0F0F0",
"^&	c #FAFAFA",
"/&	c #010002",
"(&	c #2C4B27",
"_&	c #437C37",
":&	c #386C30",
"<&	c #326128",
"[&	c #29501E",
"}&	c #224A19",
"|&	c #2D5D22",
"1&	c #0D160B",
"2&	c #3E3E3E",
"3&	c #4F4F4F",
"4&	c #535353",
"5&	c #595959",
"6&	c #616161",
"7&	c #9B9B9B",
"8&	c #A8A8A8",
"9&	c #BCBCBC",
"0&	c #C3C3C3",
"a&	c #C8C8C8",
"b&	c #284421",
"c&	c #3A662C",
"d&	c #386A2B",
"e&	c #1A1A1A",
"f&	c #3D3D3D",
"g&	c #4B4B4B",
"h&	c #585858",
"i&	c #626262",
"j&	c #696969",
"k&	c #6C6C6C",
"l&	c #717171",
"m&	c #767676",
"n&	c #7D7D7D",
"o&	c #888888",
"p&	c #959595",
"q&	c #A2A2A2",
"r&	c #AEAEAE",
"s&	c #C0C0C0",
"t&	c #C6C6C6",
"u&	c #CACACA",
"v&	c #686868",
"w&	c #2C4927",
"x&	c #417333",
"y&	c #448037",
"z&	c #4D4D4D",
"A&	c #4E4E4E",
"B&	c #505050",
"C&	c #545454",
"D&	c #5E5E5E",
"E&	c #C9C9C9",
"F&	c #878787",
"G&	c #2D2D2D",
"H&	c #8B8B8B",
"I&	c #969696",
"J&	c #CDCDCD",
"K&	c #E2E2E2",
"L&	c #E9E9E9",
"M&	c #676767",
"N&	c #929292",
"O&	c #A0A0A0",
"P&	c #ABABAB",
"Q&	c #DCDCDC",
"R&	c #DEDEDE",
"S&	c #E0E0E0",
"T&	c #EAEAEA",
"U&	c #F4F4F4",
"V&	c #CFCFCF",
"W&	c #C1C1C1",
"X&	c #858585",
"Y&	c #828282",
"Z&	c #868686",
"`&	c #8E8E8E",
" *	c #999999",
".*	c #B1B1B1",
"+*	c #BBBBBB",
"@*	c #6A6A6A",
"#*	c #ECECEC",
"$*	c #EEEEEE",
"%*	c #F3F3F3",
"&*	c #F5F5F5",
"**	c #AAAAAA",
"=*	c #9E9E9E",
"-*	c #9C9C9C",
";*	c #A4A4A4",
">*	c #ACACAC",
",*	c #B6B6B6",
"'*	c #BFBFBF",
")*	c #C2C2C2",
"                                                                                                ",
"                                                                                                ",
"                      . + @ # $ $ + %                                                           ",
"                    . . & * = - ; > , . . .                                                     ",
"              . ' ) ! ~ { ] ^ / ( _ : < [ } | #                                                 ",
"            . . 1 2 3 4 5 6 7 8 9 0 a b c d e f g .                                             ",
"          . h < i j k l m n o p q r s t u v w x y z A '                                         ",
"          . B C x q D E F G H I J K L M N > O P Q R S T U                                       ",
"        @ V W X n Y Z H b `  ...+.@.#.P $.%.&.*.=.-.;.>.,.'.                                    ",
"      . ).!.~.{.].^./.(._.:.<.[.}.|.#.1.2.3.4.5.6.{.7.8.9.0.'.                                  ",
"      @ a.Y b.c._.d.e.f.g.h.i.j.k.l.m.n.o.p.q.r.s.t.u.v.w.x.y..                                 ",
"    # z.A.B.C.D.E.F.G.H.I.J.K.L.M.N.q.O.P.Q.R.S.T.U.V.C.W.X.Y.. .                               ",
"    ' Z.`. +.+++@+#+$+%+&+*+=+-+;+>+,+'+Q.)+!+~+{+` ]+3.b.^+/+(+_+                              ",
"  . :+<+[+}+}+|+1+2+3+4+5+6+7+8+9+0+a+b+%+c+d+e+f+D.g+h+i+q  +j+k+                              ",
"  . l+m+n+o+p+q+r+s+t+u+v+w+x+y+z+A+B+C+D+E+F+G+}.H+I+J+_.K+L+M+N+                              ",
"  . O+P+Q+/.R+D.S+T+U+V+W+X+Y+b+Z+`+R. @.@+@@@#@$@%@&@*@=@-@;@x u # # # # # # # # # # # # #     ",
"  . >@,@'@)@!@~@{@]@^@/@(@_@:@<@[@}@|@1@2@3@4@5@6@7@8@9@0@4@a@p+; b@c@d@e@f@g@h@i@j@j@j@j@#     ",
"  . >@k@)@l@m@B.n@k@o@p@q@I.p.r@s@V+t@u@v@w@x@5.a@y@z@A@x B@C@D@E@F@G@H@I@J@K@L@M@N@N@N@O@#     ",
"  . P@Q@R@S@T@U@V@0@W@X@Y@Z@`@ #.#+#@###$#%#&#*#G =#-#;#>#,#'#A.)#!#~#H@{#J@K@L@M@N@N@N@O@#     ",
"  . ]#^#/#(#_#:#<#/#[#}#|#1#2#3#4#5#6#7#8#9#0#y@a#P :.b#c#c d#e#f#g#h#H@I@J@K@L@M@N@N@N@O@#     ",
"  . i#j#k#l#m#n#o#p#q#I+r#s#t#u#v#w#x#y#z#A#B#C#}+;.D#B.}+D@E#F#G#H#I#J#K#L#M#L@M@N@N@N@O@#     ",
"  . @ N#O#P#Q#R#S#T#U#. V#W#X#Y#Z#`# $.$+$@$#$$$%$D &$*$=$-$;$. >$# # # # # # # # # # # # #     ",
"      @ ,$'$)$!$~${$]$^$/$($_$:$<$/#[$>#}$|$1$2$3$4$5$6$7$8$9$0$a$b$c$d$e$f$g$h$i$j$j$j$b$#     ",
"      . k$l$m$n$o$p$q$r$s$t$u$. v$w$x$y$z$A$D.B$d#C$D$. E$F$G$H$I$J$K$L$M$N$O$P$i$j$j$j$b$#     ",
"      . Q$R$S$T$U$V$W$X$Y$Z$`$ %.%+%@%#%C@R.~+$%%%&%*%=%-%;%a$>%,%'%)%!%~%{%]%^%b$j$j$j$b$#     ",
"      . /%(%_%:%<%[%}%|%1%2%3%4%5%6%7%8%9%0%a%b%c%. d%e%f%g%h%i%j%N$k%l%m%n%o%p%q%j$j$j$b$#     ",
"        r%s%t%u%s$v%w%x%y%z%A%B%C%D%E%'.F%G%H%I%J%K%L%M%N%O%P%Q%R%S%T%U%V%W%X%q%q%j$j$j$b$#     ",
"        . . Y%Z%`% &.&+&@&#&$&. -%%&&&*&. . . =&Q%-&;&>&,&'&)&!&~&{&]&V%^&X%p%q%q%j$j$j$b$#     ",
"            /&(&_&:&<&[&}&|&1&E$F$2&,%=&3&e%4&5&6&M%O%P%7&8&j%9&0&a&g$O$P$i$j$j$j$j$j$j$b$#     ",
"              . . . b&c&d&. e&f&g&h&i&j&k&M%l&m&n&o&p&q&r&e$s&t&u&O$h$P$i$j$j$j$j$j$j$j$b$#     ",
"              # v&,%w&x&y&. G$4&g%]%n&i%=&z&A&B&C&5&D&f%v&f$E&l&h%^%^%b$b$b$b$b$b$j$j$j$b$#     ",
"              # F&!&G&. . e%)%~%O%H&I&h&f$N$E&J&i$S%K&L&]&R%O$h%p%p%q%q%q%q%q%q%q%j$j$j$b$#     ",
"              # d$O%{%j&M&~%b$N%N&O&P&i&Q&R&S&K&T%T&U%U&n%V&P$^%q%q%q%q%q%q%q%q%q%j$j$j$b$#     ",
"              # W&'&H&X&Y&Z&`& *d$.*+*@*#*$*U%m%%*&*n%^&o%P$i$b$q%q%q%q%q%q%q%q%q%j$j$j$b$#     ",
"              # k%**)&=*-*=*;*>*,*'*f$E&R%g$J&O$O$V&h$P$i$j$j$j$j$j$j$j$j$j$j$j$j$j$j$j$b$#     ",
"              # L&+*,*.*.*.*,*+*)*N$R%O$V&h$P$P$P$i$i$j$j$j$j$j$j$j$j$j$j$j$j$j$j$j$j$j$b$#     ",
"              # U&t&0&s&'*s&0&t&E&J&V&P$i$j$j$j$j$j$j$j$j$j$j$q%q%q%q%q%q%q%q%q%b$j$j$j$b$#     ",
"              # ^&J&R%E&E&E&u&J&O$h$i$j$j$j$j$j$j$j$j$j$j$j$j$q%j$j$j$j$j$j$j$j$b$j$j$j$b$#     ",
"              # p%P$h$V&O$V&V&h$P$i$j$j$j$j$j$j$j$j$j$j$j$j$j$q%j$j$j$j$j$j$j$j$b$j$j$j$b$#     ",
"              # q%i$i$i$i$i$i$i$j$j$j$j$j$j$j$j$j$j$j$j$j$j$j$b$b$b$b$b$b$b$b$b$b$j$j$b$b$#     ",
"              # q%j$j$j$j$j$j$j$j$j$j$j$j$j$j$j$j$j$j$j$j$j$j$j$j$j$j$j$j$j$j$j$j$j$j$b$b$#     ",
"              # q%j$j$j$j$j$j$j$j$j$j$j$j$j$j$j$j$j$j$j$j$j$j$j$j$j$j$j$j$j$j$j$j$b$b$b$b$#     ",
"              # b$b$b$b$b$b$b$b$b$b$b$b$b$b$b$b$b$b$b$b$b$b$b$b$b$b$b$b$b$b$b$b$b$b$b$b$b$#     ",
"              # # # # # # # # # # # # # # # # # # # # # # # # # # # # # # # # # # # # # # #     ",
"                                                                                                ",
"                                                                                                ",
"                                                                                                ",
"                                                                                                "};
