/* XPM */
static char * f7_xpm[] = {
"18 18 5 1",
" 	c None",
".	c #444433",
"+	c #F9F3D8",
"@	c #AAAA99",
"#	c #F2EAC1",
"..................",
".+++++++++++++++@.",
".++#############@.",
".+##############@.",
".+##############@.",
".+##....##....##@.",
".+##.########.##@.",
".+##.########.##@.",
".+##...######.##@.",
".+##.#######.###@.",
".+##.#######.###@.",
".+##.######.####@.",
".+##.######.####@.",
".+##############@.",
".+##############@.",
".+#############@@.",
".@@@@@@@@@@@@@@@@.",
".................."};
