/* XPM */
static char * ff_xpm[] = {
"16 12 2 1",
" 	c None",
".	c #000000",
"                ",
" ..     ..      ",
" ...    ...     ",
" ....   ....    ",
" .....  .....   ",
" ...... ......  ",
" ...... ......  ",
" .....  .....   ",
" ....   ....    ",
" ...    ...     ",
" ..     ..      ",
"                "};
