/* XPM */
static char * file_xpm[] = {
"52 45 81 1",
" 	c None",
".	c #CFCFCF",
"+	c #CDCDCD",
"@	c #CCCCCC",
"#	c #CBCBCB",
"$	c #000000",
"%	c #BABABA",
"&	c #C3C3C3",
"*	c #FFFFFF",
"=	c #FEFEFE",
"-	c #FDFDFD",
";	c #FCFCFC",
">	c #FBFBFB",
",	c #FAFAFA",
"'	c #F9F9F9",
")	c #F8F8F8",
"!	c #ADADAD",
"~	c #989898",
"{	c #A9A9A9",
"]	c #BCBCBC",
"^	c #F7F7F7",
"/	c #717171",
"(	c #8B8B8B",
"_	c #F6F6F6",
":	c #4F4F4F",
"<	c #F5F5F5",
"[	c #F4F4F4",
"}	c #3A3A3A",
"|	c #616161",
"1	c #8E8E8E",
"2	c #B5B5B5",
"3	c #F3F3F3",
"4	c #313131",
"5	c #5A5A5A",
"6	c #898989",
"7	c #B2B2B2",
"8	c #F2F2F2",
"9	c #2D2D2D",
"0	c #575757",
"a	c #888888",
"b	c #B1B1B1",
"c	c #F1F1F1",
"d	c #F0F0F0",
"e	c #565656",
"f	c #EFEFEF",
"g	c #2C2C2C",
"h	c #878787",
"i	c #EEEEEE",
"j	c #EDEDED",
"k	c #ECECEC",
"l	c #EBEBEB",
"m	c #EAEAEA",
"n	c #E9E9E9",
"o	c #E8E8E8",
"p	c #E7E7E7",
"q	c #E6E6E6",
"r	c #E5E5E5",
"s	c #E4E4E4",
"t	c #E3E3E3",
"u	c #E2E2E2",
"v	c #E1E1E1",
"w	c #E0E0E0",
"x	c #DFDFDF",
"y	c #DEDEDE",
"z	c #DDDDDD",
"A	c #DCDCDC",
"B	c #DBDBDB",
"C	c #DADADA",
"D	c #D9D9D9",
"E	c #D8D8D8",
"F	c #D7D7D7",
"G	c #D6D6D6",
"H	c #D5D5D5",
"I	c #D4D4D4",
"J	c #D3D3D3",
"K	c #D2D2D2",
"L	c #D1D1D1",
"M	c #D0D0D0",
"N	c #CECECE",
"O	c #303030",
"P	c #B3B3B3",
"           .+@@@########################@@@+.       ",
"        $$$$$$$$$$$$$$$$$$$$$$$$$$$$$$$$$$$$%&@     ",
"        $*****************==---;;>>>,,''')!$~{]@    ",
"        $*************===--;;;>>,,,'''))^^!$/({&    ",
"       .$**********==---;;>>>,,''')))^^___!$:/~%.   ",
"       +$******===--;;;>>,,,'''))^^^__<<<[!$}|12+   ",
"       @$***==---;;>>>,,''')))^^___<<[[[33!$4567@   ",
"       #$==--;;;>>,,,'''))^^^__<<<[[[33888!$90ab#   ",
"       #$-;;>>>,,''')))^^___<<[[[33388cccd!$9eab#   ",
"       #$>>,,,'''))^^^__<<<[[[33888ccdddff!$gehb#   ",
"       #$,''')))^^___<<[[[33388cccddfffiii!$gehb#   ",
"       #$'))^^^__<<<[[[33888ccdddfffiijjjk!$gehb#   ",
"       #$^^___<<[[[33388cccddfffiiijjkkkll!$gehb#   ",
"       #$_<<<[[[33888ccdddfffiijjjkklllmmm!$gehb#   ",
"       #$[[[33388cccddfffiiijjkkkllmmmnnno!$gehb#   ",
"       #$33888ccdddfffiijjjkklllmmmnnooopp!$gehb#   ",
"       #$8cccddfffiiijjkkkllmmmnnnoopppqqr!$gehb#   ",
"       #$dddfffiijjjkklllmmmnnoooppqqqrrrs!$gehb#   ",
"       #$ffiiijjkkkllmmmnnnoopppqqrrrssstt!$gehb#   ",
"       #$ijjjkklllmmmnnoooppqqqrrrsstttuuv!$gehb#   ",
"       #$kkkllmmmnnnoopppqqrrrsssttuuuvvww!$gehb#   ",
"       #$llmmmnnoooppqqqrrrsstttuuvvvwwwxx!$gehb#   ",
"       #$mnnnoopppqqrrrsssttuuuvvwwwxxxyyz!$gehb#   ",
"       #$oooppqqqrrrsstttuuvvvwwwxxyyyzzAA!$gehb#   ",
"       #$ppqqrrrsssttuuuvvwwwxxxyyzzzAABBB!$gehb#   ",
"       #$qrrrsstttuuvvvwwwxxyyyzzAAABBBCCD!$gehb#   ",
"       #$sssttuuuvvwwwxxxyyzzzAABBBCCCDDEE!$gehb#   ",
"       #$ttuuvvvwwwxxyyyzzAAABBBCCDDDEEFFF!$gehb#   ",
"       #$uvvwwwxxxyyzzzAABBBCCCDDEEEFFGGGH!$gehb#   ",
"       #$wwwxxyyyzzAAABBBCCDDDEEFFFGGGHHII!$gehb#   ",
"       #$xxyyzzzAABBBCCCDDEEEFFGGGHHHIIJJJ!$gehb#   ",
"       #$yzzAAABBBCCDDDEEFFFGGGHHIIIJJKKKL!$gehb#   ",
"       #$AABBBCCCDDEEEFFGGGHHHIIJJJKKLLLMM!$gehb#   ",
"       #$BBCCDDDEEFFFGGGHHIIIJJKKKLLLMM...!$gehb#   ",
"       #$CDDEEEFFGGGHHHIIJJJKKLLLMMM..NNN+!$gehb#   ",
"       #$EEFFFGGGHHIIIJJKKKLLLMM...NN+++@@!$gehb#   ",
"       #$FGGGHHHIIJJJKKLLLMMM..NNN++@@@@@@!$gehb#   ",
"       #$GHHIIIJJKKKLLLMM...NN+++@@@@@@@@@!$9eab#   ",
"       #$IIJJJKKLLLMMM..NNN++@@@@@@@@@@@@@!$90ab#   ",
"       @$!!!!!!!!!!!!!!!!!!!!!!!!!!!!!!!!!!$4567@   ",
"       +$$$$$$$$$$$$$$$$$$$$$$$$$$$$$$$$$$$$}|12+   ",
"       .%~/:}O99gggggggggggggggggggggggg99O}:/~%.   ",
"        &{(/|500eeeeeeeeeeeeeeeeeeeeeeee005|/({&    ",
"        @]{~16aahhhhhhhhhhhhhhhhhhhhhhhhaa61~{]@    ",
"         @&%2P77bbbbbbbbbbbbbbbbbbbbbbbb77P2%&@     "};
