/* XPM */
static char * file_vol_scn_xpm[] = {
"52 45 49 1",
" 	c None",
".	c #CECECE",
"+	c #CACACA",
"@	c #020202",
"#	c #B9BAB9",
"$	c #C0C2C0",
"%	c #FEFEFE",
"&	c #F8F8F8",
"*	c #A8AAA8",
"=	c #989C98",
"-	c #3A3A3A",
";	c #3A3F3A",
">	c #AEAEAE",
",	c #6F726F",
"'	c #878787",
")	c #E3E3E3",
"!	c #DEDEDE",
"~	c #F2F2F2",
"{	c #555655",
"]	c #5E635E",
"^	c #8A8E8A",
"/	c #B2B2B2",
"(	c #C6C6C6",
"_	c #2D2E2D",
":	c #323632",
"<	c #ECECEC",
"[	c #101210",
"}	c #1A1E1A",
"|	c #414741",
"1	c #222622",
"2	c #585C58",
"3	c #4E4E4E",
"4	c #2E332E",
"5	c #9FA49F",
"6	c #A9AFA9",
"7	c #818781",
"8	c #8F948F",
"9	c #737A73",
"0	c #484E48",
"a	c #7B807B",
"b	c #BBBEBB",
"c	c #B2B8B2",
"d	c #AEB6AE",
"e	c #666A66",
"f	c #D2D2D2",
"g	c #D6D6D6",
"h	c #DADADA",
"i	c #FE0202",
"j	c #FE7E7E",
"           .....++++++++++++++++++++++++.....       ",
"        @@@@@@@@@@@@@@@@@@@@@@@@@@@@@@@@@@@@#$.     ",
"        @%%%%%%%%%%%%%%%%%%%%%%&%&&&&&&&&&*@=*#.    ",
"        @%%----------------------;;&&&&&&&>@,'*$    ",
"       .@%%-))))))))))))))))!)))!)-&&&&~&&*@{,=#.   ",
"       .@%%-)----------------------;-&~&~~>@-]^/.   ",
"       +@%%-)-((((((((((((((((((((((-&~&~~*@_{^/.   ",
"       +@%%:)-(---------------------:--~~~>@_{'/+   ",
"       +@%%-)-(-######################-~~~>@_{'/+   ",
"       +@&&-)-(-#------------------------<>@_{'>.   ",
"       +@&&-)-(-#-[[[}|]:1}:|{23{-}-42}[-<>@_{'>+   ",
"       +@&&:)-(-#-[[4221125'56/78=9444,}-<*@_{'/.   ",
"       +@&&-)-(-#-[|-_1;00656//=a5=7_}38-<>@_{'>+   ",
"       +@&&-)-(-#-4;_1]9=655666=7$^$=}1{-<*@_{'/.   ",
"       +@~~-)-(-#--_|{5=bb8=78a7^6566][_-<*@_{'>+   ",
"       +@~~:)-(-#-;1a6bc==56=^55a*d*c]1}-)>@_{'/.   ",
"       +@~~-)-(-#--a56578*c66dbb578#9{8[;)*@_{'>+   ",
"       +@~<-)-(-#-a$$69*d=2411]6b*6865c:-)>@_{'/.   ",
"       +@~<-)-(-#-c(c7=d90]|e24,d68=6$a;-)*@_{'>+   ",
"       +@<<-)-(-#-6fcab72a9==87a58^58b=8-)>@_{'/.   ",
"       +@<<-)-(-#;+g^c$e98658^70,7=*d7>#-)*@_{'>+   ",
"       +@<<-)-(-#;.g65$$8^55==,4]0]=c=^$-!>@_{'/.   ",
"       +@<)-)-(-#;28fgf.d8e277]4,e7,a55a-!*@_{'>+   ",
"       +@)<---(-#:[e8dbc5,4:0=8]^=88^,,}-h>@_{'/.   ",
"       +@))))-(-b;1[}11|4|;|:85^=cbd^]2};h*@_{'>+   ",
"       +@)<))---#:4[[[[[[[}41,5d56c$6=1|-h>@_{'/.   ",
"       +@))))))-#-;}[[[[[[[[}}4]7$=d=]{1-h*@_{'>+   ",
"       +@)))))!---};:1}1[[;4[}}4=d=^0;e1-g>@_{'/.   ",
"       +@)))!)!)!-96;44|:[07e14;a=;0]7{}-g*@_{'>+   ",
"       +@)!!!!!!!--;-:;;;:;;:;;;:;-;:--;-f>@_{'/.   ",
"       +@)!!!!hh!!hh!hhhhhghggghggfgfffggf*@_{'>+   ",
"       +@!!!hh!!hhhiiiiihghgiiiigfiggfffif>@_{'/.   ",
"       +@!!!!hhhhhijggggiggijffjifiiff..if*@_{'>+   ",
"       +@hhhhhghhgigggggffijfgffffi.i.ffi.>@_{'/.   ",
"       +@hggghgggggiiiiigfigfff.f.i.fi..i.*@_{'>+   ",
"       +@ghhhggggfgffffjifij.f.f..i..+i+i+>@_{'/.   ",
"       +@ggggggggfiffff.i..ij..ji.i+.+.ii.*@_{'>+   ",
"       +@gffgffffffiiiii.ff.iiii.+i.+.++i+>@_{'/.   ",
"       +@ggfgffffff..........+++.++.+..+..*@_2'>+   ",
"       +@>*6*>>>>**>>>>>**>**>>>*>>>>>*>**>@_2'/.   ",
"       +@@@@@@@@@@@@@@@@@@@@@@@@@@@@@@@@@@@@-]^c.   ",
"       .#=,3-______________________________-3,=#.   ",
"        $*^,]{{{{{{{{{{{{{{{{{{{{{{{{{{{{{2],'*(    ",
"        +#5=^^'''''''''''''''''''''''''''''^=>#+    ",
"         +(#//>/>>>>>>>>>>>>>>>>>>>>>>>/////#$.     "};
