/* XPM */
static char * file_text_xpm[] = {
"52 45 34 1",
" 	c None",
".	c #CECECE",
"+	c #CACACA",
"@	c #020202",
"#	c #BABABA",
"$	c #C2C2C2",
"%	c #FEFEFE",
"&	c #FAFAFA",
"*	c #F6F6F6",
"=	c #AAAAAA",
"-	c #9A9A9A",
";	c #AEAEAE",
">	c #727272",
",	c #8A8A8A",
"'	c #4E4E4E",
")	c #F2F2F2",
"!	c #3A3A3A",
"~	c #626262",
"{	c #8E8E8E",
"]	c #B6B6B6",
"^	c #C6C6C6",
"/	c #2E2E2E",
"(	c #5A5A5A",
"_	c #868686",
":	c #B2B2B2",
"<	c #565656",
"[	c #EEEEEE",
"}	c #EAEAEA",
"|	c #E6E6E6",
"1	c #E2E2E2",
"2	c #DEDEDE",
"3	c #DADADA",
"4	c #D6D6D6",
"5	c #D2D2D2",
"           .....++++++++++++++++++++++++.....       ",
"        @@@@@@@@@@@@@@@@@@@@@@@@@@@@@@@@@@@@#$.     ",
"        @%%%%%%%%%%%%%%%%%%%%%%&&&&&&&&***=@-=#.    ",
"        @%%%%%%%%%%%%%%%%%%&&&&%&&&&&&*&&*;@>,=$    ",
"       .@%%%%%%%%%%%%%%%&&%&&&&&&&********=@'>-#.   ",
"       .@%%'''''''''''''''''&&*&**&****)**;@!~{].   ",
"       +@%%^^^^^^^^^^$$^^^^&*&*&*****)**))=@/(_:.   ",
"       +@%%%%&&&&&&&&&&********)*)*)**))));@/<,:+   ",
"       +@%&&%%%&&&**&&&********)*)*)))[)))=@/<_:+   ",
"       +@&&'''''''''********)))*))))[))[[[;@/<,;.   ",
"       +@&*$$$$^^^^*****)))))))))[[)[[[[[[=@/',;+   ",
"       +@&&&&****)**))*)))))))[[[)[[[[[[[[;@/(_:.   ",
"       +@*****))*))*))))))))[[[)[[[[[[[}}}=@/<_;+   ",
"       +@**'''''''''''''''''''''''''''''}};@/<,:.   ",
"       +@))^^^^^$^^$^$^^$$^^^^^$$^$$$$$}}}=@/',;+   ",
"       +@)))))[[)[[)[)[[[[}}}}}[}}}}}}}|||;@/(_:.   ",
"       +@)[))))[[[[[[}}[[[}}}}}}|}}|||||||=@/<_;+   ",
"       +@)['''''''''''''''''''''''''''''|1;@/<,:.   ",
"       +@)[$$$^^^^$$$^^$$^^^$$$^^^^^^^^1|1=@/',;+   ",
"       +@[[[[[}}}}}}}||}}||||||11111111111;@/(_:.   ",
"       +@}[}}}}}}}}}}}||}||||||||111111211=@/<_;+   ",
"       +@}}'''''''''''''''''''''''''''''22;@/<,:.   ",
"       +@}}^^^$$$^^^$$$$$$$^^^$$^^^$^^^222=@/',;+   ",
"       +@||||||||111|||||11222112222222233;@/(_:.   ",
"       +@||||||||||11111111112212223333223=@/<_;+   ",
"       +@||'''''''''''''''''''''''''''''33;@/<,:.   ",
"       +@11$$^^^$$$^$$$$^^$$$^$$$^^^^^^433=@/',;+   ",
"       +@|11122211121222332223223334444444;@/(_:.   ",
"       +@111111222222222233333334433444444=@/<_;+   ",
"       +@12'''''''''''''''''''''''''''''55;@/<,:.   ",
"       +@12^$$$^^$$$^$$$$^^$$$$^^^$^^^^445=@/',;+   ",
"       +@223222332334333344344455545555555;@/(_:.   ",
"       +@3233333333333444444444455455...55=@/<_;+   ",
"       +@33'''''''''''''''''''''''''''''..;@/<,:.   ",
"       +@34^^$$$$^$$$$^$$$$^^^$^^$$^^^^...=@/',;+   ",
"       +@434434445444454555...5..55.....++;@/(_:.   ",
"       +@44444444455555555555.....+.+++...=@/<_;+   ",
"       +@4445445555555.55.......++.+...+++;@/<,:.   ",
"       +@5555555.55..5........+..+.+++....=@/<,;+   ",
"       +@;;;;;;;;;;;;;;;;;;=;=;;=;=;;;;;==;@/(_:.   ",
"       +@@@@@@@@@@@@@@@@@@@@@@@@@@@@@@@@@@@@!~{].   ",
"       5]->'!//////////////////////////////!'>-#.   ",
"        $=,>~<<<'<''<''<''<'<'<'<'<''<'<<<(~>,=$    ",
"        +#=-{,__,_,,_,,_,,_,_,_,_,_,,_,__,,{-=#.    ",
"         +$]]:::::::::::::::::::::::::::::::#$+     "};
