/* XPM */
static char * file_vol_gen_xpm[] = {
"52 45 49 1",
" 	c None",
".	c #CECECE",
"+	c #CACACA",
"@	c #020202",
"#	c #B9BAB9",
"$	c #BEC3BE",
"%	c #FEFEFE",
"&	c #FAFAFA",
"*	c #F6F6F6",
"=	c #A8ACA8",
"-	c #989C98",
";	c #3A3A3A",
">	c #AEAEAE",
",	c #6E716E",
"'	c #898C89",
")	c #E2E2E2",
"!	c #494D49",
"~	c #F0F0F0",
"{	c #5F645F",
"]	c #B2B2B2",
"^	c #C5C6C5",
"/	c #2D2E2D",
"(	c #585E58",
"_	c #868686",
":	c #565756",
"<	c #393E39",
"[	c #101210",
"}	c #1A1E1A",
"|	c #323632",
"1	c #222622",
"2	c #3E443E",
"3	c #4E554E",
"4	c #4A524A",
"5	c #2E332E",
"6	c #9EA49E",
"7	c #7E837E",
"8	c #8F948F",
"9	c #727872",
"0	c #E8E8E8",
"a	c #787F78",
"b	c #AAB2AA",
"c	c #BBBEBB",
"d	c #AEB6AE",
"e	c #B2B8B2",
"f	c #BAC2BA",
"g	c #D2D2D2",
"h	c #DADADA",
"i	c #DEDEDE",
"j	c #D6D6D6",
"           .....++++++++++++++++++++++++.....       ",
"        @@@@@@@@@@@@@@@@@@@@@@@@@@@@@@@@@@@@#$.     ",
"        @%%%%%%%%%%%%%%%%%%%%%%&&&&&&&&***=@-=#.    ",
"        @%%;;;;;;;;;;;;;;;;;;;;;;;;&&&*&&*>@,'=$    ",
"       .@%%;))))))))))))))))))))));*******=@!,-#.   ",
"       .@%%;);;;;;;;;;;;;;;;;;;;;;;;;**~**>@;{'].   ",
"       +@%%;);^^^^^^^^^^^^^^^^^^^^^^;**~~*=@/(_].   ",
"       +@%%;);^;;;;;;;;;;;;;;;;;;;;;;;;*~~>@/:']+   ",
"       +@%&;);^;######################;~~~>@/:_]+   ",
"       +@&%;);^;#;;;;;;;;;;;;;;;;;;;;;;<;~>@/:_>.   ",
"       +@&&;);^;#;[[[}!{|1};23(43;};|([[;~>@/:_>+   ",
"       +@**;);^;#;[[5::11:67=]]_8-95559};0=@/:'].   ",
"       +@**;);^;#;[!<5}<!4]-=]]-a6-'/1!8;0>@/:_>+   ",
"       +@**;);+;#;5;/1{a->66b==-'$'$8}/:;~=@/:_].   ",
"       +@**;);^;#;</2:6-cc-8'8a7'b6b>:[/;0=@/:_>+   ",
"       +@~~;);^;#;<17dcd--6d886=a=b=e{/};0>@/:_].   ",
"       +@~~;);^;#;;7-b6_86ed=def6'8e94'[;)=@/:_>+   ",
"       +@~~;);^;#;a$$b9=e8(511{=c6>8>=#5;0>@/:_].   ",
"       +@~~;);^;#;#^e76d94(!{{|,d=8-=$7<;)=@/:_>+   ",
"       +@~0;);^;#|=gdac7(aa--8a768'68#-8;)>@/:_].   ",
"       +@~0;);^;#2^h8e$,98b6887!9766e'>#;i=@/:_>+   ",
"       +@0~;);^;#;.j=6$c8'66--95{3(-d-'$;i>@/:_].   ",
"       +@00;);^;#<:8gjg.d8{(7_{5,,79a6-7;h=@/:_>+   ",
"       +@00;;;^;#;[,8bce695|2-8('-8-'99};i>@/:'].   ",
"       +@0000;^;#;}[}1125222<86'6ded_{(};h=@/:_>+   ",
"       +@00));;;#;5[[[[[[}}51,6b6=c$b81!;h>@/:_].   ",
"       +@)00)0);#;<}[[@[[[[[}}5(7$-b6{31;j=@/:_>+   ",
"       +@))))i);;;}2|11}[[|5[}15-b-'!|,1;j>@/:_].   ",
"       +@)i))ii));9b25|2|}!7,}|<76|4{a31;g=@/:_>+   ",
"       +@i)ii)iii;;;;;;<||<<;<<<;;<;;;;;;j>@/:_].   ",
"       +@iiiiihhiihhhhhiijjjjjjjjjjgjggggg=@/:_>+   ",
"       +@iiihhiihhhhhhhjjhjhjjjjjgjjgggggg>@/:_].   ",
"       +@ihhihhhhhhjhhjjjjjjjjjggggggggg..=@/:_>+   ",
"       +@hihhhjhhjjjjjjjgjggggggggggg.g...>@/:'].   ",
"       +@hhjjhjjhjjjgjjjjgjjggggg..gg....+=@/:_>+   ",
"       +@jhhhjjjjjjgjjggggg.gg.g.gg.......>@/:_].   ",
"       +@jjjjjjggjjgggg.g.g..g....++++.+++=@/:_>+   ",
"       +@jggjggjgggggggggg......++....+...>@/:_].   ",
"       +@jjgjggg..g.g.......+++..++++.++++=@/:'>+   ",
"       +@>>>=>=>>>>>=>>>=>>>>>>>=>>>>=>>>>>@/(_].   ",
"       +@@@@@@@@@@@@@@@@@@@@@@@@@@@@@@@@@@@@;{'e.   ",
"       g#8,!;//////////////////////////////;!,-#.   ",
"        ^=',{:::3:3:!:3:!:3:!::!::!::!::::({,'=c    ",
"        +#6-''_____________________________'8=#.    ",
"         .^#]]]]>>]]>>]]>>]]>]]>]]]]]]>]]]]##^.     "};
