/* XPM */
static char * file_vol_p6_xpm[] = {
"52 45 65 1",
" 	c None",
".	c #020202",
"+	c #302F2E",
"@	c #65612B",
"#	c #739034",
"$	c #FE0202",
"%	c #B3B2B0",
"&	c #EAEAEA",
"*	c #8A962E",
"=	c #B5B9BE",
"-	c #6A3821",
";	c #38211C",
">	c #9C5C31",
",	c #878787",
"'	c #565656",
")	c #C4D8F9",
"!	c #F5AAA0",
"~	c #626E2E",
"{	c #2B1918",
"]	c #D0D0CF",
"^	c #8E8E8E",
"/	c #593728",
"(	c #CAA78D",
"_	c #E0E0E0",
":	c #989A9B",
"<	c #5F792F",
"[	c #E0C2A6",
"}	c #9A6848",
"|	c #E8D6C9",
"1	c #52392F",
"2	c #8D6041",
"3	c #D8D8D8",
"4	c #8F5028",
"5	c #EEEEEE",
"6	c #261615",
"7	c #C9C9C9",
"8	c #4D4E48",
"9	c #B09E99",
"0	c #7F8933",
"a	c #775441",
"b	c #8F6C4C",
"c	c #A07C5A",
"d	c #F2F2F2",
"e	c #6F706A",
"f	c #6B8632",
"g	c #4B3126",
"h	c #B48457",
"i	c #B29382",
"j	c #C5985C",
"k	c #7D4525",
"l	c #605F5A",
"m	c #869696",
"n	c #74767E",
"o	c #574D33",
"p	c #46312A",
"q	c #BB9A87",
"r	c #819332",
"s	c #FCFCFC",
"t	c #AEADAD",
"u	c #D2B89B",
"v	c #6C432D",
"w	c #D6B286",
"x	c #49291E",
"y	c #7F614A",
"z	c #404030",
"           ]]7]7777777777777777777777777]7]]]       ",
"        ....................................=7]     ",
"        .ssssssssssssssssssssssssssssssdsdt.:t=]    ",
"        .s...ssssssssssssssssssssssdsd...st.e,97    ",
"       ].s.))))))))))))))))))))))))))))).dt.8n:=]   ",
"       7.s.>t))))))))))))))))))))))))))).dt.zl^%7   ",
"       7.ssk>(||ui7)))))))))))))))))))))ddt.+',=7   ",
"       ].ss-4hq|_q4ou]7)))))7777))))))))ddt.+',t]   ",
"       7.ss>4>hi||qkvvpbit=%(9wu7)))))))d5t.+',t7   ",
"       7.ss4>>%k[||u--/xgx/@|u[|()_)t7))d5t.+',%]   ",
"       7.ssq(i|(i|]|h--x;;;8||]|wa8{6{=)55t.+',t7   ",
"       7.sd|cq|((|q[(k--x;6;^|||a/6{{+))5&t.+',%]   ",
"       7.ds[hc|(}|ih}k-;{{{6v||^;pl8n7))&&t.+',t7   ",
"       7.sdq>47[kiq>ax-;{{66{^9v6e3)))))&&t.+',%]   ",
"       7.ddv247u2ci}kx{{{666{;vk{:))))))&&t.+',t7   ",
"       7.ddk(>uqi2hkx-;{{{66{;vvp:m=t:ne_&t.+',%]   ",
"       7.d5(i([}(bck-x;{{66{{xvvp8zzz++z__t.+',t7   ",
"       7.dd[u[[k9(}k-x;{{{{{{;v18~~<<<<@&&t.+',%]   ",
"       7.5d[[[(x([2k-;{{6{6g;1v1@f<fff#f__t.+',t7   ",
"       7.5&[w[qcwwk-x;{666o~;vabl<ff#fff__t.+',%]   ",
"       7.&5wwjjjjh4k;{6{x2r@;;;/2ff###ff__t.+',t7   ",
"       7.&5(!hjhh;/kxxx/bc0#f@@~<ffff<ff__t.+',%]   ",
"       7.&&jhc}hk{x-icc}iff#rr####f##f#f)3t.+',t7   ",
"       7.&_hhh}v;;;/q((c00f0f##f#ff##fff__t.+',%]   ",
"       7.&&jc0/pxp{y]hjf00f#r##########f33t.+',t7   ",
"       7.__ffr~vpv;a[c00##rrr####ff###ff33t.+',%]   ",
"       7.&.rf00yab;ew0rf0#r##f<<f<f#ffff.3t.+',t7   ",
"       7._.r***~c(;zw0f0##f<<<<<f<fff<ff.3t.+',%]   ",
"       7._...____3___3_|_3_33)))))))3)...]t.+',t7   ",
"       7.__________33_3333_33__3_333333]]3t.+',%]   ",
"       7.__3_33_33_33_33_3333333]33]]]33]]t.+',t7   ",
"       7._3_3__3__3_3333333$$$$$$3]3!$$$]]t.+',%]   ",
"       7._3_333333333333]3]$]3]3!$]!$]]]]]t.+',t7   ",
"       7.3_3333333333333]33$3]3]!$]$]]]]]]t.+',%]   ",
"       7.3333333333]3]3]3]]$$$$$$]]$$$$$]7t.+',t7   ",
"       7.3333333]33]3]]3]3]$]]]]]]]$]77!$7t.+',%]   ",
"       7.33333]3]]3]3]]]]]]$]]]7]]7$!]7!$7t.+',t7   ",
"       7.3]3]]3]]3]]]]]]]]]$]77]]7]7$$$$7]t.+',%]   ",
"       7.3]33]3]]]]]]]]]]]77]]7777]7777]77t.+',t7   ",
"       ].ttttttttttt%tttttttttttttttttttttt.+',=]   ",
"       7....................................zl^%]   ",
"       ]=:e8z+++++++++++++++++++++;++++++++z8e:=]   ",
"        79,el'''8''8'8'8'8'8''''8'''8'8''''ln,t7    ",
"        7=t:^,,,,,,,,,,,,,,,,,,,,,,,,,,,,,,,:t=7    ",
"         77==%%%%t%%%t%t%%%tttt%%%t%t%tt%=%%=77     "};
