/* XPM */
static char * file_vol_p5_xpm[] = {
"52 45 61 1",
" 	c None",
".	c #020202",
"+	c #060606",
"@	c #323232",
"#	c #868686",
"$	c #D6D6D6",
"%	c #FE0202",
"&	c #CACACA",
"*	c #8A8A8A",
"=	c #FAFAFA",
"-	c #9A9A9A",
";	c #6A6A6A",
">	c #0A0A0A",
",	c #FEAAAA",
"'	c #AAAAAA",
")	c #EEEEEE",
"!	c #3A3A3A",
"~	c #0E0E0E",
"{	c #121212",
"]	c #B6B6B6",
"^	c #424242",
"/	c #E6E6E6",
"(	c #161616",
"_	c #4E4E4E",
":	c #B2B2B2",
"<	c #DEDEDE",
"[	c #CECECE",
"}	c #1A1A1A",
"|	c #626262",
"1	c #9E9E9E",
"2	c #1E1E1E",
"3	c #AEAEAE",
"4	c #727272",
"5	c #C2C2C2",
"6	c #222222",
"7	c #A2A2A2",
"8	c #DADADA",
"9	c #7E7E7E",
"0	c #D2D2D2",
"a	c #525252",
"b	c #262626",
"c	c #F2F2F2",
"d	c #BEBEBE",
"e	c #FEFEFE",
"f	c #A6A6A6",
"g	c #969696",
"h	c #E2E2E2",
"i	c #7A7A7A",
"j	c #5A5A5A",
"k	c #EAEAEA",
"l	c #F6F6F6",
"m	c #2A2A2A",
"n	c #BABABA",
"o	c #8E8E8E",
"p	c #565656",
"q	c #363636",
"r	c #828282",
"s	c #666666",
"t	c #3E3E3E",
"u	c #2E2E2E",
"v	c #6E6E6E",
"           [[[[[&&&&&&&&&&&&&&&&&&&&&&&&[[[[[       ",
"        ....................................n5[     ",
"        .eeeeeeeeeeeeeeeeeeeeee========lll'.-fd[    ",
"        .e...eeeeeeeeeeeeee====e======...l3.4of5    ",
"       [.e.11f''''::3'ff'333'3f'fffff7ff.l'._4gn[   ",
"       [.e.177ff'333:33333:3:3ff''ffffff.l3.!|o][   ",
"       &.ee1f7ffff3''f'333:3::'fffff'f'fcc'.@j*:[   ",
"       &.ee7ffff'33'f333:]:::]:3f'''f3'3cc3.mj#:&   ",
"       &.e=1f'f''f''f3:'33:]3:3:'ffff'33cc'.mp#:&   ",
"       &.=e777'f'ff'''33333:33:3'ff'f'33))3.up*3[   ",
"       &.==7f7ff''ff''3'7f3:::333''3''3:))'.up*3&   ",
"       &.llf1f'ff'fffim>(jr'd]33:33::333))3.mp#:[   ",
"       &.ll117fff'ffv>+>(bta|#f3:3333333kk'.mp#3&   ",
"       &.ll77f''37oa{~~{2t1&&5ff3:333:33kk3.up*:[   ",
"       &.lcff79pu{>+.+.+~{6@^sirr1':3::3kk'.mp#3&   ",
"       &.ccffgu>++.++....++++++.+>2ti':3//3.up*:[   ",
"       &.cc''3:7ia2+.+...+.+.++.+.+}^-]]//'.mp#3&   ",
"       &.ccf3:]:::39^{++++++>+~q|r-'::::/h3.up*:[   ",
"       &.)c'33]33::3'7rjt@@^s*f::3:3::33/h'.mp#3&   ",
"       &.)k33::::33333'f3:3:]]:33:::3:3:hh3.up*:[   ",
"       &.)k33333333:3'3'3333:]]:3:::3:33hh'.mp#3&   ",
"       &.kk:33333:33::3'''3:]:333333333:<<3.up*:[   ",
"       &.k/333::333'':33::33::333:33333:<<'.mp#3&   ",
"       &.kk3:33'''f''ff''333:33:33::3:33883.up*:[   ",
"       &.//'33:3ffff''f'f3333:3::33:333:<8'.mp#3&   ",
"       &.//33'333'fff'f'3::333333:333::3883.up*:[   ",
"       &.h.'33::3''''3'3333::]:3333:333:.8'.mp#3&   ",
"       &./.'333333f''3:333:]]n]::::333]n.$3.up*:[   ",
"       &.h...<<<<<<<<8<<<<<88888$$888$...$'.mp#3&   ",
"       &.<<<<h<<<<8<<<888888$88$88$$$$00003.up*:[   ",
"       &.hh<<<<<8<888888$$$8$$$$$$$0$$$0$0'.mp#3&   ",
"       &.<8<8<<8<8888888888%%%%%%00%%%%%%03.up*:[   ",
"       &.<888888888$$$$$$$$%0$00,%0%0[0[00'.mp#3&   ",
"       &.8<8888$8$$8$$$$000%$000,%0%[0[0[[3.up*:[   ",
"       &.888$$8$8$$$$$$$$00%%%%%%[[%%%%%[['.mp#3&   ",
"       &.$8$$8$$$$0$0000000%[0[[[0[[[&&,%&3.up*:[   ",
"       &.$$$$$$00$0$000000[%[[[[[[[&[[&&%['.mp#3&   ",
"       &.$$$000$0000000[0[[%[[[[&[&%%%%%,&3.up*:[   ",
"       &.0$0000000[0[[[[[[[[[[&[&[&&&&&&[['.mp*3&   ",
"       &.3'333'3'33'333333'33'333'333333''3.@j#:[   ",
"       &....................................!|o][   ",
"       0ngv_!umummmmmmmmmmmmmmmmmmmmmmmmumu!_4-n[   ",
"        &'*v|jppppppppppppppppppppppppppjpj|4*f5    ",
"        &n'-o*#*#*######*##*###*######*##*#og'd[    ",
"         &5n]]::3::::::3::3:::3::::::3:::::]n5&     "};
