/* XPM */
static char * file_vol_minc_xpm[] = {
"52 45 49 1",
" 	c None",
".	c #CECECE",
"+	c #CACACA",
"@	c #020202",
"#	c #B9BAB9",
"$	c #C4C5C4",
"%	c #FEFEFE",
"&	c #F8F8F8",
"*	c #A6ABA6",
"=	c #919891",
"-	c #A2A7A2",
";	c #BEBEBE",
">	c #3A3A3A",
",	c #393E39",
"'	c #ADAEAD",
")	c #6E716E",
"!	c #8A8E8A",
"~	c #E3E3E3",
"{	c #DCDCDC",
"]	c #F2F2F2",
"^	c #494D49",
"/	c #9A9A9A",
"(	c #5F645F",
"_	c #B1B2B1",
":	c #2D2E2D",
"<	c #555655",
"[	c #323632",
"}	c #868786",
"|	c #ECECEC",
"1	c #101210",
"2	c #1A1E1A",
"3	c #222622",
"4	c #3E443E",
"5	c #585E58",
"6	c #2E332E",
"7	c #9BA09B",
"8	c #8D928D",
"9	c #747A74",
"0	c #7E837E",
"a	c #9EA69E",
"b	c #B9BFB9",
"c	c #AEB6AE",
"d	c #B2B8B2",
"e	c #7A827A",
"f	c #4A524A",
"g	c #D2D2D2",
"h	c #D6D6D6",
"i	c #FE0202",
"j	c #FE7E7E",
"           .....++++++++++++++++++++++++.....       ",
"        @@@@@@@@@@@@@@@@@@@@@@@@@@@@@@@@@@@@#$.     ",
"        @%%%%%%%%%%%%%%%%%%%%%%&%&&&&&&&&&*@=-;.    ",
"        @%%>>>>>>>>>>>>>>>>>>>>,>,,&&&&&&&'@)!-$    ",
"       .@%%>~~~~~~~~~~~~~~~~{~~{~~,&&&&]&&'@^)/#.   ",
"       .@%%>~>>>>>>>>>>>>>>>,>>,>>>,>&]&]]'@>(!_.   ",
"       +@%%>~>$$$$$$$$$$$$$$$$$$$+$$>&]&]]'@:<!_.   ",
"       +@%%[~>$>>>>>>>>>>>>>>>>>>>>>>>>]]]'@:<}_+   ",
"       +@%%>~>$>#############;########>|]]'@:<}_+   ",
"       +@&&>~>$>#>>>>>>>>>>>>>>>>>>>>>>>>|'@:<}'.   ",
"       +@&&>~,$>#>1112^(>32[4<5^<>2>6521>|'@:<!_+   ",
"       +@&&>~>$>#>11[<<3357}-'_}8=9666)2>|'@:<}_+   ",
"       +@&&>~>$>#>14,62,^<'7'__=0a7}:3^8>|'@:<}_+   ",
"       +@&]>~>$>;>6,:3(9=*-7_'*7};!b/23<>|'@:<}_+   ",
"       +@&]>~,+>#>,:4<*7bb==}=908*a*'51:>~'@:<}_+   ",
"       +@]]>~>$>#>,30cdd7=a_=!**9*_*d(:2>~'@:<}_.   ",
"       +@]]>~>$>#>>e7_708*dc*_b$a!=d9f!1,~'@:<}'+   ",
"       +@]|>~>$>#,9$;_9*d=56335*ba'='*#[>~'@:<}_.   ",
"       +@]|>~>+>#,#$de7d9^5^)5[(d*87*$0,>~'@:<}'+   ",
"       +@||>~>$>#>-gd0b05e9==8}0a=!78d7=>{'@:<}_.   ",
"       +@||>~>$>#4+h8c$(9='a=80^9e7*d}*#,~'@:<}'+   ",
"       +@||>~>$>#,gh*7+;8!a77=)6(f(=d=!;>{'@:<}_.   ",
"       +@|~>~>$>#><8hhg.c=(50!(6))090770>{'@:<}'+   ",
"       +@~|>>>$>#,1)8'bda)66^785!=8=!)92>{'@:<}_.   ",
"       +@~|~~>+>#>222334[444[=a!7d#_!(53>{'@:<}'+   ",
"       +@~~~~>>>#[61111112263)a'a*b$'=34>h'@:<}_.   ",
"       +@~|~~~~>b>[2111111112265}b7'7(<2>h'@:<}'+   ",
"       +@~~~~~{>>>24[32211[612367'7!f[):>h'@:<}_.   ",
"       +@~{~{~{{{,9',6[4[1f0(36,e7[f5ef3>g'@:<}'+   ",
"       +@~{~~{~{~>[,>>,,,,>,,>,>,>,>,>>>>h'@:<}_.   ",
"       +@~{{{{{{{{{{{h{{h{hhhhhhhhhghggggg'@:<}'+   ",
"       +@{i{{{{{i{{iiiii{hihhhhgigghiiiig.'@:<}_.   ",
"       +@{ii{{{iihhhhihhhhiihhhgiggij.gji.'@:<}'+   ",
"       +@{iji{iji{hh{ihhghijihggigijgg....'@:<}_.   ",
"       +@{ihjijhihhhgihhggigjig.i.i......+'@:<}'+   ",
"       +@hi{hjhhihhghiggggiggjigi.ij......'@:<}_.   ",
"       +@hihhhhgiggggiggg.i...jii..ij.+ji+'@:<}'+   ",
"       +@hihggghiggiiiii.gi....ji+.+iiii++'@:<}_.   ",
"       +@gghhggggg...........+++.+.++++..+'@:<!'+   ",
"       +@''''''''''''''''''''''''''''''''''@:5}_.   ",
"       +@@@@@@@@@@@@@@@@@@@@@@@@@@@@@@@@@@@@>(8_.   ",
"       .#/)^>::::::::::::::::::::::::::::::>^)/#.   ",
"        $-!)(<<<<<<<<<<<<<<<<<<<<<<<<<<<<<5()}'$    ",
"        +;-/!!}}}}}}0}}0}0}}0}}0}0}}}0}}}}}!/-#+    ",
"         +$#____''_'__'____________'_______##$.     "};
