/* XPM */
static char * file_vol_vla_xpm[] = {
"52 45 95 2",
"  	c None",
". 	c #CFCECD",
"+ 	c #CACACA",
"@ 	c #020202",
"# 	c #C0BEBD",
"$ 	c #FCFCFC",
"% 	c #E4E4E3",
"& 	c #F5F4F4",
"* 	c #AEADAC",
"= 	c #A19A93",
"- 	c #B9B6B6",
"; 	c #DECEAA",
"> 	c #D0C2AD",
", 	c #A1782B",
"' 	c #9E7128",
") 	c #AA9266",
"! 	c #B2A38A",
"~ 	c #946D24",
"{ 	c #9E7D62",
"] 	c #A98033",
"^ 	c #B7A37D",
"/ 	c #EDECEB",
"( 	c #727272",
"_ 	c #878787",
": 	c #C3AFA3",
"< 	c #93773E",
"[ 	c #88621D",
"} 	c #AF8937",
"| 	c #C5A14A",
"1 	c #565656",
"2 	c #D2D2D2",
"3 	c #9B8962",
"4 	c #7D5817",
"5 	c #BD9641",
"6 	c #323232",
"7 	c #5D6451",
"8 	c #6B480E",
"9 	c #CAA74F",
"0 	c #B2B2B2",
"a 	c #754F13",
"b 	c #986223",
"c 	c #D9B968",
"d 	c #E5C875",
"e 	c #2E2E2E",
"f 	c #CFAF63",
"g 	c #CEAD58",
"h 	c #E0C26F",
"i 	c #E4CD90",
"j 	c #E6CA7E",
"k 	c #DADADA",
"l 	c #F3DEA2",
"m 	c #F1D893",
"n 	c #FEEEC2",
"o 	c #F6EAB6",
"p 	c #B29666",
"q 	c #D6D6D6",
"r 	c #7A7034",
"s 	c #924E1E",
"t 	c #9A5222",
"u 	c #F6E2A3",
"v 	c #EEDA9E",
"w 	c #B69A5A",
"x 	c #A76D32",
"y 	c #ECD287",
"z 	c #F6E6B2",
"A 	c #A28E72",
"B 	c #6D5023",
"C 	c #771110",
"D 	c #833E26",
"E 	c #8A4E2A",
"F 	c #A25A5A",
"G 	c #F4DC9A",
"H 	c #64502A",
"I 	c #DEDEDE",
"J 	c #662626",
"K 	c #71130D",
"L 	c #7E1311",
"M 	c #5A2E12",
"N 	c #AE937F",
"O 	c #4F4421",
"P 	c #861514",
"Q 	c #45522C",
"R 	c #5E6D41",
"S 	c #807642",
"T 	c #545D34",
"U 	c #7E2E22",
"V 	c #7A2A2A",
"W 	c #623420",
"X 	c #9C6060",
"Y 	c #AE8686",
"Z 	c #561E12",
"` 	c #4E2E1A",
" .	c #FE0202",
"..	c #FE7E7E",
"+.	c #3A3A3A",
"                      . . . . . + + + + + + + + + + + + + + + + + + + + + + + + . . . . .               ",
"                @ @ @ @ @ @ @ @ @ @ @ @ @ @ @ @ @ @ @ @ @ @ @ @ @ @ @ @ @ @ @ @ @ @ @ @ # # .           ",
"                @ $ $ $ $ $ $ $ $ $ $ $ $ $ % % $ $ $ $ $ $ $ $ $ $ $ $ $ $ & $ & & * @ = * - .         ",
"                @ $ $ $ $ $ $ $ $ $ $ ; ; > , ' ) ! ~ { ] ^ / $ $ & $ & & & $ & $ $ * @ ( _ * #         ",
"              . @ $ $ $ $ $ $ $ $ % : < [ ~ ' , ] ~ ~ } | ] [ : $ & $ $ $ & $ & & & * @ 1 ( = - 2       ",
"              . @ $ $ $ $ $ $ $ $ 3 [ 4 ~ , ~ } } 5 | } ~ , , ~ + $ & & & & & & & & * @ 6 7 _ - .       ",
"              + @ $ $ $ $ $ $ & ^ 8 4 [ ~ ' ~ } } 5 | 9 ] < ' 4 4 ! & & & & & & & & * @ 6 1 _ 0 .       ",
"              . @ $ $ $ $ $ $ > a 8 [ b ~ , , ] 5 5 9 9 c d d ] , ~ ! & & & & & & & * @ e 1 _ 0 +       ",
"              + @ $ $ $ $ $ $ / ) 4 [ [ ~ ' ] } 5 5 9 9 c c f } 9 c } 3 / & / / / / * @ e 1 _ 0 +       ",
"              + @ $ $ $ $ $ $ { 4 a [ ~ ' ' ' } } 5 9 g c c d h } 9 5 [ ! / & & & & * @ e 1 _ 0 .       ",
"              + @ $ $ $ & & ^ 8 8 4 4 [ ~ , [ ] 5 5 | g c c h i j f j 5 4 k / / / / * @ e 1 _ * +       ",
"              + @ $ & & $ 2 [ 8 8 a [ [ 4 , ' ] 5 5 9 g c h d i l c f 9 a ) / / / / * @ e 1 _ 0 .       ",
"              + @ & $ & & ! 8 a 8 a 4 ~ ~ , , ] } 5 9 g c h d m n o 9 p } | q / / / * @ e 1 _ * +       ",
"              + @ $ & & % r 8 a 4 8 8 b ~ s s t b } 9 g c h d u v i w } 9 ~ < / / / * @ e 1 _ 0 .       ",
"              + @ & & & < 8 a a 4 8 8 [ 4 s b ] } x ] g c h j m y o i 5 | < r + % % * @ e 1 _ * +       ",
"              + @ & & % 8 a 8 8 4 a 8 [ b b ' ] 5 5 x ] c h j y y l u ] 5 | , : / / * @ e 1 _ 0 .       ",
"              + @ & & q 8 8 a 8 a 4 a [ [ ~ ' ] 5 5 5 x 5 h j y u z n p ' i , A % % * @ e 1 _ * +       ",
"              + @ / / . 8 8 8 a 4 4 a 8 b ~ , ] 5 5 9 ] b h j j l n y ] | d 9 < % % * @ e 1 _ 0 .       ",
"              + @ & / > 8 8 a B 8 8 8 C D E , } } } | 5 F c j j G v v f 9 h f H I % * @ e 1 _ * +       ",
"              + @ / & / p = 8 J K C C C L M ' } 5 b , x b h d y G v u v ] ; 9 [ > I * @ e 1 _ 0 .       ",
"              + @ / / / / N C C C C C L C O ' ] , [ [ , | h d y m u i c } c 9 } ; I * @ e 1 _ * +       ",
"              + @ / / / / ; L C L P P P M Q R S T T ] 9 c h d y m l i c ^ 9 f , > I * @ e 1 _ 0 .       ",
"              + @ / / % % D C L P P P U T T R S T r O ] c h d y m u c 9 f w f w q k * @ e 1 _ * +       ",
"              + @ % % / / U C L P P P D R R R R T T H 8 g c c j y l f 9 c c i # k I * @ e 1 _ 0 .       ",
"              + @ / % % % V P L P P P 8 Q T R R r O : 4 4 g 9 c c c w c 2 k k I k k * @ e 1 _ * +       ",
"              + @ % / % % F P L P P L W Q Q Q Q [ ~ X # [ ~ ~ ~ 4 ~ 4 3 k I I k k k * @ e 1 _ 0 .       ",
"              + @ % % % % % Y P P P P W Q R Q Z K D # I ) ~ ' } , [ A k k k q k q q * @ e 1 _ * +       ",
"              + @ I % I % % I : x F D O Q Q ` V Y > k I ! 4 [ a B < k k q q k q q q * @ e 1 _ 0 .       ",
"              + @ % I % I I % I I I k R Q Q = : k k k k I * ) * p + q k q q q q q 2 * @ e 1 _ * +       ",
"              . @ I I % I I I I I k I Q Q 0 k k k k k k q q k q k q k q q q q q q q * @ e 1 _ 0 .       ",
"              + @ I I I I I I I I I I 0 0  .k k k k q  .k  .k q q q q q q  .q 2 2 2 * @ e 1 _ * +       ",
"              . @ I I I I k I k k k k I k  .k k k q q  .q  .q q q 2 2 q .. ...2 2 2 * @ e 1 _ 0 .       ",
"              + @ k I k k k k I k k q q q .. .q q q  ...2  .2 2 2 2 2 2  .2  .2 . . * @ e 1 _ * +       ",
"              . @ I k k k k q q q q k q q q  .q q q  .q q  .2 2 2 2 2 .. ..  .... . * @ e 1 _ 0 .       ",
"              + @ q k k k k q q q q q q q 2  ...q .. .2 2  .2 2 2 . 2  .. . .  .. + * @ e 1 _ * +       ",
"              + @ k k q q q q q q 2 q q 2 q 2  .2  .2 2 .  .. 2 . . .. . . . . .... * @ e 1 _ 0 .       ",
"              + @ q 2 q q q q q q q 2 2 2 2 2  ..  .. 2 .  .. . . .  ...+ + + .. .+ * @ e 1 _ * +       ",
"              + @ q q q 2 q q 2 2 2 2 2 2 2 . .  .. 2 . .  . . . ..  .. . . . .  .. * @ e 1 _ 0 .       ",
"              + @ 2 2 2 2 2 2 2 . 2 2 . . 2 . . . . . . + + + + + + + + + + . + + + * @ e 1 _ 0 +       ",
"              + @ * 0 * * * * * * * * * * * * * * * * * * * * * * * * * * * * * * * * @ e 7 _ 0 .       ",
"              + @ @ @ @ @ @ @ @ @ @ @ @ @ @ @ @ @ @ @ @ @ @ @ @ @ @ @ @ @ @ @ @ @ @ @ @ +.7 _ - .       ",
"              2 - = ( 1 +.e e e e e e e e e e e e e e e e e e e e e e e e e e e e e e +.1 ( = - .       ",
"                # * _ ( 7 1 1 1 1 1 1 1 1 1 1 1 1 1 1 1 1 1 1 1 1 1 1 1 1 1 1 1 1 1 1 7 ( _ * #         ",
"                . # = = _ _ _ _ _ _ _ _ _ _ _ _ _ _ _ _ _ _ _ _ _ _ _ _ _ _ _ _ _ _ _ _ = * - .         ",
"                  . # # - 0 0 0 * * * * * * * * * * * * * * * * * * * * * * * 0 0 - - 0 - + +           "};
