/* XPM */
static char * file_vol_mvf_xpm[] = {
"52 45 49 1",
" 	c None",
".	c #020202",
"+	c #2F2F2F",
"@	c #646D54",
"#	c #B69A5A",
"$	c #FE0202",
"%	c #ECD28D",
"&	c #841515",
"*	c #F6F6F6",
"=	c #6C2E1A",
"-	c #AB9E8B",
";	c #771515",
">	c #FE9A9A",
",	c #99702B",
"'	c #878686",
")	c #823E26",
"!	c #CACACA",
"~	c #F6E6B2",
"{	c #BE9642",
"]	c #CFCECC",
"^	c #565656",
"/	c #DABA6A",
"(	c #72120E",
"_	c #E4C775",
":	c #46522E",
"<	c #AB8637",
"[	c #F3DEA0",
"}	c #D2D2D2",
"|	c #B0AFAF",
"1	c #6A490F",
"2	c #662626",
"3	c #904E21",
"4	c #D2C2AE",
"5	c #565E36",
"6	c #795416",
"7	c #D8D8D8",
"8	c #561E12",
"9	c #C2B8B4",
"0	c #AC936A",
"a	c #4E4120",
"b	c #A15C5C",
"c	c #7D733A",
"d	c #FEFEFE",
"e	c #F6EAB6",
"f	c #A27A2F",
"g	c #DEDEDE",
"h	c #CBA853",
"i	c #EBEBE5",
"j	c #8F621F",
"           ]]]]]!!!!!!!!!!!!!!!!!!!!!!!!]]]]]       ",
"        ....................................49]     ",
"        .d*dd*d*ddd*ddiiddddd*d*dd*ddd*d**|.-|9]    ",
"        .dd*ddddddd%]4f,0-,f<-idd*d***d**d|.@'|9    ",
"       ].*dd*ddd*i9,j,,ff,,<#<j|d*d*d*****|.^@-|}   ",
"       ].d*dd*ddd<j6,f,<<{h<,ff,!d********|.+5'9]   ",
"       !.ddddd**h16j,,,<<{hh<,,66-********|.+^'|]   ",
"       ].*dd*dd411jj,fff{{hh/__ff,-*******|.+^'|!   ",
"       !.d*ddd*i06jj,,<<{{hh//h<h/<'i*iiii|.+^'|!   ",
"       !.ddd*ddfj6j,,,,<<{hh//__<h{j-i****|.+^'|]   ",
"       !.d*d**-1166j,fjf{{{h//___h_{67iiii|.+^'|!   ",
"       !.d**d}j116jj6f,<{{h//__%[/hh60iiii|.+^'|]   ",
"       !.*d**-16166,,fff<{hh/__%eeh#<h7iii|.+^'|!   ",
"       !.d**ic16611j,333j<h///_[[_#<h,,iii|.+^'|]   ",
"       !.***f166611j63j<<,fh//_[%e_{h,c!ig|.+^'|!   ",
"       !.**i1111611jjj,<{{,</__%%[[f{{f|ii|.+^'|]   ",
"       !.**71161666jj,,<{{{,{/_%[~e#,%f0gi|.+^'|!   ",
"       !.ii]11116661j,f<{{h<j__%[e%<#_h,ig|.+^'|]   ",
"       !.*i41166111()3f<<<h{b/%_[%[hh_/1gi|.+^'|!   ",
"       !.i*i0-12(((;&=,<{jf,j__%[[~[<%hj4g|.+^'|]   ",
"       !.iiii0((;((&(a,ffjjf#__%%[%/</h<%g|.+^'|!   ",
"       !.iiii!&(&&&&2:@c55<h/__%[[%/-hhf4g|.+^'|]   ",
"       !.iiii)(;&&&=55@c5caf/__%[~/h/#/#77|.+^'|!   ",
"       !.giii=(&&&&)@@@@55^1h//_%[hh//%97g|.+^'|]   ",
"       !.igii=&&&&&1:5@@ca966/h///#/}77g77|.+^'|!   ",
"       !.iiggb&&&&;=::::j,b9j,,,6,6'7gg777|.+^'|]   ",
"       !.giiii0&&&&a:@:8()!g0,,<fj07777777|.+^'|!   ",
"       !.giggig|,b)a::+=<47g-6j66,77777777|.+^'|]   ",
"       !.ggiggiggg7@::-97777g|0|#!7777777}|.+^'|!   ",
"       ].ggiggggg7g::|77777777777777777777|.+^'|]   ",
"       !.gggggggggg777777777777777777}7}}}|.+^'|!   ",
"       ].gggg7g7g7$77777$7>$777$>7$$$$$$$}|.+^'|]   ",
"       !.g77g77777$$777$$7>$77}$>}$}}}}}}}|.+^'|!   ",
"       ].7g7777777$>$7$>$77$7}}$}}$}}}]]]]|.+^'|]   ",
"       !.777777777$7>$>7$}}>$}$>}]$$$$$]]]|.+^'|!   ",
"       !.777777777$7}>}}$}}}$}$}]]$]]]]]!]|.+^'|]   ",
"       !.7777}77}7$}}}}}$}}]>$>]]]$]]]!]]]|.+^'|!   ",
"       !.7}7}77}}}$}}}}}$]]]]$]]]]$]!]]]]!|.+^'|]   ",
"       !.}7}}}}}}}}}}]]]]]]]]]]!]!]]]]!]]]|.+^'|!   ",
"       !.||||||||||||||||||||||||||||||||||.+5'|]   ",
"       !....................................a@'9]   ",
"       }9-'^a+++++++++++++++++++++++++++++++^c-9]   ",
"        4|'@5^^^^^^^^^^^^^^^^^^^^^^^^^^^^^^5@'|9    ",
"        ]!--''''''''''''''''''''''''''''''''-|9]    ",
"         ]!99|||||||||||||||||||||||||||||9|9!!     "};
