/* XPM */
static char * folder_xpm[] = {
"52 45 74 1",
" 	c None",
".	c #242424",
"+	c #1C2716",
"@	c #B8B8B8",
"#	c #BEBEBE",
"$	c #F2D8A5",
"%	c #E7CDA8",
"&	c #9E9E9E",
"*	c #AEAEAE",
"=	c #E0D19F",
"-	c #E0C59F",
";	c #EACE9D",
">	c #EDD092",
",	c #8B8B8B",
"'	c #A4A4A4",
")	c #BABABA",
"!	c #D0C18F",
"~	c #DABE8D",
"{	c #D0B58F",
"]	c #828282",
"^	c #B4B4B4",
"/	c #C2C2C2",
"(	c #C0AA7F",
"_	c #000000",
":	c #B3A478",
"<	c #FBEDD4",
"[	c #AFAFAF",
"}	c #C0C0C0",
"|	c #AC966D",
"1	c #E8D9A7",
"2	c #8E8E8E",
"3	c #A9A9A9",
"4	c #A29469",
"5	c #6A6A6A",
"6	c #8D8D8D",
"7	c #4E4E4E",
"8	c #757575",
"9	c #3A3A3A",
"0	c #646464",
"a	c #929292",
"b	c #B7B7B7",
"c	c #323232",
"d	c #5B5B5B",
"e	c #2E2E2E",
"f	c #585858",
"g	c #888888",
"h	c #B2B2B2",
"i	c #2D2D2D",
"j	c #565656",
"k	c #B1B1B1",
"l	c #E2C695",
"m	c #878787",
"n	c #2C2C2C",
"o	c #D4BD9B",
"p	c #D8C997",
"q	c #CBB086",
"r	c #C8B987",
"s	c #CAAE7D",
"t	c #B79D78",
"u	c #575757",
"v	c #313131",
"w	c #5A5A5A",
"x	c #898989",
"y	c #616161",
"z	c #B5B5B5",
"A	c #989898",
"B	c #717171",
"C	c #4F4F4F",
"D	c #303030",
"E	c #C3C3C3",
"F	c #BCBCBC",
"G	c #CCCCCC",
"H	c #B3B3B3",
"I	c #D5D5D5",
"                                                    ",
"                                                    ",
"      .+..+..+..+..+@#                              ",
"     .$%$%$%$%$%$%$%.&*#                            ",
"    .=-;;>;=;;=;;=;;-+,')                           ",
"   .!~~~{~{~~~~~{~~{~~.]&^/                         ",
"  .((((((((((((((((((((_______________________@#    ",
"  _:::::::::::::::::::_<<<<<<<<<<<<<<<<<<<<<<<.&[}  ",
"  _||||||||||||||||||_<$1$1$1$1$1$1$111111111;1_23} ",
"  _44444444444444444_<1$$1$1$11111111$;$1$;$;1;_56[ ",
"  _4________________<$1111111$1$1$1;1;1;;11;1;1_78&#",
"  __<<<<<<<<<<<<<<<<111$1$1$111;;1;1;1;1;1;;;;;_90ab",
"  _<1$1$11111111111;1$;1;;;1;;1;1;1;;;;;;;;;;;;_cd,^",
"  _111111$;$1$;$;1;1;11;11;1;;;;;;;;;;;-;-;=-==_efgh",
"  _1$1$;1;1;;11;1;1;1;;;;;;;;;;;-;-;=;=======;=_ijgk",
"  _;1;;1;1;1;1;;;;;;;;;;-;;=;-=;======-=-=l==l=_ijmk",
"  _1;11;;;;;;;;;;-;;=;-=;========-==l==ll=l=lll_njmk",
"  _;;;;;;;;-;-;=;=========;==l=l=ll=llllllllolo_njmk",
"  _;;-;=;=-======;=-==l=l=ll=lllllllololppppppp_njmk",
"  _;========-===l=l=ll=lllllollolplpppppplpoppp_njmk",
"  _==-==l==llll=llllllllolpplpppppppoppp~pp~~p~_njmk",
"  _=l=ll=lll=llloloplppppppopppppp~p~p~~p~~~{~{_njmk",
"  _lllllololppppppppppopppp~p~p~~p~~~{~{~{{!{!!_njmk",
"  _olplpppppplplppp~pp~p~~p~~{~~{{~{{!{!!!!!!{!_njmk",
"  _pppppoppp~pp~p~~p~~~~~{{~{!{{!!!!!!!!!!!!!q!_njmk",
"  _ppp~p~p~~p~~{~~{{~{!{!!!!!!!!!!!!!q!q!qqqqqq_njmk",
"  _~p~~~~{~{~{{!{!!!!!!!{!!!!!q!q!qq!qqqqqqqqqq_njmk",
"  _~{{~{{!{!!!!!!!{!!!q!!q!qq!qqqqqqqqqrqqrqrrr_njmk",
"  _{!!!!!!!!!!!!!q!q!qq!qqqqqqqqrqqrqrrrrrrrrrr_njmk",
"  _!!!!!!q!q!qqqqqqqqqqqqqrqrqrrrrrrrrrrrrrsrsr_njmk",
"  _!q!qq!qqqqqqqqqqrqrqrrrrrrrrrrrrrsrsr(r(r(((_njmk",
"  _qqqqqqqqrqqrqrrrrrrrrrrrrsrrsrs(r((s((((((((_njmk",
"  _qrqqrqrrrrrrrrrrrrsrrsr(r(r(((((((((((((((((_njmk",
"  _rrrrrrrrrrrrsrsrs(r((s(((((((((((((((((((((t_njmk",
"  _rrrrrsrsr(r(r((((((((((((((((((((((t(ttttttt_njmk",
"  _srs(r((s((((((((((((((((((((t(ttttttttt(:ttt_njmk",
"  _r((((((((((((((((((((((ttttttttt(:ttt:t::t::_njmk",
"  _(((((((((((((((ttttttttttttttt:t:t:::t:t::::_ijgk",
"  _(((((((t(tttttt(tt(:t:t:t::::t::::::::::::::_iugk",
"  _t(tttttttt(ttt::t:t:t:t:t:t::::::::::::|:||:_vwxh",
"  ______________________________________________9y2z",
"  )ABC9DiinnnnnnnnnnnnnnnnnnnnnnnnnnnnnnnnnniiD9CBA)",
"  E3,BywuujjjjjjjjjjjjjjjjjjjjjjjjjjjjjjjjjjuuwyB,3E",
"   F3A2xggmmmmmmmmmmmmmmmmmmmmmmmmmmmmmmmmmmggx2A3FG",
"    E)zHhhkkkkkkkkkkkkkkkkkkkkkkkkkkkkkkkkkkhhHz)EGI"};
