/* XPM */
static char * frame_mvf_xpm[] = {
"94 94 118 2",
"  	c None",
". 	c #FFFFFF",
"+ 	c #FEFEFE",
"@ 	c #FDFDFD",
"# 	c #FCFCFC",
"$ 	c #FBFBFB",
"% 	c #FAFAFA",
"& 	c #F9F9F9",
"* 	c #F8F8F8",
"= 	c #F7F7F7",
"- 	c #F6F6F6",
"; 	c #F5F5F5",
"> 	c #F4F4F4",
", 	c #F3F3F3",
"' 	c #F2F2F2",
") 	c #F1F1F1",
"! 	c #F0F0F0",
"~ 	c #EFEFEF",
"{ 	c #EEEEEE",
"] 	c #EDEDED",
"^ 	c #ECECEC",
"/ 	c #EBEBEB",
"( 	c #EAEAEA",
"_ 	c #E9E9E9",
": 	c #E8E8E8",
"< 	c #E7E7E7",
"[ 	c #E6E6E6",
"} 	c #E5E5E5",
"| 	c #E4E4E4",
"1 	c #E3E3E3",
"2 	c #E2E2E2",
"3 	c #4F4F4F",
"4 	c #707070",
"5 	c #C1C1C1",
"6 	c #A5A5A5",
"7 	c #262626",
"8 	c #686868",
"9 	c #E1E1E1",
"0 	c #000000",
"a 	c #E0E0E0",
"b 	c #DFDFDF",
"c 	c #DEDEDE",
"d 	c #DDDDDD",
"e 	c #DCDCDC",
"f 	c #DBDBDB",
"g 	c #DADADA",
"h 	c #D9D9D9",
"i 	c #D8D8D8",
"j 	c #D7D7D7",
"k 	c #D6D6D6",
"l 	c #D5D5D5",
"m 	c #D4D4D4",
"n 	c #D3D3D3",
"o 	c #D2D2D2",
"p 	c #D1D1D1",
"q 	c #D0D0D0",
"r 	c #CFCFCF",
"s 	c #CECECE",
"t 	c #CDCDCD",
"u 	c #CCCCCC",
"v 	c #CBCBCB",
"w 	c #CACACA",
"x 	c #C9C9C9",
"y 	c #C8C8C8",
"z 	c #CDA5A5",
"A 	c #CA8D8D",
"B 	c #CCA4A4",
"C 	c #C88B8B",
"D 	c #CDB9B9",
"E 	c #C78A8A",
"F 	c #C9A1A1",
"G 	c #CAB6B6",
"H 	c #C58888",
"I 	c #C8B4B4",
"J 	c #C48787",
"K 	c #C38686",
"L 	c #C59C9C",
"M 	c #BA1818",
"N 	c #B70000",
"O 	c #BD2F2F",
"P 	c #C57474",
"Q 	c #CAA2A2",
"R 	c #B91717",
"S 	c #BE4444",
"T 	c #C05B5B",
"U 	c #C27171",
"V 	c #C06F6F",
"W 	c #C7C7C7",
"X 	c #BF4545",
"Y 	c #BC2E2E",
"Z 	c #CBB7B7",
"` 	c #BD4343",
" .	c #BF5A5A",
"..	c #C28585",
"+.	c #C6B2B2",
"@.	c #BB2D2D",
"#.	c #C98C8C",
"$.	c #C04646",
"%.	c #CBA3A3",
"&.	c #C37272",
"*.	c #C79F9F",
"=.	c #C6C6C6",
"-.	c #C35E5E",
";.	c #C68989",
">.	c #C69E9E",
",.	c #B81616",
"'.	c #C25C5C",
").	c #C89F9F",
"!.	c #BA2C2C",
"~.	c #BC4242",
"{.	c #BF6E6E",
"].	c #CFBABA",
"^.	c #BA1717",
"/.	c #C47373",
"(.	c #C67474",
"_.	c #C25D5D",
":.	c #CCB8B8",
"<.	c #C7B3B3",
". . . . . . . . . . . . . . + + @ @ @ # # # $ $ % % % & & & * * = = = - - - ; ; ; > > , , , ' ' ' ) ) ! ! ! ~ ~ ~ { { { ] ] ^ ^ ^ / / / ( ( _ _ _ : : : < < [ [ [ } } } | | | 1 1 2 3       ",
". . . . . . . . . . . . . + + @ @ @ # # # $ $ % % % & & & * * = = = - - - ; ; ; > > , , , ' ' ' ) ) ! ! ! ~ ~ ~ { { ] ] ] ^ ^ ^ / / / ( ( _ _ _ : : : < < [ [ [ } } } | | | 1 1 2 4 3       ",
". . 5 5 5 5 5 5 5 5 5 5 5 5 5 5 5 5 5 5 5 5 5 5 5 5 5 5 5 5 5 5 5 5 5 5 5 5 5 5 5 5 5 5 5 5 5 5 5 5 5 5 5 5 5 5 5 5 5 5 5 5 5 5 5 5 5 5 5 5 5 5 5 5 5 5 5 5 5 5 5 5 5 5 5 5 5 5 6 4 3       ",
". . 5 . . . . . . . . + + @ @ @ # # # $ $ % % % & & & * * = = = - - - ; ; ; > > , , , ' ' ' ) ) ! ! ! ~ ~ ~ { { ] ] ] ^ ^ ^ / / / ( ( _ _ _ : : : < < [ [ [ } } } | | 1 1 1 2 5 6 4 3 7 7 7 ",
". . 5 . . . . . . . + + @ @ @ # # # $ $ % % % & & & * * = = = - - - ; ; ; > > , , , ' ' ' ) ) ! ! ! ~ ~ ~ { { ] ] ] ^ ^ ^ / / / ( ( _ _ _ : : : < < [ [ [ } } } | | 1 1 1 2 2 5 6 4 3 7 7 7 ",
". . 5 . . . . . . + + @ @ @ # # # $ $ % % % & & & * * = = = - - - ; ; ; > > , , , ' ' ' ) ) ! ! ! ~ ~ ~ { { ] ] ] ^ ^ ^ / / / ( ( _ _ _ : : : < < [ [ [ } } } | | 1 1 1 2 2 2 5 6 4 3 7 7 7 ",
". . 5 . . . 8 8 8 8 8 8 8 8 8 8 8 8 8 8 8 8 8 8 8 8 8 8 8 8 8 8 8 8 8 8 8 8 8 8 8 8 8 8 8 8 8 8 8 8 8 8 8 8 8 8 8 8 8 8 8 8 8 8 8 8 8 8 8 8 8 8 8 8 8 8 8 8 8 8 8 8 8 2 2 2 9 5 6 4 3 7 7 7 ",
". . 5 . . . 8 0 0 0 0 0 0 0 0 0 0 0 0 0 0 0 0 0 0 0 0 0 0 0 0 0 0 0 0 0 0 0 0 0 0 0 0 0 0 0 0 0 0 0 0 0 0 0 0 0 0 0 0 0 0 0 0 0 0 0 0 0 0 0 0 0 0 0 0 0 0 0 0 0 0 0 0 . 2 9 9 5 6 4 3 7 7 7 ",
". . 5 . . + 8 0 0 0 0 0 0 0 0 0 0 0 0 0 0 0 0 0 0 0 0 0 0 0 0 0 0 0 0 0 0 0 0 0 0 0 0 0 0 0 0 0 0 0 0 0 0 0 0 0 0 0 0 0 0 0 0 0 0 0 0 0 0 0 0 0 0 0 0 0 0 0 0 0 0 0 0 . 9 9 9 5 6 4 3 7 7 7 ",
". . 5 . + + 8 0 0 0 0 0 0 0 0 0 0 0 0 0 0 0 0 0 0 0 0 0 0 0 0 0 0 0 0 0 0 0 0 0 0 0 0 0 0 0 0 0 0 0 0 0 0 0 0 0 0 0 0 0 0 0 0 0 0 0 0 0 0 0 0 0 0 0 0 0 0 0 0 0 0 0 0 . 9 9 a 5 6 4 3 7 7 7 ",
". . 5 + + + 8 0 0 0 0 0 0 0 0 0 0 0 0 0 0 0 0 0 0 0 0 0 0 0 0 0 0 0 0 0 0 0 0 0 0 0 0 0 0 0 0 0 0 0 0 0 0 0 0 0 0 0 0 0 0 0 0 0 0 0 0 0 0 0 0 0 0 0 0 0 0 0 0 0 0 0 0 . 9 a a 5 6 4 3 7 7 7 ",
". . 5 + + @ 8 0 0 0 0 0 0 0 0 0 0 0 0 0 0 0 0 0 0 0 0 0 0 0 0 0 0 0 0 0 0 0 0 0 0 0 0 0 0 0 0 0 0 0 0 0 0 0 0 0 0 0 0 0 0 0 0 0 0 0 0 0 0 0 0 0 0 0 0 0 0 0 0 0 0 0 0 . a a b 5 6 4 3 7 7 7 ",
". + 5 + @ @ 8 0 0 0 0 0 0 0 0 0 0 0 0 0 0 0 0 0 0 0 0 0 0 0 0 0 0 0 0 0 0 0 0 0 0 0 0 0 0 0 0 0 0 0 0 0 0 0 0 0 0 0 0 0 0 0 0 0 0 0 0 0 0 0 0 0 0 0 0 0 0 0 0 0 0 0 0 . a b b 5 6 4 3 7 7 7 ",
"+ + 5 @ @ @ 8 0 0 0 0 0 0 0 0 0 0 0 0 0 0 0 0 0 0 0 0 0 0 0 0 0 0 0 0 0 0 0 0 0 0 0 0 0 0 0 0 0 0 0 0 0 0 0 0 0 0 0 0 0 0 0 0 0 0 0 0 0 0 0 0 0 0 0 0 0 0 0 0 0 0 0 0 . b b b 5 6 4 3 7 7 7 ",
"+ + 5 @ @ # 8 0 0 0 0 0 0 0 0 0 0 0 0 0 0 0 0 0 0 0 0 0 0 0 0 0 0 0 0 0 0 0 0 0 0 0 0 0 0 0 0 0 0 0 0 0 0 0 0 0 0 0 0 0 0 0 0 0 0 0 0 0 0 0 0 0 0 0 0 0 0 0 0 0 0 0 0 . b b c 5 6 4 3 7 7 7 ",
"+ @ 5 @ # # 8 0 0 0 0 0 0 0 0 0 0 0 0 0 0 0 0 0 0 0 0 0 0 0 0 0 0 0 0 0 0 0 0 0 0 0 0 0 0 0 0 0 0 0 0 0 0 0 0 0 0 0 0 0 0 0 0 0 0 0 0 0 0 0 0 0 0 0 0 0 0 0 0 0 0 0 0 . b c c 5 6 4 3 7 7 7 ",
"@ @ 5 # # $ 8 0 0 0 0 0 0 0 0 0 0 0 0 0 0 0 0 0 0 0 0 0 0 0 0 0 0 0 0 0 0 0 0 0 0 0 0 0 0 0 0 0 0 0 0 0 0 0 0 0 0 0 0 0 0 0 0 0 0 0 0 0 0 0 0 0 0 0 0 0 0 0 0 0 0 0 0 . c c c 5 6 4 3 7 7 7 ",
"@ @ 5 # $ $ 8 0 0 0 0 0 0 0 0 0 0 0 0 0 0 0 0 0 0 0 0 0 0 0 0 0 0 0 0 0 0 0 0 0 0 0 0 0 0 0 0 0 0 0 0 0 0 0 0 0 0 0 0 0 0 0 0 0 0 0 0 0 0 0 0 0 0 0 0 0 0 0 0 0 0 0 0 . c c d 5 6 4 3 7 7 7 ",
"@ # 5 $ $ $ 8 0 0 0 0 0 0 0 0 0 0 0 0 0 0 0 0 0 0 0 0 0 0 0 0 0 0 0 0 0 0 0 0 0 0 0 0 0 0 0 0 0 0 0 0 0 0 0 0 0 0 0 0 0 0 0 0 0 0 0 0 0 0 0 0 0 0 0 0 0 0 0 0 0 0 0 0 . c d d 5 6 4 3 7 7 7 ",
"# # 5 $ $ % 8 0 0 0 0 0 0 0 0 0 0 0 0 0 0 0 0 0 0 0 0 0 0 0 0 0 0 0 0 0 0 0 0 0 0 0 0 0 0 0 0 0 0 0 0 0 0 0 0 0 0 0 0 0 0 0 0 0 0 0 0 0 0 0 0 0 0 0 0 0 0 0 0 0 0 0 0 . d d e 5 6 4 3 7 7 7 ",
"# $ 5 $ % % 8 0 0 0 0 0 0 0 0 0 0 0 0 0 0 0 0 0 0 0 0 0 0 0 0 0 0 0 0 0 0 0 0 0 0 0 0 0 0 0 0 0 0 0 0 0 0 0 0 0 0 0 0 0 0 0 0 0 0 0 0 0 0 0 0 0 0 0 0 0 0 0 0 0 0 0 0 . d e e 5 6 4 3 7 7 7 ",
"$ $ 5 % % % 8 0 0 0 0 0 0 0 0 0 0 0 0 0 0 0 0 0 0 0 0 0 0 0 0 0 0 0 0 0 0 0 0 0 0 0 0 0 0 0 0 0 0 0 0 0 0 0 0 0 0 0 0 0 0 0 0 0 0 0 0 0 0 0 0 0 0 0 0 0 0 0 0 0 0 0 0 . e e e 5 6 4 3 7 7 7 ",
"$ $ 5 % % & 8 0 0 0 0 0 0 0 0 0 0 0 0 0 0 0 0 0 0 0 0 0 0 0 0 0 0 0 0 0 0 0 0 0 0 0 0 0 0 0 0 0 0 0 0 0 0 0 0 0 0 0 0 0 0 0 0 0 0 0 0 0 0 0 0 0 0 0 0 0 0 0 0 0 0 0 0 . e e f 5 6 4 3 7 7 7 ",
"$ % 5 % & & 8 0 0 0 0 0 0 0 0 0 0 0 0 0 0 0 0 0 0 0 0 0 0 0 0 0 0 0 0 0 0 0 0 0 0 0 0 0 0 0 0 0 0 0 0 0 0 0 0 0 0 0 0 0 0 0 0 0 0 0 0 0 0 0 0 0 0 0 0 0 0 0 0 0 0 0 0 . e f f 5 6 4 3 7 7 7 ",
"% % 5 & & * 8 0 0 0 0 0 0 0 0 0 0 0 0 0 0 0 0 0 0 0 0 0 0 0 0 0 0 0 0 0 0 0 0 0 0 0 0 0 0 0 0 0 0 0 0 0 0 0 0 0 0 0 0 0 0 0 0 0 0 0 0 0 0 0 0 0 0 0 0 0 0 0 0 0 0 0 0 . f f f 5 6 4 3 7 7 7 ",
"% % 5 & * * 8 0 0 0 0 0 0 0 0 0 0 0 0 0 0 0 0 0 0 0 0 0 0 0 0 0 0 0 0 0 0 0 0 0 0 0 0 0 0 0 0 0 0 0 0 0 0 0 0 0 0 0 0 0 0 0 0 0 0 0 0 0 0 0 0 0 0 0 0 0 0 0 0 0 0 0 0 . f f g 5 6 4 3 7 7 7 ",
"% & 5 * * * 8 0 0 0 0 0 0 0 0 0 0 0 0 0 0 0 0 0 0 0 0 0 0 0 0 0 0 0 0 0 0 0 0 0 0 0 0 0 0 0 0 0 0 0 0 0 0 0 0 0 0 0 0 0 0 0 0 0 0 0 0 0 0 0 0 0 0 0 0 0 0 0 0 0 0 0 0 . f g g 5 6 4 3 7 7 7 ",
"& & 5 * * = 8 0 0 0 0 0 0 0 0 0 0 0 0 0 0 0 0 0 0 0 0 0 0 0 0 0 0 0 0 0 0 0 0 0 0 0 0 0 0 0 0 0 0 0 0 0 0 0 0 0 0 0 0 0 0 0 0 0 0 0 0 0 0 0 0 0 0 0 0 0 0 0 0 0 0 0 0 . g g h 5 6 4 3 7 7 7 ",
"& * 5 * = = 8 0 0 0 0 0 0 0 0 0 0 0 0 0 0 0 0 0 0 0 0 0 0 0 0 0 0 0 0 0 0 0 0 0 0 0 0 0 0 0 0 0 0 0 0 0 0 0 0 0 0 0 0 0 0 0 0 0 0 0 0 0 0 0 0 0 0 0 0 0 0 0 0 0 0 0 0 . g h h 5 6 4 3 7 7 7 ",
"* * 5 = = = 8 0 0 0 0 0 0 0 0 0 0 0 0 0 0 0 0 0 0 0 0 0 0 0 0 0 0 0 0 0 0 0 0 0 0 0 0 0 0 0 0 0 0 0 0 0 0 0 0 0 0 0 0 0 0 0 0 0 0 0 0 0 0 0 0 0 0 0 0 0 0 0 0 0 0 0 0 . h h h 5 6 4 3 7 7 7 ",
"* * 5 = = - 8 0 0 0 0 0 0 0 0 0 0 0 0 0 0 0 0 0 0 0 0 0 0 0 0 0 0 0 0 0 0 0 0 0 0 0 0 0 0 0 0 0 0 0 0 0 0 0 0 0 0 0 0 0 0 0 0 0 0 0 0 0 0 0 0 0 0 0 0 0 0 0 0 0 0 0 0 . h h i 5 6 4 3 7 7 7 ",
"* = 5 = - - 8 0 0 0 0 0 0 0 0 0 0 0 0 0 0 0 0 0 0 0 0 0 0 0 0 0 0 0 0 0 0 0 0 0 0 0 0 0 0 0 0 0 0 0 0 0 0 0 0 0 0 0 0 0 0 0 0 0 0 0 0 0 0 0 0 0 0 0 0 0 0 0 0 0 0 0 0 . h i i 5 6 4 3 7 7 7 ",
"= = 5 - - ; 8 0 0 0 0 0 0 0 0 0 0 0 0 0 0 0 0 0 0 0 0 0 0 0 0 0 0 0 0 0 0 0 0 0 0 0 0 0 0 0 0 0 0 0 0 0 0 0 0 0 0 0 0 0 0 0 0 0 0 0 0 0 0 0 0 0 0 0 0 0 0 0 0 0 0 0 0 . i i i 5 6 4 3 7 7 7 ",
"= = 5 - ; ; 8 0 0 0 0 0 0 0 0 0 0 0 0 0 0 0 0 0 0 0 0 0 0 0 0 0 0 0 0 0 0 0 0 0 0 0 0 0 0 0 0 0 0 0 0 0 0 0 0 0 0 0 0 0 0 0 0 0 0 0 0 0 0 0 0 0 0 0 0 0 0 0 0 0 0 0 0 . i i j 5 6 4 3 7 7 7 ",
"= - 5 ; ; ; 8 0 0 0 0 0 0 0 0 0 0 0 0 0 0 0 0 0 0 0 0 0 0 0 0 0 0 0 0 0 0 0 0 0 0 0 0 0 0 0 0 0 0 0 0 0 0 0 0 0 0 0 0 0 0 0 0 0 0 0 0 0 0 0 0 0 0 0 0 0 0 0 0 0 0 0 0 . i j j 5 6 4 3 7 7 7 ",
"- - 5 ; ; > 8 0 0 0 0 0 0 0 0 0 0 0 0 0 0 0 0 0 0 0 0 0 0 0 0 0 0 0 0 0 0 0 0 0 0 0 0 0 0 0 0 0 0 0 0 0 0 0 0 0 0 0 0 0 0 0 0 0 0 0 0 0 0 0 0 0 0 0 0 0 0 0 0 0 0 0 0 . j j k 5 6 4 3 7 7 7 ",
"- ; 5 ; > > 8 0 0 0 0 0 0 0 0 0 0 0 0 0 0 0 0 0 0 0 0 0 0 0 0 0 0 0 0 0 0 0 0 0 0 0 0 0 0 0 0 0 0 0 0 0 0 0 0 0 0 0 0 0 0 0 0 0 0 0 0 0 0 0 0 0 0 0 0 0 0 0 0 0 0 0 0 . j k k 5 6 4 3 7 7 7 ",
"; ; 5 > > > 8 0 0 0 0 0 0 0 0 0 0 0 0 0 0 0 0 0 0 0 0 0 0 0 0 0 0 0 0 0 0 0 0 0 0 0 0 0 0 0 0 0 0 0 0 0 0 0 0 0 0 0 0 0 0 0 0 0 0 0 0 0 0 0 0 0 0 0 0 0 0 0 0 0 0 0 0 . k k k 5 6 4 3 7 7 7 ",
"; ; 5 > > , 8 0 0 0 0 0 0 0 0 0 0 0 0 0 0 0 0 0 0 0 0 0 0 0 0 0 0 0 0 0 0 0 0 0 0 0 0 0 0 0 0 0 0 0 0 0 0 0 0 0 0 0 0 0 0 0 0 0 0 0 0 0 0 0 0 0 0 0 0 0 0 0 0 0 0 0 0 . k k l 5 6 4 3 7 7 7 ",
"; > 5 > , , 8 0 0 0 0 0 0 0 0 0 0 0 0 0 0 0 0 0 0 0 0 0 0 0 0 0 0 0 0 0 0 0 0 0 0 0 0 0 0 0 0 0 0 0 0 0 0 0 0 0 0 0 0 0 0 0 0 0 0 0 0 0 0 0 0 0 0 0 0 0 0 0 0 0 0 0 0 . k l l 5 6 4 3 7 7 7 ",
"> > 5 , , ' 8 0 0 0 0 0 0 0 0 0 0 0 0 0 0 0 0 0 0 0 0 0 0 0 0 0 0 0 0 0 0 0 0 0 0 0 0 0 0 0 0 0 0 0 0 0 0 0 0 0 0 0 0 0 0 0 0 0 0 0 0 0 0 0 0 0 0 0 0 0 0 0 0 0 0 0 0 . l l l 5 6 4 3 7 7 7 ",
"> > 5 , ' ' 8 0 0 0 0 0 0 0 0 0 0 0 0 0 0 0 0 0 0 0 0 0 0 0 0 0 0 0 0 0 0 0 0 0 0 0 0 0 0 0 0 0 0 0 0 0 0 0 0 0 0 0 0 0 0 0 0 0 0 0 0 0 0 0 0 0 0 0 0 0 0 0 0 0 0 0 0 . l l m 5 6 4 3 7 7 7 ",
"> , 5 ' ' ' 8 0 0 0 0 0 0 0 0 0 0 0 0 0 0 0 0 0 0 0 0 0 0 0 0 0 0 0 0 0 0 0 0 0 0 0 0 0 0 0 0 0 0 0 0 0 0 0 0 0 0 0 0 0 0 0 0 0 0 0 0 0 0 0 0 0 0 0 0 0 0 0 0 0 0 0 0 . l m m 5 6 4 3 7 7 7 ",
", , 5 ' ' ) 8 0 0 0 0 0 0 0 0 0 0 0 0 0 0 0 0 0 0 0 0 0 0 0 0 0 0 0 0 0 0 0 0 0 0 0 0 0 0 0 0 0 0 0 0 0 0 0 0 0 0 0 0 0 0 0 0 0 0 0 0 0 0 0 0 0 0 0 0 0 0 0 0 0 0 0 0 . m m n 5 6 4 3 7 7 7 ",
", ' 5 ' ) ) 8 0 0 0 0 0 0 0 0 0 0 0 0 0 0 0 0 0 0 0 0 0 0 0 0 0 0 0 0 0 0 0 0 0 0 0 0 0 0 0 0 0 0 0 0 0 0 0 0 0 0 0 0 0 0 0 0 0 0 0 0 0 0 0 0 0 0 0 0 0 0 0 0 0 0 0 0 . m n n 5 6 4 3 7 7 7 ",
"' ' 5 ) ) ) 8 0 0 0 0 0 0 0 0 0 0 0 0 0 0 0 0 0 0 0 0 0 0 0 0 0 0 0 0 0 0 0 0 0 0 0 0 0 0 0 0 0 0 0 0 0 0 0 0 0 0 0 0 0 0 0 0 0 0 0 0 0 0 0 0 0 0 0 0 0 0 0 0 0 0 0 0 . n n n 5 6 4 3 7 7 7 ",
"' ' 5 ) ) ! 8 0 0 0 0 0 0 0 0 0 0 0 0 0 0 0 0 0 0 0 0 0 0 0 0 0 0 0 0 0 0 0 0 0 0 0 0 0 0 0 0 0 0 0 0 0 0 0 0 0 0 0 0 0 0 0 0 0 0 0 0 0 0 0 0 0 0 0 0 0 0 0 0 0 0 0 0 . n n o 5 6 4 3 7 7 7 ",
"' ) 5 ) ! ! 8 0 0 0 0 0 0 0 0 0 0 0 0 0 0 0 0 0 0 0 0 0 0 0 0 0 0 0 0 0 0 0 0 0 0 0 0 0 0 0 0 0 0 0 0 0 0 0 0 0 0 0 0 0 0 0 0 0 0 0 0 0 0 0 0 0 0 0 0 0 0 0 0 0 0 0 0 . n o o 5 6 4 3 7 7 7 ",
") ) 5 ! ! ~ 8 0 0 0 0 0 0 0 0 0 0 0 0 0 0 0 0 0 0 0 0 0 0 0 0 0 0 0 0 0 0 0 0 0 0 0 0 0 0 0 0 0 0 0 0 0 0 0 0 0 0 0 0 0 0 0 0 0 0 0 0 0 0 0 0 0 0 0 0 0 0 0 0 0 0 0 0 . o o o 5 6 4 3 7 7 7 ",
") ) 5 ! ~ ~ 8 0 0 0 0 0 0 0 0 0 0 0 0 0 0 0 0 0 0 0 0 0 0 0 0 0 0 0 0 0 0 0 0 0 0 0 0 0 0 0 0 0 0 0 0 0 0 0 0 0 0 0 0 0 0 0 0 0 0 0 0 0 0 0 0 0 0 0 0 0 0 0 0 0 0 0 0 . o o p 5 6 4 3 7 7 7 ",
") ! 5 ~ ~ ~ 8 0 0 0 0 0 0 0 0 0 0 0 0 0 0 0 0 0 0 0 0 0 0 0 0 0 0 0 0 0 0 0 0 0 0 0 0 0 0 0 0 0 0 0 0 0 0 0 0 0 0 0 0 0 0 0 0 0 0 0 0 0 0 0 0 0 0 0 0 0 0 0 0 0 0 0 0 . o p p 5 6 4 3 7 7 7 ",
"! ! 5 ~ ~ { 8 0 0 0 0 0 0 0 0 0 0 0 0 0 0 0 0 0 0 0 0 0 0 0 0 0 0 0 0 0 0 0 0 0 0 0 0 0 0 0 0 0 0 0 0 0 0 0 0 0 0 0 0 0 0 0 0 0 0 0 0 0 0 0 0 0 0 0 0 0 0 0 0 0 0 0 0 . p p q 5 6 4 3 7 7 7 ",
"! ~ 5 ~ { { 8 0 0 0 0 0 0 0 0 0 0 0 0 0 0 0 0 0 0 0 0 0 0 0 0 0 0 0 0 0 0 0 0 0 0 0 0 0 0 0 0 0 0 0 0 0 0 0 0 0 0 0 0 0 0 0 0 0 0 0 0 0 0 0 0 0 0 0 0 0 0 0 0 0 0 0 0 . p q q 5 6 4 3 7 7 7 ",
"~ ~ 5 { { { 8 0 0 0 0 0 0 0 0 0 0 0 0 0 0 0 0 0 0 0 0 0 0 0 0 0 0 0 0 0 0 0 0 0 0 0 0 0 0 0 0 0 0 0 0 0 0 0 0 0 0 0 0 0 0 0 0 0 0 0 0 0 0 0 0 0 0 0 0 0 0 0 0 0 0 0 0 . q q q 5 6 4 3 7 7 7 ",
"~ ~ 5 { { ] 8 0 0 0 0 0 0 0 0 0 0 0 0 0 0 0 0 0 0 0 0 0 0 0 0 0 0 0 0 0 0 0 0 0 0 0 0 0 0 0 0 0 0 0 0 0 0 0 0 0 0 0 0 0 0 0 0 0 0 0 0 0 0 0 0 0 0 0 0 0 0 0 0 0 0 0 0 . q q r 5 6 4 3 7 7 7 ",
"~ { 5 { ] ] 8 0 0 0 0 0 0 0 0 0 0 0 0 0 0 0 0 0 0 0 0 0 0 0 0 0 0 0 0 0 0 0 0 0 0 0 0 0 0 0 0 0 0 0 0 0 0 0 0 0 0 0 0 0 0 0 0 0 0 0 0 0 0 0 0 0 0 0 0 0 0 0 0 0 0 0 0 . q r r 5 6 4 3 7 7 7 ",
"{ { 5 ] ] ^ 8 0 0 0 0 0 0 0 0 0 0 0 0 0 0 0 0 0 0 0 0 0 0 0 0 0 0 0 0 0 0 0 0 0 0 0 0 0 0 0 0 0 0 0 0 0 0 0 0 0 0 0 0 0 0 0 0 0 0 0 0 0 0 0 0 0 0 0 0 0 0 0 0 0 0 0 0 . r r r 5 6 4 3 7 7 7 ",
"{ { 5 ] ^ ^ 8 0 0 0 0 0 0 0 0 0 0 0 0 0 0 0 0 0 0 0 0 0 0 0 0 0 0 0 0 0 0 0 0 0 0 0 0 0 0 0 0 0 0 0 0 0 0 0 0 0 0 0 0 0 0 0 0 0 0 0 0 0 0 0 0 0 0 0 0 0 0 0 0 0 0 0 0 . r r s 5 6 4 3 7 7 7 ",
"{ ] 5 ^ ^ ^ 8 0 0 0 0 0 0 0 0 0 0 0 0 0 0 0 0 0 0 0 0 0 0 0 0 0 0 0 0 0 0 0 0 0 0 0 0 0 0 0 0 0 0 0 0 0 0 0 0 0 0 0 0 0 0 0 0 0 0 0 0 0 0 0 0 0 0 0 0 0 0 0 0 0 0 0 0 . r s s 5 6 4 3 7 7 7 ",
"] ] 5 ^ ^ / 8 0 0 0 0 0 0 0 0 0 0 0 0 0 0 0 0 0 0 0 0 0 0 0 0 0 0 0 0 0 0 0 0 0 0 0 0 0 0 0 0 0 0 0 0 0 0 0 0 0 0 0 0 0 0 0 0 0 0 0 0 0 0 0 0 0 0 0 0 0 0 0 0 0 0 0 0 . s s t 5 6 4 3 7 7 7 ",
"] ^ 5 ^ / / 8 0 0 0 0 0 0 0 0 0 0 0 0 0 0 0 0 0 0 0 0 0 0 0 0 0 0 0 0 0 0 0 0 0 0 0 0 0 0 0 0 0 0 0 0 0 0 0 0 0 0 0 0 0 0 0 0 0 0 0 0 0 0 0 0 0 0 0 0 0 0 0 0 0 0 0 0 . s t t 5 6 4 3 7 7 7 ",
"^ ^ 5 / / / 8 0 0 0 0 0 0 0 0 0 0 0 0 0 0 0 0 0 0 0 0 0 0 0 0 0 0 0 0 0 0 0 0 0 0 0 0 0 0 0 0 0 0 0 0 0 0 0 0 0 0 0 0 0 0 0 0 0 0 0 0 0 0 0 0 0 0 0 0 0 0 0 0 0 0 0 0 . t t t 5 6 4 3 7 7 7 ",
"^ ^ 5 / / ( 8 0 0 0 0 0 0 0 0 0 0 0 0 0 0 0 0 0 0 0 0 0 0 0 0 0 0 0 0 0 0 0 0 0 0 0 0 0 0 0 0 0 0 0 0 0 0 0 0 0 0 0 0 0 0 0 0 0 0 0 0 0 0 0 0 0 0 0 0 0 0 0 0 0 0 0 0 . t t u 5 6 4 3 7 7 7 ",
"^ / 5 / ( ( 8 0 0 0 0 0 0 0 0 0 0 0 0 0 0 0 0 0 0 0 0 0 0 0 0 0 0 0 0 0 0 0 0 0 0 0 0 0 0 0 0 0 0 0 0 0 0 0 0 0 0 0 0 0 0 0 0 0 0 0 0 0 0 0 0 0 0 0 0 0 0 0 0 0 0 0 0 . t u u 5 6 4 3 7 7 7 ",
"/ / 5 ( ( _ 8 0 0 0 0 0 0 0 0 0 0 0 0 0 0 0 0 0 0 0 0 0 0 0 0 0 0 0 0 0 0 0 0 0 0 0 0 0 0 0 0 0 0 0 0 0 0 0 0 0 0 0 0 0 0 0 0 0 0 0 0 0 0 0 0 0 0 0 0 0 0 0 0 0 0 0 0 . u u u 5 6 4 3 7 7 7 ",
"/ / 5 ( _ _ 8 0 0 0 0 0 0 0 0 0 0 0 0 0 0 0 0 0 0 0 0 0 0 0 0 0 0 0 0 0 0 0 0 0 0 0 0 0 0 0 0 0 0 0 0 0 0 0 0 0 0 0 0 0 0 0 0 0 0 0 0 0 0 0 0 0 0 0 0 0 0 0 0 0 0 0 0 . u u v 5 6 4 3 7 7 7 ",
"/ ( 5 _ _ _ 8 0 0 0 0 0 0 0 0 0 0 0 0 0 0 0 0 0 0 0 0 0 0 0 0 0 0 0 0 0 0 0 0 0 0 0 0 0 0 0 0 0 0 0 0 0 0 0 0 0 0 0 0 0 0 0 0 0 0 0 0 0 0 0 0 0 0 0 0 0 0 0 0 0 0 0 0 . u v v 5 6 4 3 7 7 7 ",
"( ( 5 _ _ : 8 0 0 0 0 0 0 0 0 0 0 0 0 0 0 0 0 0 0 0 0 0 0 0 0 0 0 0 0 0 0 0 0 0 0 0 0 0 0 0 0 0 0 0 0 0 0 0 0 0 0 0 0 0 0 0 0 0 0 0 0 0 0 0 0 0 0 0 0 0 0 0 0 0 0 0 0 . v v w 5 6 4 3 7 7 7 ",
"( _ 5 _ : : 8 0 0 0 0 0 0 0 0 0 0 0 0 0 0 0 0 0 0 0 0 0 0 0 0 0 0 0 0 0 0 0 0 0 0 0 0 0 0 0 0 0 0 0 0 0 0 0 0 0 0 0 0 0 0 0 0 0 0 0 0 0 0 0 0 0 0 0 0 0 0 0 0 0 0 0 0 . v w w 5 6 4 3 7 7 7 ",
"_ _ 5 : : : 8 0 0 0 0 0 0 0 0 0 0 0 0 0 0 0 0 0 0 0 0 0 0 0 0 0 0 0 0 0 0 0 0 0 0 0 0 0 0 0 0 0 0 0 0 0 0 0 0 0 0 0 0 0 0 0 0 0 0 0 0 0 0 0 0 0 0 0 0 0 0 0 0 0 0 0 0 . w w w 5 6 4 3 7 7 7 ",
"_ _ 5 : : < 8 0 0 0 0 0 0 0 0 0 0 0 0 0 0 0 0 0 0 0 0 0 0 0 0 0 0 0 0 0 0 0 0 0 0 0 0 0 0 0 0 0 0 0 0 0 0 0 0 0 0 0 0 0 0 0 0 0 0 0 0 0 0 0 0 0 0 0 0 0 0 0 0 0 0 0 0 . w w x 5 6 4 3 7 7 7 ",
"_ : 5 : < < [ . . . . . . . . . . . . . . . . . . . . . . . . . . . . . . . . . . . . . . . . . . . . . . . . . . . . . . . . . . . . . . . . . . . . . . . . . . . . . w x x 5 6 4 3 7 7 7 ",
": : 5 < < [ [ [ } } } | | | 1 1 2 2 2 9 9 9 a a b b b c c c d d e e e f f f g g g h h i i i j j j k k l l l m m m n n n o o p p p q q q r r s s s t t t u u v v v w w w x x x 5 6 4 3 7 7 7 ",
": : 5 < [ [ [ } } } | | | 1 1 2 2 2 9 9 9 a a b b b c c c d d e e e f f f g g g h h i i i j j j k k l l l m m m n n n o o p p p q q q r r s s s t t t u u v v v w w w x x x y 5 6 4 3 7 7 7 ",
": < 5 [ [ [ } } } | | | 1 1 2 2 2 9 9 9 a a b b b c c c d d e e e f f f g g g h h i i i j j j k k l l l z A A B n o o o C C C D q E E F s s s t G H H u I J J K K K K L x y y 5 6 4 3 7 7 7 ",
"< < 5 [ [ } } } | | | 1 1 2 2 2 9 9 9 a a b b b c c c d d e e e f f f g g g h h i i i j j j k k l l l m M N N O o o o P N N N Q q R N S s s t t T N U v U N N N N N N V y y W 5 6 4 3 7 7 7 ",
"< [ 5 [ } } } | | | 1 1 2 2 2 9 9 9 a a b b b c c c d d e e e f f f g g g h h i i i j j j k k l l l m m N N N N o o p R N N N q r X N Y Z t t G R R v v ` N N  .K K ..+.y W W 5 6 4 3 7 7 7 ",
"[ [ 5 } } } | | | 1 1 2 2 2 9 9 9 a a b b b c c c d d e e e f f f g g g h h i i i j j j k k l l l m m z N N N N o p C N N N N r r S N N H t t @.N J v v ` N ` x x y y y W W W 5 6 4 3 7 7 7 ",
"[ [ 5 } } | | | 1 1 2 2 2 9 9 9 a a b b b c c c d d e e e f f f g g g h h i i i j j j k k l l l m m m #.N $.N N p %.R Y N N E r s &.N N H t *.N  .v v w N N ` x y y y W W W =.5 6 4 3 7 7 7 ",
"[ } 5 } | | 1 1 1 2 2 2 9 9 9 a a b b b c c c d d e e e f f f g g g h h i i i j j j k k l l l m m m n -.N #.N N X X N Q N N E s s ;.N N S u S N >.v w w N N N N N ,.W W W =.=.5 6 4 3 7 7 7 ",
"} } 5 | | 1 1 1 2 2 2 9 9 9 a a b b b c c c d d e e e f f f g g h h h i i i j j j k k l l l m m m n n N N #.N N Y N '.X N N s s s ).N N S *.N @.v w w ` N N !.~.~.{.W W =.=.=.5 6 4 3 7 7 7 ",
"} } 5 | 1 1 1 2 2 2 9 9 9 a a b b b c c c d d e e e f f f g g h h h i i i j j j k k l l l m m m n n ].N ^.%.R N N R Q X N N s s t t N N S @.N >.w w w ` N N +.y W W W =.=.=.=.5 6 4 3 7 7 7 ",
"} | 5 1 1 1 2 2 2 9 9 9 a a b b b c c c d d e e e f f f g g h h h i i i j j j k k l l l m m m n n o #.N X p X N N /.r N N S s t t t N N N N ` w w w x N N N y W W W =.=.=.=.=.5 6 4 3 7 7 7 ",
"| | 5 1 1 2 2 2 9 9 9 a a b b b c c c d d e e e f f f g g h h h i i i j j j k k l l l m m m n n o o (.N _.p X N R :.r N N S t t t u T N N N <.w w x x N N !.W W W =.=.=.=.=.=.5 6 4 3 7 7 7 ",
"| 1 5 1 2 2 2 9 9 9 a a b b b c c c d d e e e f f f g g h h h i i i j j j k k l l l m m m n n o o o X N C q q r r r ;.N N H t t u u J N N K w w x x ..N N ~.W W =.=.=.=.=.=.=.5 6 4 3 7 7 7 ",
"1 1 5 2 2 2 9 9 9 a a b b b c c c d d e e e f f f g g h h h i i i j j j k k l l l m m m n n o o o p p p q q r r r s s s t t t u u v v v w w w x x y y y W W W =.=.=.=.=.=.=.=.5 6 4 3 7 7 7 ",
"1 1 5 2 2 9 9 9 a a b b b c c c d d e e e f f f g g h h h i i i j j j k k l l l m m m n n o o o p p p q q r r r s s s t t t u u v v v w w w x x y y y W W W =.=.=.=.=.=.=.=.=.5 6 4 3 7 7 7 ",
"1 2 5 5 5 5 5 5 5 5 5 5 5 5 5 5 5 5 5 5 5 5 5 5 5 5 5 5 5 5 5 5 5 5 5 5 5 5 5 5 5 5 5 5 5 5 5 5 5 5 5 5 5 5 5 5 5 5 5 5 5 5 5 5 5 5 5 5 5 5 5 5 5 5 5 5 5 5 5 5 5 5 5 5 5 5 5 5 6 4 3 7 7 7 ",
"2 2 6 6 6 6 6 6 6 6 6 6 6 6 6 6 6 6 6 6 6 6 6 6 6 6 6 6 6 6 6 6 6 6 6 6 6 6 6 6 6 6 6 6 6 6 6 6 6 6 6 6 6 6 6 6 6 6 6 6 6 6 6 6 6 6 6 6 6 6 6 6 6 6 6 6 6 6 6 6 6 6 6 6 6 6 6 6 6 4 3 7 7 7 ",
"2 4 4 4 4 4 4 4 4 4 4 4 4 4 4 4 4 4 4 4 4 4 4 4 4 4 4 4 4 4 4 4 4 4 4 4 4 4 4 4 4 4 4 4 4 4 4 4 4 4 4 4 4 4 4 4 4 4 4 4 4 4 4 4 4 4 4 4 4 4 4 4 4 4 4 4 4 4 4 4 4 4 4 4 4 4 4 4 4 4 3 7 7 7 ",
"3 3 3 3 3 3 3 3 3 3 3 3 3 3 3 3 3 3 3 3 3 3 3 3 3 3 3 3 3 3 3 3 3 3 3 3 3 3 3 3 3 3 3 3 3 3 3 3 3 3 3 3 3 3 3 3 3 3 3 3 3 3 3 3 3 3 3 3 3 3 3 3 3 3 3 3 3 3 3 3 3 3 3 3 3 3 3 3 3 3 3 7 7 7 ",
"    7 7 7 7 7 7 7 7 7 7 7 7 7 7 7 7 7 7 7 7 7 7 7 7 7 7 7 7 7 7 7 7 7 7 7 7 7 7 7 7 7 7 7 7 7 7 7 7 7 7 7 7 7 7 7 7 7 7 7 7 7 7 7 7 7 7 7 7 7 7 7 7 7 7 7 7 7 7 7 7 7 7 7 7 7 7 7 7 7 7 7 7 ",
"    7 7 7 7 7 7 7 7 7 7 7 7 7 7 7 7 7 7 7 7 7 7 7 7 7 7 7 7 7 7 7 7 7 7 7 7 7 7 7 7 7 7 7 7 7 7 7 7 7 7 7 7 7 7 7 7 7 7 7 7 7 7 7 7 7 7 7 7 7 7 7 7 7 7 7 7 7 7 7 7 7 7 7 7 7 7 7 7 7 7 7 7 ",
"    7 7 7 7 7 7 7 7 7 7 7 7 7 7 7 7 7 7 7 7 7 7 7 7 7 7 7 7 7 7 7 7 7 7 7 7 7 7 7 7 7 7 7 7 7 7 7 7 7 7 7 7 7 7 7 7 7 7 7 7 7 7 7 7 7 7 7 7 7 7 7 7 7 7 7 7 7 7 7 7 7 7 7 7 7 7 7 7 7 7 7 7 "};
