/* XPM */
static char * ivs_xpm[] = {
"48 48 776 2",
"  	c None",
". 	c #060606",
"+ 	c #53661A",
"@ 	c #4F6117",
"# 	c #5C711F",
"$ 	c #9CB148",
"% 	c #73882C",
"& 	c #415210",
"* 	c #435010",
"= 	c #485813",
"- 	c #536419",
"; 	c #55661A",
"> 	c #4C691F",
", 	c #4B611A",
"' 	c #627C25",
") 	c #566A1D",
"! 	c #465815",
"~ 	c #465C17",
"{ 	c #5E7325",
"] 	c #697F2B",
"^ 	c #617825",
"/ 	c #5E7D2B",
"( 	c #648C37",
"_ 	c #4B641D",
": 	c #586E21",
"< 	c #4F641B",
"[ 	c #596F21",
"} 	c #50671F",
"| 	c #4F6A1C",
"1 	c #415613",
"2 	c #3D5010",
"3 	c #445612",
"4 	c #6E8529",
"5 	c #697D26",
"6 	c #617620",
"7 	c #5E7320",
"8 	c #596C1D",
"9 	c #677C26",
"0 	c #495B15",
"a 	c #50641A",
"b 	c #52661A",
"c 	c #4C5C17",
"d 	c #5F6F20",
"e 	c #566A1C",
"f 	c #617322",
"g 	c #697F28",
"h 	c #5B7627",
"i 	c #495C17",
"j 	c #6C8C34",
"k 	c #566E1F",
"l 	c #4C5E17",
"m 	c #4D5F17",
"n 	c #506117",
"o 	c #4B5C15",
"p 	c #5F7120",
"q 	c #4F5F17",
"r 	c #505F18",
"s 	c #4D5E17",
"t 	c #71963B",
"u 	c #7FA94F",
"v 	c #5C6F1F",
"w 	c #58671B",
"x 	c #58691B",
"y 	c #5E7120",
"z 	c #5B6E1E",
"A 	c #56691B",
"B 	c #819635",
"C 	c #495B14",
"D 	c #465813",
"E 	c #465512",
"F 	c #71862B",
"G 	c #7A9130",
"H 	c #627521",
"I 	c #505F17",
"J 	c #435210",
"K 	c #404F0F",
"L 	c #3F4C0E",
"M 	c #445211",
"N 	c #698327",
"O 	c #6A8129",
"P 	c #667C27",
"Q 	c #647C26",
"R 	c #718A32",
"S 	c #536C20",
"T 	c #495B16",
"U 	c #5C6C1F",
"V 	c #55671A",
"W 	c #627821",
"X 	c #667A23",
"Y 	c #5E6F1F",
"Z 	c #495C15",
"` 	c #617320",
" .	c #76882D",
"..	c #788D2E",
"+.	c #96A743",
"@.	c #8C9F3C",
"#.	c #788F2E",
"$.	c #4C5915",
"%.	c #4B5E15",
"&.	c #506118",
"*.	c #55661C",
"=.	c #55671D",
"-.	c #485E19",
";.	c #648530",
">.	c #52641A",
",.	c #485B14",
"'.	c #526419",
").	c #697C25",
"!.	c #616F20",
"~.	c #667823",
"{.	c #788A2E",
"].	c #71852A",
"^.	c #8FA13D",
"/.	c #A2B44F",
"(.	c #A1B34C",
"_.	c #96AA43",
":.	c #6F8329",
"<.	c #7F9633",
"[.	c #859937",
"}.	c #617120",
"|.	c #4F5C17",
"1.	c #667523",
"2.	c #627522",
"3.	c #4C5C16",
"4.	c #4D5C18",
"5.	c #445615",
"6.	c #597124",
"7.	c #4D641A",
"8.	c #3F4F0F",
"9.	c #596C1C",
"0.	c #8CA13C",
"a.	c #71812A",
"b.	c #55641A",
"c.	c #56671A",
"d.	c #667A24",
"e.	c #6C8128",
"f.	c #758A2C",
"g.	c #8A9B3A",
"h.	c #6E8128",
"i.	c #5E6E1F",
"j.	c #5C6F1E",
"k.	c #5F7520",
"l.	c #677C24",
"m.	c #5E731F",
"n.	c #768A2E",
"o.	c #647322",
"p.	c #647623",
"q.	c #526218",
"r.	c #4C5C15",
"s.	c #435011",
"t.	c #647625",
"u.	c #596C20",
"v.	c #6A923C",
"w.	c #415211",
"x.	c #4B5B14",
"y.	c #5B6C1D",
"z.	c #596A1C",
"A.	c #596E1C",
"B.	c #647622",
"C.	c #869637",
"D.	c #6A7C26",
"E.	c #7A8D2F",
"F.	c #859936",
"G.	c #819233",
"H.	c #6F852A",
"I.	c #73852B",
"J.	c #6F8129",
"K.	c #6C8127",
"L.	c #6F8529",
"M.	c #9EAE49",
"N.	c #8FA23D",
"O.	c #627321",
"P.	c #56641A",
"Q.	c #5E6E20",
"R.	c #6C7F28",
"S.	c #4D5B16",
"T.	c #495614",
"U.	c #506218",
"V.	c #4F6219",
"W.	c #526C22",
"X.	c #485F1A",
"Y.	c #53671B",
"Z.	c #667824",
"`.	c #617521",
" +	c #627121",
".+	c #677A25",
"++	c #7A8A2F",
"@+	c #7A8C2F",
"#+	c #647522",
"$+	c #788C2F",
"%+	c #A4B44D",
"&+	c #7D9233",
"*+	c #839434",
"=+	c #73862B",
"-+	c #677624",
";+	c #6A7F26",
">+	c #6F812A",
",+	c #9CB149",
"'+	c #5C6A1E",
")+	c #4F6217",
"!+	c #59671C",
"~+	c #8C9C3B",
"{+	c #7F9134",
"]+	c #53671C",
"^+	c #4C621D",
"/+	c #445514",
"(+	c #6F7F29",
"_+	c #78882D",
":+	c #859736",
"<+	c #7D9132",
"[+	c #7C8A30",
"}+	c #99A945",
"|+	c #AEC059",
"1+	c #B5C461",
"2+	c #C0D06F",
"3+	c #9EAD4B",
"4+	c #627622",
"5+	c #7D8F32",
"6+	c #768A2D",
"7+	c #677C25",
"8+	c #71882A",
"9+	c #99AA45",
"0+	c #97AA44",
"a+	c #5F7320",
"b+	c #53641A",
"c+	c #4F5E17",
"d+	c #647523",
"e+	c #718A2D",
"f+	c #435616",
"g+	c #668F3F",
"h+	c #415213",
"i+	c #4B5916",
"j+	c #697825",
"k+	c #5E6C1F",
"l+	c #76862D",
"m+	c #6C7F27",
"n+	c #78882E",
"o+	c #75882C",
"p+	c #8A9F3A",
"q+	c #8D9F3C",
"r+	c #B0BF5B",
"s+	c #8F9F3C",
"t+	c #8C9C3A",
"u+	c #96A943",
"v+	c #869937",
"w+	c #92A640",
"x+	c #96A443",
"y+	c #C1D06F",
"z+	c #9CAD48",
"A+	c #768C2E",
"B+	c #6A7D26",
"C+	c #596A1D",
"D+	c #697A25",
"E+	c #5C6E1E",
"F+	c #5B6A1E",
"G+	c #647A23",
"H+	c #7F9734",
"I+	c #586C1E",
"J+	c #6F9B44",
"K+	c #5F8636",
"L+	c #4D5E18",
"M+	c #525F18",
"N+	c #58661B",
"O+	c #677A24",
"P+	c #7F8F33",
"Q+	c #A1B14C",
"R+	c #B0C05B",
"S+	c #ACBB56",
"T+	c #A6B550",
"U+	c #A6B552",
"V+	c #AAB955",
"W+	c #A4B44F",
"X+	c #C4D173",
"Y+	c #C7D678",
"Z+	c #8DA13D",
"`+	c #8DA13C",
" @	c #839435",
".@	c #C0CF6E",
"+@	c #C7D578",
"@@	c #94A641",
"#@	c #55621A",
"$@	c #788C2E",
"%@	c #8F9F3D",
"&@	c #8C9E3B",
"*@	c #5C6C1E",
"=@	c #5B6E1F",
"-@	c #7C9636",
";@	c #405314",
">@	c #50621A",
",@	c #6E7D28",
"'@	c #697A24",
")@	c #8A9C39",
"!@	c #B1BD5C",
"~@	c #C7D478",
"{@	c #B0BD5E",
"]@	c #B3C15E",
"^@	c #D6E191",
"/@	c #DBE897",
"(@	c #9FB34B",
"_@	c #7C9130",
":@	c #92A641",
"<@	c #ACBC58",
"[@	c #8A9E3A",
"}@	c #9BAC46",
"|@	c #677824",
"1@	c #8A9E3B",
"2@	c #617520",
"3@	c #6A7C27",
"4@	c #697A27",
"5@	c #769134",
"6@	c #435314",
"7@	c #5B6C1F",
"8@	c #5B691D",
"9@	c #94A443",
"0@	c #B7C664",
"a@	c #A9B955",
"b@	c #D6E291",
"c@	c #B1C15E",
"d@	c #8FA23F",
"e@	c #A1B44D",
"f@	c #D0DD8A",
"g@	c #92A241",
"h@	c #9CAE49",
"i@	c #B9CA69",
"j@	c #58691A",
"k@	c #91A440",
"l@	c #677825",
"m@	c #73852C",
"n@	c #455613",
"o@	c #596C1E",
"p@	c #64812E",
"q@	c #719E48",
"r@	c #4C5E18",
"s@	c #536119",
"t@	c #59691C",
"u@	c #6C7D26",
"v@	c #819434",
"w@	c #BFCD6C",
"x@	c #A4B550",
"y@	c #AEC05C",
"z@	c #C2D073",
"A@	c #A6B853",
"B@	c #71832A",
"C@	c #7C9132",
"D@	c #CEDC85",
"E@	c #9EB04B",
"F@	c #6A7C25",
"G@	c #8DA23D",
"H@	c #889C3A",
"I@	c #6E7F29",
"J@	c #71852B",
"K@	c #455312",
"L@	c #415011",
"M@	c #586A20",
"N@	c #445816",
"O@	c #4D5E19",
"P@	c #526118",
"Q@	c #627320",
"R@	c #718529",
"S@	c #B0C15E",
"T@	c #B1C15C",
"U@	c #A4B54F",
"V@	c #C0CF71",
"W@	c #C7D57A",
"X@	c #C1D071",
"Y@	c #CBDA7F",
"Z@	c #97A944",
"`@	c #99AD45",
" #	c #859735",
".#	c #9CB048",
"+#	c #91A23F",
"@#	c #788A2D",
"##	c #445917",
"$#	c #415212",
"%#	c #97AA45",
"&#	c #9FB14C",
"*#	c #A7B752",
"=#	c #B8C664",
"-#	c #B3C25E",
";#	c #738A2B",
">#	c #9FB44C",
",#	c #9BAE46",
"'#	c #B8C764",
")#	c #91A640",
"!#	c #8A9C3A",
"~#	c #3D4D0F",
"{#	c #455914",
"]#	c #445212",
"^#	c #667622",
"/#	c #505E17",
"(#	c #99AD48",
"_#	c #BBCA67",
":#	c #9EB049",
"<#	c #A2B44D",
"[#	c #92A740",
"}#	c #9EB14B",
"|#	c #D7E594",
"1#	c #BCCC69",
"2#	c #7A8F30",
"3#	c #6E8329",
"4#	c #788D2F",
"5#	c #94A743",
"6#	c #9FB04B",
"7#	c #5F6E20",
"8#	c #6C7C27",
"9#	c #6A7F27",
"0#	c #58691C",
"a#	c #465612",
"b#	c #414F10",
"c#	c #718129",
"d#	c #839635",
"e#	c #8F9E3D",
"f#	c #9FB04C",
"g#	c #C1CF6F",
"h#	c #AABB55",
"i#	c #BFCC6C",
"j#	c #C0CD6E",
"k#	c #BCCC6C",
"l#	c #718329",
"m#	c #AEBF59",
"n#	c #75852C",
"o#	c #819433",
"p#	c #616E20",
"q#	c #4B5814",
"r#	c #455512",
"s#	c #7C8F30",
"t#	c #536219",
"u#	c #8FA13F",
"v#	c #A9B752",
"w#	c #BCCB69",
"x#	c #9FB34C",
"y#	c #889B39",
"z#	c #92A440",
"A#	c #A4B752",
"B#	c #9EB149",
"C#	c #869C37",
"D#	c #7F9433",
"E#	c #4D5C15",
"F#	c #96A944",
"G#	c #414D10",
"H#	c #445311",
"I#	c #71832C",
"J#	c #627322",
"K#	c #75882D",
"L#	c #A2B34D",
"M#	c #ADBC58",
"N#	c #A9B853",
"O#	c #8FA43D",
"P#	c #94A941",
"Q#	c #8DA23C",
"R#	c #859B36",
"S#	c #869B37",
"T#	c #73832B",
"U#	c #75862C",
"V#	c #697D25",
"W#	c #445011",
"X#	c #485614",
"Y#	c #91A43F",
"Z#	c #859737",
"`#	c #9FB34D",
" $	c #AABC56",
".$	c #D1DF88",
"+$	c #CAD87C",
"@$	c #C0CE6F",
"#$	c #73882B",
"$$	c #819234",
"%$	c #96A643",
"&$	c #556419",
"*$	c #869C39",
"=$	c #768D2D",
"-$	c #889C39",
";$	c #5B6C1E",
">$	c #3C4B0D",
",$	c #37450C",
"'$	c #4B5915",
")$	c #485914",
"!$	c #6F832A",
"~$	c #7C8C30",
"{$	c #6E7F28",
"]$	c #56661B",
"^$	c #7C8D30",
"/$	c #9FAE4C",
"($	c #7F8D34",
"_$	c #A9B953",
":$	c #CFDD86",
"<$	c #D7E491",
"[$	c #ADBB56",
"}$	c #819734",
"|$	c #859637",
"1$	c #9CAA48",
"2$	c #839634",
"3$	c #6C7D27",
"4$	c #3D4B0E",
"5$	c #36440C",
"6$	c #58691D",
"7$	c #53621A",
"8$	c #697C26",
"9$	c #617122",
"0$	c #627523",
"a$	c #5F7121",
"b$	c #6F852B",
"c$	c #76882E",
"d$	c #91A13F",
"e$	c #8A993A",
"f$	c #819134",
"g$	c #73832C",
"h$	c #C1CE6F",
"i$	c #B7C562",
"j$	c #B0BC5B",
"k$	c #A1B34D",
"l$	c #9EAE4B",
"m$	c #9EAC49",
"n$	c #617121",
"o$	c #526219",
"p$	c #526A20",
"q$	c #404F12",
"r$	c #4C5B16",
"s$	c #435312",
"t$	c #405211",
"u$	c #465914",
"v$	c #4B5B17",
"w$	c #586C20",
"x$	c #788A30",
"y$	c #7D8F33",
"z$	c #859636",
"A$	c #92A240",
"B$	c #B3C05C",
"C$	c #A4B14F",
"D$	c #7C8F32",
"E$	c #AEBC59",
"F$	c #7F9233",
"G$	c #7F9133",
"H$	c #889937",
"I$	c #4C5B15",
"J$	c #6E7D27",
"K$	c #4B5B15",
"L$	c #3D5012",
"M$	c #739B45",
"N$	c #435815",
"O$	c #405212",
"P$	c #435514",
"Q$	c #374B0F",
"R$	c #35591E",
"S$	c #274C1A",
"T$	c #284C19",
"U$	c #30521B",
"V$	c #34551B",
"W$	c #3B5317",
"X$	c #667A27",
"Y$	c #8A9E3D",
"Z$	c #7C9133",
"`$	c #BDCC6C",
" %	c #B4C45F",
".%	c #B7C662",
"+%	c #76882C",
"@%	c #9FB14B",
"#%	c #99AE45",
"$%	c #485513",
"%%	c #485E15",
"&%	c #5B7828",
"*%	c #648A37",
"=%	c #254817",
"-%	c #2B551D",
";%	c #3D672C",
">%	c #3B672A",
",%	c #325B23",
"'%	c #3B672B",
")%	c #2F5820",
"!%	c #305921",
"~%	c #2C521D",
"{%	c #355B1F",
"]%	c #586F21",
"^%	c #7D9435",
"/%	c #A1B14D",
"(%	c #94A441",
"_%	c #8C9B3B",
":%	c #7A8F2F",
"<%	c #758A2D",
"[%	c #BBCA69",
"}%	c #99A944",
"|%	c #7D9232",
"1%	c #97AC44",
"2%	c #616F22",
"3%	c #667C25",
"4%	c #50661A",
"5%	c #617D25",
"6%	c #204516",
"7%	c #274F1B",
"8%	c #305C23",
"9%	c #376229",
"0%	c #345E27",
"a%	c #437335",
"b%	c #39662A",
"c%	c #2D5520",
"d%	c #2A501E",
"e%	c #2F5B22",
"f%	c #2E561E",
"g%	c #617623",
"h%	c #647123",
"i%	c #647323",
"j%	c #526619",
"k%	c #52611A",
"l%	c #55621B",
"m%	c #556C1D",
"n%	c #55691F",
"o%	c #566C21",
"p%	c #5F7C26",
"q%	c #678A32",
"r%	c #244B1A",
"s%	c #284F1C",
"t%	c #2D5821",
"u%	c #346127",
"v%	c #345F26",
"w%	c #487836",
"x%	c #3F6E2F",
"y%	c #417132",
"z%	c #447635",
"A%	c #487C39",
"B%	c #568F45",
"C%	c #417332",
"D%	c #335C24",
"E%	c #325B21",
"F%	c #375C21",
"G%	c #3B5F22",
"H%	c #3B4B10",
"I%	c #8A9F3B",
"J%	c #4D5C17",
"K%	c #465614",
"L%	c #465816",
"M%	c #506920",
"N%	c #28501D",
"O%	c #29531E",
"P%	c #2D5620",
"Q%	c #2C5821",
"R%	c #3A6A2D",
"S%	c #457836",
"T%	c #437635",
"U%	c #457635",
"V%	c #5E964C",
"W%	c #558A43",
"X%	c #487D39",
"Y%	c #457A36",
"Z%	c #356226",
"`%	c #3A6629",
" &	c #335920",
".&	c #415312",
"+&	c #768C2D",
"@&	c #627621",
"#&	c #5F7623",
"$&	c #7CA74F",
"%&	c #27521E",
"&&	c #28521E",
"*&	c #2F5C23",
"=&	c #325E25",
"-&	c #356227",
";&	c #36662A",
">&	c #3D6F30",
",&	c #457A37",
"'&	c #4F853F",
")&	c #5C964B",
"!&	c #447835",
"~&	c #2E5C22",
"{&	c #254D1A",
"]&	c #2A551F",
"^&	c #284D1B",
"/&	c #29501A",
"(&	c #33440D",
"_&	c #3D4D10",
":&	c #5B711F",
"<&	c #667C23",
"[&	c #71832B",
"}&	c #677D27",
"|&	c #667F29",
"1&	c #244D1B",
"2&	c #254C1B",
"3&	c #2E5B22",
"4&	c #356429",
"5&	c #3A692C",
"6&	c #3C6A2D",
"7&	c #3B692C",
"8&	c #3C6E2F",
"9&	c #437835",
"0&	c #508C40",
"a&	c #437A34",
"b&	c #37692A",
"c&	c #264F1C",
"d&	c #346228",
"e&	c #2B531E",
"f&	c #274D1B",
"g&	c #2A551E",
"h&	c #2C561E",
"i&	c #36450D",
"j&	c #435512",
"k&	c #55661B",
"l&	c #617A25",
"m&	c #224B1A",
"n&	c #27521C",
"o&	c #305C24",
"p&	c #3F7132",
"q&	c #4F8640",
"r&	c #589148",
"s&	c #4C853A",
"t&	c #437632",
"u&	c #3A6C2C",
"v&	c #2A531F",
"w&	c #264C1A",
"x&	c #224918",
"y&	c #26501C",
"z&	c #28561E",
"A&	c #28521C",
"B&	c #467632",
"C&	c #4D6219",
"D&	c #495814",
"E&	c #66852F",
"F&	c #739940",
"G&	c #2E5F26",
"H&	c #244C1B",
"I&	c #28531E",
"J&	c #2B5620",
"K&	c #37672B",
"L&	c #487D3A",
"M&	c #467A37",
"N&	c #407332",
"O&	c #4C853C",
"P&	c #39692C",
"Q&	c #2B531F",
"R&	c #336226",
"S&	c #2F5E22",
"T&	c #2C5921",
"U&	c #3C7330",
"V&	c #485B16",
"W&	c #5C7120",
"X&	c #5B6F20",
"Y&	c #5C7322",
"Z&	c #739C45",
"`&	c #437D3A",
" *	c #27501D",
".*	c #326126",
"+*	c #37672A",
"@*	c #37692B",
"#*	c #305B23",
"$*	c #2B5320",
"%*	c #527125",
"&*	c #435B17",
"**	c #5E812F",
"=*	c #3D7334",
"-*	c #2C5620",
";*	c #2A5520",
">*	c #335F27",
",*	c #356428",
"'*	c #204517",
")*	c #2B5820",
"!*	c #407534",
"~*	c #4C8843",
"{*	c #336227",
"]*	c #234B1A",
"^*	c #224919",
"/*	c #214918",
"(*	c #224B19",
"_*	c #2F6124",
":*	c #5B9B50",
"<*	c #3D7132",
"[*	c #498643",
"}*	c #4F8D46",
"|*	c #305924",
"1*	c #2E5622",
"2*	c #2B5520",
"3*	c #326227",
"4*	c #487F3B",
"5*	c #3A662C",
"6*	c #335F26",
"7*	c #376A2C",
"8*	c #5C9952",
"9*	c #407334",
"0*	c #407634",
"a*	c #4B863F",
"                                                                                                ",
"                                                                                                ",
"                              . . . . . . . . . . . .                                           ",
"                          . . . + @ # $ % & * = - ; . . . . .                                   ",
"                      . . . > , ' ) ! ~ { ] ^ / ( _ : < [ } . . .                               ",
"                  . . . | 1 2 3 4 5 6 7 8 9 0 a b c d e f g h i . . .                           ",
"                . . j k l 0 m + @ # $ % & * = - ; n o p q r s < t u . . .                       ",
"              . . [ a m v w x y z A B C D E p F G H I J K L M N O P Q R . . .                   ",
"            . . S T U p p x V W X A Y Z v V `  ...+.@.#.; $.; %.d q &.*.=.-.. . .               ",
"            . ;.>.,.'.Y ).!.o V ~.{.x n ].^./.(._.).:.<.[.}.- V |.H 1.2.3.4.5.6.. .             ",
"          . . 7.+ 8.9.0.a.V b.c.x :.x d.).e.f.0.g.h.i.j.k.d l.m.n n.o.p.q.r.s.t.u.. .           ",
"        . . v.w.8.x.y.~.z.n A.).B.z.).C.D.E.F.G.H.I.J.K.L.E.M.N.O.}.P.Q.R.S.T.U.V.W.. .         ",
"      . . X.Y.Z.- d `. +.+y  +++@+#+h.J.$+%+g.&+*+=+-+F =+;+>+,+@.'+Y x d )+!+~+{+]+i . .       ",
"      . ^+/+Q.i.; D.` ].(+I.]._+:+=+<+[+}+|+1+2+3+4+U 5+6+7+#+8+9+0+F .+a+b+c+y d+e+f+g+. .     ",
"    . . h+i+j+!.k+l+m+n+o+<+p+q+r+^.s+t+N.u+v+w+q+J.#+x+y+z+A+B+B.].C+D+o+E+F+G+x H+I+i J+.     ",
"    . K+L+M+N+-+ +].O+I.P+<+Q+R+S+T+U+V+W+X+Y+Z+`+=+@+ @.@+@@@{.p #@z.$@%@&@*@o.Y n A =@-@. .   ",
"    . ;@>@q P.d i.,@'@].:+z+)@M.!@~@{@]@S+^@/@(@_@:@<@[@@@}@S+h.H z.H Y |@1@2@3@|@; p.V 4@5@. . ",
"  . . 6@7@q.y.8@8@n+9@(+<+0@A+<.a@b@c@d@e@c@f@y+g@h@i@h@1@W+9+|@j@y k@m+` 5+l@m@w F+B+q.n@o@p@. ",
". . q@r@.+s@t@t@y.u@v@D.o+g@:.y <+w@x@@@y@]@z@A@B@C@D@E@@.u+M.F@w _@G@h@].H@I@J@; l.).B+K@L@M@. ",
". N@O@F+B.P@V w Q@m+m+R@v@S@T@;+o+F.U@V@W@X@Y@Z@D.j.y@`@ #.#:@E.@+N.<+`+6+e.+#@#).=+D.D+s@c ##. ",
". $#'.c+'+B+M+s@s@h.&+%#9+&#|+7+F E.*#1+T@=#-#v+;#y.h.>#z+,#E.o+'#M.B@)#!#R.F F@Y @+o+P.t@; ~#{#",
". ]#z.P@}.^#Y N+/#].v@(#_#^.:#:+<#[#}#|#y+E@S+1#+.2#Y 4+:.3#D.)..#4##+5#6#:.7#e.O+8#R.:.9#0#a#b#",
". K@y.'+_+c#I@7#Y ~.d#e#f#d#).:#y+y+5#D@g#h#a@i#j#k#9+).A+E.9#l#E+z.).m#a@].n#o#&@J.).F p#M+q#r#",
". T.- s#].~.j+ +k+t#6+v@u#=+4#v#1+w#o+[.x#d#y#z#s#d@A#k@B#C#p+D#E#C+5 !#F#o+s#$@o+'+E+-+}.*@G#H#",
". r#8@m@I#-+*@` -+N+J#>+m@K#!#L#M#=#N#% D+I@&+L#:+O#P#Q#R#A+S#Z@m+'+d (+T#o+P#U#*@8 V#K.~.n W#W#",
". X#q.a.C.p l+8#U -+#+ +l+Y#*#Z#N#`#Z@M.Y# $.$+$@$0.#$5 l. .$$<+%$8#&$m+*$N.0+=$B.-$Z#B+;$q#>$,$",
". '$)$D.,@!$@@j+~${$]$}.I.^$y@/$@+($g._$:$<$i#[$a@/.@.}$4 E.!#|$1$8#y.; F E.2$$@3$D.s@s@c.q.4$5$",
". X#6$7$;$3$8$9$0$a$8$b$d+c$d$e$f$g$5+'#h$<@i$j$k$!#!#z#l$$@f$m$f$T#n$y.H h.J.&+O+$.c+*@p o$r@p$",
". q$r$s$t$u$v$w$. . . . . . x$y$T#z$A$M._#B$C$D$$@%$E$m#|+F$G$+#T#H$-+$.I$J#Y J$!+#+x.K$w.L$M$. ",
". N$O$P$Q$. . . R$S$T$U$V$W$. X$Y$Z$%#`$ %.%M.+%F$@%#%p+F$$@% E@B@!#].r.W#]#T.$%|.z.0#C %%&%. . ",
". . . *%. =%-%;%>%,%'%)%!%~%{%. . ]%^%:@/%(%A$T@_%:%<%C@[%}%|%1%s#s#&+!+b.d+3@J#U 2%3%4%5%. .   ",
"    . . 6%7%8%9%0%a%b%c%d%b%e%~%f%. . . g%h%i%J@d n#q+ .A#P#E.g.% -+% C+J j%k%l%m%n%o%p%q%.     ",
"      . r%s%t%u%v%w%x%y%z%A%B%C%D%E%F%G%. H%0 C+I@o+N#F :.I%|%G$#$n$).P@J%K%L%M%. . . . .       ",
"      . N%O%P%Q%R%S%T%U%w%V%W%X%Y%t%Z%`% &. . .&g%d+H@+&@&A+d#=+:. +H U #&$&. . .               ",
"      . %&&&*&=&=&-&;&>&,&'&)&!&S%~&{&]&^&-%/&. (&_&:&F <&[&V#K.z.|@z }&|&. .                   ",
"      . 1&2&3&4&5&6&7&5&8&9&0&a&b&Q%c&d&e&f&g&h&. i&j&)$` 8$D.A b.d.k&l&. .                     ",
"      . . m&n&o&d&;&p&q&r&S%s&t&u&=&v&w&x&y&z&A&B&. C&c n@K$K$D&s u.E&F&.                       ",
"        . G&H&I&J&Q%K&L&M&N&O&C%P&Q&s%{&R&S&T&U&. . . . V&O$W&X&Y&Z&. . .                       ",
"        . . `&%& *I&Q%.*+*@*+*K&u%#*$*O%;&. . . .     . . %*&***. . .                           ",
"          . . . =*m&c&J&-*;*s%Q%>*,*'*)*!*.             . . . . .                               ",
"              . . ~*{*I&'*]*^*f&^*/*(*_*. .                                                     ",
"                . . :*<*[*}*|*1*2* *3*. .                                                       ",
"                  . . . . . 4*5*6*7*. .                                                         ",
"                          . 8*9*0*a*.                                                           ",
"                          . 4*5*6*7*.                                                           ",
"                            . . . .                                                             ",
"                                                                                                ",
"                                                                                                "};
