/* XPM */
static char * ldots_xpm[] = {
"16 12 4 1",
" 	c None",
".	c #A8A8A8",
"+	c #828282",
"@	c #000000",
"                ",
"                ",
"                ",
"                ",
"  .    .    .   ",
" +@+  +@+  +@+  ",
".@@@..@@@..@@@. ",
" +@+  +@+  +@+  ",
"  .    .    .   ",
"                ",
"                ",
"                "};
