/* XPM */
static char * nopreview_xpm[] = {
"76 64 281 2",
"  	c None",
". 	c #0FA2C6",
"+ 	c #0DA0C4",
"@ 	c #0D9ABE",
"# 	c #0D94B6",
"$ 	c #0D94B4",
"% 	c #0D98BA",
"& 	c #0D9EC0",
"* 	c #0D97B9",
"= 	c #0D9CBE",
"- 	c #0D9EC2",
"; 	c #0D92B3",
"> 	c #0D8FAF",
", 	c #0D8DAD",
"' 	c #0D90B0",
") 	c #0D9ABC",
"! 	c #0B89A7",
"~ 	c #0A748E",
"{ 	c #0A718B",
"] 	c #0B809C",
"^ 	c #0D91B1",
"/ 	c #0B829E",
"( 	c #0A7792",
"_ 	c #0B7C97",
": 	c #0D96B8",
"< 	c #096C84",
"[ 	c #086278",
"} 	c #086075",
"| 	c #08657C",
"1 	c #0A748D",
"2 	c #0B87A6",
"3 	c #096D86",
"4 	c #ACC21D",
"5 	c #ABBF19",
"6 	c #23685E",
"7 	c #0A7590",
"8 	c #0B7A95",
"9 	c #3E835C",
"0 	c #ACC31F",
"a 	c #75A03B",
"b 	c #0B809E",
"c 	c #215F52",
"d 	c #8EA61E",
"e 	c #ABBA13",
"f 	c #ABB913",
"g 	c #ABBB14",
"h 	c #588035",
"i 	c #085E73",
"j 	c #08566A",
"k 	c #FFFF00",
"l 	c #8EA119",
"m 	c #075467",
"n 	c #086176",
"o 	c #588338",
"p 	c #ABBD17",
"q 	c #085D72",
"r 	c #08657B",
"s 	c #3B6D40",
"t 	c #8EA41D",
"u 	c #085C70",
"v 	c #0B84A2",
"w 	c #064C5C",
"x 	c #E2E403",
"y 	c #3B6132",
"z 	c #064959",
"A 	c #57772A",
"B 	c #ABB812",
"C 	c #064B5C",
"D 	c #C6CF0B",
"E 	c #AAB50D",
"F 	c #3B6031",
"G 	c #043946",
"H 	c #72881D",
"I 	c #739229",
"J 	c #096F88",
"K 	c #C6CD08",
"L 	c #04333E",
"M 	c #577021",
"N 	c #ABB60F",
"O 	c #053E4C",
"P 	c #043642",
"Q 	c #096980",
"R 	c #075063",
"S 	c #577224",
"T 	c #ABB811",
"U 	c #0D8CAB",
"V 	c #0B83A0",
"W 	c #8D9207",
"X 	c #395220",
"Y 	c #566918",
"Z 	c #ABB70F",
"` 	c #064E60",
" .	c #0B7E9B",
"..	c #0C8BAB",
"+.	c #075365",
"@.	c #06495A",
"#.	c #384713",
"$.	c #C6CB06",
"%.	c #55610E",
"&.	c #AAB40C",
"*.	c #042E38",
"=.	c #AAB50E",
"-.	c #ABB60E",
";.	c #075669",
">.	c #0B87A4",
",.	c #0B7B97",
"'.	c #054554",
").	c #074F60",
"!.	c #0B85A3",
"~.	c #03232A",
"{.	c #728518",
"].	c #AAAD04",
"^.	c #AAB30C",
"/.	c #04323E",
"(.	c #ABB710",
"_.	c #064C5D",
":.	c #096E86",
"<.	c #053B48",
"[.	c #043744",
"}.	c #E2E503",
"|.	c #053D4B",
"1.	c #1F4C3A",
"2.	c #085A6E",
"3.	c #8E9E15",
"4.	c #ABB912",
"5.	c #085F74",
"6.	c #05404F",
"7.	c #738B1F",
"8.	c #3B5E2E",
"9.	c #0A728B",
"0.	c #08586C",
"a.	c #075264",
"b.	c #064D5F",
"c.	c #C6CE0A",
"d.	c #096A81",
"e.	c #C6CF0C",
"f.	c #587B2E",
"g.	c #ACC31E",
"h.	c #096B83",
"i.	c #0A7089",
"j.	c #598940",
"k.	c #ABBF1A",
"l.	c #749E37",
"m.	c #226459",
"n.	c #8FA61F",
"o.	c #588237",
"p.	c #086379",
"q.	c #08647A",
"r.	c #0C89A9",
"s.	c #0B7994",
"t.	c #09687F",
"u.	c #ABC01B",
"v.	c #ABBA14",
"w.	c #749B34",
"x.	c #ABBB15",
"y.	c #236A60",
"z.	c #749C35",
"A.	c #ABBC16",
"B.	c #ABC11C",
"C.	c #3E8159",
"D.	c #09677E",
"E.	c #ACC622",
"F.	c #3E7C54",
"G.	c #749D37",
"H.	c #3E8058",
"I.	c #3D764C",
"J.	c #ABBE19",
"K.	c #74A03A",
"L.	c #75A43F",
"M.	c #749F38",
"N.	c #ABBC17",
"O.	c #749B33",
"P.	c #75A33E",
"Q.	c #E2E706",
"R.	c #08576A",
"S.	c #5A9048",
"T.	c #064858",
"U.	c #054555",
"V.	c #053A46",
"W.	c #ACC420",
"X.	c #054150",
"Y.	c #054453",
"Z.	c #59873D",
"`.	c #03252D",
" +	c #04343F",
".+	c #3A5625",
"++	c #3B6536",
"@+	c #04313C",
"#+	c #043440",
"$+	c #1E3B26",
"%+	c #566716",
"&+	c #042F3A",
"*+	c #205A4C",
"=+	c #075062",
"-+	c #205648",
";+	c #054656",
">+	c #042D38",
",+	c #AAB109",
"'+	c #032831",
")+	c #053A47",
"!+	c #E2E605",
"~+	c #043643",
"{+	c #3B5B2B",
"]+	c #043541",
"^+	c #3B5F30",
"/+	c #216155",
"(+	c #04323D",
"_+	c #AAB20A",
":+	c #053C4A",
"<+	c #ABB50E",
"[+	c #566B1B",
"}+	c #03272F",
"|+	c #566717",
"1+	c #05404E",
"2+	c #577629",
"3+	c #8EA31B",
"4+	c #032A33",
"5+	c #576F1F",
"6+	c #053F4D",
"7+	c #032932",
"8+	c #576C1C",
"9+	c #576F20",
"0+	c #3A5827",
"a+	c #8D970C",
"b+	c #576E1F",
"c+	c #8E9F16",
"d+	c #C6CA04",
"e+	c #577628",
"f+	c #3B6A3E",
"g+	c #054352",
"h+	c #576D1E",
"i+	c #E2E302",
"j+	c #3E845D",
"k+	c #39501E",
"l+	c #8D990F",
"m+	c #555F0C",
"n+	c #39501F",
"o+	c #728215",
"p+	c #577A2E",
"q+	c #AAB108",
"r+	c #E2E504",
"s+	c #1F4431",
"t+	c #588136",
"u+	c #576D1D",
"v+	c #03242C",
"w+	c #075366",
"x+	c #5A954E",
"y+	c #738D23",
"z+	c #566514",
"A+	c #556514",
"B+	c #3B6D41",
"C+	c #3B6639",
"D+	c #8D970D",
"E+	c #556311",
"F+	c #57792C",
"G+	c #032D37",
"H+	c #587E32",
"I+	c #556110",
"J+	c #03262F",
"K+	c #55610F",
"L+	c #AAB008",
"M+	c #576F21",
"N+	c #C6C803",
"O+	c #3B693C",
"P+	c #032A34",
"Q+	c #577426",
"R+	c #577528",
"S+	c #57792D",
"T+	c #566A1A",
"U+	c #085B70",
"V+	c #577B2E",
"W+	c #0B7D99",
"X+	c #577122",
"Y+	c #042F39",
"Z+	c #59853A",
"`+	c #C6D10E",
" @	c #ACC623",
".@	c #23736A",
"+@	c #75A33D",
"@@	c #8FAD27",
"#@	c #3D784F",
". . . . . . . . . . . . . . . . . . . . . . . . . . . . . . . . . . . . . . . . . . . . . . . . . . . . . . . . . . . . . . . . . . . . . . . . . . . . ",
". . . . . . . . . . . . . . . . . . . . . . . . . . . . . . . . . . . . . . . . . . . . . . . . . . . . . . . . . . . . . . . . . . . . . . . . . . . . ",
". . . . . . . . . . . . . . . . . . . . . . . . . . . . . . . . . . . . . . . . . . . . . . . . . . . . . . . . . . . . . . . . . . . . . . . . . . . . ",
". . . . . . . . . . . . . . . . . . . . . . . . . . . . . . . . . . . . . . . . . . . . . . . . . . . . . . . . . . . . . . . . . . . . . . . . . . . . ",
". . . . . . . . . . . . . . . . . . . . . . . . . . . . . . . . . . . . . . . . . . . . . . . . . . . . . . . . . . . . . . . . . . . . . . . . . . . . ",
". . . . . . . . . . . . . . . . . . . . . . . . . . . . . . . . . . . . . . . . . . . . . . . . . . . . . . . . . . . . . . . . . . . . . . . . . . . . ",
". . . . . . . . . . . . . . . . . . . . . . . . . . . . . . . . . . . . . . . . . . . . . . . . . . . . . . . . . . . . . . . . . . . . . . . . . . . . ",
". . . . . . . . . . . . . . . . . . . . . . . . . . . . . . . . . . . . . . . . . . . . . . . . . . . . . . . . . . . . . . . . . . . . . . . . . . . . ",
". . . . . . . . . . . . . . . . . . . . . . . . . . . . . . . . . . . . . . . . . . . . . . . . . . . . . . . . . . . . . . . . . . . . . . . . . . . . ",
". . . . . . . . . . . . . . . . . . . . . . . . . . . . . . . . . . . . . . . . . . . . . . . . . . . . . . . . . . . . . . . . . . . . . . . . . . . . ",
". . . . . . . . . . . . . . . . . . . . . . . . . . . . . . . . . . . . . . . . . . . . . . . . . . . . . . . . . . . . . . . . . . . . . . . . . . . . ",
". . . . . . . . . . . . . . . . . . . . . . . . . . . . . . + + . . . . . . . . . . + + + + + . . . . . . . . . . . . . . . . . . . . . . . . . . . . . ",
". . . . . . . . . . . . . . . . . . . . . . . . . . . . + @ # $ % & & % # * = - & % ; > , ' # @ + . . . . . . . . . . . . . . . . . . . . . . . . . . . ",
". . . . . . . . . . . . . . . . . . . . . . . . . . . + ) ! ~ { ] ' ^ / ( _ , : > _ < [ } | 1 2 * - . . . . . . . . . . . . . . . . . . . . . . . . . . ",
". . . . . . . . . . . . . . . . . . . . . . . . . . . - ^ 3 4 5 6 7 8 9 0 a ~ b < c d e f g h i ] : + . . . . . . . . . . . . . . . . . . . . . . . . . ",
". . . . . . . . . . . . . . . . . . . . . . . . . . . & ! j k k l m n o k p q r s k k k k k k t u v @ . . . . . . . . . . . . . . . . . . . . . . . . . ",
". . . . . . . . . . . . . . . . . . . . . . . . . . . & v w k k x y z A k B w C D k E F G H k k I J $ + . . . . . . . . . . . . . . . . . . . . . . . . ",
". . . . . . . . . . . . . . . . . . . . . . . . . . . = v z k k k K L M k N O P k k G i Q R S k T q U - . . . . . . . . . . . . . . . . . . . . . . . . ",
". . . . . . . . . . . . . . . . . . . . . . . . . . . = V z k k W k X Y k E L Z k E `  ...{ O k k +.2 & . . . . . . . . . . . . . . . . . . . . . . . . ",
". . . . . . . . . . . . . . . . . . . . . . . . . . . = V @.k k #.x $.%.k &.*.=.k -.;.>.$ ,.'.k k ).!.& . . . . . . . . . . . . . . . . . . . . . . . . ",
". . . . . . . . . . . . . . . . . . . . . . . . . . . = v C k k ~.{.k ].k ^./.(.k E _.,.! :.<.k k +.2 & . . . . . . . . . . . . . . . . . . . . . . . . ",
". . . . . . . . . . . . . . . . . . . . . . . . . . . = v w k k /.[.}.k k &.|.[.k k 1.2.r w 3.k 4.5.U - . . . . . . . . . . . . . . . . . . . . . . . . ",
". . . . . . . . . . . . . . . . . . . . . . . . . . . & !.` k k 6.).7.k k -.w ` 4.k K 8.P 3.k k h 9.# + . . . . . . . . . . . . . . . . . . . . . . . . ",
". . . . . . . . . . . . . . . . . . . . . . . . . . . & ! 0.k k a.Q b.c.k g q d.c e.k k k k k f.[ 2 @ . . . . . . . . . . . . . . . . . . . . . . . . . ",
". . . . . . . . . . . . . . . . . . . . . . . . . . . - ^ :.0 g.h.b i.j.k.l.~ v 9.m.n.e 4.g o.p.v % + . . . . . . . . . . . . . . . . . . . . . . . . . ",
". . . . . . . . . . . . . . . . . . . . . . . . . . . + ) ! ( ( 2 # , ,.{ ,., * '  .< [ } | ~ ! % + . . . . . . . . . . . . . . . . . . . . . . . . . . ",
". . . . . . . . . . . . . . . . . . . . . . . . . . . . + @ # # @ - = * $ : = + - ) $ > , ' : = + . . . . . . . . . . . . . . . . . . . . . . . . . . . ",
". . . . . . . . . . . . . . . . . . . . . . . . . . . . . . + + . . . . + . . . . . + + + + + . . . . . . . . . . . . . . . . . . . . . . . . . . . . . ",
". . . . . . . . . . . . . . . . . . . . . . . . . . . . . . . . . . . . . . . . . . . . . . . . . . . . . . . . . . . . . . . . . . . . . . . . . . . . ",
". . . . . . . . . . . . . . . . . . . . . . . . . . . . . . . . . . . . . . . . . . . . . . . . . . . . . . . . . . . . . . . . . . . . . . . . . . . . ",
". . . . . . . . . . . . . . . . . . . . . . . . . . . . . . . . . . . . . . . . . . . . . . . . . . . . . . . . . . . . . . . . . . . . . . . . . . . . ",
". . . . . . . . . . . . . . . . . . . . . . . . . . . . . . . . . . . . . . . . . . . . . . . . . . . . . . . . . . . . . . . . . . . . . . . . . . . . ",
". . . . . . . . . . . . . . . . . . . . . . . . . . . . . . . . . . . . . . . . . . . . . . . . . . . . . . . . . . . . . . . . . . . . . . . . . . . . ",
". . . . . . . . . . . . . . . . . . . . . . . . . . . . . . . . . . . . . . . . . . . . . . . . . . . . . . . . . . . . . . . . . . . . . . . . . . . . ",
". . . . . . . + + + + + + . . . + + + + + + + . . . + + + + + + + . . + + . . . . . . . . + + . . + + + + + + + . + + . . . + + + . . + + . . . . . . . ",
". . . . . + @ $ > , , ' # @ & @ : ' , , , ' $ ) & @ : ' , , , > ; * % # $ % & - = * # * * # $ * : ^ , U , , ' # * : $ : ) % $ ^ : ) % $ ; : = + . . . . ",
". . . . + ) 2 i.n q 5.q.i./ ' r.( | 5.q 5.q.J / > r.( | 5.q i [ < _ b ( 9. .^ * ..8 7  . .1 1 ,.s.d.} q i } t.( b _ ~ 8 >.V { h.( !.V 9.:._ ' & . . . . ",
". . . . - ^ < u.4.T 4.v.I j { 3 w.x.4.4.f v.I y.1 J z.x.4.4.e A.B.C.D.E.4 F.8 2 i.G.0 H.u 4 B.;.I.p 4.4.f g J.K.D.L.g.M.D.} u.N.O.| n B.k.P.b % + . . . ",
". . . . & ! j k k k k k k Q.).a.v.k k k k k k x.R.R.v.k k k k k k S.} o.k p [ 7 ;.k k T.U.k k V.A k k k k k k W.n _.k x.C X.k k T z Y.k k Z.,.* + . . . ",
". . . . & !.b.k k `. +.+x k ++X.N k Y @+#+$+k k T.w (.k %+&+O T.R.3 < *+k D =+[ -+k D ;+O k k >+M k ,+'+)+'.R r 3 _.k !+~+{+k k x ]+^+k c./+] ) . . . . ",
". . . . = v C k k (+T. +_+k A :+<+k [+V.|.}+k k ;+@.N k |+/.Y.` } s.8 a.!+k 1+_.2+k 3+).1+k k 4+5+k ,+4+6+w 2.J 7 a.!+k 7+8+k k k 7+9+k 4.u r.& . . . . ",
". . . . = v C k k }+[.0+x k ++1+<+k a+b+9+_+k c+)._.-.k d+&.T x.g.J ] } 3+k e+[.k !+f+q g+k k 4+h+k i+_+(.v.u.j+1 0.B k k+l+k m+k n+o+k p+h.; - . . . . ",
". . . . = V @.k k q+&.r+k Q.b.T.<+k k k k k k s+;.` -.k k k k k k J >.i.t+k u+v+k 4.w+d.;+k k 7+h+k k k k k k x+( [ y+k z+_+k A+k z+_+k B+( * + . . . . ",
". . . . = V @.k k k k k C+R.d.+.N k D+b+h+$.k l w+` N k Y P T.w+| b ' b +.(.k E+k F+r ~ z k k 4+5+k ,+G+Y.R } ( v J H+k I+_+u+J+k K+L+k w+v = . . . . . ",
". . . . = v C k k }+'.2.J / b 2.(.k M+U.Y.5+k T ).b.(.k 9+@.p.:.s.! $ ..[ l k N+k O+9.8 C k k P+9+k &.O q h.~ / ..,.@.k k k Q+~+k k k R+r > - . . . . . ",
". . . . & !.` k k X.J 2 $ % ..5.4.k p+i i S+k T b.b.(.k T+[.T.=+U+i.! > i.V+k k k _.W+ .b.k k >+X+k _+Y+Y.b.;.D.] / 2.c.k k :+C S k k O+( * + . . . . . ",
". . . . & ! 0.k k j !.@ - - ' D.p k Z+3 :.Z+k `+m j v.k k k k k k  @,.'  .` k k f } ! !.0.k k V.A k k k k k k k J !.J O+k Q.a.p.B+k Q.;.v = . . . . . . ",
". . . . - ^ :.0 0 :.^ - . + : s.a g.9  .] .@4 W.t.h.w.x.4.4.f g 5 +@ .$ , < @@J.#@8 $ > 3 g.B.;.I.p 4.4.f v.N.W.1 , !.r g.G.J W+| g.G.{ ^ - . . . . . . ",
". . . . + ) ! ( ( ! ) + . . = > _ ( / ^ ; V 1 ( v >.( | 5.q i } t.8 > @ ) r.7 i.W+^ = ) ! 7 1 ,.s.d.} q q i q.9.! % * 2 s.,...; >.s.,., @ . . . . . . . ",
". . . . . + @ # # @ + . . . + = * # % & & ) # # ) ) # ' , , , , ^ : = + + @ : $ % & + + @ # # * : ^ , U U , > $ @ - - @ : * = & @ : * = + . . . . . . . ",
". . . . . . . + + . . . . . . . . . . . . . + + . . + + + + + + + + . . . . + + . . . . . + + . . + + + + + + + . . . . . . . . . . . . . . . . . . . . ",
". . . . . . . . . . . . . . . . . . . . . . . . . . . . . . . . . . . . . . . . . . . . . . . . . . . . . . . . . . . . . . . . . . . . . . . . . . . . ",
". . . . . . . . . . . . . . . . . . . . . . . . . . . . . . . . . . . . . . . . . . . . . . . . . . . . . . . . . . . . . . . . . . . . . . . . . . . . ",
". . . . . . . . . . . . . . . . . . . . . . . . . . . . . . . . . . . . . . . . . . . . . . . . . . . . . . . . . . . . . . . . . . . . . . . . . . . . ",
". . . . . . . . . . . . . . . . . . . . . . . . . . . . . . . . . . . . . . . . . . . . . . . . . . . . . . . . . . . . . . . . . . . . . . . . . . . . ",
". . . . . . . . . . . . . . . . . . . . . . . . . . . . . . . . . . . . . . . . . . . . . . . . . . . . . . . . . . . . . . . . . . . . . . . . . . . . ",
". . . . . . . . . . . . . . . . . . . . . . . . . . . . . . . . . . . . . . . . . . . . . . . . . . . . . . . . . . . . . . . . . . . . . . . . . . . . ",
". . . . . . . . . . . . . . . . . . . . . . . . . . . . . . . . . . . . . . . . . . . . . . . . . . . . . . . . . . . . . . . . . . . . . . . . . . . . ",
". . . . . . . . . . . . . . . . . . . . . . . . . . . . . . . . . . . . . . . . . . . . . . . . . . . . . . . . . . . . . . . . . . . . . . . . . . . . ",
". . . . . . . . . . . . . . . . . . . . . . . . . . . . . . . . . . . . . . . . . . . . . . . . . . . . . . . . . . . . . . . . . . . . . . . . . . . . ",
". . . . . . . . . . . . . . . . . . . . . . . . . . . . . . . . . . . . . . . . . . . . . . . . . . . . . . . . . . . . . . . . . . . . . . . . . . . . ",
". . . . . . . . . . . . . . . . . . . . . . . . . . . . . . . . . . . . . . . . . . . . . . . . . . . . . . . . . . . . . . . . . . . . . . . . . . . . ",
". . . . . . . . . . . . . . . . . . . . . . . . . . . . . . . . . . . . . . . . . . . . . . . . . . . . . . . . . . . . . . . . . . . . . . . . . . . . ",
". . . . . . . . . . . . . . . . . . . . . . . . . . . . . . . . . . . . . . . . . . . . . . . . . . . . . . . . . . . . . . . . . . . . . . . . . . . . "};
