/* XPM */
static char * pfolder_xpm[] = {
"52 45 98 2",
"  	c None",
". 	c #AAAAAA",
"+ 	c #A9A9A9",
"@ 	c #A8A8A8",
"# 	c #A7A7A7",
"$ 	c #A6A6A6",
"% 	c #A4A4A4",
"& 	c #A1A1A1",
"* 	c #9F9F9F",
"= 	c #9E9E9E",
"- 	c #9D9D9D",
"; 	c #9C9C9C",
"> 	c #A0A0A0",
", 	c #A3A3A3",
"' 	c #A5A5A5",
") 	c #242424",
"! 	c #1C2716",
"~ 	c #8D8D8D",
"{ 	c #929292",
"] 	c #989898",
"^ 	c #F2D8A5",
"/ 	c #E7CDA8",
"( 	c #828282",
"_ 	c #8E8E8E",
": 	c #999999",
"< 	c #A2A2A2",
"[ 	c #E0D19F",
"} 	c #E0C59F",
"| 	c #EACE9D",
"1 	c #EDD092",
"2 	c #656565",
"3 	c #777777",
"4 	c #898989",
"5 	c #979797",
"6 	c #D0C18F",
"7 	c #DABE8D",
"8 	c #D0B58F",
"9 	c #5C5C5C",
"0 	c #727272",
"a 	c #868686",
"b 	c #939393",
"c 	c #C0AA7F",
"d 	c #000000",
"e 	c #B3A478",
"f 	c #FBEDD4",
"g 	c #8C8C8C",
"h 	c #848484",
"i 	c #919191",
"j 	c #AC966D",
"k 	c #E8D9A7",
"l 	c #6A6A6A",
"m 	c #7E7E7E",
"n 	c #909090",
"o 	c #A29469",
"p 	c #4E4E4E",
"q 	c #686868",
"r 	c #969696",
"s 	c #383838",
"t 	c #565656",
"u 	c #8B8B8B",
"v 	c #2B2B2B",
"w 	c #4B4B4B",
"x 	c #6E6E6E",
"y 	c #252525",
"z 	c #454545",
"A 	c #8A8A8A",
"B 	c #232323",
"C 	c #434343",
"D 	c #888888",
"E 	c #222222",
"F 	c #424242",
"G 	c #E2C695",
"H 	c #D4BD9B",
"I 	c #D8C997",
"J 	c #CBB086",
"K 	c #C8B987",
"L 	c #CAAE7D",
"M 	c #B79D78",
"N 	c #262626",
"O 	c #2D2D2D",
"P 	c #6D6D6D",
"Q 	c #7D7D7D",
"R 	c #3C3C3C",
"S 	c #2C2C2C",
"T 	c #3D3D3D",
"U 	c #575757",
"V 	c #757575",
"W 	c #8F8F8F",
"X 	c #959595",
"Y 	c #818181",
"Z 	c #696969",
"` 	c #494949",
" .	c #444444",
"..	c #6B6B6B",
"+.	c #808080",
"@.	c #7C7C7C",
"#.	c #6C6C6C",
"$.	c #949494",
". . . . . . + @ @ # $ $ $ $ $ $ $ $ $ $ # @ @ + . . . . . . . . . . . . . . . . . . . . . . . . . . . . ",
". . . . . @ $ % & * = - - - ; ; - - - = = > , $ @ + . . . . . . . . . . . . . . . . . . . . . . . . . . ",
". . . + @ ' ) ! ) ) ! ) ) ! ) ) ! ) ) ! ~ { ] = , # + . . . . . . . . . . . . . . . . . . . . . . . . . ",
". . + @ % ) ^ / ^ / ^ / ^ / ^ / ^ / ^ / ) = ( _ : < $ @ + + + . . . . . . + + + + + . . . . . . . . . . ",
". + @ % ) [ } | | 1 | [ | | [ | | [ | | } ! 2 3 4 5 > % $ $ $ $ $ $ $ $ $ $ $ $ $ $ $ $ $ $ # @ @ + . . ",
". @ ' ) 6 7 7 7 8 7 8 7 7 7 7 7 8 7 7 8 7 7 ) 9 0 a b : ; ; ; - - - - ; ; ; ; ; ; ; - - - = * & % $ @ + ",
"+ $ ) c c c c c c c c c c c c c c c c c c c c d d d d d d d d d d d d d d d d d d d d d d d ~ { ] * % @ ",
"@ % d e e e e e e e e e e e e e e e e e e e d f f f f f f f f f f f f f f f f f f f f f f f ) g h i ; % ",
"# & d j j j j j j j j j j j j j j j j j j d f ^ k ^ k ^ k ^ k ^ k ^ k ^ k k k k k k k k k | k d l m n = ",
"$ = d o o o o o o o o o o o o o o o o o d f k ^ ^ k ^ k ^ k k k k k k k k ^ | ^ k ^ | ^ | k | d p q ( r ",
"$ - d o d d d d d d d d d d d d d d d d f ^ k k k k k k k ^ k ^ k ^ k | k | k | | k k | k | k d s t u n ",
"$ - d d f f f f f f f f f f f f f f f f k k k ^ k ^ k ^ k k k | | k | k | k | k | k | | | | | d v w x g ",
"$ ; d f k ^ k ^ k k k k k k k k k k k | k ^ | k | | | k | | k | k | k | | | | | | | | | | | | d y z l A ",
"$ ; d k k k k k k ^ | ^ k ^ | ^ | k | k | k k | k k | k | | | | | | | | | | | } | } | [ } [ [ d B C q D ",
"$ ; d k ^ k ^ | k | k | | k k | k | k | k | | | | | | | | | | | } | } | [ | [ [ [ [ [ [ [ | [ d E F q D ",
"$ ; d | k | | k | k | k | k | | | | | | | | | | } | | [ | } [ | [ [ [ [ [ [ } [ } [ G [ [ G [ d E F q D ",
"$ ; d k | k k | | | | | | | | | | } | | [ | } [ | [ [ [ [ [ [ [ [ } [ [ G [ [ G G [ G [ G G G d E F q D ",
"$ ; d | | | | | | | | } | } | [ | [ [ [ [ [ [ [ [ [ | [ [ G [ G [ G G [ G G G G G G G G H G H d E F q D ",
"$ ; d | | } | [ | [ } [ [ [ [ [ [ | [ } [ [ G [ G [ G G [ G G G G G G G H G H G I I I I I I I d E F q D ",
"$ ; d | [ [ [ [ [ [ [ [ } [ [ [ G [ G [ G G [ G G G G G H G G H G I G I I I I I I G I H I I I d E F q D ",
"$ ; d [ [ } [ [ G [ [ G G G G [ G G G G G G G G H G I I G I I I I I I I H I I I 7 I I 7 7 I 7 d E F q D ",
"$ ; d [ G [ G G [ G G G [ G G G H G H I G I I I I I I H I I I I I I 7 I 7 I 7 7 I 7 7 7 8 7 8 d E F q D ",
"$ ; d G G G G G H G H G I I I I I I I I I I H I I I I 7 I 7 I 7 7 I 7 7 7 8 7 8 7 8 8 6 8 6 6 d E F q D ",
"$ ; d H G I G I I I I I I G I G I I I 7 I I 7 I 7 7 I 7 7 8 7 7 8 8 7 8 8 6 8 6 6 6 6 6 6 8 6 d E F q D ",
"$ ; d I I I I I H I I I 7 I I 7 I 7 7 I 7 7 7 7 7 8 8 7 8 6 8 8 6 6 6 6 6 6 6 6 6 6 6 6 6 J 6 d E F q D ",
"$ ; d I I I 7 I 7 I 7 7 I 7 7 8 7 7 8 8 7 8 6 8 6 6 6 6 6 6 6 6 6 6 6 6 6 J 6 J 6 J J J J J J d E F q D ",
"$ ; d 7 I 7 7 7 7 8 7 8 7 8 8 6 8 6 6 6 6 6 6 6 8 6 6 6 6 6 J 6 J 6 J J 6 J J J J J J J J J J d E F q D ",
"$ ; d 7 8 8 7 8 8 6 8 6 6 6 6 6 6 6 8 6 6 6 J 6 6 J 6 J J 6 J J J J J J J J J K J J K J K K K d E F q D ",
"$ ; d 8 6 6 6 6 6 6 6 6 6 6 6 6 6 J 6 J 6 J J 6 J J J J J J J J K J J K J K K K K K K K K K K d E F q D ",
"$ ; d 6 6 6 6 6 6 J 6 J 6 J J J J J J J J J J J J J K J K J K K K K K K K K K K K K K L K L K d E F q D ",
"$ ; d 6 J 6 J J 6 J J J J J J J J J J K J K J K K K K K K K K K K K K K L K L K c K c K c c c d E F q D ",
"$ ; d J J J J J J J J K J J K J K K K K K K K K K K K K L K K L K L c K c c L c c c c c c c c d E F q D ",
"$ ; d J K J J K J K K K K K K K K K K K K L K K L K c K c K c c c c c c c c c c c c c c c c c d E F q D ",
"$ ; d K K K K K K K K K K K K L K L K L c K c c L c c c c c c c c c c c c c c c c c c c c c M d E F q D ",
"$ ; d K K K K K L K L K c K c K c c c c c c c c c c c c c c c c c c c c c c M c M M M M M M M d E F q D ",
"$ ; d L K L c K c c L c c c c c c c c c c c c c c c c c c c c M c M M M M M M M M M c e M M M d E F q D ",
"$ ; d K c c c c c c c c c c c c c c c c c c c c c c M M M M M M M M M c e M M M e M e e M e e d E F q D ",
"$ ; d c c c c c c c c c c c c c c c M M M M M M M M M M M M M M M e M e M e e e M e M e e e e d E F q D ",
"$ ; d c c c c c c c M c M M M M M M c M M c e M e M e M e e e e M e e e e e e e e e e e e e e d B C q D ",
"$ - d M c M M M M M M M M c M M M e e M e M e M e M e M e M e e e e e e e e e e e e j e j j e d N z l 4 ",
"$ = d d d d d d d d d d d d d d d d d d d d d d d d d d d d d d d d d d d d d d d d d d d d d d O w P u ",
"$ * _ Q t R S y E E E E E E E E E E E E E E E E E E E E E E E E E E E E E E E E E E E E E B y O T U V W ",
"@ < X Y Z t `  .C F F F F F F F F F F F F F F F F F F F F F F F F F F F F F F F F F F F C C z w U ..( r ",
"@ % ; W +.@.#.q q q q q q q q q q q q q q q q q q q q q q q q q q q q q q q q q q q q q q q l P m ( n - ",
"+ # , ; $._ A D D D D D D D D D D D D D D D D D D D D D D D D D D D D D D D D D D D D D 4 4 A u W r - % "};
