/* XPM */
static char * playpause_xpm[] = {
"32 12 2 1",
" 	c None",
".	c #000000",
"                                ",
"    ..           .              ",
"    ...          .   ..  ..     ",
"    ....        .    ..  ..     ",
"    .....       .    ..  ..     ",
"    ......     .     ..  ..     ",
"    ......     .     ..  ..     ",
"    .....     .      ..  ..     ",
"    ....      .      ..  ..     ",
"    ...      .       ..  ..     ",
"    ..       .                  ",
"                                "};
