/* XPM */
static char * r12_xpm[] = {
"12 12 3 1",
" 	c None",
".	c #000000",
"+	c #990000",
"    ....    ",
"  ..++++..  ",
" .++++++++. ",
" .++++++++. ",
".++++++++++.",
".++++++++++.",
".++++++++++.",
".++++++++++.",
" .++++++++. ",
" .++++++++. ",
"  ..++++..  ",
"    ....    "};
