/* XPM */
static char * symlink_xpm[] = {
"52 45 80 1",
" 	c None",
".	c #020202",
"+	c #161216",
"@	c #565656",
"#	c #868686",
"$	c #A6A6A6",
"%	c #D6B68A",
"&	c #E6D69A",
"*	c #B6B6B6",
"=	c #EACA8E",
"-	c #EEDEA2",
";	c #BABABA",
">	c #EEEEEE",
",	c #DECE92",
"'	c #D2B276",
")	c #727272",
"!	c #4E4E4E",
"~	c #D6D6D6",
"{	c #BEBEBE",
"]	c #C6C6C6",
"^	c #8A8A8A",
"/	c #F6EABE",
"(	c #C6AE7A",
"_	c #CACACA",
":	c #AA9662",
"<	c #8E8E8E",
"[	c #B2B2B2",
"}	c #3A3A3A",
"|	c #E2E2E2",
"1	c #D2D2D2",
"2	c #6A6A6A",
"3	c #929292",
"4	c #EAEAEA",
"5	c #969696",
"6	c #1A1A1A",
"7	c #DEDEDE",
"8	c #FADA9E",
"9	c #CEBE82",
"0	c #AEAEAE",
"a	c #BE9E72",
"b	c #7E7E7E",
"c	c #E2C286",
"d	c #9E9E9E",
"e	c #262626",
"f	c #CECECE",
"g	c #626262",
"h	c #F2D296",
"i	c #D6C68A",
"j	c #DADADA",
"k	c #FEFEFE",
"l	c #2E2E2E",
"m	c #AEA6AA",
"n	c #464646",
"o	c #767676",
"p	c #AAAAAA",
"q	c #C2C2C2",
"r	c #5E5E5E",
"s	c #A2A2A2",
"t	c #9A9A9A",
"u	c #323232",
"v	c #E6E6E6",
"w	c #525252",
"x	c #5A5A5A",
"y	c #828282",
"z	c #7A7A7A",
"A	c #F2F2F2",
"B	c #2A2A2A",
"C	c #222222",
"D	c #6E6E6E",
"E	c #D2B27E",
"F	c #666666",
"G	c #3E3E3E",
"H	c #B2AAAE",
"I	c #363636",
"J	c #4A4A4A",
"K	c #AAA6AA",
"L	c #B6B2B6",
"M	c #B2AEB2",
"N	c #161616",
"O	c #AEA6AE",
"       jjjjjjj~~jjj~~~~   ......   ......           ",
"     jj~1f____ff_____]q{*..4444.....77jj..          ",
"    j~[0[[0[[00[000p0$....>4v||777777|7j~..         ",
"   j~0~~~~j~~~j~~11]5..>>>4.......1j7777j~.....     ",
"  j~[~~~~1~~~~~~~f]...>A>>.8888888._1~jj~11f__...   ",
" j~[f11111111111_]*.4>>>>.--------h.]f11ff___]qq.^p ",
" j0ffffff_ff__ff];..4>A4.E'E''''E'EE..........;;..3[",
"j1$______f__ff_]q[.v>>>>.::::::::::.//////////.[;.ot",
"j1p_____]__]]__q{0.v>>>v.:........./8=8=8=8=8h.pH.ry",
"jf$]]]]]_]]__]]]{p.44>4v../////////h8-------h-.s[..2",
"j_$]$$p$$$$$$$$sd<..4>>|./8h8h8h8=8---h-h-hh=h.d0;.!",
"~f$$|7777777|777~]p.v4v|.8=---=--h-hhhhhhhhhhh.dp;..",
"~fp7j~~jj~~~~~~11qp..447.--h=-hhhh=h=h=hh&h&&&.d0;q.",
"~_$~~jj~~j~~jj~jf_*t.vv7.h=hhh=&hh&h&h&=&=c===.d0;q.",
"~_$~~~j~~~j~~~~~1f{s.|vj.&hhh&h&=&=======,=,,,.t0;q.",
"~_p~~~~~~j~~~j~~~fqp.v77.&=&=====,,=,c,,c,ccEc.d0;..",
"j_$j~~~~~~~~~~~~1fq$.|7~.=,,=,,,=ic,ccEEEEcic9.t0;.B",
"~_p~~~~~~~~1~~~11_;..77~.,ic,%cc%%%ciciiiEiE'%.d0;.e",
"~_$~~~~1~~~11~~1f]..jjj1.c%%%cicii'9%'EEEEE999.tm;.B",
"j_$~~~~~11~~~~~1_{.~jjj1.icii''''E'%999999999(.d0;.l",
"~_$1~~~~~~~~11~1_;.~~~1f.''''E99999999'%((((((.d0..}",
"jf$~111~~111~~11];..~~~_.999999'('((((((((((aa.dm.Bn",
"~f$~~~111~111111_;s..11_.......................sH.Ix",
"~_p111~1~1~~1~11_][3..f_q*0$$$$$$ssssdddtttttdsK[.G2",
"~_$~11~111111~11f_{$<.....+M******LLLLMMM00000H*;.no",
"~_$1~11111111111f_q;p5yo2g...qqqq{q{...{;;;{;;;{..Jb",
"~f$111111111111111_q;0st3#bD...]]]...J..qqqqqqq..B@^",
"j_$11f111f1ff1f11f1f]q**[pd3zF.....@g22...q]]...+ug3",
"~f$111111111111f1f1f__]]q{[s3...Jwg)y^^yo.....rx6GDd",
"~_$1111f1f11f1f1f1f11ff__]{0.>v~.x)#t$p$5^b)))bDCnz$",
"~_$1ff1f1ff1f1f1f1ff1fff_];.>k>jf.z5p*;;0$d555d#e!y0",
"~f$f11f1111f1f1ffffffff_]{*.v>4j_.bd[q]]q;*[0[*tBwy0",
"~_$ff1ffffffff1ffffff__]{*s.jjjf{.zt[q]__]]]qqqdB@#[",
"~fpfff1f1f1f1f___]]]]_{*..5#.f_q.2#s;]______]__$B@#[",
"~_p1ffffffffff_]q;**;{*.>4.z)...Fb5p;]_ff__f___$l@#[",
"~_$f1fffffff__]{...$p0.>k>j.oooz#3$*q_____f__ffpB@#[",
"~_$fffff_f_f_]{.k4j.5d.v>4~.z^<5dp*q]_f_f__f___$l@#[",
"j_$f_ff_ffff_];.4|1.#33.j~.)y5$0*;q]___________pl@#[",
"j_$f__ff_f_f_]*.~1].b353..)y5$*{q]_]__f__f_____$lx#[",
"~f$_ff__f___]q*s...o^tss5<<t$*q]___ff___f__f___$ux^[",
"~fp$$p$$$ppp$sd<b)D)b^33^^#<5dss$$$$p$p$$$$$$$$$}g<*",
"jf;t)!}llBBBBlBBeCCCeBeBBeBBBBllBBBBBlBBllBlllu}!D5;",
"j1q$^)gxx@@@@wwww!!J!www@www@w@@@@@@@@@@@@@@@@xg)<pq",
"j~f{pt<^#^#^#^#yyybyy###y####^##^^^###^##^##^^^<t$;f",
" j~_q;*[[[0[0[[00[[000[[00[00[[MMM[[[0[[0[[[[[[[;q_~"};
