/* XPM */
static char * toolcolors_xpm[] = {
"40 40 91 1",
" 	c None",
".	c #A69D8C",
"+	c #8E8678",
"@	c #8D8677",
"#	c #8D8577",
"$	c #8C8576",
"%	c #47433C",
"&	c #AAAAAA",
"*	c #393939",
"=	c #E3E3FF",
"-	c #3939FF",
";	c #0000FF",
">	c #0000F1",
",	c #000047",
"'	c #AAA18F",
")	c #B3AA98",
"!	c #46433B",
"~	c #AAAAFF",
"{	c #0000D4",
"]	c #00002A",
"^	c #8F8879",
"/	c #A09787",
"(	c #BBB29E",
"_	c #46423B",
":	c #7C7669",
"<	c #91897B",
"[	c #B4AA98",
"}	c #787265",
"|	c #8D8678",
"1	c #B3A997",
"2	c #777164",
"3	c #8C8677",
"4	c #B2A996",
"5	c #767064",
"6	c #1C1C1C",
"7	c #555555",
"8	c #FFFFFF",
"9	c #FF5555",
"0	c #551C1C",
"a	c #B1A895",
"b	c #FF0000",
"c	c #550000",
"d	c #000055",
"e	c #AAAAE3",
"f	c #0000AA",
"g	c #000039",
"h	c #FFFF8E",
"i	c #FFFF55",
"j	c #E3E355",
"k	c #39391C",
"l	c #B6AD9A",
"m	c #BDB4A0",
"n	c #8E0000",
"o	c #1C0000",
"p	c #FFFFAA",
"q	c #FFFF00",
"r	c #D4D400",
"s	c #2A2A00",
"t	c #968E7E",
"u	c #A49C8B",
"v	c #827B6E",
"w	c #958D7E",
"x	c #B6AC99",
"y	c #787266",
"z	c #8E8778",
"A	c #777165",
"B	c #E35555",
"C	c #D40000",
"D	c #470000",
"E	c #391C1C",
"F	c #2A0000",
"G	c #0E0000",
"H	c #272521",
"I	c #F1F1AA",
"J	c #7F7F00",
"K	c #A49B8B",
"L	c #8C8577",
"M	c #2F2C27",
"N	c #474739",
"O	c #0E0E00",
"P	c #B2A896",
"Q	c #AFA594",
"R	c #A39A89",
"S	c #928A7B",
"T	c #80796C",
"U	c #797366",
"V	c #B9AF9C",
"W	c #A89F8E",
"X	c #968E7F",
"Y	c #C2B8A4",
"Z	c #B7AE9B",
"                                        ",
"                                        ",
"                                        ",
"                                        ",
"           .+@###$$$$$$$$$$#            ",
"           %&&&&&&&&&&&&&&&*            ",
"           %=-;;;;;;;;;;;;>,')          ",
"           !~;;;;;;;;;;;;;{]^/(         ",
"           _~;;;;;;;;;;;;;{]:<[         ",
"           _~;;;;;;;;;;;;;{]}|1         ",
"           _~;;;;;;;;;;;;;{]234         ",
"           _~;;;;;;;;;;;;;{]534         ",
"           _~;;;;;;;;;;;;;{]534         ",
"           _~;;;;;;;;;;;;;{]534         ",
"           _~;;;;;;;;;;;;;{]534         ",
"           _~;;;;;;;;;;;;;{]534         ",
"    67777776~;;;;;;;;;;;;;{]534         ",
"    78999990~;;;;;;;;;;;;;{]5$a         ",
"    79bbbbbc~;;;;d7777777777777776      ",
"    79bbbbbceffffg8hiiiiiiiiiiiijklm    ",
"    79bbbbbncccccopqqqqqqqqqqqqqrstum   ",
"    79bbbbbbbbbbbcpqqqqqqqqqqqqqrsvwx   ",
"    79bbbbbbbbbbbcpqqqqqqqqqqqqqrsyz1   ",
"    79bbbbbbbbbbbcpqqqqqqqqqqqqqrsA@1   ",
"    79bbbbbbbbbbbcpqqqqqqqqqqqqqrs534   ",
"    79bbbbbbbbbbbcpqqqqqqqqqqqqqrs534   ",
"    79bbbbbbbbbbbcpqqqqqqqqqqqqqrs534   ",
"    79bbbbbbbbbbbcpqqqqqqqqqqqqqrs534   ",
"    79bbbbbbbbbbbcpqqqqqqqqqqqqqrs534   ",
"    79bbbbbbbbbbbcpqqqqqqqqqqqqqrs534   ",
"    7BCCCCCCCCCCCDpqqqqqqqqqqqqqrs534   ",
"    6EFFFFFFFFFFFGpqqqqqqqqqqqqqrs534   ",
"     xwv}A5555555HIrrrrrrrrrrrrrJs2@4   ",
"     mKw+3333333LMNssssssssssssssO}z1   ",
"      mx11444444PQRSTUA2555555552}vwx   ",
"                  VWX^33333333333+wKm   ",
"                   YZ)144444444441xm    ",
"                                        ",
"                                        ",
"                                        "};
