/* XPM */
static char * tooldeltrees_xpm[] = {
"40 40 340 2",
"  	c None",
". 	c #C87C6E",
"+ 	c #BF443D",
"@ 	c #BA2622",
"# 	c #B81513",
"$ 	c #D0B19D",
"% 	c #C2564D",
"& 	c #BB2E2A",
"* 	c #BB2C28",
"= 	c #B91E1B",
"- 	c #B81614",
"; 	c #B71211",
"> 	c #BF413B",
", 	c #B91F1D",
"' 	c #B71110",
") 	c #B81211",
"! 	c #BE3D37",
"~ 	c #B71412",
"{ 	c #B81312",
"] 	c #C43838",
"^ 	c #CE5959",
"/ 	c #D57272",
"( 	c #BB1A1A",
"_ 	c #CB5050",
": 	c #E3A2A2",
"< 	c #F3D6D6",
"[ 	c #F8E7E7",
"} 	c #FBF3F3",
"| 	c #BA2723",
"1 	c #BC1F1E",
"2 	c #EFC8C8",
"3 	c #FFFFFF",
"4 	c #E2E2E2",
"5 	c #C5C5C5",
"6 	c #D4D4D4",
"7 	c #CA4E4E",
"8 	c #BB1B1B",
"9 	c #BC2E2A",
"0 	c #BE2524",
"a 	c #DC8888",
"b 	c #A58A8A",
"c 	c #858383",
"d 	c #8B8B8B",
"e 	c #515151",
"f 	c #1A4818",
"g 	c #1D661A",
"h 	c #1F641C",
"i 	c #1E581B",
"j 	c #343434",
"k 	c #E5A9A9",
"l 	c #BE2424",
"m 	c #B91313",
"n 	c #BD3630",
"o 	c #E09696",
"p 	c #A79595",
"q 	c #2B1F1F",
"r 	c #194915",
"s 	c #1A3318",
"t 	c #434343",
"u 	c #192718",
"v 	c #20631C",
"w 	c #239C1D",
"x 	c #27B920",
"y 	c #2AB622",
"z 	c #28AA20",
"A 	c #21651D",
"B 	c #1B311A",
"C 	c #B89999",
"D 	c #C33232",
"E 	c #BA1515",
"F 	c #C35F55",
"G 	c #B81413",
"H 	c #D47171",
"I 	c #8C8B8B",
"J 	c #1E571A",
"K 	c #26921F",
"L 	c #24971E",
"M 	c #248D1E",
"N 	c #299122",
"O 	c #2DA724",
"P 	c #2FBF25",
"Q 	c #2DC424",
"R 	c #2EC125",
"S 	c #2EC124",
"T 	c #2DA422",
"U 	c #494716",
"V 	c #970706",
"W 	c #B61111",
"X 	c #BB1D1D",
"Y 	c #C14E46",
"Z 	c #C43A3A",
"` 	c #F2D3D3",
" .	c #8B8886",
"..	c #226F1A",
"+.	c #29AC21",
"@.	c #28B420",
"#.	c #26B11F",
"$.	c #2BAE22",
"%.	c #2FB626",
"&.	c #31C527",
"*.	c #30C926",
"=.	c #30C527",
"-.	c #31C427",
";.	c #54891D",
">.	c #95270A",
",.	c #A90904",
"'.	c #A30705",
").	c #BC5C5C",
"!.	c #F9EBEB",
"~.	c #BA2420",
"{.	c #B91817",
"].	c #DC8989",
"^.	c #FDF9F9",
"/.	c #CFCFCF",
"(.	c #2E442A",
"_.	c #25971D",
":.	c #29B721",
"<.	c #2AB822",
"[.	c #2CB423",
"}.	c #30B526",
"|.	c #31BF27",
"1.	c #2FC625",
"2.	c #2EC524",
"3.	c #46A220",
"4.	c #9C270A",
"5.	c #AB1005",
"6.	c #AA0F05",
"7.	c #86150A",
"8.	c #463131",
"9.	c #C67266",
"0.	c #C23736",
"a.	c #081707",
"b.	c #238A1D",
"c.	c #28B821",
"d.	c #2FB525",
"e.	c #2DB024",
"f.	c #2AA822",
"g.	c #2BA923",
"h.	c #2AB522",
"i.	c #2CC022",
"j.	c #4A961A",
"k.	c #992809",
"l.	c #A91206",
"m.	c #8E380D",
"n.	c #318F1E",
"o.	c #1E461A",
"p.	c #0A0A0A",
"q.	c #C04A43",
"r.	c #CF605F",
"s.	c #FDF8F8",
"t.	c #071706",
"u.	c #24851E",
"v.	c #28B521",
"w.	c #2BB022",
"x.	c #2A9C21",
"y.	c #1F581B",
"z.	c #22761C",
"A.	c #25A51E",
"B.	c #3F9B1C",
"C.	c #863F0D",
"D.	c #A80D05",
"E.	c #A81005",
"F.	c #8A3E0F",
"G.	c #479E23",
"H.	c #2FAD25",
"I.	c #24701E",
"J.	c #182318",
"K.	c #BC2D28",
"L.	c #E19A9A",
"M.	c #081706",
"N.	c #25801E",
"O.	c #29B321",
"P.	c #2EB424",
"Q.	c #2AA521",
"R.	c #1E4E1B",
"S.	c #4A3A24",
"T.	c #383A1F",
"U.	c #296A1A",
"V.	c #8B310B",
"W.	c #A80C05",
"X.	c #AE0805",
"Y.	c #961E09",
"Z.	c #488E1E",
"`.	c #33BD28",
" +	c #35B729",
".+	c #2F9F25",
"++	c #1C351A",
"@+	c #7D7D7D",
"#+	c #B81815",
"$+	c #F0CECE",
"%+	c #1E471B",
"&+	c #2D8F24",
"*+	c #30A726",
"=+	c #289920",
"-+	c #22801C",
";+	c #22701B",
">+	c #27221B",
",+	c #4F2A1C",
"'+	c #880A09",
")+	c #AA0904",
"!+	c #A90604",
"~+	c #AA140B",
"{+	c #363115",
"]+	c #299F20",
"^+	c #2FBA25",
"/+	c #37BB2B",
"(+	c #37B62B",
"_+	c #34AF28",
":+	c #F6E2E2",
"<+	c #2A9B22",
"[+	c #32A828",
"}+	c #30A225",
"|+	c #25491C",
"1+	c #29381C",
"2+	c #1D3B18",
"3+	c #361815",
"4+	c #93170E",
"5+	c #AD0906",
"6+	c #AA0404",
"7+	c #A0120B",
"8+	c #8F4823",
"9+	c #1B2D18",
"0+	c #23651C",
"a+	c #2C9323",
"b+	c #36B52A",
"c+	c #37BA2B",
"d+	c #37BC2B",
"e+	c #33A428",
"f+	c #34B029",
"g+	c #2FA225",
"h+	c #26221B",
"i+	c #554227",
"j+	c #5A3D24",
"k+	c #900F0B",
"l+	c #AE0906",
"m+	c #AB0604",
"n+	c #AC1009",
"o+	c #692416",
"p+	c #32281C",
"q+	c #181C17",
"r+	c #433D21",
"s+	c #303E1E",
"t+	c #31A727",
"u+	c #31AE26",
"v+	c #2F9D25",
"w+	c #296F23",
"x+	c #299321",
"y+	c #27911F",
"z+	c #235B1D",
"A+	c #2B1D16",
"B+	c #840A09",
"C+	c #AA0504",
"D+	c #AD0705",
"E+	c #AC0E08",
"F+	c #964321",
"G+	c #785B2E",
"H+	c #6A522A",
"I+	c #423D21",
"J+	c #255F1E",
"K+	c #27891F",
"L+	c #23751D",
"M+	c #192918",
"N+	c #7C7C7C",
"O+	c #A8A8A8",
"P+	c #182118",
"Q+	c #1C431A",
"R+	c #1C461A",
"S+	c #293819",
"T+	c #701E0F",
"U+	c #A40805",
"V+	c #A90504",
"W+	c #A40A07",
"X+	c #892E1A",
"Y+	c #866531",
"Z+	c #4E3E24",
"`+	c #1D3518",
" @	c #1C4618",
".@	c #1C3E18",
"+@	c #1C3D19",
"@@	c #1C4119",
"#@	c #192A18",
"$@	c #6E6E6E",
"%@	c #A44141",
"&@	c #B01111",
"*@	c #AC0E0E",
"=@	c #7A2014",
"-@	c #694A29",
";@	c #1A2618",
">@	c #192F17",
",@	c #182217",
"'@	c #999999",
")@	c #F0F0F0",
"!@	c #BA2320",
"~@	c #F9ECEC",
"{@	c #7D2424",
"]@	c #3C2C1E",
"^@	c #664D2B",
"/@	c #9A9A9A",
"(@	c #D3D3D3",
"_@	c #C43B3A",
":@	c #D77777",
"<@	c #BD1F1F",
"[@	c #BC1C1C",
"}@	c #872222",
"|@	c #251B18",
"1@	c #4B3B24",
"2@	c #72562D",
"3@	c #6A512A",
"4@	c #841818",
"5@	c #281717",
"6@	c #4D3D25",
"7@	c #846431",
"8@	c #554326",
"9@	c #BD3530",
"0@	c #A33131",
"a@	c #311A16",
"b@	c #5B4628",
"c@	c #6A522B",
"d@	c #765A2E",
"e@	c #332A1D",
"f@	c #E09797",
"g@	c #BB2E29",
"h@	c #B91413",
"i@	c #CA4C4C",
"j@	c #BCA7A7",
"k@	c #3E3221",
"l@	c #2E281D",
"m@	c #332B1E",
"n@	c #25211A",
"o@	c #F8E8E8",
"p@	c #C53C3C",
"q@	c #E0BABA",
"r@	c #B58E8E",
"s@	c #B81412",
"t@	c #B81313",
"u@	c #CE5A5A",
"v@	c #D57373",
"w@	c #C87B6E",
"x@	c #BA2521",
"y@	c #B71513",
"                                                                                ",
"                                                                                ",
"                                                                                ",
"                                                                                ",
"                                                                                ",
"                                . + @ # # @ + .                                 ",
"                          $ % & * = - ; ; - = * & % $                           ",
"                        > , ' ' ' ) ) ) ) ) ) ' ' ' , >                         ",
"                      ! ~ ' ; { { ] ^ / / ^ ] { { ; ' ~ !                       ",
"                    * ' ' ' ( _ : < [ } } [ < : _ ( ' ' ' *                     ",
"                  | ' ' 1 _ 2 3 3 3 4 5 5 5 5 6 3 2 7 8 ' ' |                   ",
"                9 ' ' 0 a b c d 4 d e f g h i j d 4 k l m ' ' 9                 ",
"              n ' ' m o p q r s t u v w x y z A B C D E E m ' ' n               ",
"            F , ' G H 3 I J K L M N O P Q R S T U V W X / H G ' , F             ",
"            Y ' ' Z ` 3  ...+.@.#.$.%.&.*.=.-.;.>.,.'.).!.` Z ' ' Y             ",
"            ~.' {.].^./.(._.:.<.<.[.}.|.1.2.3.4.5.6.7.8.6 ^.].{.' ~.            ",
"          9.' ' 0.` 3 a.b.c.<.d.e.f.g.h.i.j.k.5.l.m.n.o.p.3 ` 0.' ' 9.          ",
"          q.' ' r.s.3 t.u.v.c.w.x.y.z.A.B.C.D.E.F.G.H.I.J.3 s.r.' ' q.          ",
"          K.' ' L.3 3 M.N.O.P.Q.R.S.T.U.V.W.X.Y.Z.`. +.+++@+3 L.' ' K.          ",
"          #+' ' $+3 e %+&+*+=+-+;+>+,+'+)+!+~+{+]+^+/+(+_+e 3 $+' ' #+          ",
"          ; ' ' :+3 e <+[+}+|+1+2+3+4+5+6+7+8+9+0+a+b+c+d+e 3 :+' ' ;           ",
"          #+' ' $+3 e e+f+g+h+i+j+k+l+m+n+o+p+q+r+s+t+u+v+e 3 $+' ' #+          ",
"          K.' ' L.3 e w+x+y+z+A+B+C+D+E+F+G+H+H+I+J+K+L+M+N+3 L.' ' K.          ",
"          q.' ' r.s.O+P+Q+R+S+T+U+V+W+X+Y+Z+`+ @.@+@@@#@$@3 s.r.' ' q.          ",
"          9.' ' 0.` 3 5 5 5 %@&@W *@=@-@Y+Z+;@>@,@'@5 5 )@3 ` 0.' ' 9.          ",
"            !@' {.].^.3 ~@/ E E ( {@]@^@Y+Z+/@(@3 3 3 3 3 ^.].{.' !@            ",
"            Y ' ' _@` ~@:@<@E [@}@|@1@2@Y+3@Z+j 5 3 3 3 3 ` _@' ' Y             ",
"            F , ' G H / <@E E 4@5@6@2@7@Y+Y+Y+8@j e 3 3 3 H G ' , F             ",
"              9@' ' m E E E 0@a@6@b@c@d@c@c@c@c@G+e@3 } f@m ' ' 9@              ",
"                g@' ' h@E i@j@>+k@j e l@j d d $@m@n@o@a 0 ' ' g@                ",
"                  | ' ' h@p@q@5 5 (@4 5 (@3 3 )@5 r@_ 1 ' ' |                   ",
"                    * ' ' ' ( _ : < [ } } [ < : _ ( ' ' ' *                     ",
"                      ! s@' ; t@t@] u@v@v@u@] t@t@; ' s@!                       ",
"                        > , ' ' ' ) ) ) ) ) ) ' ' ' , >                         ",
"                          $ % & * = - ; ; - = * & % $                           ",
"                                w@+ x@y@y@x@+ w@                                ",
"                                                                                ",
"                                                                                ",
"                                                                                ",
"                                                                                "};
