/* XPM */
static char * tooladdseeds_xpm[] = {
"40 40 214 2",
"  	c None",
". 	c #01001D",
"+ 	c #040051",
"@ 	c #1B167F",
"# 	c #312D7F",
"$ 	c #47447F",
"% 	c #615F7F",
"& 	c #6D6C7F",
"* 	c #45445F",
"= 	c #000000",
"- 	c #02003B",
"; 	c #0700A2",
"> 	c #362CFE",
", 	c #625AFE",
"' 	c #8E88FE",
") 	c #C2BEFE",
"! 	c #DBD9FE",
"~ 	c #8B88BE",
"{ 	c #05050E",
"] 	c #151539",
"^ 	c #5454E5",
"/ 	c #252564",
"( 	c #9A89CC",
"_ 	c #9685CC",
": 	c #AC98CF",
"< 	c #9484CB",
"[ 	c #675BC4",
"} 	c #6457C3",
"| 	c #8575C8",
"1 	c #A592CE",
"2 	c #8071C8",
"3 	c #3B32BC",
"4 	c #3029BA",
"5 	c #4139BE",
"6 	c #6558C3",
"7 	c #9281CB",
"8 	c #A08ECD",
"9 	c #25212A",
"0 	c #8D88FE",
"a 	c #9482CB",
"b 	c #695BC4",
"c 	c #4139BD",
"d 	c #312ABB",
"e 	c #362EBC",
"f 	c #4D44BF",
"g 	c #685BC3",
"h 	c #8272C8",
"i 	c #A18FCD",
"j 	c #A290CD",
"k 	c #796AC6",
"l 	c #4A41BF",
"m 	c #332DBB",
"n 	c #2F28BA",
"o 	c #342DBB",
"p 	c #3F37BD",
"q 	c #6559C3",
"r 	c #9584CB",
"s 	c #9280CA",
"t 	c #7164C5",
"u 	c #4D42BF",
"v 	c #3932BC",
"w 	c #2E27BA",
"x 	c #332BBB",
"y 	c #685CC4",
"z 	c #9E8CCC",
"A 	c #8676C8",
"B 	c #564BC0",
"C 	c #332CBB",
"D 	c #2F27BA",
"E 	c #5F53C2",
"F 	c #A18ECD",
"G 	c #AA97CE",
"H 	c #7E6EC7",
"I 	c #493FBE",
"J 	c #2C24BA",
"K 	c #3D35BC",
"L 	c #7B6CC7",
"M 	c #A794CE",
"N 	c #7D6EC7",
"O 	c #3730BB",
"P 	c #6E61C5",
"Q 	c #9887CB",
"R 	c #9987CC",
"S 	c #5348C1",
"T 	c #2E28BA",
"U 	c #352EBB",
"V 	c #5449C0",
"W 	c #8777C9",
"X 	c #9281CA",
"Y 	c #A08DCC",
"Z 	c #907FCA",
"` 	c #463EBE",
" .	c #2E27B9",
"..	c #352EBC",
"+.	c #473DBE",
"@.	c #554BC1",
"#.	c #5E52C2",
"$.	c #6055C3",
"%.	c #5C51C2",
"&.	c #6E60C4",
"*.	c #9786CB",
"=.	c #A391CD",
"-.	c #6B5EC4",
";.	c #3931BC",
">.	c #3129BA",
",.	c #352DBB",
"'.	c #2D27BA",
").	c #5B4FC2",
"!.	c #9B89CC",
"~.	c #7466C6",
"{.	c #564BC1",
"].	c #554BC0",
"^.	c #5A4FC1",
"/.	c #3730BC",
"(.	c #2C26B9",
"_.	c #423ABE",
":.	c #8C7CC9",
"<.	c #9F8CCD",
"[.	c #A28FCD",
"}.	c #9382CA",
"|.	c #6659C3",
"1.	c #3E36BD",
"2.	c #2C25B9",
"3.	c #4840BF",
"4.	c #9886CB",
"5.	c #7769C6",
"6.	c #3C35BC",
"7.	c #7668C6",
"8.	c #A08DCD",
"9.	c #9785CB",
"0.	c #443CBE",
"a.	c #312ABA",
"b.	c #695CC4",
"c.	c #01001E",
"d.	c #6E6D7F",
"e.	c #8878C9",
"f.	c #3A32BC",
"g.	c #2C25BA",
"h.	c #060085",
"i.	c #3630BE",
"j.	c #827FBE",
"k.	c #202030",
"l.	c #483EBE",
"m.	c #2F29BA",
"n.	c #362FBB",
"o.	c #A693CE",
"p.	c #070090",
"q.	c #0A00D7",
"r.	c #4840FE",
"s.	c #ADA9FE",
"t.	c #9794DE",
"u.	c #28273B",
"v.	c #7667C6",
"w.	c #322BBB",
"x.	c #4037BD",
"y.	c #6256C2",
"z.	c #8C7CCA",
"A.	c #020023",
"B.	c #0800AB",
"C.	c #3A3855",
"D.	c #7F71C8",
"E.	c #4038BD",
"F.	c #3F36BD",
"G.	c #7062C5",
"H.	c #8F7ECA",
"I.	c #06007F",
"J.	c #6254C2",
"K.	c #2A23B9",
"L.	c #342DBA",
"M.	c #5348C0",
"N.	c #8374C8",
"O.	c #9F8CCC",
"P.	c #010016",
"Q.	c #02002C",
"R.	c #020021",
"S.	c #312BBB",
"T.	c #3B33BC",
"U.	c #4C42BE",
"V.	c #584DC1",
"W.	c #7A6BC6",
"X.	c #7C6CC6",
"Y.	c #7C6DC7",
"Z.	c #7C6DC6",
"`.	c #7B6DC6",
" +	c #7F70C8",
".+	c #5F5496",
"++	c #040058",
"@+	c #0800B1",
"#+	c #8B7AC9",
"$+	c #4E44C0",
"%+	c #342EBB",
"&+	c #3A33BC",
"*+	c #4039BE",
"=+	c #3E37BC",
"-+	c #2D278E",
";+	c #B6A1D0",
">+	c #6C5EC4",
",+	c #6054C2",
"'+	c #3F37BC",
")+	c #3B34BC",
"!+	c #3D36BD",
"~+	c #302A99",
"{+	c #0D095A",
"]+	c #05006A",
"^+	c #A895CE",
"/+	c #9282CA",
"(+	c #8474C8",
"_+	c #6256C3",
":+	c #5A50C2",
"<+	c #594EC1",
"[+	c #6255C2",
"}+	c #5B50C2",
"|+	c #5C50C2",
"1+	c #2A2460",
"                                                                                ",
"                                                                                ",
"                                                                                ",
"                                                                                ",
"                                                                                ",
"                                                    . + @ # $ % & & * =         ",
"                                                    - ; > , ' ) ! ! ~ =         ",
"                                { ] ] =             - ; > , ' ) ! ! ~ =         ",
"                                ] ^ ^ =             - ; > , ' ) ! ! ~ =         ",
"                                ] ^ ^ =             - ; > , ' ) ! ! ~ =         ",
"                          { ] ] / ^ ^ ] ] ] =       - ; > , ' ) ! ! ~ =         ",
"            ( _ :         ] ^ ^ ^ ^ ^ ^ ^ ^ =       - ; > , ' ) ! ! ~ =         ",
"          < [ } | 1       ] ^ ^ ^ ^ ^ ^ ^ ^ =       - ; > , ' ) ! ! ~ =         ",
"          2 3 4 5 6 7 8   9 = = ] ^ ^ = = = =       - ; > , 0 ) ! ! ~ =         ",
"          a b c d e f g h i     ] ^ ^ =             - ; > , ' ) ! ! ~ =         ",
"            j k l m n o p q r   ] ^ ^ =             - ; > , ' ) ! ! ~ =         ",
"                s t u v w x y   = = = =             - ; > , 0 ) ! ! ~ =         ",
"                  z A B C D E F                     - ; > , ' ) ! ! ~ =         ",
"                  G H I J K L                       - ; > , ' ) ! ! ~ =         ",
"                M N p n O P Q                       - ; > , ' ) ! ! ~ =         ",
"                R S T U V W ( r X a Y               - ; > , ' ) ! ! ~ =         ",
"                Z `  ...+.@.#.$.%.E &.*.            - ; > , ' ) ! ! ~ =         ",
"                =.-.;.>.n n C ,.4 '.n ).Z           - ; > , ' ) ! ! ~ =         ",
"                  !.~.E {.].^.^.l /.(._.:.          - ; > , ' ) ! ! ~ =         ",
"                      <.[.F 8 }.|.1.2.3.X           - ; > , ' ) ! ! ~ =         ",
"                            4.5.c C 6.7.8.          - ; > , ' ) ! ! ~ =         ",
"                          9.&.0.a.p b.F             c.+ @ # $ % d.d.* =         ",
"                        e.{.f.g.1.&.8.                = h.; i.j.j.k.            ",
"                      k l.m.n.l k o.                  = p.q.r.s.t.u.            ",
"                    v.I w.x.y.z.                        A.B.r.t.C.              ",
"                  D.E.w.F.G.H.                            I.r.j.=               ",
"                4.J.K.L.M.N.O.                            P.Q.R.=               ",
"                8 G.S.4 T.U.V.|.v.W.X.Y.2 h N Z.`. +h 2 .+++@+h.=               ",
"                  #+$+%+d d 4 w.f.f.T.&+p *+6.&+f.=+5 =+-+++@+h.=               ",
"                  ;+Z k >+,+M.` '+)+T.&+p *+6.&+f.=+*+!+~+{+h.]+                ",
"                      ^+z /+(+t _+:+<+^.E [+}+<+<+#.y.|+{.1+=                   ",
"                                                                                ",
"                                                                                ",
"                                                                                ",
"                                                                                "};
