/* XPM */
static char * toollight_xpm[] = {
"40 40 400 2",
"  	c None",
". 	c #A09A8F",
"+ 	c #000000",
"@ 	c #969187",
"# 	c #999389",
"$ 	c #A49E92",
"% 	c #A6A195",
"& 	c #A7A296",
"* 	c #AEA695",
"= 	c #BEB5A0",
"- 	c #D0C6AD",
"; 	c #D9CEB4",
"> 	c #DCD1B9",
", 	c #DED4BC",
"' 	c #D4CBB7",
") 	c #C5BEAE",
"! 	c #959087",
"~ 	c #9F9889",
"{ 	c #C4B8A0",
"] 	c #D0C3A6",
"^ 	c #D8CBA7",
"/ 	c #DDD0A8",
"( 	c #E0D3AC",
"_ 	c #E4D7B0",
": 	c #E5DAB5",
"< 	c #E5DBBA",
"[ 	c #E5DBC1",
"} 	c #DFD6C2",
"| 	c #D1CBBB",
"1 	c #979187",
"2 	c #BEB199",
"3 	c #CDBF9F",
"4 	c #D4C59C",
"5 	c #DCCC9A",
"6 	c #E3D299",
"7 	c #E7D79B",
"8 	c #EADB9F",
"9 	c #EEE0A4",
"0 	c #EFE2AA",
"a 	c #EFE4B1",
"b 	c #EFE4B9",
"c 	c #EDE3C0",
"d 	c #EAE1C7",
"e 	c #E6DECA",
"f 	c #C6C0B2",
"g 	c #B8AC93",
"h 	c #CABB9A",
"i 	c #D4C394",
"j 	c #DCCA90",
"k 	c #E3D08F",
"l 	c #EAD88F",
"m 	c #EDDC92",
"n 	c #F0E096",
"o 	c #F3E59C",
"p 	c #F4E7A4",
"q 	c #F5E9AB",
"r 	c #F5EAB4",
"s 	c #F3E9BC",
"t 	c #F0E7C2",
"u 	c #EBE3C7",
"v 	c #C5BFB1",
"w 	c #9F9684",
"x 	c #C6B797",
"y 	c #D0BF91",
"z 	c #DAC789",
"A 	c #E3CE86",
"B 	c #E9D585",
"C 	c #EFDB87",
"D 	c #F2E089",
"E 	c #F5E48E",
"F 	c #F6E995",
"G 	c #F8EB9D",
"H 	c #F8EEA5",
"I 	c #F9F0B0",
"J 	c #F8EFB8",
"K 	c #F5ECBE",
"L 	c #F0E7C3",
"M 	c #EAE2C7",
"N 	c #E4DCC9",
"O 	c #938E87",
"P 	c #C2B293",
"Q 	c #CAB98E",
"R 	c #D6C285",
"S 	c #E0CC7F",
"T 	c #E8D27C",
"U 	c #EFD87C",
"V 	c #F3DE7D",
"W 	c #F6E37F",
"X 	c #F8E784",
"Y 	c #FBEB8C",
"Z 	c #FBEF94",
"` 	c #FBF29E",
" .	c #FCF5AC",
"..	c #FCF5B4",
"+.	c #F9F1B8",
"@.	c #F4EBBC",
"#.	c #EEE5C1",
"$.	c #E7DEC5",
"%.	c #BEB7AA",
"&.	c #9F9682",
"*.	c #C3B38F",
"=.	c #CEBB85",
"-.	c #DAC47D",
";.	c #E5CD77",
">.	c #ECD475",
",.	c #F2DA74",
"'.	c #F7E075",
").	c #F9E577",
"!.	c #FBE87C",
"~.	c #FCED84",
"{.	c #FCF08C",
"].	c #FDF396",
"^.	c #FDF6A4",
"/.	c #FDF6AE",
"(.	c #FBF3B2",
"_.	c #F5EDB5",
":.	c #F0E6BA",
"<.	c #E9DFC0",
"[.	c #D6CDBC",
"}.	c #9C978E",
"|.	c #B2A58B",
"1.	c #C6B489",
"2.	c #D2BD7E",
"3.	c #DDC576",
"4.	c #E8CE71",
"5.	c #EFD671",
"6.	c #F5DF7B",
"7.	c #FAE585",
"8.	c #FCEA8A",
"9.	c #FDED8E",
"0.	c #FDF194",
"a.	c #FEF39B",
"b.	c #FEF4A1",
"c.	c #FEF5A1",
"d.	c #FCF4A2",
"e.	c #FAF1A8",
"f.	c #F6EBAE",
"g.	c #F1E6B3",
"h.	c #EAE0B9",
"i.	c #DFD5BF",
"j.	c #B7B1A3",
"k.	c #B7AA8E",
"l.	c #C8B482",
"m.	c #D5BD78",
"n.	c #DFC670",
"o.	c #ECD47A",
"p.	c #F8E8A5",
"q.	c #FDF1BD",
"r.	c #FEF6CE",
"s.	c #FFF8D5",
"t.	c #FFF9DA",
"u.	c #FFFADE",
"v.	c #FFFAE2",
"w.	c #FFFBE2",
"x.	c #FEF9D5",
"y.	c #FDF4B5",
"z.	c #FAEE9E",
"A.	c #F6EAA4",
"B.	c #F1E4AA",
"C.	c #EADEB1",
"D.	c #E0D6BB",
"E.	c #C1BAAA",
"F.	c #B8AA8E",
"G.	c #C8B47F",
"H.	c #D5BD74",
"I.	c #E0C66C",
"J.	c #F1DD90",
"K.	c #FEF3C5",
"L.	c #FFF3C0",
"M.	c #FFF3BD",
"N.	c #FFF4BE",
"O.	c #FFF5C1",
"P.	c #FFF7CA",
"Q.	c #FFF8D2",
"R.	c #FFF9D8",
"S.	c #FEF8D5",
"T.	c #F9EDA0",
"U.	c #F5E79C",
"V.	c #F0E2A4",
"W.	c #E9DCAC",
"X.	c #DED4B8",
"Y.	c #C0B8A8",
"Z.	c #C8B47E",
"`.	c #D4BC72",
" +	c #E0C56A",
".+	c #EFD884",
"++	c #FDF3C6",
"@+	c #FFF4C2",
"#+	c #FFF4BD",
"$+	c #FFF4BF",
"%+	c #FFF6CA",
"&+	c #FFF7D2",
"*+	c #FCF4C3",
"=+	c #F8E992",
"-+	c #F3E496",
";+	c #EEDF9E",
">+	c #E7D9A8",
",+	c #DCD1B4",
"'+	c #BFB6A6",
")+	c #9C9380",
"!+	c #C6B380",
"~+	c #D2B971",
"{+	c #DDC268",
"]+	c #E7CA62",
"^+	c #F0D674",
"/+	c #F4E3A0",
"(+	c #F9EAA9",
"_+	c #FEEEAC",
":+	c #FEEFAF",
"<+	c #FEF2B3",
"[+	c #FEF2B6",
"}+	c #FDF0AF",
"|+	c #F6E690",
"1+	c #F7E57F",
"2+	c #F5E386",
"3+	c #F0DE90",
"4+	c #EADA99",
"5+	c #E3D4A3",
"6+	c #CEC4A9",
"7+	c #928D84",
"8+	c #878278",
"9+	c #C3B185",
"0+	c #CEB774",
"a+	c #D9BE69",
"b+	c #E4C762",
"c+	c #EBCC5E",
"d+	c #E7CA56",
"e+	c #EBCE54",
"f+	c #F8DB5D",
"g+	c #FBDF62",
"h+	c #FCE261",
"i+	c #FBE266",
"j+	c #F6DF68",
"k+	c #EFDA6B",
"l+	c #F4E07A",
"m+	c #F2DE83",
"n+	c #ECDA8D",
"o+	c #E7D697",
"p+	c #DFD0A0",
"q+	c #BAB19C",
"r+	c #949086",
"s+	c #A89B7D",
"t+	c #CAB479",
"u+	c #D4BA6C",
"v+	c #E0C364",
"w+	c #E7CA5F",
"x+	c #EACD5A",
"y+	c #E3C652",
"z+	c #F1D459",
"A+	c #F8DA5D",
"B+	c #F9DC61",
"C+	c #F6DC64",
"D+	c #EBD361",
"E+	c #F0D86D",
"F+	c #F2DB79",
"G+	c #EED982",
"H+	c #E8D48C",
"I+	c #E1D096",
"J+	c #D9CAA1",
"K+	c #938E83",
"L+	c #B9B1A0",
"M+	c #BDAC7F",
"N+	c #CDB673",
"O+	c #D8BD67",
"P+	c #E0C362",
"Q+	c #E7C95F",
"R+	c #DCC054",
"S+	c #DDC253",
"T+	c #F0D25D",
"U+	c #F4D762",
"V+	c #EDD262",
"W+	c #E2CA61",
"X+	c #EED671",
"Y+	c #ECD579",
"Z+	c #E8D282",
"`+	c #E0CE8C",
" @	c #D9C997",
".@	c #C2B799",
"+@	c #908874",
"@@	c #BEAB79",
"#@	c #D0B76E",
"$@	c #E0C363",
"%@	c #DEC15C",
"&@	c #CAB050",
"*@	c #DEC25A",
"=@	c #E7CC61",
"-@	c #D6BE5B",
";@	c #D4BD5F",
">@	c #E8D074",
",@	c #E5CE7B",
"'@	c #E0CB84",
")@	c #D8C68F",
"!@	c #BCAF8D",
"~@	c #918872",
"{@	c #C4B179",
"]@	c #CFB770",
"^@	c #D6BC69",
"/@	c #D3B961",
"(@	c #B19D4E",
"_@	c #B8A453",
":@	c #BFAB59",
"<@	c #B5A355",
"[@	c #C1AC5E",
"}@	c #E0C878",
"|@	c #DDC77F",
"1@	c #D7C489",
"2@	c #BBAE89",
"3@	c #938A75",
"4@	c #C1AF7F",
"5@	c #CAB477",
"6@	c #C3AD69",
"7@	c #A8985E",
"8@	c #C4B676",
"9@	c #CDBD7D",
"0@	c #BCAE73",
"a@	c #B09F66",
"b@	c #D4BF7F",
"c@	c #CFBD88",
"d@	c #C8B890",
"e@	c #928B7D",
"f@	c #AB9E83",
"g@	c #C1B088",
"h@	c #B6A577",
"i@	c #948A67",
"j@	c #B4AB85",
"k@	c #BCB38B",
"l@	c #A8A07D",
"m@	c #9A8F6A",
"n@	c #C7B68A",
"o@	c #C2B28F",
"p@	c #A09783",
"q@	c #BEAF90",
"r@	c #ADA083",
"s@	c #848073",
"t@	c #A5A39A",
"u@	c #ADAAA1",
"v@	c #97958D",
"w@	c #898270",
"x@	c #BFB090",
"y@	c #B9AB8F",
"z@	c #BDAE90",
"A@	c #AC9F86",
"B@	c #807E77",
"C@	c #A2A2A2",
"D@	c #A9A9A9",
"E@	c #939392",
"F@	c #857E71",
"G@	c #BEAF91",
"H@	c #B5A78C",
"I@	c #B2A48B",
"J@	c #A1957E",
"K@	c #7B7873",
"L@	c #AAA9A8",
"M@	c #96948E",
"N@	c #7B7569",
"O@	c #B8AA8D",
"P@	c #A09682",
"Q@	c #AA9F87",
"R@	c #847D6E",
"S@	c #7C7C7B",
"T@	c #A5A5A5",
"U@	c #9D9D9B",
"V@	c #6B6967",
"W@	c #A79A82",
"X@	c #978F7F",
"Y@	c #858482",
"Z@	c #868583",
"`@	c #848483",
" #	c #878787",
".#	c #8A8A8A",
"+#	c #8C8C8C",
"@#	c #8D8D8D",
"##	c #898989",
"$#	c #8C8B89",
"%#	c #8D8C8B",
"&#	c #9C9C9C",
"*#	c #9F9F9F",
"=#	c #A6A6A6",
"-#	c #3F3F3F",
";#	c #8B8B8B",
">#	c #9D9D9D",
",#	c #A3A3A3",
"'#	c #949494",
")#	c #989898",
"!#	c #A0A0A0",
"~#	c #A7A7A7",
"{#	c #ACACAC",
"]#	c #94908A",
"^#	c #929292",
"/#	c #969696",
"(#	c #979797",
"_#	c #9A9A9A",
":#	c #808080",
"<#	c #858585",
"[#	c #AAAAAA",
"}#	c #959595",
"|#	c #A29B90",
"1#	c #959086",
"2#	c #9A958C",
"3#	c #9A968C",
"                                                                                ",
"                                                                                ",
"                                                                                ",
"                                  . + + + + .                                   ",
"                            . @ + + # $ % & + + . .                             ",
"                          . + + * = - ; > , ' ) + + !                           ",
"                        @ + ~ { ] ^ / ( _ : < [ } | + + .                       ",
"                      1 + 2 3 4 5 6 7 8 9 0 a b c d e f + .                     ",
"                    . + g h i j k l m n o p q r s t u e v + .                   ",
"                  . + w x y z A B C D E F G H I J K L M N O +                   ",
"                  ! + P Q R S T U V W X Y Z `  ...+.@.#.$.%.+ .                 ",
"                  + &.*.=.-.;.>.,.'.).!.~.{.].^./.(._.:.<.[.}.+                 ",
"                  + |.1.2.3.4.5.6.7.8.9.0.a.b.c.d.e.f.g.h.i.j.+                 ",
"                  + k.l.m.n.o.p.q.r.s.t.u.v.w.x.y.z.A.B.C.D.E.+                 ",
"                  + F.G.H.I.J.K.L.M.N.O.P.Q.R.w.S.T.U.V.W.X.Y.+                 ",
"                  + F.Z.`. +.+++@+N.#+$+%+&+R.v.*+=+-+;+>+,+'++                 ",
"                  + )+!+~+{+]+^+/+(+_+:+<+[+}+|+1+2+3+4+5+6+7++                 ",
"                  + 8+9+0+a+b+c+d+e+f+g+h+i+j+k+l+m+n+o+p+q+r++                 ",
"                  . + s+t+u+v+w+x+y+z+A+B+C+D+E+F+G+H+I+J+K++ .                 ",
"                    L++ M+N+O+P+Q+R+S+T+U+V+W+X+Y+Z+`+ @.@+ .                   ",
"                      + +@@@#@O+$@%@&@*@=@-@;@>@,@'@)@!@+ .                     ",
"                      . + ~@{@]@^@/@(@_@:@<@[@}@|@1@2@+ .                       ",
"                        . + 3@4@5@6@7@8@9@0@a@b@c@d@e@+                         ",
"                          . + f@g@h@i@j@k@l@m@n@o@p@+ .                         ",
"                            . + q@r@s@t@u@v@w@x@y@+ .                           ",
"                              + z@A@B@C@D@E@F@G@H@+                             ",
"                              + I@J@K@C@L@M@N@O@P@+                             ",
"                              + Q@R@S@T@D@U@V@W@X@+                             ",
"                              + + + + + + + + + + +                             ",
"                            + Y@Z@`@ #.#+#@###$#%#+                             ",
"                            O + &#&#&#*#C@=#=#-#-#-#+                           ",
"                              + ;#;#-#-#-#-#-#>#C@,#+                           ",
"                            + -#-#-#'#)#>#*#!#~#{#+ ]#                          ",
"                              + ^#/#)#(#_#>#!#-#-#-#+                           ",
"                              + :#<#-#-#-#-#-#=#{#[#+                           ",
"                            + + + -###}#*#!#)#+ + + |#                          ",
"                              1#2#+ + + + + + 3#!                               ",
"                                                                                ",
"                                                                                ",
"                                                                                "};
