/* XPM */
static char * tooloverlay_xpm[] = {
"40 40 565 2",
"  	c None",
". 	c #978F80",
"+ 	c #716A53",
"@ 	c #C3B94B",
"# 	c #DACF4B",
"$ 	c #CDC24B",
"% 	c #7E7756",
"& 	c #A59C8B",
"* 	c #91894B",
"= 	c #EDE14B",
"- 	c #B5AC4B",
"; 	c #999181",
"> 	c #767064",
", 	c #EDE14D",
"' 	c #F1E76E",
") 	c #F6EFA2",
"! 	c #F7F2B3",
"~ 	c #F7F2B2",
"{ 	c #F2EA81",
"] 	c #EDE14E",
"^ 	c #6A655A",
"/ 	c #807A69",
"( 	c #A59D4B",
"_ 	c #EEE251",
": 	c #F6F0A4",
"< 	c #FCFAE1",
"[ 	c #FBF8D5",
"} 	c #FAF6CC",
"| 	c #FEFDF4",
"1 	c #FBF8D7",
"2 	c #F0E564",
"3 	c #A89F4B",
"4 	c #91897B",
"5 	c #867F52",
"6 	c #F6F0A7",
"7 	c #FCF9E0",
"8 	c #F3EB8C",
"9 	c #EFE45D",
"0 	c #FAF6CE",
"a 	c #FDFBE9",
"b 	c #F1E66E",
"c 	c #756E4B",
"d 	c #878072",
"e 	c #CFC44B",
"f 	c #F3EA84",
"g 	c #FEFDF2",
"h 	c #F4EC90",
"i 	c #EDE24F",
"j 	c #F2E879",
"k 	c #F2E97A",
"l 	c #B1A84B",
"m 	c #9D9584",
"n 	c #87804B",
"o 	c #E6DA4B",
"p 	c #EFE45C",
"q 	c #FAF7D0",
"r 	c #FAF7CE",
"s 	c #EEE35B",
"t 	c #7F785B",
"u 	c #7F7865",
"v 	c #BFB54B",
"w 	c #F3EB8A",
"x 	c #FDFCEF",
"y 	c #F4EC8F",
"z 	c #F3EB89",
"A 	c #F0E76D",
"B 	c #A39A4B",
"C 	c #958D7E",
"D 	c #7F7852",
"E 	c #EADE48",
"F 	c #E5D944",
"G 	c #F3EDA7",
"H 	c #FEFCF4",
"I 	c #EFE785",
"J 	c #E6DA48",
"K 	c #EBE059",
"L 	c #F8F4BE",
"M 	c #F8F5DE",
"N 	c #E9E06F",
"O 	c #D7CC44",
"P 	c #666046",
"Q 	c #80796C",
"R 	c #C8BE4B",
"S 	c #C1B726",
"T 	c #B0A832",
"U 	c #B1A93B",
"V 	c #DAD6A3",
"W 	c #FCFCF8",
"X 	c #EAE8C4",
"Y 	c #D9D594",
"Z 	c #EDEBCC",
"` 	c #EEECDA",
" .	c #C5C074",
"..	c #706C3B",
"+.	c #323265",
"@.	c #46468F",
"#.	c #494653",
"$.	c #AFA694",
"%.	c #8A824B",
"&.	c #E8DD4B",
"*.	c #E3D743",
"=.	c #B0A72E",
"-.	c #B5AE5F",
";.	c #B5AE61",
">.	c #BDB672",
",.	c #DCD9B5",
"'.	c #ECEBD7",
").	c #EAE8D2",
"!.	c #D2CD9F",
"~.	c #BAB36C",
"{.	c #B5AE62",
"].	c #A7A161",
"^.	c #424170",
"/.	c #4C4FE1",
"(.	c #4F52E9",
"_.	c #494AAE",
":.	c #68635E",
"<.	c #CAC04B",
"[.	c #C5BB29",
"}.	c #B3AC4F",
"|.	c #BAB361",
"1.	c #C0B961",
"2.	c #B9B261",
"3.	c #7D7961",
"4.	c #393BA7",
"5.	c #41405E",
"6.	c #B6AC4B",
"7.	c #CEC331",
"8.	c #AFA627",
"9.	c #BCB561",
"0.	c #D5CD61",
"a.	c #D8D061",
"b.	c #D7CF61",
"c.	c #D0C961",
"d.	c #B7B061",
"e.	c #272974",
"f.	c #484BD4",
"g.	c #4B4CBF",
"h.	c #D6CC48",
"i.	c #A39B29",
"j.	c #A29C5A",
"k.	c #A29C61",
"l.	c #A49E61",
"m.	c #B7B161",
"n.	c #C3BC61",
"o.	c #B3AD61",
"p.	c #ABA561",
"q.	c #B8B261",
"r.	c #C5BE61",
"s.	c #A39E61",
"t.	c #696661",
"u.	c #36389F",
"v.	c #4E51E3",
"w.	c #43426F",
"x.	c #615C52",
"y.	c #34357D",
"z.	c #383AA5",
"A.	c #4B4CA5",
"B.	c #7271A5",
"C.	c #5D5DA5",
"D.	c #3B3CA5",
"E.	c #4849A5",
"F.	c #6D6CA5",
"G.	c #6464A5",
"H.	c #3F41A5",
"I.	c #4A4CBC",
"J.	c #6D675C",
"K.	c #4D50D8",
"L.	c #5659E9",
"M.	c #8B8CE9",
"N.	c #A3A2E9",
"O.	c #9E9DE9",
"P.	c #9998E9",
"Q.	c #9C9CE9",
"R.	c #9C9BE9",
"S.	c #5E60E9",
"T.	c #4A4861",
"U.	c #AAA290",
"V.	c #7172E9",
"W.	c #9E9EE9",
"X.	c #8A8BE9",
"Y.	c #7071E9",
"Z.	c #7374E9",
"`.	c #9F9EE9",
" +	c #9B9BE9",
".+	c #5A5CE9",
"++	c #494AB0",
"@+	c #645F5C",
"#+	c #57535F",
"$+	c #292EC9",
"%+	c #2619B5",
"&+	c #2D1AB5",
"*+	c #3521B5",
"=+	c #745FB5",
"-+	c #755FB5",
";+	c #3925B5",
">+	c #3E2AB5",
",+	c #816BB5",
"'+	c #6A57B6",
")+	c #2D2BBF",
"!+	c #2D2CC2",
"~+	c #2D26B9",
"{+	c #2D27B9",
"]+	c #2D28BA",
"^+	c #2D2ABD",
"/+	c #2D2DC2",
"(+	c #2D22B8",
"_+	c #2C19AD",
":+	c #210A39",
"<+	c #570900",
"[+	c #600A00",
"}+	c #600900",
"|+	c #220C08",
"1+	c #928B7C",
"2+	c #90897A",
"3+	c #48489F",
"4+	c #4A4DE5",
"5+	c #561EB5",
"6+	c #5B1EB5",
"7+	c #5D20B5",
"8+	c #8244B5",
"9+	c #AF6FB5",
"0+	c #8D4FB5",
"a+	c #672EB7",
"b+	c #6F38B6",
"c+	c #9B75C1",
"d+	c #A984C5",
"e+	c #7241B7",
"f+	c #5B32BC",
"g+	c #5B30BE",
"h+	c #5B2CB9",
"i+	c #5B2DB9",
"j+	c #5B2DBA",
"k+	c #5B35C0",
"l+	c #5B42CA",
"m+	c #5B32BD",
"n+	c #581E92",
"o+	c #8E0E00",
"p+	c #F91900",
"q+	c #FF1900",
"r+	c #B71200",
"s+	c #3B2B25",
"t+	c #403F56",
"u+	c #4D4FD2",
"v+	c #282DC8",
"w+	c #441CB5",
"x+	c #5B1FB5",
"y+	c #6D30B5",
"z+	c #A46AB6",
"A+	c #AF82BC",
"B+	c #AF7AB7",
"C+	c #AF83BC",
"D+	c #AD78B7",
"E+	c #956DBF",
"F+	c #6C49C6",
"G+	c #5C3FCF",
"H+	c #5B46D7",
"I+	c #5B44CD",
"J+	c #5B49CF",
"K+	c #5B4ED9",
"L+	c #5B4ED6",
"M+	c #5B41D1",
"N+	c #5B2CBA",
"O+	c #5B24B6",
"P+	c #5B42C7",
"Q+	c #5A323E",
"R+	c #D21F02",
"S+	c #FF1B00",
"T+	c #500800",
"U+	c #A09887",
"V+	c #746E62",
"W+	c #474794",
"X+	c #383CD5",
"Y+	c #201BB7",
"Z+	c #5B20B5",
"`+	c #5B21B5",
" @	c #5B28B8",
".@	c #5E32B9",
"+@	c #6535B8",
"@@	c #6536B9",
"#@	c #653DC3",
"$@	c #6553D3",
"%@	c #655BE0",
"&@	c #5F54D5",
"*@	c #5B5BED",
"=@	c #5B5FF9",
"-@	c #5B5DF5",
";@	c #5B5EF7",
">@	c #5B5DF3",
",@	c #5B5FFA",
"'@	c #5B55E7",
")@	c #5B39BE",
"!@	c #551D7B",
"~@	c #7D3F18",
"{@	c #FF5815",
"]@	c #FF2201",
"^@	c #D71C01",
"/@	c #46423B",
"(@	c #44437B",
"_@	c #2420BC",
":@	c #511FB5",
"<@	c #5B27B7",
"[@	c #5B34BB",
"}@	c #5B39CB",
"|@	c #5B48D0",
"1@	c #5B5CF2",
"2@	c #5B5BEF",
"3@	c #5B59EB",
"4@	c #5B60FC",
"5@	c #5B5FFB",
"6@	c #5B60FD",
"7@	c #5B61FD",
"8@	c #5B61FE",
"9@	c #5B50DA",
"0@	c #5B51DB",
"a@	c #4E152B",
"b@	c #D23C0B",
"c@	c #FF6F1D",
"d@	c #FF2802",
"e@	c #600E00",
"f@	c #A39B8A",
"g@	c #524E55",
"h@	c #3035CF",
"i@	c #351CB5",
"j@	c #5B2EBB",
"k@	c #5B31BA",
"l@	c #5B3BC7",
"m@	c #5B49CE",
"n@	c #5B52D7",
"o@	c #5B5EF6",
"p@	c #5B5BEE",
"q@	c #5750B7",
"r@	c #8E2304",
"s@	c #FF2A02",
"t@	c #FF6818",
"u@	c #BF2906",
"v@	c #322F2A",
"w@	c #A59D8C",
"x@	c #565253",
"y@	c #555271",
"z@	c #4C4A6A",
"A@	c #1C1737",
"B@	c #5D2F3A",
"C@	c #652333",
"D@	c #652A3A",
"E@	c #654A5A",
"F@	c #655C71",
"G@	c #65607D",
"H@	c #656181",
"I@	c #656487",
"J@	c #656488",
"K@	c #656489",
"L@	c #65658A",
"M@	c #655F7D",
"N@	c #65464F",
"O@	c #65444C",
"P@	c #65658B",
"Q@	c #655F7B",
"R@	c #625A5C",
"S@	c #E38E44",
"T@	c #FF370A",
"U@	c #FF5D16",
"V@	c #4E1F0B",
"W@	c #8F8879",
"X@	c #787265",
"Y@	c #804C16",
"Z@	c #FF5D13",
"`@	c #FF7635",
" #	c #FFCC91",
".#	c #FFDA9C",
"+#	c #FFE0AB",
"@#	c #FFF6E8",
"##	c #FFF9F0",
"$#	c #FFF8EC",
"%#	c #FFF6E6",
"&#	c #FFF7EB",
"*#	c #FFFAF2",
"=#	c #FFFAF3",
"-#	c #FFFBF3",
";#	c #FFCB8E",
">#	c #FF8C27",
",#	c #FF7A1D",
"'#	c #FFC38E",
")#	c #FFD49D",
"!#	c #FFEDD2",
"~#	c #FFF5E6",
"{#	c #FFF9EF",
"]#	c #FFEDCF",
"^#	c #FF592C",
"/#	c #BF5013",
"(#	c #453C30",
"_#	c #453426",
":#	c #EF4B0F",
"<#	c #FF8028",
"[#	c #FFC063",
"}#	c #FFC26F",
"|#	c #FFDB9F",
"1#	c #FFF4DF",
"2#	c #FFEED2",
"3#	c #FFEED1",
"4#	c #FFF3E1",
"5#	c #FFF5E4",
"6#	c #FFEBCA",
"7#	c #FFD390",
"8#	c #FFE4C2",
"9#	c #FFDDB7",
"0#	c #FFE0B9",
"a#	c #FFE9C8",
"b#	c #FFF0D7",
"c#	c #FFF3DE",
"d#	c #FFEAC6",
"e#	c #FFB175",
"f#	c #F75116",
"g#	c #603711",
"h#	c #AAA18F",
"i#	c #857E70",
"j#	c #852907",
"k#	c #FF3204",
"l#	c #FFB975",
"m#	c #FFDDA5",
"n#	c #FFE7C0",
"o#	c #FFE6BD",
"p#	c #FFE4B9",
"q#	c #FFF4E4",
"r#	c #FFEBCB",
"s#	c #FFE6BC",
"t#	c #FFE1AD",
"u#	c #FFE4B5",
"v#	c #FFE1AF",
"w#	c #FFE0AD",
"x#	c #FFD896",
"y#	c #FFD489",
"z#	c #FFDDA3",
"A#	c #FFDEA6",
"B#	c #FFDC9F",
"C#	c #FFCA7B",
"D#	c #FF9154",
"E#	c #FF420B",
"F#	c #DF4A0F",
"G#	c #433F38",
"H#	c #271708",
"I#	c #D9641A",
"J#	c #FF3608",
"K#	c #FF4009",
"L#	c #FF5C13",
"M#	c #FF9E53",
"N#	c #FFB26A",
"O#	c #FFB76E",
"P#	c #FFB75A",
"Q#	c #FFC97A",
"R#	c #FFD288",
"S#	c #FFC96F",
"T#	c #FFCE7B",
"U#	c #FFCB7A",
"V#	c #FFD69C",
"W#	c #FFD182",
"X#	c #FFDDA2",
"Y#	c #FFE2B1",
"Z#	c #FFE1AE",
"`#	c #FFE6BF",
" $	c #FFDCA1",
".$	c #FFAE60",
"+$	c #FF4A0E",
"@$	c #FF3D07",
"#$	c #FF490B",
"$$	c #4A1A0B",
"%$	c #676257",
"&$	c #741C04",
"*$	c #FF6115",
"=$	c #FF731C",
"-$	c #FF530D",
";$	c #FF4007",
">$	c #FF7F38",
",$	c #FF6E29",
"'$	c #FF5A11",
")$	c #FF892F",
"!$	c #FFC472",
"~$	c #FFC667",
"{$	c #FFBC62",
"]$	c #FF8536",
"^$	c #FF4F16",
"/$	c #FF903C",
"($	c #FFE3B4",
"_$	c #FFEED3",
":$	c #FFF2DC",
"<$	c #FFE7BE",
"[$	c #FFCF8B",
"}$	c #FFB168",
"|$	c #FF551A",
"1$	c #FF6218",
"2$	c #B72305",
"3$	c #500900",
"4$	c #FF1F01",
"5$	c #FF7523",
"6$	c #FF8631",
"7$	c #FF4C0C",
"8$	c #FF6C20",
"9$	c #FF5910",
"0$	c #FF3D08",
"a$	c #FF4609",
"b$	c #FF721F",
"c$	c #FF993B",
"d$	c #FF7D2F",
"e$	c #FF521B",
"f$	c #FF3807",
"g$	c #FFA049",
"h$	c #FFD48A",
"i$	c #FFEAC8",
"j$	c #FFE0AC",
"k$	c #FFA85D",
"l$	c #FF802F",
"m$	c #FF6314",
"n$	c #FF731E",
"o$	c #FF2A03",
"p$	c #500600",
"q$	c #B81B01",
"r$	c #FF2F04",
"s$	c #FF6B23",
"t$	c #FFB471",
"u$	c #FF4A0F",
"v$	c #FF2D03",
"w$	c #FF2E07",
"x$	c #FF4811",
"y$	c #FFBB69",
"z$	c #FF9F43",
"A$	c #FF6617",
"B$	c #FF7824",
"C$	c #FF8428",
"D$	c #FF4D10",
"E$	c #FF7926",
"F$	c #FF5912",
"G$	c #FF611C",
"H$	c #FF6B37",
"I$	c #FF7D3E",
"J$	c #FF752A",
"K$	c #FFB562",
"L$	c #FFA742",
"M$	c #FF9030",
"N$	c #FF4E0B",
"O$	c #FF3A05",
"P$	c #D71901",
"Q$	c #220D09",
"R$	c #600F01",
"S$	c #601C05",
"T$	c #60220C",
"U$	c #605647",
"V$	c #60180A",
"W$	c #600C00",
"X$	c #601F0C",
"Y$	c #604B28",
"Z$	c #60290D",
"`$	c #603710",
" %	c #602C0A",
".%	c #602609",
"+%	c #602508",
"@%	c #601101",
"#%	c #601E04",
"$%	c #60472F",
"%%	c #604E2F",
"&%	c #603C15",
"*%	c #604B2C",
"=%	c #60492A",
"-%	c #60431F",
";%	c #601E05",
">%	c #240500",
"                                                                                ",
"                                                                                ",
"                      . . . . . . . . . . . . . . . . . . . . . . . . . .       ",
"                    + @ # # # # # # # # # # # # # # # # # # # # # # # $ %       ",
"                  & * = = = = = = = = = = = = = = = = = = = = = = = = - ;       ",
"                  > = = = = = = = = , ' ) ! ~ { ] = = = = = = = = = = ^         ",
"                / ( = = = = = = = _ : < [ } | 1 2 = = = = = = = = = 3 4         ",
"                5 = = = = = = = _ 6 7 8 _ 9 0 a b = = = = = = = = # c           ",
"              d e = = = = = = , f g h ] = i j k i = = = = = = = = l m           ",
"              n o = = = = = = p q r s = = = = = = = = = = = = = = t             ",
"            u v = = = = = = = w x y , = p z A = = = = = = = = = B C             ",
"            D = = = E F F F F G H I J K L M N F F F F F F F F O P               ",
"          Q R = = = S T U U U V W X Y Z `  .U U U U U U U U U ..+.@.@.@.#.$.    ",
"          %.&.= = *.=.-.;.;.;.>.,.'.).!.~.{.;.;.;.;.;.;.;.;.].^./.(.(._.:.      ",
"        ^ <.= = = [.}.;.;.;.;.;.;.;.|.1.1.1.1.2.;.;.;.;.;.;.3.4.(.(.(.5.$.      ",
"      ; 6.= = = 7.8.;.;.;.;.;.;.;.9.0.a.b.a.a.c.d.;.;.;.;.;.e.f.(.(.g.>         ",
"      % $ # # h.i.j.k.k.k.k.k.k.l.m.n.o.p.q.r.q.s.k.k.k.k.t.u.(.(.v.w.          ",
"      . . . . x.y.z.z.z.z.z.z.z.A.B.C.D.E.F.G.H.z.z.z.z.z.z.(.(.(.I.J.          ",
"              #.K.(.(.(.(.(.(.L.M.N.O.P.Q.R.S.(.(.(.(.(.(.(.(.(.(.T.U.          ",
"            d @.(.(.(.(.(.(.(.V.W.X.Y.Z.`. +.+(.(.(.(.(.(.(.(.(.++@+            ",
"            #+(.(.(.$+%+&+&+*+=+-+;+&+>+,+'+)+!+~+{+]+^+/+(+&+_+:+<+[+}+|+1+    ",
"          2+3+(.(.4+%+5+6+7+8+9+0+a+b+c+d+e+f+g+h+i+j+j+k+l+m+n+o+p+q+r+s+      ",
"          t+u+(.(.v+w+x+x+y+z+A+B+C+D+E+F+G+H+I+J+K+L+M+N+O+P+Q+R+S+S+T+U+      ",
"        V+W+(.(.X+Y+Z+`+ @.@+@@@#@$@%@&@*@=@-@-@;@>@-@,@'@)@!@~@{@]@^@/@        ",
"      $.(@(.(.(._@:@<@[@i+O+}@|@1@2@;@3@,@4@5@6@7@4@8@;@9@0@a@b@c@d@e@f@        ",
"      g@g.(.(.h@i@j@k@<@l@m@n@o@,@4@4@4@4@4@6@8@7@6@5@p@>@q@r@s@t@u@v@          ",
"    w@x@y@y@z@A@B@C@D@E@F@G@H@I@J@K@K@K@L@L@M@N@O@L@P@I@Q@R@S@T@U@V@W@          ",
"            X@Y@Z@`@ #.#+#@#####$#%#&#*#=#-#;#>#,#'#)#!#~#{#]#^#/#(#            ",
"            _#:#<#[#}#|#1#$#$#2#3#3#4#5#@#6#7#8#9#0#a#b#c#d#e#f#g#h#            ",
"          i#j#k#l#m#n#o#p#4#q#r#s#t#u#v#w#x#y#m#z#A#x#B#C#D#E#F#G#              ",
"          H#I#J#K#L#M#N#O#P#Q#R#S#T#U#V#W#X#Y#Z#`#|# $.$+$@$#$$$1+              ",
"        %$&$*$=$-$;$>$,$'$)$!$~${$]$^$/$($_$:$b#<$[$}$|$1$#$2$s+                ",
"      U+3$4$5$6$'$7$8$9$0$a$b$c$d$e$f$g$h$Z#i$j$k$l$m$n$#$o$p$U+                ",
"      s+q$r$s$t$u$v$w$x$y$z$A$B$C$D$E$F$G$H$I$J$K$L$M$N$O$P$/@                  ",
"    1+Q$R$S$T$U$V$W$W$X$U$Y$Z$`$ %.%+%@%#%$%%%&%*%=%-%;%@%>%f@                  ",
"                                                                                ",
"                                                                                ",
"                                                                                ",
"                                                                                ",
"                                                                                "};
