/* XPM */
static char * tool2d_xpm[] = {
"40 40 327 2",
"  	c None",
". 	c #39FF11",
"+ 	c #9D9484",
"@ 	c #A59C8B",
"# 	c #A29A89",
"$ 	c #B5AB99",
"% 	c #000000",
"& 	c #020202",
"* 	c #070707",
"= 	c #0E0E0E",
"- 	c #121212",
"; 	c #131313",
"> 	c #030602",
", 	c #061502",
"' 	c #153E0B",
") 	c #7D7669",
"! 	c #8A8375",
"~ 	c #18410E",
"{ 	c #081805",
"] 	c #080B07",
"^ 	c #080808",
"/ 	c #030303",
"( 	c #010101",
"_ 	c #867F71",
": 	c #0B0B0B",
"< 	c #1E1E1E",
"[ 	c #333333",
"} 	c #404040",
"| 	c #454545",
"1 	c #464646",
"2 	c #0C0F0B",
"3 	c #071704",
"4 	c #113B08",
"5 	c #625D53",
"6 	c #736D61",
"7 	c #18410D",
"8 	c #11200D",
"9 	c #1F211E",
"0 	c #343434",
"a 	c #414141",
"b 	c #424242",
"c 	c #353535",
"d 	c #222222",
"e 	c #111111",
"f 	c #060606",
"g 	c #6D675C",
"h 	c #938B7C",
"i 	c #444444",
"j 	c #696969",
"k 	c #7E7E7E",
"l 	c #878787",
"m 	c #898989",
"n 	c #0C1C09",
"o 	c #103A07",
"p 	c #514D45",
"q 	c #655F55",
"r 	c #1A4410",
"s 	c #23331F",
"t 	c #474946",
"u 	c #707070",
"v 	c #868686",
"w 	c #8D8D8D",
"x 	c #8E8E8E",
"y 	c #737373",
"z 	c #515151",
"A 	c #2E2E2E",
"B 	c #050505",
"C 	c #5E594F",
"D 	c #888173",
"E 	c #313131",
"F 	c #646464",
"G 	c #999999",
"H 	c #A5A5A5",
"I 	c #ACACAC",
"J 	c #656565",
"K 	c #323531",
"L 	c #11220E",
"M 	c #0F3A07",
"N 	c #4A463E",
"O 	c #5F5A50",
"P 	c #204916",
"Q 	c #384834",
"R 	c #70726F",
"S 	c #A3A3A2",
"T 	c #BABABA",
"U 	c #C1C1C1",
"V 	c #7C7C7C",
"W 	c #494949",
"X 	c #1F1F1F",
"Y 	c #565249",
"Z 	c #847D70",
"` 	c #101010",
" .	c #363636",
"..	c #676767",
"+.	c #828282",
"@.	c #909090",
"#.	c #9A9A9A",
"$.	c #373A37",
"%.	c #142411",
"&.	c #103907",
"*.	c #47443C",
"=.	c #5C574E",
"-.	c #234D19",
";.	c #455541",
">.	c #868885",
",.	c #CECECE",
"'.	c #D3D3D3",
").	c #CDCDCD",
"!.	c #B8B8B8",
"~.	c #8C8C8C",
"{.	c #202020",
"].	c #545047",
"^.	c #837C6E",
"/.	c #0D0D0D",
"(.	c #2B2B2B",
"_.	c #505050",
":.	c #5F5F5F",
"<.	c #616161",
"[.	c #6C6C6C",
"}.	c #767676",
"|.	c #6D6D6D",
"1.	c #2C2F2C",
"2.	c #11210D",
"3.	c #0F3907",
"4.	c #CFCFCF",
"5.	c #D5D5D5",
"6.	c #D6D6D6",
"7.	c #D1D1D1",
"8.	c #BEBEBE",
"9.	c #929292",
"0.	c #555555",
"a.	c #534F46",
"b.	c #191919",
"c.	c #4B4B4B",
"d.	c #585858",
"e.	c #626262",
"f.	c #606060",
"g.	c #1A1D19",
"h.	c #0A1B07",
"i.	c #0E3806",
"j.	c #47433C",
"k.	c #5B574D",
"l.	c #204A16",
"m.	c #707370",
"n.	c #D4D4D4",
"o.	c #C2C2C2",
"p.	c #9B9B9B",
"q.	c #282828",
"r.	c #0A0A0A",
"s.	c #827B6E",
"t.	c #6E6E6E",
"u.	c #071604",
"v.	c #0D3705",
"w.	c #194310",
"x.	c #233220",
"y.	c #484B47",
"z.	c #B6B6B6",
"A.	c #CACACA",
"B.	c #C5C5C5",
"C.	c #A1A1A1",
"D.	c #686868",
"E.	c #0C0C0C",
"F.	c #040404",
"G.	c #141414",
"H.	c #3A3A3A",
"I.	c #848484",
"J.	c #8A8A8A",
"K.	c #050804",
"L.	c #051402",
"M.	c #153F0B",
"N.	c #10200D",
"O.	c #1F221F",
"P.	c #3C3C3C",
"Q.	c #B1B1B1",
"R.	c #C7C7C7",
"S.	c #A8A8A8",
"T.	c #717171",
"U.	c #2C2C2C",
"V.	c #5D5D5D",
"W.	c #919191",
"X.	c #030502",
"Y.	c #041401",
"Z.	c #0D3805",
"`.	c #133C09",
" +	c #090C08",
".+	c #141514",
"++	c #B5B5B5",
"@+	c #C9C9C9",
"#+	c #AAAAAA",
"$+	c #757575",
"%+	c #373737",
"&+	c #0F0F0F",
"*+	c #3D3D3D",
"=+	c #6F6F6F",
"-+	c #1A1A1A",
";+	c #010401",
">+	c #123C09",
",+	c #041501",
"'+	c #020401",
")+	c #5E5E5E",
"!+	c #949494",
"~+	c #B3B3B3",
"{+	c #2F2F2F",
"]+	c #000300",
"^+	c #020502",
"/+	c #0A0D0A",
"(+	c #1B1E1B",
"_+	c #2F322F",
":+	c #383B38",
"<+	c #010600",
"[+	c #041601",
"}+	c #0D3A05",
"|+	c #48443D",
"1+	c #5D584F",
"2+	c #123E09",
"3+	c #041701",
"4+	c #010300",
"5+	c #050704",
"6+	c #141713",
"7+	c #383A37",
"8+	c #666865",
"9+	c #838582",
"0+	c #858784",
"a+	c #6E716E",
"b+	c #454845",
"c+	c #1D201D",
"d+	c #070A07",
"e+	c #555048",
"f+	c #051502",
"g+	c #061603",
"h+	c #0A1B08",
"i+	c #142410",
"j+	c #082602",
"k+	c #104306",
"l+	c #4C4840",
"m+	c #15480A",
"n+	c #092703",
"o+	c #041801",
"p+	c #1C2C18",
"q+	c #334430",
"r+	c #435340",
"s+	c #445441",
"t+	c #374734",
"u+	c #21321E",
"v+	c #0E1F0B",
"w+	c #061703",
"x+	c #57534A",
"y+	c #857E70",
"z+	c #0F3906",
"A+	c #0E3805",
"B+	c #17530A",
"C+	c #656056",
"D+	c #205B12",
"E+	c #144709",
"F+	c #0F3B06",
"G+	c #133D0A",
"H+	c #194311",
"I+	c #1E4815",
"J+	c #1A4412",
"K+	c #153F0C",
"L+	c #605B51",
"M+	c #898274",
"N+	c #615C52",
"O+	c #6F6A5E",
"P+	c #938C7C",
"Q+	c #746E62",
"R+	c #7E776A",
"S+	c #6F695D",
"T+	c #59544B",
"U+	c #58534A",
"V+	c #5B564C",
"W+	c #A39B8A",
"X+	c #968E7F",
"Y+	c #9D9585",
"Z+	c #9B9383",
"`+	c #8B8475",
" @	c #878072",
".@	c #948D7D",
"+@	c #B6AC99",
"@@	c #ACA392",
"#@	c #B2A997",
"$@	c #B1A896",
"%@	c #AFA694",
"&@	c #ADA492",
"*@	c #ACA391",
"=@	c #B4AB98",
"-@	c #BBB29E",
";@	c #17410D",
">@	c #C0B6A2",
",@	c #061602",
"'@	c #051602",
")@	c #051501",
"!@	c #051801",
"~@	c #144609",
"{@	c #0E110E",
"]@	c #131513",
"^@	c #141613",
"/@	c #131512",
"(@	c #080B08",
"_@	c #030902",
":@	c #0F3A06",
"<@	c #414241",
"[@	c #464746",
"}@	c #343534",
"|@	c #1E1F1E",
"1@	c #474747",
"2@	c #0B1C09",
"3@	c #A2A2A2",
"4@	c #BBBBBB",
"5@	c #A3A3A3",
"6@	c #353834",
"7@	c #12220F",
"8@	c #434642",
"9@	c #172713",
"0@	c #103A08",
"a@	c #C0C0C0",
"b@	c #474A46",
"c@	c #182815",
"d@	c #A4A4A4",
"e@	c #353835",
"f@	c #8F8F8F",
"g@	c #484848",
"h@	c #0B1C08",
"i@	c #0E3906",
"j@	c #0C0F0C",
"k@	c #030603",
"l@	c #051401",
"                                                                                ",
"                                                                                ",
"    . . . . . . . . . . . . . . . . + @ . . . . . . . . . . . . . . . . # $     ",
"    . % & * = - ; ; ; - = * > , ' . ) ! . ~ { ] = - ; ; ; - = ^ / ( % . _ #     ",
"    . & : < [ } | 1 | } [ < 2 3 4 . 5 6 . 7 8 9 0 a 1 1 1 b c d e f ( . g h     ",
"    . * < i j k l m l k j i 9 n o . p q . r s t u v w x w l y z A ; B . C D     ",
"    . = E F m G H I H G m J K L M . N O . P Q R S T U U U T H V W X ^ . Y Z     ",
"    . `  ...k +.@.#.@.+.k ..$.%.&.. *.=.. -.;.>.T ,.'.'.'.).!.~.z {.^ . ].^.    ",
"    . /.(._.:.<.[.}.|.<.:._.1.2.3.. *.=.. -.;.>.T 4.5.6.6.7.8.9.0.d ^ . a.^.    ",
"    . * b.c c.d.:.e.f.d.c.c g.h.i.. j.k.. l.Q m.H U ,.n.6.'.o.p.:.q.r.. a.s.    ",
"    . & : {.b <.|.t.|.<.b {.2 u.v.. j.k.. w.x.y.}.#.z.A.'.'.B.C.D.A E.. a.s.    ",
"    . % F.G.H.D.I.J.I.j H.G.K.L.v.. j.k.. M.N.O.P.:.J.Q.A.7.R.S.T.0 = . a.s.    ",
"    . % ( E.U.V.I.W.I.V.U./.X.Y.Z.. *.k.. `.3  +.+U.0.m ++@+B.#+$+%+&+. a.s.    ",
"    . % % f b.*+<.=+<.*+-+f ;+Y.Z.. *.=.. >+,+'+F.&+(.)+!+~+++#...{+/.. a.^.    ",
"    . ]+]+^+/+(+_+:+_+(+/+^+<+[+}+. |+1+. 2+3+<+4+5+6+7+8+9+0+a+b+c+d+. e+^.    ",
"    . f+,+,+g+h+2.i+2.h.g+Y.3+j+k+. l+O . m+n+o+Y.f+h+p+q+r+s+t+u+v+w+. x+y+    ",
"    . ' 4 z+A+Z.i.3.i.v.Z.Z.}+k+B+. a.C+. D+E+F+A+A+3.G+H+I+I+J+K+o z+. L+M+    ",
"    . . . . . . . . . . . . . . . . N+6 . . . . . . . . . . . . . . . . O+P+    ",
"    + ) 5 p N *.*.j.j.j.*.*.|+l+a.N+Q+Z D R+S+5 k.T+U+U+x+x+x+U+U+V+N+O+D W+    ",
"    @ ! 6 q O =.=.k.k.k.=.=.1+L+C+6 y+X+Y+Z+h `+D _ y+y+y+Z Z y+y+ @`+.@W++@    ",
"    . . . . . . . . . . . . . . . . D Y+@@#@$@%@&@@@@@@@*@*@*@@@@@&@%@=@-@      ",
"    . ;@M.G+>+>+>+>+>+>+>+>+2+m+D+. R+Z+#@>@                                    ",
"    . ,@'@)@'@w+w+w+w+w+w+'@!@n+~@. S+h $@                                      ",
"    . ]+^+d+{@]@^@^@^@/@{@(@_@!@:@. 5 `+%@                                      ",
"    . & : < 0 <@[@[@[@<@}@|@2 u.A+. k. @@@                                      ",
"    . * < 1@=+v w x w l u 1@O.2@z+. T+y+@@                                      ",
"    . = 0 u 3@T U U U 4@5@u 6@7@M . U+y+*@                                      ",
"    . ; b l T 4.'.'.'.4.4@l 8@9@0@. x+y+*@                                      ",
"    . G.1 w a@'.6.6.6.'.a@w b@c@0@. x+y+*@                                      ",
"    . ; b l T 4.'.'.'.4.4@l 8@9@0@. x+Z *@                                      ",
"    . = 0 u 5@4@o.o.o.4@d@T.e@7@3.. x+Z *@                                      ",
"    . ^ < 1@u l x f@x l T.g@O.h@i@. U+y+*@                                      ",
"    . & : < 0 b 1@1@1@b c X j@u.Z.. U+y+*@                                      ",
"    . % & * = ; G.G.G.; = ^ k@l@A+. V+ @@@                                      ",
"    . % % % ( & & & & & & ( 4+,+z+. N+`+%@                                      ",
"    . . . . . . . . . . . . . . . . O+.@=@                                      ",
"    # _ g C Y ].].a.a.a.].].e+U+L+O+D W+-@                                      ",
"    $ # h D Z ^.^.s.s.s.^.^.^.y+! .@W++@                                        ",
"                                                                                ",
"                                                                                "};
