/* XPM */
static char * toolclip_xpm[] = {
"40 40 404 2",
"  	c None",
". 	c #EE4D44",
"+ 	c #F0473F",
"@ 	c #E86D62",
"# 	c #F1433C",
"$ 	c #E6796C",
"% 	c #DF9484",
"& 	c #EB5E54",
"* 	c #E47C6F",
"= 	c #EE4E46",
"- 	c #DF9888",
"; 	c #3F3232",
"> 	c #3F3B3B",
", 	c #121212",
"' 	c #E57B6E",
") 	c #DF9787",
"! 	c #59544A",
"~ 	c #57544C",
"{ 	c #6D6D6C",
"] 	c #C4B4B3",
"^ 	c #F2E9E9",
"/ 	c #8D8C8C",
"( 	c #5F5C58",
"_ 	c #4B4740",
": 	c #E87064",
"< 	c #F72723",
"[ 	c #E9655A",
"} 	c #090807",
"| 	c #6A6967",
"1 	c #B3B2B2",
"2 	c #D6D6D6",
"3 	c #E5E6E6",
"4 	c #E6E6E6",
"5 	c #E5E5E5",
"6 	c #C7C7C7",
"7 	c #BEBDBC",
"8 	c #35322D",
"9 	c #E77064",
"0 	c #DCA896",
"a 	c #EA645A",
"b 	c #D84B43",
"c 	c #5C5952",
"d 	c #5E5D5D",
"e 	c #AAAAAA",
"f 	c #E8E8E8",
"g 	c #E0E0E0",
"h 	c #E2E2E2",
"i 	c #E3E3E3",
"j 	c #E7E7E7",
"k 	c #EAEAEA",
"l 	c #E2CCCC",
"m 	c #635656",
"n 	c #77736A",
"o 	c #E38576",
"p 	c #F33630",
"q 	c #EA6157",
"r 	c #312E29",
"s 	c #955451",
"t 	c #A28C8C",
"u 	c #DADADA",
"v 	c #E1E1E1",
"w 	c #DFDFDF",
"x 	c #E4E4E4",
"y 	c #ECEDED",
"z 	c #DDDEDE",
"A 	c #B3B3B3",
"B 	c #7A7978",
"C 	c #623933",
"D 	c #C5655A",
"E 	c #7E786C",
"F 	c #484642",
"G 	c #969188",
"H 	c #F16B6B",
"I 	c #E99191",
"J 	c #E2D6D6",
"K 	c #DEE1E1",
"L 	c #EAEBEB",
"M 	c #ECDFDF",
"N 	c #F1BBBB",
"O 	c #E58484",
"P 	c #7A4745",
"Q 	c #141615",
"R 	c #968E7F",
"S 	c #262420",
"T 	c #615E56",
"U 	c #B5B0A6",
"V 	c #E3DDD0",
"W 	c #DEDED1",
"X 	c #DE7575",
"Y 	c #A49696",
"Z 	c #D38E8E",
"` 	c #EAA7A7",
" .	c #E0DDDD",
"..	c #EBC7C7",
"+.	c #ED9292",
"@.	c #E0ACAC",
"#.	c #DCBCBC",
"$.	c #ECA39C",
"%.	c #CEC8BD",
"&.	c #363430",
"*.	c #6A6459",
"=.	c #2D2B26",
"-.	c #646058",
";.	c #686560",
">.	c #C5C0B5",
",.	c #DED8CC",
"'.	c #DDDDD0",
").	c #DC7575",
"!.	c #989D9D",
"~.	c #9E9E9E",
"{.	c #D98383",
"].	c #E4B2B2",
"^.	c #E2D2D2",
"/.	c #DFE0E0",
"(.	c #E3DFDF",
"_.	c #EABFBF",
":.	c #EAB1B1",
"<.	c #E78F8F",
"[.	c #D4CBCB",
"}.	c #D3D3D3",
"|.	c #DBC0C0",
"1.	c #E8A29B",
"2.	c #C3C0B5",
"3.	c #68655F",
"4.	c #534F47",
"5.	c #58534A",
"6.	c #161513",
"7.	c #C0BAAF",
"8.	c #DDD7CB",
"9.	c #969B9B",
"0.	c #9D9D9D",
"a.	c #A59D9D",
"b.	c #BB9999",
"c.	c #EB8484",
"d.	c #E1D7D7",
"e.	c #DCE7E7",
"f.	c #EE9696",
"g.	c #E79292",
"h.	c #D7B6B6",
"i.	c #D3C9C9",
"j.	c #D1D2D2",
"k.	c #D1D1D1",
"l.	c #C8BABA",
"m.	c #5D3D3B",
"n.	c #5A5954",
"o.	c #98948A",
"p.	c #817B71",
"q.	c #3D3A33",
"r.	c #35332F",
"s.	c #3C3A36",
"t.	c #A19C94",
"u.	c #DBD5C9",
"v.	c #DB7474",
"w.	c #939898",
"x.	c #9B9B9B",
"y.	c #A2A2A2",
"z.	c #B09A9A",
"A.	c #E38585",
"B.	c #E5B6B6",
"C.	c #EB8181",
"D.	c #CCCCCC",
"E.	c #CDCDCD",
"F.	c #C2C2C2",
"G.	c #A9A9A9",
"H.	c #4E4747",
"I.	c #87726B",
"J.	c #CAC4B8",
"K.	c #B6B1A6",
"L.	c #8B857A",
"M.	c #36342D",
"N.	c #9F998E",
"O.	c #979288",
"P.	c #6A6660",
"Q.	c #89857D",
"R.	c #D2CDC2",
"S.	c #929696",
"T.	c #989898",
"U.	c #9C9C9C",
"V.	c #A0A0A0",
"W.	c #A2A3A3",
"X.	c #B09898",
"Y.	c #E68686",
"Z.	c #CFBCBC",
"`.	c #CACACA",
" +	c #CBCBCB",
".+	c #A5A5A5",
"++	c #6A6A6A",
"@+	c #585858",
"#+	c #B89B9B",
"$+	c #D68F88",
"%+	c #C7C3B7",
"&+	c #37342E",
"*+	c #9A948A",
"=+	c #B9B3A7",
"-+	c #AEA89D",
";+	c #7D7971",
">+	c #5B5954",
",+	c #DA7373",
"'+	c #8F9494",
")+	c #979797",
"!+	c #B39797",
"~+	c #DC9C9C",
"{+	c #C6CACA",
"]+	c #C8C8C8",
"^+	c #CECECE",
"/+	c #5E5E5E",
"(+	c #393939",
"_+	c #838383",
":+	c #ACACAC",
"<+	c #C0A4A4",
"[+	c #D28E87",
"}+	c #9A9489",
"|+	c #BBB4A8",
"1+	c #C0BAAD",
"2+	c #6F6C65",
"3+	c #6B6861",
"4+	c #9B9E95",
"5+	c #DC7474",
"6+	c #8E9393",
"7+	c #949494",
"8+	c #9F9F9F",
"9+	c #DD9C9C",
"0+	c #BABDBD",
"a+	c #6F6F6F",
"b+	c #565656",
"c+	c #C1C1C1",
"d+	c #B5B5B5",
"e+	c #B4B4B4",
"f+	c #BDA2A2",
"g+	c #BDB7AB",
"h+	c #A29C92",
"i+	c #3D3F3B",
"j+	c #774242",
"k+	c #777A7A",
"l+	c #929292",
"m+	c #969696",
"n+	c #9A9A9A",
"o+	c #B19696",
"p+	c #D08F8F",
"q+	c #535656",
"r+	c #6B6B6A",
"s+	c #B0B0B0",
"t+	c #B1B1B1",
"u+	c #B2B2B2",
"v+	c #BCA0A0",
"w+	c #BCB5A9",
"x+	c #A8A79B",
"y+	c #7F3B3A",
"z+	c #393131",
"A+	c #797978",
"B+	c #989796",
"C+	c #6D6666",
"D+	c #504040",
"E+	c #868686",
"F+	c #AFAFAF",
"G+	c #B0AFAF",
"H+	c #B0B2B2",
"I+	c #B3AEAE",
"J+	c #C39190",
"K+	c #CF9891",
"L+	c #B2A298",
"M+	c #704745",
"N+	c #391D1C",
"O+	c #6E6B67",
"P+	c #797979",
"Q+	c #2E2E2E",
"R+	c #604B4B",
"S+	c #B07E7E",
"T+	c #B3A7A7",
"U+	c #C58383",
"V+	c #C86868",
"W+	c #CC9991",
"X+	c #C6C2B6",
"Y+	c #C7C1B5",
"Z+	c #BAB4A8",
"`+	c #B3ADA2",
" @	c #96928D",
".@	c #92918C",
"+@	c #B8857F",
"@@	c #5E2424",
"#@	c #302525",
"$@	c #525252",
"%@	c #977C7C",
"&@	c #C58484",
"*@	c #AEB1B1",
"=@	c #AFB0B0",
"-@	c #B0ACAC",
";@	c #C38787",
">@	c #CE7F7D",
",@	c #D48680",
"'@	c #A99994",
")@	c #A19E98",
"!@	c #BEB9AE",
"~@	c #C6C0B4",
"{@	c #B7B1A6",
"]@	c #8F8D88",
"^@	c #93918B",
"/@	c #9E9B93",
"(@	c #B4AFA4",
"_@	c #BAB5A9",
":@	c #A67E76",
"<@	c #714241",
"[@	c #867E7E",
"}@	c #937979",
"|@	c #ADB4B4",
"1@	c #B4A5A5",
"2@	c #CA8482",
"3@	c #D18C86",
"4@	c #CAB4AA",
"5@	c #C6C1B5",
"6@	c #ABA8A1",
"7@	c #9E9B96",
"8@	c #B4AFA6",
"9@	c #B9B4A8",
"0@	c #9A958A",
"a@	c #B9B2A7",
"b@	c #AFAA9F",
"c@	c #A09C95",
"d@	c #83817E",
"e@	c #A29E96",
"f@	c #9C978C",
"g@	c #78746D",
"h@	c #D77C77",
"i@	c #B66666",
"j@	c #CB7878",
"k@	c #CC7979",
"l@	c #D3857F",
"m@	c #C7C4B8",
"n@	c #BFBAAF",
"o@	c #9C9A95",
"p@	c #81807E",
"q@	c #817C71",
"r@	c #393630",
"s@	c #88857D",
"t@	c #99968F",
"u@	c #9C9892",
"v@	c #B7B2A6",
"w@	c #C8BCB1",
"x@	c #D77D77",
"y@	c #D67A75",
"z@	c #D1928B",
"A@	c #C6C4B8",
"B@	c #C8C2B6",
"C@	c #D6CFC2",
"D@	c #53524F",
"E@	c #46433D",
"F@	c #69665F",
"G@	c #747371",
"H@	c #AFAAA0",
"I@	c #C8BBAF",
"J@	c #C8BAAF",
"K@	c #B2ACA2",
"L@	c #524F4A",
"M@	c #3E3B35",
"N@	c #7F7B72",
"O@	c #A39E93",
"P@	c #BBB5A9",
"Q@	c #C8C2B5",
"R@	c #B0ABA0",
"S@	c #7C786F",
"T@	c #958E7E",
"U@	c #48453D",
"V@	c #46443E",
"W@	c #AAA499",
"X@	c #79756D",
"Y@	c #413F3A",
"Z@	c #797468",
"`@	c #393733",
" #	c #7F7B73",
".#	c #BDB7AA",
"+#	c #CBC5B8",
"@#	c #A8A298",
"##	c #5E5B55",
"$#	c #1A1917",
"%#	c #1D1B19",
"&#	c #6C6962",
"*#	c #ACA79B",
"=#	c #BFB9AD",
"-#	c #8B867D",
";#	c #22211F",
">#	c #9C9484",
",#	c #5B574D",
"'#	c #484540",
")#	c #9F998F",
"!#	c #B3ADA1",
"~#	c #817D75",
"{#	c #6D6961",
"]#	c #847E70",
"^#	c #726D63",
"/#	c #68655E",
"(#	c #BEB8AB",
"_#	c #9B968C",
":#	c #C9C3B7",
"<#	c #BDB7AC",
"[#	c #636059",
"}#	c #6F6A5F",
"|#	c #0D0C0B",
"1#	c #827E75",
"2#	c #6E6B64",
"3#	c #7D7972",
"4#	c #25231F",
"5#	c #46423B",
"6#	c #524E48",
"7#	c #635E54",
"                                                                                ",
"                                                                                ",
"                                                                                ",
"                                                                                ",
"                                                                                ",
"                                      . +     @ # $                             ",
"                                      % & *   # = -                             ",
"                                          ; > ,                                 ",
"                        ' )         ! ~ { ] ^ / ( _                             ",
"                      : < [       } | 1 2 3 4 5 6 7 8         9                 ",
"                      0 a b   c d e f g h i 5 j f k l m n   o p q               ",
"                          r s t u v w w v h x 4 j f y z A B C D                 ",
"                      E F G H I J K w w g v i x 4 f L M N O P Q R               ",
"                  S T U V W X Y Z `  .w w g h i 5 j ..+.@.#.$.%.&.*.            ",
"              =.-.;.>.,.,.'.).!.~.{.].^./.w v (._.:.<.[.}.|.1.2.3.4.            ",
"            5.6.7.8.,.,.,.'.).9.0.a.b.c.d./.e.f.g.h.i.j.k.l.m.n.o.p.            ",
"            q.r.s.t.u.,.,.'.v.w.x.~.y.z.A.B.C.D.D.E.D.F.G.H.I.J.K.L.            ",
"            M.N.O.P.Q.R.,.'.v.S.T.U.V.W.X.Y.Z.`. +k..+++@+#+$+%+K.L.            ",
"            &+*+=+-+;+>+,.'.,+'+)+x.~.y.!+~+{+]+^+/+(+_+:+<+[+%+K.L.            ",
"            &+}+|+|+1+2+3+4+5+6+7+T.U.8+!+9+0+B a+b+c+d+e+f+[+%+K.L.            ",
"            &+*+|+|+|+g+h+i+j+k+l+m+n+0.o+p+q+r+~.s+t+u+A v+[+%+K.L.            ",
"            &+*+|+|+|+|+w+x+y+z+A+B+T.m+C+D+E+F+F+F+G+H+I+J+K+%+K.L.            ",
"            &+}+|+|+|+|+|+w+L+M+N+O+P+Q+R+S+H+F+F+F+T+U+V+W+X+Y+K.L.            ",
"            &+*+|+|+|+|+Z+`+ @.@+@@@#@$@%@&@*@=@-@;@>@,@'@)@!@~@K.L.            ",
"            &+*+|+|+w+{@]@^@/@(@_@:@<@[@}@&@|@1@2@3@4@Y+5@6@7@8@9@L.            ",
"            &+0@a@b@c@d@e@w+|+|+|+f@g@h@i@j@k@l@m@Y+Y+Y+Y+Y+n@o@p@q@            ",
"            r@s@t@^@u@v@w+|+|+|+|+f@g@w@x@y@z@A@Y+Y+Y+Y+Y+Y+B@C@D@E@            ",
"            F@G@H@`+Z+|+|+|+|+|+|+f@g@Y+I@J@Y+Y+Y+Y+Y+Y+Y+Y+K@L@                ",
"              M@N@O@P@|+|+|+|+|+|+f@g@Y+Y+Y+Y+Y+Y+Y+Q@J.R@S@=.T@                ",
"                U@V@W@|+|+|+|+|+|+f@g@Y+Y+Y+Y+Y+Y+Y+Z+X@Y@Z@                    ",
"                    `@ #.#|+|+|+|+f@g@Y+Y+Y+Y+Y++#@###$#                        ",
"                      %#&#*#|+|+|+f@g@Y+Y+Y+Y+=#-#;#>#                          ",
"                        ,#'#)#!#w+f@g@Y+B@Y+~#{#5.                              ",
"                          ]#^#/#(#_#g@:#<#[#}#                                  ",
"                              _ |#1#2#3#4#                                      ",
"                                  5#6#7#                                        ",
"                                                                                ",
"                                                                                ",
"                                                                                ",
"                                                                                "};
