/* XPM */
static char * toolrotate_xpm[] = {
"40 40 803 2",
"  	c None",
". 	c #AFBFDA",
"+ 	c #B4C2D7",
"@ 	c #97BDFF",
"# 	c #9CC0FF",
"$ 	c #A2C4FF",
"% 	c #AAC8FE",
"& 	c #ADCAFF",
"* 	c #B0CDFF",
"= 	c #C5CEDB",
"- 	c #C7CEDA",
"; 	c #96B4E7",
"> 	c #96B6EB",
", 	c #8FB6F7",
"' 	c #8EB7FF",
") 	c #94BCFF",
"! 	c #9BBFFF",
"~ 	c #A6C6FC",
"{ 	c #B3CCFA",
"] 	c #C3D5F5",
"^ 	c #BDD3FA",
"/ 	c #B9D2FE",
"( 	c #BCD4FF",
"_ 	c #BED6FF",
": 	c #C0D6FC",
"< 	c #C7D4EC",
"[ 	c #C8D6EC",
"} 	c #8FAFE7",
"| 	c #86AEF1",
"1 	c #82AEF9",
"2 	c #84B1FE",
"3 	c #8BB5FF",
"4 	c #91B9FF",
"5 	c #B2CAF6",
"6 	c #BDD1F3",
"7 	c #C7D6F1",
"8 	c #CDDAF2",
"9 	c #CFDCF3",
"0 	c #CDDDF6",
"a 	c #C2D9FF",
"b 	c #C5DAFF",
"c 	c #C8DCFF",
"d 	c #C9DCFE",
"e 	c #CADBFA",
"f 	c #CBDAF3",
"g 	c #C9D8F0",
"h 	c #88ACEA",
"i 	c #76A6FA",
"j 	c #78A9FF",
"k 	c #7FADFF",
"l 	c #86B2FF",
"m 	c #93BAFC",
"n 	c #A5C3F6",
"o 	c #B9CCEF",
"p 	c #C3D2EE",
"q 	c #C7D5EF",
"r 	c #CBD8F0",
"s 	c #CFDCF1",
"t 	c #D3DEF2",
"u 	c #D7E2F3",
"v 	c #D9E3F5",
"w 	c #D6E3F9",
"x 	c #D2E2FD",
"y 	c #D2E3FF",
"z 	c #D2E2FF",
"A 	c #D0E1FF",
"B 	c #CCDFFD",
"C 	c #CCDBF8",
"D 	c #8DADE3",
"E 	c #74A4F7",
"F 	c #71A5FF",
"G 	c #7AABFF",
"H 	c #99BBF6",
"I 	c #AEC5EF",
"J 	c #BACCEB",
"K 	c #BECFED",
"L 	c #C4D3EE",
"M 	c #C8D6EE",
"N 	c #CCD9EF",
"O 	c #D0DDF0",
"P 	c #D5E0F1",
"Q 	c #D9E2F2",
"R 	c #DCE2F1",
"S 	c #E0E6F3",
"T 	c #E1E9F6",
"U 	c #DEE8FB",
"V 	c #DBE8FE",
"W 	c #D8E6FF",
"X 	c #D3E3FF",
"Y 	c #CFE0FC",
"Z 	c #CDDCF5",
"` 	c #9CB3D7",
" .	c #6EA1F8",
"..	c #6AA1FF",
"+.	c #77A5FA",
"@.	c #89A6ED",
"#.	c #A6B7E4",
"$.	c #B0BDE2",
"%.	c #B6C5E6",
"&.	c #BBCAE8",
"*.	c #C0D0ED",
"=.	c #C4D3ED",
"-.	c #C9D6EE",
";.	c #CDDAEF",
">.	c #D2DEF0",
",.	c #D7E0F0",
"'.	c #D9D4E2",
").	c #D7A2AF",
"!.	c #DDBDC8",
"~.	c #E4E6EF",
"{.	c #E8EDF6",
"].	c #E5ECF9",
"^.	c #E0EAFE",
"/.	c #DAE7FF",
"(.	c #D4E3FF",
"_.	c #CEE0FC",
":.	c #CCD8EB",
"<.	c #89AAE1",
"[.	c #699EF7",
"}.	c #6CA1FB",
"|.	c #82AEF8",
"1.	c #9EAFE0",
"2.	c #AA84AB",
"3.	c #AA6B92",
"4.	c #AF6B8F",
"5.	c #B47F9F",
"6.	c #B885A3",
"7.	c #BC92AF",
"8.	c #C5D0E9",
"9.	c #CAD7ED",
"0.	c #CEDBEE",
"a.	c #D2D3E4",
"b.	c #D3AAB9",
"c.	c #D27885",
"d.	c #D5707B",
"e.	c #D9767F",
"f.	c #DF9CA3",
"g.	c #E8D6DD",
"h.	c #EBEDF3",
"i.	c #ECF0F7",
"j.	c #E4ECFB",
"k.	c #DDE8FD",
"l.	c #D3E2FE",
"m.	c #CBDCFB",
"n.	c #CBD5E7",
"o.	c #6398F3",
"p.	c #6798ED",
"q.	c #96B7F0",
"r.	c #A1ACDA",
"s.	c #A596C1",
"t.	c #A879A1",
"u.	c #AA5C82",
"v.	c #AE587B",
"w.	c #B35A7A",
"x.	c #B65C7A",
"y.	c #BA5A76",
"z.	c #C4BDD5",
"A.	c #CFDBEE",
"B.	c #D3CDDE",
"C.	c #D39DAB",
"D.	c #D47C89",
"E.	c #D6727C",
"F.	c #DB757C",
"G.	c #DE767C",
"H.	c #E39195",
"I.	c #E8BFC4",
"J.	c #EBE6EC",
"K.	c #EBF1F8",
"L.	c #E6ECF9",
"M.	c #DBE7FC",
"N.	c #CFE0FE",
"O.	c #C9D7ED",
"P.	c #5A93F5",
"Q.	c #6285C2",
"R.	c #94A7D6",
"S.	c #A17AA7",
"T.	c #A25884",
"U.	c #A7567F",
"V.	c #AB577D",
"W.	c #AF5A7D",
"X.	c #B35B7C",
"Y.	c #B65C79",
"Z.	c #BA5D79",
"`.	c #C2A6BE",
" +	c #CEDAED",
".+	c #D4DDED",
"++	c #D8D9E7",
"@+	c #DBC6D2",
"#+	c #D9828B",
"$+	c #DC757C",
"%+	c #E0797D",
"&+	c #E37B7D",
"*+	c #E38486",
"=+	c #E3A1A6",
"-+	c #E8DFE7",
";+	c #E8EEF8",
">+	c #E5EDFA",
",+	c #D5E1F6",
"'+	c #C6D8F9",
")+	c #5792F9",
"!+	c #5590F8",
"~+	c #5B7DB8",
"{+	c #7E6998",
"]+	c #9D5380",
"^+	c #A2527D",
"/+	c #A7547D",
"(+	c #AF5F83",
"_+	c #B481A1",
":+	c #BAA9C7",
"<+	c #BD8FAA",
"[+	c #C29AB2",
"}+	c #C9D7EC",
"|+	c #CED9EC",
"1+	c #D8E0EE",
"2+	c #DDE5F0",
"3+	c #E0D3DC",
"4+	c #DD9197",
"5+	c #DF797D",
"6+	c #E27A7D",
"7+	c #E17A7D",
"8+	c #DE777D",
"9+	c #DD9097",
"0+	c #E1DEE9",
"a+	c #D3DBE8",
"b+	c #C5D8F8",
"c+	c #BED5FD",
"d+	c #4D8EFF",
"e+	c #5490F7",
"f+	c #6077B2",
"g+	c #915585",
"h+	c #9E4F7C",
"i+	c #A6557D",
"j+	c #AB668C",
"k+	c #B19CBF",
"l+	c #B7C5E6",
"m+	c #BBCCEA",
"n+	c #BFCBE7",
"o+	c #C2B7D0",
"p+	c #C8D5EB",
"q+	c #CCD8EC",
"r+	c #D2DCED",
"s+	c #D7DFEE",
"t+	c #DBE2EF",
"u+	c #E1E6EF",
"v+	c #E2D0D8",
"w+	c #DF9197",
"x+	c #DE777C",
"y+	c #DE787D",
"z+	c #DC767D",
"A+	c #D77C84",
"B+	c #D1B2BD",
"C+	c #CEBBC8",
"D+	c #C9C7D8",
"E+	c #C4D8F9",
"F+	c #BCD5FF",
"G+	c #518EF8",
"H+	c #4C8DFF",
"I+	c #548EF7",
"J+	c #6F6AA5",
"K+	c #9C4C7C",
"L+	c #9E4E7D",
"M+	c #A1517D",
"N+	c #A05B84",
"O+	c #A093B9",
"P+	c #B2C6E9",
"Q+	c #B7CAEB",
"R+	c #BACCEA",
"S+	c #BECEEA",
"T+	c #C3D2EB",
"U+	c #C6D4EA",
"V+	c #CBD7EB",
"W+	c #D0DBEC",
"X+	c #D9E0EE",
"Y+	c #DEE4EF",
"Z+	c #E2E6F0",
"`+	c #E2CDD5",
" @	c #DA767E",
".@	c #DA757D",
"+@	c #D9747D",
"@@	c #D6737E",
"#@	c #D27A87",
"$@	c #CE818F",
"%@	c #C8C1D4",
"&@	c #C2D6F9",
"*@	c #BBD3FF",
"=@	c #B4CFFF",
"-@	c #5690F5",
";@	c #4A8CFF",
">@	c #5988EF",
",@	c #885691",
"'@	c #994C7D",
")@	c #9D4E7D",
"!@	c #9E537F",
"~@	c #7E78A2",
"{@	c #758DB4",
"]@	c #91A5C9",
"^@	c #A9BCDD",
"/@	c #BACBEA",
"(@	c #BDCDEA",
"_@	c #C1D0EA",
":@	c #C5D2EA",
"<@	c #CED9EB",
"[@	c #D6DEEE",
"}@	c #D9E0ED",
"|@	c #D8DDE9",
"1@	c #D5D0DB",
"2@	c #D38892",
"3@	c #D6717C",
"4@	c #D4727D",
"5@	c #D2707D",
"6@	c #CF707E",
"7@	c #CA93A3",
"8@	c #C4D4E8",
"9@	c #BED4F8",
"0@	c #B7D1FF",
"a@	c #B2CCFC",
"b@	c #7EA2DE",
"c@	c #538EF5",
"d@	c #498AFE",
"e@	c #6478D6",
"f@	c #904E85",
"g@	c #984B7D",
"h@	c #9D4D7C",
"i@	c #896390",
"j@	c #6D84AE",
"k@	c #7389B1",
"l@	c #778BB1",
"m@	c #879BBD",
"n@	c #AABCDC",
"o@	c #BDCEEC",
"p@	c #BFCFEA",
"q@	c #C3D2EA",
"r@	c #C6D3EA",
"s@	c #CCD7EB",
"t@	c #CED8EB",
"u@	c #CED8E9",
"v@	c #C8D1E0",
"w@	c #C8C9D7",
"x@	c #CAACBA",
"y@	c #D0818E",
"z@	c #D26D7A",
"A@	c #D16D7B",
"B@	c #CF6D7C",
"C@	c #CC7485",
"D@	c #C5B2C4",
"E@	c #C1CEE4",
"F@	c #BAD1F8",
"G@	c #B3CFFF",
"H@	c #AECAF9",
"I@	c #B4C8E9",
"J@	c #5C92EF",
"K@	c #4688FB",
"L@	c #4789FE",
"M@	c #6078D7",
"N@	c #87528B",
"O@	c #9B487B",
"P@	c #965080",
"Q@	c #74729F",
"R@	c #6B83AD",
"S@	c #7187B0",
"T@	c #768CB2",
"U@	c #7B90B3",
"V@	c #899DBD",
"W@	c #9AABCA",
"X@	c #BFCFEC",
"Y@	c #C5D3EB",
"Z@	c #C2CFE5",
"`@	c #BECADE",
" #	c #BEC9DC",
".#	c #BFC8D9",
"+#	c #C1C7D7",
"@#	c #C4BBCA",
"##	c #C7ACBA",
"$#	c #C89EAD",
"%#	c #C98D9D",
"&#	c #CA7789",
"*#	c #C7899C",
"=#	c #C1C4D7",
"-#	c #BDCAE2",
";#	c #B6CEF7",
">#	c #AFCCFF",
",#	c #A7C7FF",
"'#	c #A3C4FE",
")#	c #5E93EE",
"!#	c #4489FF",
"~#	c #4C89F5",
"{#	c #5271AF",
"]#	c #6A6598",
"^#	c #786394",
"/#	c #6778A5",
"(#	c #6881AC",
"_#	c #6D85AE",
":#	c #7289B1",
"<#	c #798EB3",
"[#	c #7D90B3",
"}#	c #8092B2",
"|#	c #93A4C2",
"1#	c #B6C7E3",
"2#	c #B2C1DB",
"3#	c #B2BFD7",
"4#	c #B4C1D7",
"5#	c #B7C3D8",
"6#	c #BAC5D9",
"7#	c #BCC7D9",
"8#	c #BDC8DA",
"9#	c #BEC9DB",
"0#	c #BFC9DB",
"a#	c #BFC6D9",
"b#	c #BEC3D6",
"c#	c #BDC4D8",
"d#	c #BBC7DD",
"e#	c #B8C7E1",
"f#	c #B0CAF7",
"g#	c #A9C8FF",
"h#	c #9EC2FE",
"i#	c #4588FB",
"j#	c #4187FF",
"k#	c #4888F6",
"l#	c #4D71B0",
"m#	c #5371A4",
"n#	c #5975A6",
"o#	c #5E7AA9",
"p#	c #657EAB",
"q#	c #6B82AC",
"r#	c #7087AF",
"s#	c #7A90B3",
"t#	c #7E92B3",
"u#	c #8294B4",
"v#	c #98A8C6",
"w#	c #AABAD6",
"x#	c #AEBCD6",
"y#	c #B0C0D8",
"z#	c #B7A8BF",
"A#	c #B6BCD1",
"B#	c #B8C4D9",
"C#	c #B9C5DA",
"D#	c #BAC6DA",
"E#	c #BAC6DB",
"F#	c #B9C5DB",
"G#	c #B8C4DC",
"H#	c #B4C4E0",
"I#	c #AAC6F7",
"J#	c #A3C5FF",
"K#	c #9DC0FF",
"L#	c #9ABEFE",
"M#	c #3F85FF",
"N#	c #4686F6",
"O#	c #4A70AF",
"P#	c #506EA4",
"Q#	c #5673A5",
"R#	c #5B78A8",
"S#	c #6A76A3",
"T#	c #7C709C",
"U#	c #6F82AC",
"V#	c #728AB1",
"W#	c #788DB3",
"X#	c #8093B3",
"Y#	c #95A6C5",
"Z#	c #A7B8D5",
"`#	c #AAB9D5",
" $	c #ACBED9",
".$	c #B887A0",
"+$	c #BC7B93",
"@$	c #B7A4BC",
"#$	c #B4BCD4",
"$$	c #B5C2DA",
"%$	c #B6C2D9",
"&$	c #B5C3DA",
"*$	c #B4C2DB",
"=$	c #B3C1DB",
"-$	c #AFC0DF",
";$	c #A5C3F7",
">$	c #9EC1FF",
",$	c #98BDFF",
"'$	c #95BCFE",
")$	c #6998E9",
"!$	c #4989F9",
"~$	c #3E84FF",
"{$	c #4284F6",
"]$	c #476DAE",
"^$	c #4D6CA2",
"/$	c #5270A4",
"($	c #5875A6",
"_$	c #6D6E9D",
":$	c #A04E7C",
"<$	c #925E8A",
"[$	c #7C7AA3",
"}$	c #7886AE",
"|$	c #7A8CB1",
"1$	c #7C90B3",
"2$	c #90A4C6",
"3$	c #A2B6D5",
"4$	c #A4B7D6",
"5$	c #A7B9D6",
"6$	c #B4809C",
"7$	c #BB617C",
"8$	c #BC637E",
"9$	c #B97C96",
"0$	c #B3A8C1",
"a$	c #B0BCD6",
"b$	c #B0BED9",
"c$	c #AFBED9",
"d$	c #AFBEDA",
"e$	c #ADBEDB",
"f$	c #AABDDE",
"g$	c #9EBEF6",
"h$	c #96BDFF",
"i$	c #93B9FD",
"j$	c #96BAF7",
"k$	c #528EF4",
"l$	c #3D84FF",
"m$	c #3F82F6",
"n$	c #446AAE",
"o$	c #4A6AA1",
"p$	c #506EA3",
"q$	c #5472A5",
"r$	c #6A6C9C",
"s$	c #A04F7C",
"t$	c #9B5983",
"u$	c #94658E",
"v$	c #8E7198",
"w$	c #887EA3",
"x$	c #958EB2",
"y$	c #A29BBD",
"z$	c #A59CBD",
"A$	c #AA90B0",
"B$	c #B36C8A",
"C$	c #B85F7D",
"D$	c #B8607D",
"E$	c #B95E7B",
"F$	c #B47F9B",
"G$	c #ACB4D0",
"H$	c #ABBBD8",
"I$	c #AABBD9",
"J$	c #A9BBD9",
"K$	c #A6BADD",
"L$	c #98BBF6",
"M$	c #90B9FF",
"N$	c #90B7FA",
"O$	c #4B8AF7",
"P$	c #3E81F6",
"Q$	c #4168AD",
"R$	c #4767A0",
"S$	c #4C6CA2",
"T$	c #67699C",
"U$	c #9C4B7C",
"V$	c #A0507D",
"W$	c #A3557F",
"X$	c #A55A81",
"Y$	c #A85D83",
"Z$	c #AB6084",
"`$	c #AE6184",
" %	c #B05F81",
".%	c #B25C7E",
"+%	c #B45D7D",
"@%	c #B55E7D",
"#%	c #B55F7F",
"$%	c #AC95B3",
"%%	c #A6B7D6",
"&%	c #A6B8D7",
"*%	c #A6B8D8",
"=%	c #A5B8D8",
"-%	c #A2B7DD",
";%	c #92B7F6",
">%	c #89B5FF",
",%	c #85B3FF",
"'%	c #4286FC",
")%	c #3D80F6",
"!%	c #3E66AB",
"~%	c #43649F",
"{%	c #4868A1",
"]%	c #4D6DA3",
"^%	c #596EA1",
"/%	c #7F5A8C",
"(%	c #984D7E",
"_%	c #9F507D",
":%	c #A4537D",
"<%	c #A7557D",
"[%	c #A9567D",
"}%	c #AD587D",
"|%	c #AE597D",
"1%	c #B05B7E",
"2%	c #AC7697",
"3%	c #9FB4D6",
"4%	c #A0B3D6",
"5%	c #A1B4D6",
"6%	c #A0B3D7",
"7%	c #9FB3D7",
"8%	c #9CB3DC",
"9%	c #8AB2F6",
"0%	c #82B0FE",
"a%	c #7FAEFF",
"b%	c #4085FD",
"c%	c #3C65AB",
"d%	c #40629E",
"e%	c #4566A0",
"f%	c #4A6AA2",
"g%	c #596FA3",
"h%	c #756193",
"i%	c #974F80",
"j%	c #9C4E7D",
"k%	c #9E507D",
"l%	c #A4527D",
"m%	c #A6547D",
"n%	c #A8557D",
"o%	c #AA587E",
"p%	c #AC587D",
"q%	c #AA6186",
"r%	c #9F99BD",
"s%	c #9BB0D4",
"t%	c #9CB0D4",
"u%	c #9CB0D5",
"v%	c #9CB1D6",
"w%	c #9BB0D6",
"x%	c #98B0DB",
"y%	c #84AEF6",
"z%	c #3D81F7",
"A%	c #3B66AF",
"B%	c #3E609B",
"C%	c #42639E",
"D%	c #4667A1",
"E%	c #4B6CA3",
"F%	c #506FA5",
"G%	c #5772A6",
"H%	c #696D9E",
"I%	c #7A6595",
"J%	c #875F8F",
"K%	c #995582",
"L%	c #9D5784",
"M%	c #A15A85",
"N%	c #A1608A",
"O%	c #9E749D",
"P%	c #998FB8",
"Q%	c #A75880",
"R%	c #A07CA4",
"S%	c #97AAD0",
"T%	c #96ACD3",
"U%	c #97ACD4",
"V%	c #97ADD4",
"W%	c #97AED5",
"X%	c #96AED5",
"Y%	c #92ADDC",
"Z%	c #7CA9F7",
"`%	c #4A8AF8",
" &	c #3D81F5",
".&	c #3C66AF",
"+&	c #3E62A1",
"@&	c #42649F",
"#&	c #4768A2",
"$&	c #4C6CA3",
"%&	c #5574A8",
"&&	c #5978AA",
"*&	c #5C7CAD",
"=&	c #6082B1",
"-&	c #7899C7",
";&	c #8BAAD8",
">&	c #8CABD7",
",&	c #8EAAD6",
"'&	c #8EADD8",
")&	c #9E6A94",
"!&	c #939FC9",
"~&	c #91AAD4",
"{&	c #91AAD3",
"]&	c #92AAD3",
"^&	c #91A9D4",
"/&	c #8EA9D9",
"(&	c #86A9E4",
"_&	c #78A6F5",
":&	c #7CA9F4",
"<&	c #3D7FEE",
"[&	c #3D74D2",
"}&	c #3F65A7",
"|&	c #44649E",
"1&	c #4869A2",
"2&	c #4C6CA4",
"3&	c #5171A7",
"4&	c #5674A8",
"5&	c #5A77AA",
"6&	c #5F7CAD",
"7&	c #7692C2",
"8&	c #88A4D4",
"9&	c #8AA4D3",
"0&	c #8BA5D3",
"a&	c #8CA7D5",
"b&	c #928EBA",
"c&	c #8DA8D4",
"d&	c #8EA7D3",
"e&	c #8FA7D1",
"f&	c #8AA7D9",
"g&	c #82A6E3",
"h&	c #76A4F3",
"i&	c #6EA2FC",
"j&	c #6DA2FC",
"k&	c #8CADE7",
"l&	c #6F9BE6",
"m&	c #3D84FB",
"n&	c #3D78DD",
"o&	c #4070C3",
"p&	c #4869A4",
"q&	c #4E6DA6",
"r&	c #5271A8",
"s&	c #5674AA",
"t&	c #5B78AC",
"u&	c #728FC2",
"v&	c #84A1D4",
"w&	c #85A2D3",
"x&	c #87A3D3",
"y&	c #88A3D3",
"z&	c #89A3D2",
"A&	c #8AA4D2",
"B&	c #8AA5D3",
"C&	c #7DA3E4",
"D&	c #71A1F4",
"E&	c #6BA0FB",
"F&	c #679EFF",
"G&	c #659EFF",
"H&	c #6A99E8",
"I&	c #4387FC",
"J&	c #3D85FF",
"K&	c #3D83FB",
"L&	c #3F74CF",
"M&	c #436AAE",
"N&	c #4C6DA6",
"O&	c #5070A8",
"P&	c #5574AB",
"Q&	c #6D8CC2",
"R&	c #809FD4",
"S&	c #829FD3",
"T&	c #82A0D3",
"U&	c #83A0D3",
"V&	c #85A1D3",
"W&	c #81A0D7",
"X&	c #799FE1",
"Y&	c #649BFC",
"Z&	c #629BFE",
"`&	c #619BFF",
" *	c #5F9AFF",
".*	c #5F9AFE",
"+*	c #6A9DF7",
"@*	c #5B92F0",
"#*	c #3D84FE",
"$*	c #3E80F2",
"%*	c #4273C7",
"&*	c #476CAE",
"**	c #4C6DA7",
"=*	c #5171AA",
"-*	c #698AC1",
";*	c #7D9CD4",
">*	c #7E9DD3",
",*	c #7F9DD3",
"'*	c #809ED2",
")*	c #6C99E8",
"!*	c #6298F4",
"~*	c #5A96FE",
"{*	c #5A96FF",
"]*	c #5996FF",
"^*	c #5995FF",
"/*	c #5C96FC",
"(*	c #5790F2",
"_*	c #4788FA",
":*	c #3D84FC",
"<*	c #4179D7",
"[*	c #466DB1",
"}*	c #4C6EA8",
"|*	c #6586C1",
"1*	c #7A9AD3",
"2*	c #789AD4",
"3*	c #6C96E1",
"4*	c #5992F2",
"5*	c #508FFF",
"6*	c #5090FF",
"7*	c #5190FF",
"8*	c #5291FF",
"9*	c #5894FA",
"0*	c #5994FB",
"a*	c #5B91F0",
"b*	c #4D8BF7",
"c*	c #3C86FF",
"d*	c #4575C6",
"e*	c #5D83C5",
"f*	c #6191E3",
"g*	c #4B8AF5",
"h*	c #4087FF",
"i*	c #468AFF",
"j*	c #478AFF",
"k*	c #498CFE",
"l*	c #5C94F4",
"m*	c #6B9BEC",
"n*	c #80A3DD",
"o*	c #6496EC",
"p*	c #6797EA",
"q*	c #3E83F8",
"r*	c #4683EC",
"s*	c #3E84FC",
"t*	c #3C84FF",
"u*	c #3E85FF",
"v*	c #6697EB",
"w*	c #6898EB",
"x*	c #749EE5",
"y*	c #89A6DB",
"z*	c #8BA8D7",
"A*	c #8AA7D8",
"B*	c #89A7D9",
"                                                                                ",
"                                                                                ",
"                                                                                ",
"                                                                                ",
"                              . + @ # $ % & * = -                               ",
"                        ; > , ' ) ! ~ { ] ^ / ( _ : < [                         ",
"                    } | 1 2 3 4 @ 5 6 7 8 9 0 a b c d e f g                     ",
"                  h i j k l m n o p q r s t u v w x y z A B C                   ",
"                D E F G 2 H I J K L M N O P Q R S T U V W X Y Z                 ",
"              `  ...+.@.#.$.%.&.*.=.-.;.>.,.'.).!.~.{.].^./.(._.:.              ",
"            <.[.}.|.1.2.3.4.5.6.7.8.9.0.a.b.c.d.e.f.g.h.i.j.k.l.m.n.            ",
"            o.p.q.r.s.t.u.v.w.x.y.z.9.A.B.C.D.E.F.G.H.I.J.K.L.M.N.O.            ",
"            P.Q.R.S.T.U.V.W.X.Y.Z.`.9. +.+++@+#+$+%+&+*+=+-+;+>+,+'+            ",
"          )+!+~+{+]+^+/+V.(+_+:+<+[+}+|+.+1+2+3+4+5+6+7+8+9+0+a+n.b+c+          ",
"          d+e+f+g+h+^+i+j+k+l+m+n+o+p+q+r+s+t+u+v+w+x+y+z+A+B+C+D+E+F+          ",
"        G+H+I+J+K+L+M+N+O+P+Q+R+S+T+U+V+W+.+X+Y+Z+`+ @.@+@@@#@$@%@&@*@=@        ",
"        -@;@>@,@'@)@!@~@{@]@^@/@(@_@:@p+<@r+[@}@|@1@2@3@4@5@6@7@8@9@0@a@        ",
"      b@c@d@e@f@g@h@i@j@k@l@m@n@o@p@q@r@s@t@u@v@w@x@y@z@A@B@C@D@E@F@G@H@I@      ",
"      J@K@L@M@N@O@P@Q@R@S@T@U@V@W@X@_@Y@Z@`@ #.#+#@###$#%#&#*#=#-#;#>#,#'#      ",
"      )#K@!#~#{#]#^#/#(#_#:#<#[#}#|#1#2#3#4#5#6#7#8#9#0#a#b#c#d#e#f#g#$ h#      ",
"      )#i#j#k#l#m#n#o#p#q#r#T@s#t#u#v#w#x#y#z#A#5#B#C#D#D#E#F#G#H#I#J#K#L#      ",
"      )#i#M#N#O#P#Q#R#S#T#U#V#W#U@X#Y#Z#`# $.$+$@$#$$$%$&$&$*$=$-$;$>$,$'$      ",
"      )$!$~${$]$^$/$($_$:$<$[$}$|$1$2$3$4$5$6$7$8$9$0$a$b$c$d$e$f$g$h$i$j$      ",
"        k$l$m$n$o$p$q$r$h@s$t$u$v$w$x$y$z$A$B$C$D$E$F$G$H$H$I$J$K$L$M$N$        ",
"        O$l$P$Q$R$S$/$T$U$)@V$^+W$X$Y$Z$`$ %.%+%@%#%$%%%&%&%*%=%-%;%>%,%        ",
"        '%l$)%!%~%{%]%^%/%(%)@_%^+:%<%[%V.}%|%W.1%2%3%4%5%5%6%7%8%9%0%a%        ",
"          b%)%c%d%e%f%P#g%h%i%j%k%M+l%m%n%[%o%p%q%r%s%t%u%v%w%w%x%y%G           ",
"            z%A%B%C%D%E%F%G%H%I%J%K%L%M%N%O%P%Q%R%S%T%U%V%W%X%W%Y%Z%            ",
"            `% &.&+&@&#&$&F%%&&&*&=&-&;&>&,&'&)&!&~&{&{&]&^&/&(&_&:&            ",
"            J@i#<&[&}&|&1&2&3&4&5&6&7&8&9&0&a&b&c&d&d&e&f&g&h&i&j&k&            ",
"              l&l$m&n&o&|&p&q&r&s&t&u&v&w&x&y&z&9&A&B&C&D&E&F&G&h&              ",
"                H&I&J&K&L&M&1&N&O&P&Q&R&S&T&U&V&W&X&Y&Z&`& *.*+*                ",
"                  @*'%l$#*$*%*&***=*-*;*>*,*'*)*!*~*{*{*]*^*/*                  ",
"                    (*_*l$l$:*<*[*}*|*1*2*3*4*5*6*7*8*8*9*0*                    ",
"                        a*b*'%l$c*d*e*f*g*h*!#i*j*k*l*m*                        ",
"                            n*o*p*q*r*s*t*~$u*v*w*x*y*                          ",
"                                  z*A*A*A*A*B*                                  ",
"                                                                                ",
"                                                                                ",
"                                                                                "};
