/* XPM */
static char * upfolder_xpm[] = {
"52 45 62 1",
" 	c None",
".	c #242424",
"+	c #1E1E1E",
"@	c #B8B8B8",
"#	c #BEBEBE",
"$	c #CBCBCB",
"%	c #C7C7C7",
"&	c #9E9E9E",
"*	c #AEAEAE",
"=	c #BFBFBF",
"-	c #C3C3C3",
";	c #8B8B8B",
">	c #A4A4A4",
",	c #BABABA",
"'	c #AFAFAF",
")	c #B3B3B3",
"!	c #828282",
"~	c #B4B4B4",
"{	c #C2C2C2",
"]	c #9F9F9F",
"^	c #000000",
"/	c #959595",
"(	c #E7E7E7",
"_	c #8C8C8C",
":	c #8E8E8E",
"<	c #858585",
"[	c #6A6A6A",
"}	c #8D8D8D",
"|	c #4E4E4E",
"1	c #757575",
"2	c #3A3A3A",
"3	c #646464",
"4	c #929292",
"5	c #323232",
"6	c #5B5B5B",
"7	c #2E2E2E",
"8	c #585858",
"9	c #888888",
"0	c #2D2D2D",
"a	c #565656",
"b	c #BBBBBB",
"c	c #878787",
"d	c #000080",
"e	c #2C2C2C",
"f	c #B7B7B7",
"g	c #A8A8A8",
"h	c #A7A7A7",
"i	c #A3A3A3",
"j	c #979797",
"k	c #575757",
"l	c #313131",
"m	c #5A5A5A",
"n	c #898989",
"o	c #616161",
"p	c #989898",
"q	c #717171",
"r	c #4F4F4F",
"s	c #303030",
"t	c #A9A9A9",
"u	c #BCBCBC",
"v	c #CCCCCC",
"w	c #D5D5D5",
"                                                    ",
"                                                    ",
"      .+..+..+..+..+@#                              ",
"     .$%$%$%$%$%$%$%.&*#                            ",
"    .==--=-=--=--=--=+;>,                           ",
"   .')))')')))))'))')).!&~{                         ",
"  .]]]]]]]]]]]]]]]]]]]]^^^^^^^^^^^^^^^^^^^^^^^      ",
"  ^///////////////////^(((((((((((((((((((((((.&    ",
"  ^__________________^($%$%$%$%$%$%$%%%%%%%%%-%^:   ",
"  ^<<<<<<<<<<<<<<<<<^(%$$%$%$%%%%%%%%$-$%$-$-%-^[}  ",
"  ^<^^^^^^^^^^^^^^^^($%%%%%%%$%$%$%-%-%--%%-%-%^|1& ",
"  ^^((((((((((((((((%%%$%$%$%%%--%-%-%-%-%-----^234 ",
"  ^(%$%$%%%%%%%%%%%-%$-%---%--%-%-%------------^56; ",
"  ^%%%%%%$-$%$-$-%-%-%%-%%-%-----------=-=-====^789 ",
"  ^%$%$-%-%--%%-%-%-%-----------=-=-=-=======-=^0a9 ",
"  ^-%--%-%-%-%----------=--=-==-==========b==b=^0ac ",
"  ^%-%%----------=--=-==-d==========b==bb=b=bbb^eac ",
"  ^--------=-=-=-=======ddd==b=b=bb=bbbbbbbbfbf^eac ",
"  ^--=-=-========-====bddddd=bbbbbbbfbfbfffffff^eac ",
"  ^-============b=b=bbdddddddbbfbfbffffffbfffff^eac ",
"  ^=====b==bbbb=bbbbbdddddddddffffffffff)ff))f)^eac ",
"  ^=b=bb=bbb=bbbfbffdddddddddddfff)f)f))f)))')'^eac ",
"  ^bbbbbfbfbfffffffddddddddddddd)f)))')')''''''^eac ",
"  ^fbfbffffffbfbffddddddddddddddd')''''''''''''^eac ",
"  ^fffffffff)ff)fddddddddddddddddd'''''''''''g'^eac ",
"  ^fff)f)f))f))'))'')'ddddddd''''''''g'g'gggggg^eac ",
"  ^)f))))')')'''''''''ddddddd'g'g'gg'gggggggggg^eac ",
"  ^)'')'''''''''''''''ddddddd'ggggggggghgghghhh^eac ",
"  ^''''''''''''''g'g'gdddddddggghgghghhhhhhhhhh^eac ",
"  ^''''''g'g'gggggggggdddddddghhhhhhhhhhhhhihih^eac ",
"  ^'g'gg'gggggggggghghdddddddhhhhhhhihih]h]h]]]^eac ",
"  ^gggggggghgghghhhhhhdddddddhhihi]h]]i]]]]]]]]^eac ",
"  ^ghgghghhhhhhhhhhhhidddddddh]]]]]]]]]]]]]]]]]^eac ",
"  ^hhhhhhhhhhhhihihi]hddddddd]]]]]]]]]]]]]]]]]j^eac ",
"  ^hhhhhihih]h]h]]]]]]]]]]]]]]]]]]]]]]j]jjjjjjj^eac ",
"  ^ihi]h]]i]]]]]]]]]]]]]]]]]]]]j]jjjjjjjjj]/jjj^eac ",
"  ^h]]]]]]]]]]]]]]]]]]]]]]jjjjjjjjj]/jjj/j//j//^eac ",
"  ^]]]]]]]]]]]]]]]jjjjjjjjjjjjjjj/j/j///j/j////^0a9 ",
"  ^]]]]]]]j]jjjjjj]jj]/j/j/j////j//////////////^0k9 ",
"  ^j]jjjjjjjj]jjj//j/j/j/j/j/j////////////_/__/^lmn ",
"  ^^^^^^^^^^^^^^^^^^^^^^^^^^^^^^^^^^^^^^^^^^^^^^2o: ",
"  ,pqr2s00eeeeeeeeeeeeeeeeeeeeeeeeeeeeeeeeee00s2rqp ",
"  -t;qomkkaaaaaaaaaaaaaaaaaaaaaaaaaaaaaaaaaakkmoq;  ",
"   utp:n99cccccccccccccccccccccccccccccccccc99n:p  v",
"    -                                             vw"};
